<?xml version="1.0" standalone="no"?>
<!DOCTYPE svg PUBLIC "-//W3C//DTD SVG 1.1//EN" "http://www.w3.org/Graphics/SVG/1.1/DTD/svg11.dtd" >
<svg>
<metadata>
Created by FontForge 20120731 at Thu Nov 21 15:51:34 2013
 By World Wide Web Server
1995 Albert-Jan Pool, published by Fontshop International for the FontFont library.
</metadata>
<defs>
<font id="DIN-RegularExpert" horiz-adv-x="700" >
  <font-face 
    font-family="DIN-RegularExpert"
    font-weight="400"
    font-stretch="normal"
    units-per-em="1000"
    panose-1="2 0 0 0 0 0 0 0 0 0"
    ascent="800"
    descent="-200"
    x-height="466"
    cap-height="611"
    bbox="-104 -221 976 934"
    underline-thickness="51"
    underline-position="-85"
    unicode-range="U+0020-FB02"
  />
<missing-glyph horiz-adv-x="573" 
d="M413 87v538h-253v-538h253zM73 712h427v-712h-427v712z" />
    <glyph glyph-name=".notdef" horiz-adv-x="573" 
d="M413 87v538h-253v-538h253zM73 712h427v-712h-427v712z" />
    <glyph glyph-name=".null" horiz-adv-x="0" 
 />
    <glyph glyph-name="nonmarkingreturn" horiz-adv-x="249" 
 />
    <glyph glyph-name="space" unicode=" " horiz-adv-x="249" 
 />
    <glyph glyph-name="scaron" unicode="&#x161;" 
d="M347 600l-51 -51l51 -51l-102 -103l51 -51l103 103l51 -52l-103 -102l52 -51l153 153zM347 180l-215 215l215 216l216 -216z" />
    <glyph glyph-name="Yacute" unicode="&#xdd;" 
d="M347 600l-51 -51l51 -51l-102 -103l51 -51l103 103l51 -52l-103 -102l52 -51l153 153zM347 180l-215 215l215 216l216 -216z" />
    <glyph glyph-name="yacute" unicode="&#xfd;" 
d="M347 600l-51 -51l51 -51l-102 -103l51 -51l103 103l51 -52l-103 -102l52 -51l153 153zM347 180l-215 215l215 216l216 -216z" />
    <glyph glyph-name="Thorn" unicode="&#xde;" 
d="M347 600l-51 -51l51 -51l-102 -103l51 -51l103 103l51 -52l-103 -102l52 -51l153 153zM347 180l-215 215l215 216l216 -216z" />
    <glyph glyph-name="thorn" unicode="&#xfe;" 
d="M347 600l-51 -51l51 -51l-102 -103l51 -51l103 103l51 -52l-103 -102l52 -51l153 153zM347 180l-215 215l215 216l216 -216z" />
    <glyph glyph-name="Zcaron" 
d="M347 600l-51 -51l51 -51l-102 -103l51 -51l103 103l51 -52l-103 -102l52 -51l153 153zM347 180l-215 215l215 216l216 -216z" />
    <glyph glyph-name="Zcaron" unicode="&#x17d;" 
d="M347 600l-51 -51l51 -51l-102 -103l51 -51l103 103l51 -52l-103 -102l52 -51l153 153zM347 180l-215 215l215 216l216 -216z" />
    <glyph glyph-name="zcaron" 
d="M347 600l-51 -51l51 -51l-102 -103l51 -51l103 103l51 -52l-103 -102l52 -51l153 153zM347 180l-215 215l215 216l216 -216z" />
    <glyph glyph-name="zcaron" unicode="&#x17e;" 
d="M347 600l-51 -51l51 -51l-102 -103l51 -51l103 103l51 -52l-103 -102l52 -51l153 153zM347 180l-215 215l215 216l216 -216z" />
    <glyph glyph-name="onehalf" unicode="&#xbd;" 
d="M347 600l-51 -51l51 -51l-102 -103l51 -51l103 103l51 -52l-103 -102l52 -51l153 153zM347 180l-215 215l215 216l216 -216z" />
    <glyph glyph-name="onequarter" unicode="&#xbc;" 
d="M347 600l-51 -51l51 -51l-102 -103l51 -51l103 103l51 -52l-103 -102l52 -51l153 153zM347 180l-215 215l215 216l216 -216z" />
    <glyph glyph-name="onesuperior" unicode="&#xb9;" 
d="M347 600l-51 -51l51 -51l-102 -103l51 -51l103 103l51 -52l-103 -102l52 -51l153 153zM347 180l-215 215l215 216l216 -216z" />
    <glyph glyph-name="threequarters" unicode="&#xbe;" 
d="M347 600l-51 -51l51 -51l-102 -103l51 -51l103 103l51 -52l-103 -102l52 -51l153 153zM347 180l-215 215l215 216l216 -216z" />
    <glyph glyph-name="threesuperior" unicode="&#xb3;" 
d="M347 600l-51 -51l51 -51l-102 -103l51 -51l103 103l51 -52l-103 -102l52 -51l153 153zM347 180l-215 215l215 216l216 -216z" />
    <glyph glyph-name="twosuperior" unicode="&#xb2;" 
d="M347 600l-51 -51l51 -51l-102 -103l51 -51l103 103l51 -52l-103 -102l52 -51l153 153zM347 180l-215 215l215 216l216 -216z" />
    <glyph glyph-name="brokenbar" unicode="&#xa6;" 
d="M347 600l-51 -51l51 -51l-102 -103l51 -51l103 103l51 -52l-103 -102l52 -51l153 153zM347 180l-215 215l215 216l216 -216z" />
    <glyph glyph-name="multiply" unicode="&#xd7;" 
d="M347 600l-51 -51l51 -51l-102 -103l51 -51l103 103l51 -52l-103 -102l52 -51l153 153zM347 180l-215 215l215 216l216 -216z" />
    <glyph glyph-name="Scaron" unicode="&#x160;" 
d="M347 600l-51 -51l51 -51l-102 -103l51 -51l103 103l51 -52l-103 -102l52 -51l153 153zM347 180l-215 215l215 216l216 -216z" />
    <glyph glyph-name="percent" unicode="%" 
d="M347 600l-51 -51l51 -51l-102 -103l51 -51l103 103l51 -52l-103 -102l52 -51l153 153zM347 180l-215 215l215 216l216 -216z" />
    <glyph glyph-name="quotesingle" unicode="'" 
d="M347 600l-51 -51l51 -51l-102 -103l51 -51l103 103l51 -52l-103 -102l52 -51l153 153zM347 180l-215 215l215 216l216 -216z" />
    <glyph glyph-name="parenleft" unicode="(" 
d="M347 600l-51 -51l51 -51l-102 -103l51 -51l103 103l51 -52l-103 -102l52 -51l153 153zM347 180l-215 215l215 216l216 -216z" />
    <glyph glyph-name="parenright" unicode=")" 
d="M347 600l-51 -51l51 -51l-102 -103l51 -51l103 103l51 -52l-103 -102l52 -51l153 153zM347 180l-215 215l215 216l216 -216z" />
    <glyph glyph-name="asterisk" unicode="*" 
d="M347 600l-51 -51l51 -51l-102 -103l51 -51l103 103l51 -52l-103 -102l52 -51l153 153zM347 180l-215 215l215 216l216 -216z" />
    <glyph glyph-name="plus" unicode="+" 
d="M347 600l-51 -51l51 -51l-102 -103l51 -51l103 103l51 -52l-103 -102l52 -51l153 153zM347 180l-215 215l215 216l216 -216z" />
    <glyph glyph-name="seven" unicode="7" 
d="M347 600l-51 -51l51 -51l-102 -103l51 -51l103 103l51 -52l-103 -102l52 -51l153 153zM347 180l-215 215l215 216l216 -216z" />
    <glyph glyph-name="question" unicode="?" 
d="M347 600l-51 -51l51 -51l-102 -103l51 -51l103 103l51 -52l-103 -102l52 -51l153 153zM347 180l-215 215l215 216l216 -216z" />
    <glyph glyph-name="at" unicode="@" 
d="M347 600l-51 -51l51 -51l-102 -103l51 -51l103 103l51 -52l-103 -102l52 -51l153 153zM347 180l-215 215l215 216l216 -216z" />
    <glyph glyph-name="eight" unicode="8" horiz-adv-x="808" 
d="M671 266q0 42 -25.5 67.5t-66.5 25.5q-37 0 -66 -25.5t-64 -67.5q35 -42 64 -67.5t66 -25.5q41 0 66.5 25.5t25.5 67.5zM358 266q-35 42 -63.5 68t-65.5 26q-41 0 -67 -26t-26 -68t26 -67.5t67 -25.5q37 0 65.5 25.5t63.5 67.5zM740 267q0 -34 -11 -63t-32 -50.5
t-50 -33.5t-65 -12q-26 0 -49 6t-44 19t-42 32.5t-43 46.5q-44 -54 -85 -79.5t-92 -25.5q-36 0 -65.5 12.5t-50.5 34t-32.5 50.5t-11.5 63t11.5 63t32.5 50.5t50.5 34t65.5 12.5q50 0 91 -26t86 -80q45 54 85 80t93 26q36 0 65 -12.5t50 -34t32 -50.5t11 -63z" />
    <glyph glyph-name="ampersand" unicode="&#x26;" horiz-adv-x="551" 
d="M57 -220v65l202 438l-201 413v64h441v-68h-353l180 -375v-69l-182 -400h356v-68h-443z" />
    <glyph glyph-name="M" unicode="M" horiz-adv-x="696" 
d="M517 -220v912h-338v-912h-76v980h490v-980h-76z" />
    <glyph glyph-name="m" unicode="m" horiz-adv-x="591" 
d="M421 0v427h-250v-427h-70v492h389v-492h-69z" />
    <glyph glyph-name="dollar" unicode="$" horiz-adv-x="372" 
d="M296 653q-37 0 -55 -20t-18 -57v-654q0 -64 -35.5 -102t-100.5 -38h-50v62h39q37 0 55 20t18 57v654q0 64 35.5 102t100.5 38h49v-62h-38z" />
    <glyph glyph-name="O" unicode="O" horiz-adv-x="650" 
d="M379 0v64q30 14 52.5 31t39.5 45t21.5 79t4.5 135q0 56 -1.5 95t-6.5 66.5t-15 47t-26 36.5q-24 24 -56 37.5t-67 13.5t-67 -13.5t-56 -37.5q-17 -17 -26.5 -36.5t-15 -47t-7 -66.5t-1.5 -95q0 -84 5 -135t22 -79t39.5 -45t52.5 -31v-64h-195v67h82q-20 17 -33 33t-22 34
q-11 21 -16.5 47t-8 54.5t-2.5 58.5v62q0 57 1 99.5t7.5 76t20 60.5t38.5 52q74 74 182 74t182 -74q25 -25 38.5 -52t20 -60.5t7.5 -76t1 -99.5v-62q0 -30 -2.5 -58.5t-8 -54.5t-16.5 -47q-9 -18 -22.5 -34t-33.5 -33h83v-67h-195z" />
    <glyph glyph-name="V" unicode="V" horiz-adv-x="562" 
d="M443 644l-211 -644h-61l-163 492h79l115 -356l184 576h146v-68h-89z" />
    <glyph glyph-name="numbersign" unicode="#" horiz-adv-x="539" 
d="M490 366q-21 -21 -37.5 -34.5t-31 -21t-29 -10t-31.5 -2.5q-26 0 -51.5 9.5t-54.5 22.5q-21 10 -39.5 16.5t-38.5 6.5q-11 0 -19.5 -1.5t-18 -6t-20.5 -13t-26 -23.5l-44 44q21 21 37.5 34.5t31 21t29 10.5t31.5 3q26 0 51 -9.5t54 -22.5q21 -10 39.5 -16.5t38.5 -6.5
q10 0 19 1.5t18.5 6t20.5 13t26 23.5zM490 189q-21 -21 -37.5 -34.5t-31 -21t-29 -10t-31.5 -2.5q-26 0 -51.5 9t-54.5 22q-21 10 -39 17t-38 7q-11 0 -19.5 -1.5t-18 -6.5t-20.5 -13.5t-26 -23.5l-45 45q21 21 37.5 34t31 20.5t29 10.5t31.5 3q26 0 51.5 -9t54.5 -22
q21 -10 39 -17t38 -7q10 0 19 1.5t18.5 6.5t20.5 13.5t26 23.5z" />
    <glyph glyph-name="A" unicode="A" horiz-adv-x="603" 
d="M302 603l-194 -537h387zM8 0l262 712h63l261 -712h-586z" />
    <glyph glyph-name="zero" unicode="0" horiz-adv-x="649" 
d="M325 605l-177 -253l177 -255l176 255zM325 -12l-258 364l258 364l257 -364z" />
    <glyph glyph-name="N" unicode="N" 
d="M347 600l-51 -51l51 -51l-102 -103l51 -51l103 103l51 -52l-103 -102l52 -51l153 153zM347 180l-215 215l215 216l216 -216z" />
    <glyph glyph-name="equal" unicode="=" horiz-adv-x="537" 
d="M201 151l-103 -111l-46 40l67 71h-67v66h126l99 103h-225v67h284l104 111l45 -41l-67 -70h67v-67h-126l-98 -103h224v-66h-284z" />
    <glyph glyph-name="slash" unicode="/" horiz-adv-x="185" 
d="M-44 0h-60l333 712h60z" />
    <glyph glyph-name="f" unicode="f" horiz-adv-x="562" 
d="M394 639v74h82v-74h-82zM399 0v489h72v-489h-72zM177 434v-434h-72v434h-63v55h63v93q0 27 7.5 51t23.5 42t39 28.5t55 10.5h52v-62h-39q-35 0 -50.5 -19t-15.5 -53v-91h105v-55h-105z" />
    <glyph glyph-name="F" unicode="F" horiz-adv-x="602" 
d="M521 0q-65 0 -95.5 37.5t-30.5 93.5v581h72v-578q0 -36 14 -54t52 -18h40v-62h-52zM177 434v-434h-72v434h-63v55h63v93q0 27 7.5 51t23.5 42t39 28.5t55 10.5h52v-62h-39q-35 0 -50.5 -19t-15.5 -53v-91h105v-55h-105z" />
    <glyph glyph-name="i" unicode="i" horiz-adv-x="253" 
d="M90 0v492h72v-492h-72z" />
    <glyph glyph-name="colon" unicode=":" horiz-adv-x="500" 
d="M415 727q-12 -139 -163 -139q-155 0 -167 139h58q5 -39 34 -60.5t75 -21.5t74.5 21.5t33.5 60.5h55z" />
    <glyph glyph-name="period" unicode="." horiz-adv-x="500" 
d="M210 634v74h80v-74h-80z" />
    <glyph glyph-name="comma" unicode="," horiz-adv-x="500" 
d="M319 687q0 29 -20 48.5t-49 19.5t-49 -19.5t-20 -48.5t20 -49t49 -20t49 20t20 49zM368 687q0 -24 -9.5 -46t-25.5 -38t-37.5 -25.5t-45.5 -9.5t-45.5 9.5t-37.5 25.5t-25.5 38t-9.5 46t9.5 45.5t25.5 37.5t37.5 25.5t45.5 9.5t45.5 -9t37.5 -25t25.5 -37.5t9.5 -46.5z
" />
    <glyph glyph-name="quotedbl" unicode="&#x22;" horiz-adv-x="500" 
d="M338 594h-65l89 153h85zM176 594h-66l89 153h85z" />
    <glyph glyph-name="c" unicode="c" horiz-adv-x="500" 
d="M245 -216l-59 149h66l71 -149h-78z" />
    <glyph glyph-name="semicolon" unicode=";" horiz-adv-x="500" 
d="M284 594h-68l-125 153h69l90 -105l90 105h69z" />
    <glyph glyph-name="semicolon" unicode="&#x37e;" horiz-adv-x="500" 
d="M284 594h-68l-125 153h69l90 -105l90 105h69z" />
    <glyph glyph-name="bracketleft" unicode="[" 
d="M347 600l-51 -51l51 -51l-102 -103l51 -51l103 103l51 -52l-103 -102l52 -51l153 153zM347 180l-215 215l215 216l216 -216z" />
    <glyph glyph-name="backslash" unicode="\" 
d="M347 600l-51 -51l51 -51l-102 -103l51 -51l103 103l51 -52l-103 -102l52 -51l153 153zM347 180l-215 215l215 216l216 -216z" />
    <glyph glyph-name="bracketright" unicode="]" 
d="M347 600l-51 -51l51 -51l-102 -103l51 -51l103 103l51 -52l-103 -102l52 -51l153 153zM347 180l-215 215l215 216l216 -216z" />
    <glyph glyph-name="asciicircum" unicode="^" 
d="M347 600l-51 -51l51 -51l-102 -103l51 -51l103 103l51 -52l-103 -102l52 -51l153 153zM347 180l-215 215l215 216l216 -216z" />
    <glyph glyph-name="grave" unicode="`" 
d="M347 600l-51 -51l51 -51l-102 -103l51 -51l103 103l51 -52l-103 -102l52 -51l153 153zM347 180l-215 215l215 216l216 -216z" />
    <glyph glyph-name="D" unicode="D" horiz-adv-x="687" 
d="M535 352q0 50 -1 84.5t-4.5 59t-10.5 42t-20 35.5q-29 39 -64.5 55.5t-86.5 16.5h-154v-256h161v-59h-161v-263h154q106 0 156 74q11 16 17 32t9 38.5t4 55.5t1 85zM611 356q0 -61 -1.5 -100t-6 -66t-13.5 -46t-23 -39q-32 -45 -84.5 -75t-126.5 -30h-239v330h-78v59h78
v323h245q135 0 205 -107q15 -24 24 -44t13.5 -46.5t5.5 -63.5t1 -95z" />
    <glyph glyph-name="d" unicode="d" horiz-adv-x="530" 
d="M393 244q0 21 -1 42t-5 40.5t-12 37t-21 31.5q-36 36 -89 36q-52 0 -88 -36q-14 -14 -21.5 -31.5t-11.5 -37t-5 -40.5t-1 -42q0 -42 6 -82.5t33 -67.5q36 -36 88 -36q53 0 89 36q27 27 33 67.5t6 82.5zM465 244q0 -57 -11 -107t-49 -88q-25 -26 -60 -40.5t-80 -14.5
t-80 14.5t-60 40.5q-38 38 -48.5 88t-10.5 107t10.5 107t48.5 88q46 47 122 52q19 1 38.5 -0.5t36.5 -9.5l-58 99h-116v52h88l-47 82h75l47 -82h82v-52h-54l63 -111q20 -35 32.5 -62t19 -52.5t9 -51.5t2.5 -59z" />
    <glyph glyph-name="L" unicode="L" horiz-adv-x="582" 
d="M112 0v289l-73 -46v67l73 46v356h77v-308l154 98v-66l-154 -98v-270h363v-68h-440z" />
    <glyph glyph-name="l" unicode="l" horiz-adv-x="315" 
d="M226 0q-65 0 -95.5 37.5t-30.5 93.5v211l-63 -39v62l63 39v308h72v-264l81 50v-62l-81 -50v-252q0 -36 14 -54t52 -18h40v-62h-52z" />
    <glyph glyph-name="E" unicode="E" horiz-adv-x="678" 
d="M608 206q-9 -50 -31 -89.5t-54 -66.5t-73 -41.5t-89 -14.5q-107 0 -181 74q-19 19 -31 39t-19.5 43t-11 50t-4.5 60h-67v50h66v98h-66v49h67q1 31 5 57.5t11.5 49t19.5 42.5t30 38q74 74 181 74q48 0 89 -14.5t73.5 -41.5t54 -66.5t30.5 -89.5h-77q-14 66 -58.5 105
t-111.5 39q-73 0 -123 -50q-12 -13 -20.5 -26.5t-14 -30.5t-8.5 -38t-4 -48h219v-49h-221v-98h221v-50h-219q1 -29 4 -51t8 -39t13.5 -31t21.5 -27q50 -50 123 -50q67 0 112.5 39t59.5 105h75z" />
    <glyph glyph-name="S" unicode="S" horiz-adv-x="588" 
d="M323 781h-68l-125 153h69l90 -105l90 105h69zM532 196q0 -47 -17.5 -84.5t-50 -63.5t-78 -40t-100.5 -14q-80 0 -137 22t-107 72l52 52q44 -44 89 -61t105 -17q78 0 123 34.5t45 97.5q0 28 -8.5 51t-25.5 38t-35.5 21.5t-57.5 12.5l-83 13q-85 14 -131 54q-54 48 -54 133
q0 45 16 82.5t45.5 63.5t71.5 40.5t95 14.5q68 0 117 -18.5t95 -59.5l-49 -49q-33 30 -71 45.5t-95 15.5q-72 0 -111 -36t-39 -96q0 -54 32 -82q17 -14 42.5 -24t53.5 -15l78 -12q25 -4 44.5 -8.5t34.5 -10.5t27.5 -13.5t23.5 -17.5q60 -51 60 -141z" />
    <glyph glyph-name="s" unicode="s" horiz-adv-x="496" 
d="M280 594h-68l-125 153h69l90 -105l90 105h69zM445 144q0 -36 -14.5 -63.5t-41 -47t-63 -29.5t-81.5 -10q-63 0 -112 16t-90 55l48 48q29 -31 68 -44t85 -13q61 0 96 21.5t35 65.5q0 32 -19.5 50t-62.5 22l-81 7q-72 6 -109.5 38.5t-37.5 93.5q0 34 13.5 60.5t37.5 45
t57.5 28.5t72.5 10q53 0 98.5 -13t78.5 -40l-47 -47q-26 20 -59.5 29.5t-71.5 9.5q-54 0 -82 -21.5t-28 -59.5q0 -32 19.5 -50t66.5 -22l79 -7q32 -3 59 -11t46 -24t29.5 -40t10.5 -58z" />
    <glyph glyph-name="Y" unicode="Y" horiz-adv-x="514" 
d="M274 781h-66l88 153h86zM296 294v-294h-76v294l-212 418h82l168 -341l166 341h82z" />
    <glyph glyph-name="y" unicode="y" horiz-adv-x="447" 
d="M240 594h-66l88 153h86zM212 -119q-14 -39 -35 -58q-20 -19 -45 -26.5t-51 -7.5h-31v64h22q37 0 53 13.5t28 47.5l35 96l-177 482h78l135 -395l134 395h78z" />
    <glyph glyph-name="P" unicode="P" horiz-adv-x="642" 
d="M512 359q0 71 -42 106t-109 35h-182v-282h182q67 0 109 35t42 106zM588 359q0 -48 -16 -86.5t-45 -66t-69.5 -42t-89.5 -14.5h-189v-150h-76v712h76v-143h189q49 0 89.5 -15t69.5 -42t45 -66t16 -87z" />
    <glyph glyph-name="p" unicode="p" horiz-adv-x="546" 
d="M409 246q0 36 -4 70t-17 60t-37.5 42t-64.5 16t-64.5 -16t-37.5 -42t-17.5 -60t-4.5 -70t4.5 -70t17.5 -60t37.5 -42t64.5 -16t64.5 16t37.5 42t17 60t4 70zM481 246q0 -29 -2.5 -58t-9 -56.5t-18 -51.5t-30.5 -43q-20 -20 -51 -31.5t-69 -11.5q-41 0 -75 13t-64 51v-278
h-72v932h72v-277q30 38 64 50.5t75 12.5q38 0 69 -11.5t51 -31.5q19 -19 30.5 -43t18 -51.5t9 -56.5t2.5 -58z" />
    <glyph glyph-name="Z" unicode="Z" horiz-adv-x="556" 
d="M318 781h-68l-125 153h69l90 -105l90 105h69zM57 0v72l356 572h-342v68h428v-64l-359 -580h359v-68h-442z" />
    <glyph glyph-name="z" unicode="z" horiz-adv-x="459" 
d="M270 594h-68l-125 153h69l90 -105l90 105h69zM50 0v62l274 366h-259v64h342v-61l-275 -367h275v-64h-357z" />
    <glyph glyph-name="five" unicode="5" horiz-adv-x="790" 
d="M126 285v363l-83 -73v66l83 71h57v-427h-57zM221 0h-60l333 712h60zM496 0v52l165 202q12 15 17.5 28t5.5 30q0 30 -17 48.5t-48 18.5q-26 0 -45.5 -15t-19.5 -52h-58q0 54 34.5 86.5t88.5 32.5t88.5 -32t34.5 -87q0 -28 -9.5 -48t-29.5 -44l-137 -168h176v-52h-246z" />
    <glyph glyph-name="four" unicode="4" horiz-adv-x="777" 
d="M126 285v363l-83 -73v66l83 71h57v-427h-57zM233 0h-60l333 712h60zM690 64v-64h-56v64h-172v53l151 310h62l-150 -310h109v105h56v-105h47v-53h-47z" />
    <glyph glyph-name="one" unicode="1" horiz-adv-x="261" 
d="M126 285v363l-83 -73v66l83 71h57v-427h-57z" />
    <glyph glyph-name="six" unicode="6" horiz-adv-x="822" 
d="M285 0h-60l334 712h60zM735 64v-64h-56v64h-172v53l151 310h62l-151 -310h110v105h56v-105h47v-53h-47zM308 405q0 -31 -10 -54.5t-27.5 -39t-41 -23.5t-50.5 -8q-26 0 -49 7t-41 21.5t-29 37t-12 53.5h58q2 -35 23.5 -51t49.5 -16q31 0 51.5 19t20.5 54q0 34 -18.5 53.5
t-56.5 19.5h-9v50h9q35 0 51.5 18.5t16.5 49.5q0 34 -19.5 51t-46.5 17q-29 0 -47 -17t-20 -46h-57q3 54 38 84.5t86 30.5q54 0 88.5 -32.5t34.5 -86.5q0 -35 -14 -57.5t-40 -34.5q29 -12 45 -36t16 -64z" />
    <glyph glyph-name="three" unicode="3" horiz-adv-x="356" 
d="M308 405q0 -31 -10 -54.5t-27.5 -39t-41 -23.5t-50.5 -8q-26 0 -49 7t-41 21.5t-29 37t-12 53.5h58q2 -35 23.5 -51t49.5 -16q31 0 51.5 19t20.5 54q0 34 -18.5 53.5t-56.5 19.5h-9v50h9q35 0 51.5 18.5t16.5 49.5q0 34 -19.5 51t-46.5 17q-29 0 -47 -17t-20 -46h-57
q3 54 38 84.5t86 30.5q54 0 88.5 -32.5t34.5 -86.5q0 -35 -14 -57.5t-40 -34.5q29 -12 45 -36t16 -64z" />
    <glyph glyph-name="two" unicode="2" horiz-adv-x="342" 
d="M48 285v52l165 202q12 15 17.5 28t5.5 30q0 30 -17 48.5t-48 18.5q-26 0 -45.5 -15t-19.5 -52h-58q0 54 34.5 86.5t88.5 32.5t88.5 -32t34.5 -87q0 -28 -9.5 -48t-29.5 -44l-138 -168h177v-52h-246z" />
    <glyph glyph-name="exclam" unicode="!" horiz-adv-x="335" 
d="M127 -74v350h72v-350h-72zM127 436v350h72v-350h-72z" />
    <glyph glyph-name="hyphen" unicode="-" horiz-adv-x="522" 
d="M52 236v67h418v-67h-418z" />
    <glyph glyph-name="hyphen" unicode="&#xad;" horiz-adv-x="522" 
d="M52 236v67h418v-67h-418z" />
    <glyph glyph-name="x" unicode="x" horiz-adv-x="522" 
d="M412 74l-151 151l-151 -151l-45 45l151 151l-151 151l45 45l151 -152l151 152l45 -45l-152 -151l152 -151z" />
    <glyph glyph-name="w" unicode="w" horiz-adv-x="1027" 
d="M577 -142h-93l365 364h-789v70h789l-366 365l94 -1l399 -399z" />
    <glyph glyph-name="braceleft" unicode="{" 
d="M347 600l-51 -51l51 -51l-102 -103l51 -51l103 103l51 -52l-103 -102l52 -51l153 153zM347 180l-215 215l215 216l216 -216z" />
    <glyph glyph-name="bar" unicode="|" 
d="M347 600l-51 -51l51 -51l-102 -103l51 -51l103 103l51 -52l-103 -102l52 -51l153 153zM347 180l-215 215l215 216l216 -216z" />
    <glyph glyph-name="braceright" unicode="}" 
d="M347 600l-51 -51l51 -51l-102 -103l51 -51l103 103l51 -52l-103 -102l52 -51l153 153zM347 180l-215 215l215 216l216 -216z" />
    <glyph glyph-name="asciitilde" unicode="~" 
d="M347 600l-51 -51l51 -51l-102 -103l51 -51l103 103l51 -52l-103 -102l52 -51l153 153zM347 180l-215 215l215 216l216 -216z" />
    <glyph glyph-name="Adieresis" unicode="&#xc4;" 
d="M347 600l-51 -51l51 -51l-102 -103l51 -51l103 103l51 -52l-103 -102l52 -51l153 153zM347 180l-215 215l215 216l216 -216z" />
    <glyph glyph-name="Aring" unicode="&#xc5;" 
d="M347 600l-51 -51l51 -51l-102 -103l51 -51l103 103l51 -52l-103 -102l52 -51l153 153zM347 180l-215 215l215 216l216 -216z" />
    <glyph glyph-name="Ccedilla" unicode="&#xc7;" 
d="M347 600l-51 -51l51 -51l-102 -103l51 -51l103 103l51 -52l-103 -102l52 -51l153 153zM347 180l-215 215l215 216l216 -216z" />
    <glyph glyph-name="Eacute" unicode="&#xc9;" 
d="M347 600l-51 -51l51 -51l-102 -103l51 -51l103 103l51 -52l-103 -102l52 -51l153 153zM347 180l-215 215l215 216l216 -216z" />
    <glyph glyph-name="Ntilde" unicode="&#xd1;" 
d="M347 600l-51 -51l51 -51l-102 -103l51 -51l103 103l51 -52l-103 -102l52 -51l153 153zM347 180l-215 215l215 216l216 -216z" />
    <glyph glyph-name="Odieresis" unicode="&#xd6;" 
d="M347 600l-51 -51l51 -51l-102 -103l51 -51l103 103l51 -52l-103 -102l52 -51l153 153zM347 180l-215 215l215 216l216 -216z" />
    <glyph glyph-name="Udieresis" unicode="&#xdc;" 
d="M347 600l-51 -51l51 -51l-102 -103l51 -51l103 103l51 -52l-103 -102l52 -51l153 153zM347 180l-215 215l215 216l216 -216z" />
    <glyph glyph-name="aacute" unicode="&#xe1;" 
d="M347 600l-51 -51l51 -51l-102 -103l51 -51l103 103l51 -52l-103 -102l52 -51l153 153zM347 180l-215 215l215 216l216 -216z" />
    <glyph glyph-name="agrave" unicode="&#xe0;" 
d="M347 600l-51 -51l51 -51l-102 -103l51 -51l103 103l51 -52l-103 -102l52 -51l153 153zM347 180l-215 215l215 216l216 -216z" />
    <glyph glyph-name="acircumflex" unicode="&#xe2;" 
d="M347 600l-51 -51l51 -51l-102 -103l51 -51l103 103l51 -52l-103 -102l52 -51l153 153zM347 180l-215 215l215 216l216 -216z" />
    <glyph glyph-name="adieresis" unicode="&#xe4;" 
d="M347 600l-51 -51l51 -51l-102 -103l51 -51l103 103l51 -52l-103 -102l52 -51l153 153zM347 180l-215 215l215 216l216 -216z" />
    <glyph glyph-name="atilde" unicode="&#xe3;" 
d="M347 600l-51 -51l51 -51l-102 -103l51 -51l103 103l51 -52l-103 -102l52 -51l153 153zM347 180l-215 215l215 216l216 -216z" />
    <glyph glyph-name="aring" unicode="&#xe5;" 
d="M347 600l-51 -51l51 -51l-102 -103l51 -51l103 103l51 -52l-103 -102l52 -51l153 153zM347 180l-215 215l215 216l216 -216z" />
    <glyph glyph-name="ccedilla" unicode="&#xe7;" 
d="M347 600l-51 -51l51 -51l-102 -103l51 -51l103 103l51 -52l-103 -102l52 -51l153 153zM347 180l-215 215l215 216l216 -216z" />
    <glyph glyph-name="eacute" unicode="&#xe9;" 
d="M347 600l-51 -51l51 -51l-102 -103l51 -51l103 103l51 -52l-103 -102l52 -51l153 153zM347 180l-215 215l215 216l216 -216z" />
    <glyph glyph-name="egrave" unicode="&#xe8;" 
d="M347 600l-51 -51l51 -51l-102 -103l51 -51l103 103l51 -52l-103 -102l52 -51l153 153zM347 180l-215 215l215 216l216 -216z" />
    <glyph glyph-name="ecircumflex" unicode="&#xea;" 
d="M347 600l-51 -51l51 -51l-102 -103l51 -51l103 103l51 -52l-103 -102l52 -51l153 153zM347 180l-215 215l215 216l216 -216z" />
    <glyph glyph-name="edieresis" unicode="&#xeb;" 
d="M347 600l-51 -51l51 -51l-102 -103l51 -51l103 103l51 -52l-103 -102l52 -51l153 153zM347 180l-215 215l215 216l216 -216z" />
    <glyph glyph-name="iacute" unicode="&#xed;" 
d="M347 600l-51 -51l51 -51l-102 -103l51 -51l103 103l51 -52l-103 -102l52 -51l153 153zM347 180l-215 215l215 216l216 -216z" />
    <glyph glyph-name="igrave" unicode="&#xec;" 
d="M347 600l-51 -51l51 -51l-102 -103l51 -51l103 103l51 -52l-103 -102l52 -51l153 153zM347 180l-215 215l215 216l216 -216z" />
    <glyph glyph-name="icircumflex" unicode="&#xee;" 
d="M347 600l-51 -51l51 -51l-102 -103l51 -51l103 103l51 -52l-103 -102l52 -51l153 153zM347 180l-215 215l215 216l216 -216z" />
    <glyph glyph-name="idieresis" unicode="&#xef;" 
d="M347 600l-51 -51l51 -51l-102 -103l51 -51l103 103l51 -52l-103 -102l52 -51l153 153zM347 180l-215 215l215 216l216 -216z" />
    <glyph glyph-name="ntilde" unicode="&#xf1;" 
d="M347 600l-51 -51l51 -51l-102 -103l51 -51l103 103l51 -52l-103 -102l52 -51l153 153zM347 180l-215 215l215 216l216 -216z" />
    <glyph glyph-name="oacute" unicode="&#xf3;" 
d="M347 600l-51 -51l51 -51l-102 -103l51 -51l103 103l51 -52l-103 -102l52 -51l153 153zM347 180l-215 215l215 216l216 -216z" />
    <glyph glyph-name="ograve" unicode="&#xf2;" 
d="M347 600l-51 -51l51 -51l-102 -103l51 -51l103 103l51 -52l-103 -102l52 -51l153 153zM347 180l-215 215l215 216l216 -216z" />
    <glyph glyph-name="ocircumflex" unicode="&#xf4;" 
d="M347 600l-51 -51l51 -51l-102 -103l51 -51l103 103l51 -52l-103 -102l52 -51l153 153zM347 180l-215 215l215 216l216 -216z" />
    <glyph glyph-name="odieresis" unicode="&#xf6;" 
d="M347 600l-51 -51l51 -51l-102 -103l51 -51l103 103l51 -52l-103 -102l52 -51l153 153zM347 180l-215 215l215 216l216 -216z" />
    <glyph glyph-name="otilde" unicode="&#xf5;" 
d="M347 600l-51 -51l51 -51l-102 -103l51 -51l103 103l51 -52l-103 -102l52 -51l153 153zM347 180l-215 215l215 216l216 -216z" />
    <glyph glyph-name="uacute" unicode="&#xfa;" 
d="M347 600l-51 -51l51 -51l-102 -103l51 -51l103 103l51 -52l-103 -102l52 -51l153 153zM347 180l-215 215l215 216l216 -216z" />
    <glyph glyph-name="ugrave" unicode="&#xf9;" 
d="M347 600l-51 -51l51 -51l-102 -103l51 -51l103 103l51 -52l-103 -102l52 -51l153 153zM347 180l-215 215l215 216l216 -216z" />
    <glyph glyph-name="ucircumflex" unicode="&#xfb;" 
d="M347 600l-51 -51l51 -51l-102 -103l51 -51l103 103l51 -52l-103 -102l52 -51l153 153zM347 180l-215 215l215 216l216 -216z" />
    <glyph glyph-name="udieresis" unicode="&#xfc;" 
d="M347 600l-51 -51l51 -51l-102 -103l51 -51l103 103l51 -52l-103 -102l52 -51l153 153zM347 180l-215 215l215 216l216 -216z" />
    <glyph glyph-name="dagger" unicode="&#x2020;" 
d="M347 600l-51 -51l51 -51l-102 -103l51 -51l103 103l51 -52l-103 -102l52 -51l153 153zM347 180l-215 215l215 216l216 -216z" />
    <glyph glyph-name="degree" unicode="&#xb0;" 
d="M347 600l-51 -51l51 -51l-102 -103l51 -51l103 103l51 -52l-103 -102l52 -51l153 153zM347 180l-215 215l215 216l216 -216z" />
    <glyph glyph-name="cent" unicode="&#xa2;" 
d="M347 600l-51 -51l51 -51l-102 -103l51 -51l103 103l51 -52l-103 -102l52 -51l153 153zM347 180l-215 215l215 216l216 -216z" />
    <glyph glyph-name="sterling" unicode="&#xa3;" 
d="M347 600l-51 -51l51 -51l-102 -103l51 -51l103 103l51 -52l-103 -102l52 -51l153 153zM347 180l-215 215l215 216l216 -216z" />
    <glyph glyph-name="section" unicode="&#xa7;" 
d="M347 600l-51 -51l51 -51l-102 -103l51 -51l103 103l51 -52l-103 -102l52 -51l153 153zM347 180l-215 215l215 216l216 -216z" />
    <glyph glyph-name="bullet" unicode="&#x2022;" horiz-adv-x="532" 
d="M429 334q0 -34 -13 -63.5t-35 -51.5t-51.5 -35t-63.5 -13t-63.5 13t-51.5 35t-35 51.5t-13 63.5t13 63.5t35 51.5t51.5 35t63.5 13t63.5 -13t51.5 -35t35 -51.5t13 -63.5z" />
    <glyph glyph-name="paragraph" unicode="&#xb6;" horiz-adv-x="603" 
d="M428 -220v864h-117v-864h-72v546q-45 0 -81.5 16t-62 43t-39.5 61.5t-14 71.5q0 40 14.5 75.5t42.5 61.5t68.5 41.5t91.5 15.5h241v-932h-72z" />
    <glyph glyph-name="germandbls" unicode="&#xdf;" 
d="M347 600l-51 -51l51 -51l-102 -103l51 -51l103 103l51 -52l-103 -102l52 -51l153 153zM347 180l-215 215l215 216l216 -216z" />
    <glyph glyph-name="registered" unicode="&#xae;" 
d="M347 600l-51 -51l51 -51l-102 -103l51 -51l103 103l51 -52l-103 -102l52 -51l153 153zM347 180l-215 215l215 216l216 -216z" />
    <glyph glyph-name="copyright" unicode="&#xa9;" 
d="M347 600l-51 -51l51 -51l-102 -103l51 -51l103 103l51 -52l-103 -102l52 -51l153 153zM347 180l-215 215l215 216l216 -216z" />
    <glyph glyph-name="trademark" unicode="&#x2122;" 
d="M347 600l-51 -51l51 -51l-102 -103l51 -51l103 103l51 -52l-103 -102l52 -51l153 153zM347 180l-215 215l215 216l216 -216z" />
    <glyph glyph-name="acute" unicode="&#xb4;" 
d="M347 600l-51 -51l51 -51l-102 -103l51 -51l103 103l51 -52l-103 -102l52 -51l153 153zM347 180l-215 215l215 216l216 -216z" />
    <glyph glyph-name="dieresis" unicode="&#xa8;" 
d="M347 600l-51 -51l51 -51l-102 -103l51 -51l103 103l51 -52l-103 -102l52 -51l153 153zM347 180l-215 215l215 216l216 -216z" />
    <glyph glyph-name="AE" unicode="&#xc6;" 
d="M347 600l-51 -51l51 -51l-102 -103l51 -51l103 103l51 -52l-103 -102l52 -51l153 153zM347 180l-215 215l215 216l216 -216z" />
    <glyph glyph-name="Oslash" unicode="&#xd8;" 
d="M347 600l-51 -51l51 -51l-102 -103l51 -51l103 103l51 -52l-103 -102l52 -51l153 153zM347 180l-215 215l215 216l216 -216z" />
    <glyph glyph-name="plusminus" unicode="&#xb1;" 
d="M347 600l-51 -51l51 -51l-102 -103l51 -51l103 103l51 -52l-103 -102l52 -51l153 153zM347 180l-215 215l215 216l216 -216z" />
    <glyph glyph-name="yen" unicode="&#xa5;" 
d="M347 600l-51 -51l51 -51l-102 -103l51 -51l103 103l51 -52l-103 -102l52 -51l153 153zM347 180l-215 215l215 216l216 -216z" />
    <glyph glyph-name="mu" unicode="&#xb5;" 
d="M347 600l-51 -51l51 -51l-102 -103l51 -51l103 103l51 -52l-103 -102l52 -51l153 153zM347 180l-215 215l215 216l216 -216z" />
    <glyph glyph-name="mu" unicode="&#x3bc;" 
d="M347 600l-51 -51l51 -51l-102 -103l51 -51l103 103l51 -52l-103 -102l52 -51l153 153zM347 180l-215 215l215 216l216 -216z" />
    <glyph glyph-name="ordmasculine" unicode="&#xba;" 
d="M347 600l-51 -51l51 -51l-102 -103l51 -51l103 103l51 -52l-103 -102l52 -51l153 153zM347 180l-215 215l215 216l216 -216z" />
    <glyph glyph-name="ae" unicode="&#xe6;" 
d="M347 600l-51 -51l51 -51l-102 -103l51 -51l103 103l51 -52l-103 -102l52 -51l153 153zM347 180l-215 215l215 216l216 -216z" />
    <glyph glyph-name="oslash" unicode="&#xf8;" 
d="M347 600l-51 -51l51 -51l-102 -103l51 -51l103 103l51 -52l-103 -102l52 -51l153 153zM347 180l-215 215l215 216l216 -216z" />
    <glyph glyph-name="questiondown" unicode="&#xbf;" 
d="M347 600l-51 -51l51 -51l-102 -103l51 -51l103 103l51 -52l-103 -102l52 -51l153 153zM347 180l-215 215l215 216l216 -216z" />
    <glyph glyph-name="exclamdown" unicode="&#xa1;" 
d="M347 600l-51 -51l51 -51l-102 -103l51 -51l103 103l51 -52l-103 -102l52 -51l153 153zM347 180l-215 215l215 216l216 -216z" />
    <glyph glyph-name="logicalnot" unicode="&#xac;" 
d="M347 600l-51 -51l51 -51l-102 -103l51 -51l103 103l51 -52l-103 -102l52 -51l153 153zM347 180l-215 215l215 216l216 -216z" />
    <glyph glyph-name="florin" unicode="&#x192;" 
d="M347 600l-51 -51l51 -51l-102 -103l51 -51l103 103l51 -52l-103 -102l52 -51l153 153zM347 180l-215 215l215 216l216 -216z" />
    <glyph glyph-name="guillemotleft" unicode="&#xab;" 
d="M347 600l-51 -51l51 -51l-102 -103l51 -51l103 103l51 -52l-103 -102l52 -51l153 153zM347 180l-215 215l215 216l216 -216z" />
    <glyph glyph-name="guillemotright" unicode="&#xbb;" 
d="M347 600l-51 -51l51 -51l-102 -103l51 -51l103 103l51 -52l-103 -102l52 -51l153 153zM347 180l-215 215l215 216l216 -216z" />
    <glyph glyph-name="ellipsis" unicode="&#x2026;" 
d="M347 600l-51 -51l51 -51l-102 -103l51 -51l103 103l51 -52l-103 -102l52 -51l153 153zM347 180l-215 215l215 216l216 -216z" />
    <glyph glyph-name="Agrave" unicode="&#xc0;" 
d="M347 600l-51 -51l51 -51l-102 -103l51 -51l103 103l51 -52l-103 -102l52 -51l153 153zM347 180l-215 215l215 216l216 -216z" />
    <glyph glyph-name="Atilde" unicode="&#xc3;" 
d="M347 600l-51 -51l51 -51l-102 -103l51 -51l103 103l51 -52l-103 -102l52 -51l153 153zM347 180l-215 215l215 216l216 -216z" />
    <glyph glyph-name="Otilde" unicode="&#xd5;" 
d="M347 600l-51 -51l51 -51l-102 -103l51 -51l103 103l51 -52l-103 -102l52 -51l153 153zM347 180l-215 215l215 216l216 -216z" />
    <glyph glyph-name="OE" unicode="&#x152;" 
d="M347 600l-51 -51l51 -51l-102 -103l51 -51l103 103l51 -52l-103 -102l52 -51l153 153zM347 180l-215 215l215 216l216 -216z" />
    <glyph glyph-name="oe" unicode="&#x153;" 
d="M347 600l-51 -51l51 -51l-102 -103l51 -51l103 103l51 -52l-103 -102l52 -51l153 153zM347 180l-215 215l215 216l216 -216z" />
    <glyph glyph-name="endash" unicode="&#x2013;" 
d="M347 600l-51 -51l51 -51l-102 -103l51 -51l103 103l51 -52l-103 -102l52 -51l153 153zM347 180l-215 215l215 216l216 -216z" />
    <glyph glyph-name="emdash" unicode="&#x2014;" 
d="M347 600l-51 -51l51 -51l-102 -103l51 -51l103 103l51 -52l-103 -102l52 -51l153 153zM347 180l-215 215l215 216l216 -216z" />
    <glyph glyph-name="quotedblleft" unicode="&#x201c;" 
d="M347 600l-51 -51l51 -51l-102 -103l51 -51l103 103l51 -52l-103 -102l52 -51l153 153zM347 180l-215 215l215 216l216 -216z" />
    <glyph glyph-name="quotedblright" unicode="&#x201d;" 
d="M347 600l-51 -51l51 -51l-102 -103l51 -51l103 103l51 -52l-103 -102l52 -51l153 153zM347 180l-215 215l215 216l216 -216z" />
    <glyph glyph-name="quoteleft" unicode="&#x2018;" 
d="M347 600l-51 -51l51 -51l-102 -103l51 -51l103 103l51 -52l-103 -102l52 -51l153 153zM347 180l-215 215l215 216l216 -216z" />
    <glyph glyph-name="quoteright" unicode="&#x2019;" 
d="M347 600l-51 -51l51 -51l-102 -103l51 -51l103 103l51 -52l-103 -102l52 -51l153 153zM347 180l-215 215l215 216l216 -216z" />
    <glyph glyph-name="divide" unicode="&#xf7;" 
d="M347 600l-51 -51l51 -51l-102 -103l51 -51l103 103l51 -52l-103 -102l52 -51l153 153zM347 180l-215 215l215 216l216 -216z" />
    <glyph glyph-name="ydieresis" unicode="&#xff;" 
d="M347 600l-51 -51l51 -51l-102 -103l51 -51l103 103l51 -52l-103 -102l52 -51l153 153zM347 180l-215 215l215 216l216 -216z" />
    <glyph glyph-name="Ydieresis" unicode="&#x178;" 
d="M347 600l-51 -51l51 -51l-102 -103l51 -51l103 103l51 -52l-103 -102l52 -51l153 153zM347 180l-215 215l215 216l216 -216z" />
    <glyph glyph-name="currency" unicode="&#xa4;" horiz-adv-x="660" 
d="M485 271q0 32 -12 60.5t-33 49.5t-49.5 33t-60.5 12t-60.5 -12t-49.5 -33t-33.5 -49.5t-12.5 -60.5t12.5 -60.5t33.5 -49.5t49.5 -33.5t60.5 -12.5t60.5 12.5t49.5 33.5t33 49.5t12 60.5zM536 19l-75 74q-27 -20 -60 -32t-71 -12t-71.5 12t-60.5 32l-74 -74l-46 46l74 74
q-20 27 -32 60.5t-12 71.5t12 71.5t32 60.5l-74 73l46 46l74 -73q27 20 60.5 31.5t71.5 11.5t71 -11.5t60 -31.5l75 73l46 -46l-74 -73q20 -27 32 -60.5t12 -71.5t-12 -71.5t-32 -60.5l74 -74z" />
    <glyph glyph-name="guilsinglleft" unicode="&#x2039;" 
d="M347 600l-51 -51l51 -51l-102 -103l51 -51l103 103l51 -52l-103 -102l52 -51l153 153zM347 180l-215 215l215 216l216 -216z" />
    <glyph glyph-name="guilsinglright" unicode="&#x203a;" 
d="M347 600l-51 -51l51 -51l-102 -103l51 -51l103 103l51 -52l-103 -102l52 -51l153 153zM347 180l-215 215l215 216l216 -216z" />
    <glyph glyph-name="daggerdbl" unicode="&#x2021;" 
d="M347 600l-51 -51l51 -51l-102 -103l51 -51l103 103l51 -52l-103 -102l52 -51l153 153zM347 180l-215 215l215 216l216 -216z" />
    <glyph glyph-name="periodcentered" unicode="&#xb7;" horiz-adv-x="270" 
d="M88 223v94h94v-94h-94z" />
    <glyph glyph-name="periodcentered" unicode="&#x22c5;" horiz-adv-x="270" 
d="M88 223v94h94v-94h-94z" />
    <glyph glyph-name="periodcentered" unicode="&#x2227;" horiz-adv-x="270" 
d="M88 223v94h94v-94h-94z" />
    <glyph glyph-name="periodcentered" unicode="&#x2224;" horiz-adv-x="270" 
d="M88 223v94h94v-94h-94z" />
    <glyph glyph-name="periodcentered" unicode="&#x2219;" horiz-adv-x="270" 
d="M88 223v94h94v-94h-94z" />
    <glyph glyph-name="quotesinglbase" unicode="&#x201a;" 
d="M347 600l-51 -51l51 -51l-102 -103l51 -51l103 103l51 -52l-103 -102l52 -51l153 153zM347 180l-215 215l215 216l216 -216z" />
    <glyph glyph-name="quotedblbase" unicode="&#x201e;" 
d="M347 600l-51 -51l51 -51l-102 -103l51 -51l103 103l51 -52l-103 -102l52 -51l153 153zM347 180l-215 215l215 216l216 -216z" />
    <glyph glyph-name="perthousand" unicode="&#x2030;" 
d="M347 600l-51 -51l51 -51l-102 -103l51 -51l103 103l51 -52l-103 -102l52 -51l153 153zM347 180l-215 215l215 216l216 -216z" />
    <glyph glyph-name="Acircumflex" unicode="&#xc2;" 
d="M347 600l-51 -51l51 -51l-102 -103l51 -51l103 103l51 -52l-103 -102l52 -51l153 153zM347 180l-215 215l215 216l216 -216z" />
    <glyph glyph-name="Ecircumflex" unicode="&#xca;" 
d="M347 600l-51 -51l51 -51l-102 -103l51 -51l103 103l51 -52l-103 -102l52 -51l153 153zM347 180l-215 215l215 216l216 -216z" />
    <glyph glyph-name="Aacute" unicode="&#xc1;" 
d="M347 600l-51 -51l51 -51l-102 -103l51 -51l103 103l51 -52l-103 -102l52 -51l153 153zM347 180l-215 215l215 216l216 -216z" />
    <glyph glyph-name="Edieresis" unicode="&#xcb;" 
d="M347 600l-51 -51l51 -51l-102 -103l51 -51l103 103l51 -52l-103 -102l52 -51l153 153zM347 180l-215 215l215 216l216 -216z" />
    <glyph glyph-name="Egrave" unicode="&#xc8;" 
d="M347 600l-51 -51l51 -51l-102 -103l51 -51l103 103l51 -52l-103 -102l52 -51l153 153zM347 180l-215 215l215 216l216 -216z" />
    <glyph glyph-name="Iacute" unicode="&#xcd;" 
d="M347 600l-51 -51l51 -51l-102 -103l51 -51l103 103l51 -52l-103 -102l52 -51l153 153zM347 180l-215 215l215 216l216 -216z" />
    <glyph glyph-name="Icircumflex" unicode="&#xce;" 
d="M347 600l-51 -51l51 -51l-102 -103l51 -51l103 103l51 -52l-103 -102l52 -51l153 153zM347 180l-215 215l215 216l216 -216z" />
    <glyph glyph-name="Idieresis" unicode="&#xcf;" 
d="M347 600l-51 -51l51 -51l-102 -103l51 -51l103 103l51 -52l-103 -102l52 -51l153 153zM347 180l-215 215l215 216l216 -216z" />
    <glyph glyph-name="Igrave" unicode="&#xcc;" 
d="M347 600l-51 -51l51 -51l-102 -103l51 -51l103 103l51 -52l-103 -102l52 -51l153 153zM347 180l-215 215l215 216l216 -216z" />
    <glyph glyph-name="Oacute" unicode="&#xd3;" 
d="M347 600l-51 -51l51 -51l-102 -103l51 -51l103 103l51 -52l-103 -102l52 -51l153 153zM347 180l-215 215l215 216l216 -216z" />
    <glyph glyph-name="Ocircumflex" unicode="&#xd4;" 
d="M347 600l-51 -51l51 -51l-102 -103l51 -51l103 103l51 -52l-103 -102l52 -51l153 153zM347 180l-215 215l215 216l216 -216z" />
    <glyph glyph-name="Ograve" unicode="&#xd2;" 
d="M347 600l-51 -51l51 -51l-102 -103l51 -51l103 103l51 -52l-103 -102l52 -51l153 153zM347 180l-215 215l215 216l216 -216z" />
    <glyph glyph-name="Uacute" unicode="&#xda;" 
d="M347 600l-51 -51l51 -51l-102 -103l51 -51l103 103l51 -52l-103 -102l52 -51l153 153zM347 180l-215 215l215 216l216 -216z" />
    <glyph glyph-name="Ucircumflex" unicode="&#xdb;" 
d="M347 600l-51 -51l51 -51l-102 -103l51 -51l103 103l51 -52l-103 -102l52 -51l153 153zM347 180l-215 215l215 216l216 -216z" />
    <glyph glyph-name="Ugrave" unicode="&#xd9;" 
d="M347 600l-51 -51l51 -51l-102 -103l51 -51l103 103l51 -52l-103 -102l52 -51l153 153zM347 180l-215 215l215 216l216 -216z" />
    <glyph glyph-name="circumflex" unicode="&#x2c6;" 
d="M347 600l-51 -51l51 -51l-102 -103l51 -51l103 103l51 -52l-103 -102l52 -51l153 153zM347 180l-215 215l215 216l216 -216z" />
    <glyph glyph-name="tilde" unicode="&#x2dc;" 
d="M347 600l-51 -51l51 -51l-102 -103l51 -51l103 103l51 -52l-103 -102l52 -51l153 153zM347 180l-215 215l215 216l216 -216z" />
    <glyph glyph-name="macron" unicode="&#xaf;" 
d="M347 600l-51 -51l51 -51l-102 -103l51 -51l103 103l51 -52l-103 -102l52 -51l153 153zM347 180l-215 215l215 216l216 -216z" />
    <glyph glyph-name="macron" unicode="&#x2c9;" 
d="M347 600l-51 -51l51 -51l-102 -103l51 -51l103 103l51 -52l-103 -102l52 -51l153 153zM347 180l-215 215l215 216l216 -216z" />
    <glyph glyph-name="cedilla" unicode="&#xb8;" 
d="M347 600l-51 -51l51 -51l-102 -103l51 -51l103 103l51 -52l-103 -102l52 -51l153 153zM347 180l-215 215l215 216l216 -216z" />
    <glyph glyph-name="ordfeminine" unicode="&#xaa;" 
d="M347 600l-51 -51l51 -51l-102 -103l51 -51l103 103l51 -52l-103 -102l52 -51l153 153zM347 180l-215 215l215 216l216 -216z" />
    <glyph glyph-name="Eth" unicode="&#xd0;" 
d="M347 600l-51 -51l51 -51l-102 -103l51 -51l103 103l51 -52l-103 -102l52 -51l153 153zM347 180l-215 215l215 216l216 -216z" />
    <glyph glyph-name="nine" unicode="9" horiz-adv-x="544" 
d="M381 244q0 21 -1 42t-5 40.5t-11 37t-20 31.5q-34 36 -84 36q-51 0 -85 -36q-13 -14 -20.5 -31.5t-11 -37t-4.5 -40.5t-1 -42t1 -42t4.5 -40.5t11 -37t20.5 -30.5q34 -36 85 -36q50 0 84 36q13 13 20 30.5t11 37t5 40.5t1 42zM453 244q0 -57 -10.5 -107t-46.5 -88
q-24 -26 -58 -40.5t-78 -14.5t-78.5 14.5t-58.5 40.5q-36 38 -46.5 88t-10.5 107q0 61 10.5 111t46.5 87q20 21 53 37t77 16q36 0 67.5 -11.5t60.5 -46.5v70q0 30 -7.5 57t-24 47.5t-42 32.5t-61.5 12q-21 0 -37 -3.5t-29.5 -9.5t-26 -15.5t-25.5 -21.5l-46 46
q19 18 37 30.5t37.5 20.5t41.5 11.5t50 3.5q50 0 88.5 -16t64.5 -44.5t39 -68t13 -87.5v-258z" />
    <glyph glyph-name="eth" unicode="&#xf0;" 
d="M347 600l-51 -51l51 -51l-102 -103l51 -51l103 103l51 -52l-103 -102l52 -51l153 153zM347 180l-215 215l215 216l216 -216z" />
    <glyph glyph-name="e" unicode="e" horiz-adv-x="660" 
d="M485 271q0 32 -12 60.5t-33 49.5t-49.5 33t-60.5 12t-60.5 -12t-49.5 -33t-33.5 -49.5t-12.5 -60.5t12.5 -60.5t33.5 -49.5t49.5 -33.5t60.5 -12.5t60.5 12.5t49.5 33.5t33 49.5t12 60.5zM536 19l-75 74q-27 -20 -60 -32t-71 -12t-71.5 12t-60.5 32l-74 -74l-46 46l74 74
q-20 27 -32 60.5t-12 71.5t12 71.5t32 60.5l-74 73l46 46l74 -73q27 20 60.5 31.5t71.5 11.5t71 -11.5t60 -31.5l75 73l46 -46l-74 -73q20 -27 32 -60.5t12 -71.5t-12 -71.5t-32 -60.5l74 -74z" />
    <glyph glyph-name="B" unicode="B" 
d="M347 600l-51 -51l51 -51l-102 -103l51 -51l103 103l51 -52l-103 -102l52 -51l153 153zM347 180l-215 215l215 216l216 -216z" />
    <glyph glyph-name="C" unicode="C" 
d="M347 600l-51 -51l51 -51l-102 -103l51 -51l103 103l51 -52l-103 -102l52 -51l153 153zM347 180l-215 215l215 216l216 -216z" />
    <glyph glyph-name="Q" unicode="Q" 
d="M347 600l-51 -51l51 -51l-102 -103l51 -51l103 103l51 -52l-103 -102l52 -51l153 153zM347 180l-215 215l215 216l216 -216z" />
    <glyph glyph-name="R" unicode="R" 
d="M347 600l-51 -51l51 -51l-102 -103l51 -51l103 103l51 -52l-103 -102l52 -51l153 153zM347 180l-215 215l215 216l216 -216z" />
    <glyph glyph-name="b" unicode="b" 
d="M347 600l-51 -51l51 -51l-102 -103l51 -51l103 103l51 -52l-103 -102l52 -51l153 153zM347 180l-215 215l215 216l216 -216z" />
    <glyph glyph-name="q" unicode="q" 
d="M347 600l-51 -51l51 -51l-102 -103l51 -51l103 103l51 -52l-103 -102l52 -51l153 153zM347 180l-215 215l215 216l216 -216z" />
    <glyph glyph-name="r" unicode="r" 
d="M347 600l-51 -51l51 -51l-102 -103l51 -51l103 103l51 -52l-103 -102l52 -51l153 153zM347 180l-215 215l215 216l216 -216z" />
    <glyph glyph-name="v" unicode="v" horiz-adv-x="1027" 
d="M178 222l365 -364h-93l-399 399l399 399l94 1l-366 -365h789v-70h-789z" />
    <glyph glyph-name="h" unicode="h" 
d="M347 600l-51 -51l51 -51l-102 -103l51 -51l103 103l51 -52l-103 -102l52 -51l153 153zM347 180l-215 215l215 216l216 -216z" />
    <glyph glyph-name="j" unicode="j" 
d="M347 600l-51 -51l51 -51l-102 -103l51 -51l103 103l51 -52l-103 -102l52 -51l153 153zM347 180l-215 215l215 216l216 -216z" />
    <glyph glyph-name="n" unicode="n" 
d="M347 600l-51 -51l51 -51l-102 -103l51 -51l103 103l51 -52l-103 -102l52 -51l153 153zM347 180l-215 215l215 216l216 -216z" />
    <glyph glyph-name="K" unicode="K" 
d="M347 600l-51 -51l51 -51l-102 -103l51 -51l103 103l51 -52l-103 -102l52 -51l153 153zM347 180l-215 215l215 216l216 -216z" />
    <glyph glyph-name="G" unicode="G" 
d="M347 600l-51 -51l51 -51l-102 -103l51 -51l103 103l51 -52l-103 -102l52 -51l153 153zM347 180l-215 215l215 216l216 -216z" />
    <glyph glyph-name="T" unicode="T" 
d="M347 600l-51 -51l51 -51l-102 -103l51 -51l103 103l51 -52l-103 -102l52 -51l153 153zM347 180l-215 215l215 216l216 -216z" />
    <glyph glyph-name="U" unicode="U" 
d="M347 600l-51 -51l51 -51l-102 -103l51 -51l103 103l51 -52l-103 -102l52 -51l153 153zM347 180l-215 215l215 216l216 -216z" />
    <glyph glyph-name="W" unicode="W" 
d="M347 600l-51 -51l51 -51l-102 -103l51 -51l103 103l51 -52l-103 -102l52 -51l153 153zM347 180l-215 215l215 216l216 -216z" />
    <glyph glyph-name="X" unicode="X" 
d="M347 600l-51 -51l51 -51l-102 -103l51 -51l103 103l51 -52l-103 -102l52 -51l153 153zM347 180l-215 215l215 216l216 -216z" />
    <glyph glyph-name="g" unicode="g" 
d="M347 600l-51 -51l51 -51l-102 -103l51 -51l103 103l51 -52l-103 -102l52 -51l153 153zM347 180l-215 215l215 216l216 -216z" />
    <glyph glyph-name="H" unicode="H" 
d="M347 600l-51 -51l51 -51l-102 -103l51 -51l103 103l51 -52l-103 -102l52 -51l153 153zM347 180l-215 215l215 216l216 -216z" />
    <glyph glyph-name="I" unicode="I" 
d="M347 600l-51 -51l51 -51l-102 -103l51 -51l103 103l51 -52l-103 -102l52 -51l153 153zM347 180l-215 215l215 216l216 -216z" />
    <glyph glyph-name="J" unicode="J" 
d="M347 600l-51 -51l51 -51l-102 -103l51 -51l103 103l51 -52l-103 -102l52 -51l153 153zM347 180l-215 215l215 216l216 -216z" />
    <glyph glyph-name="k" unicode="k" 
d="M347 600l-51 -51l51 -51l-102 -103l51 -51l103 103l51 -52l-103 -102l52 -51l153 153zM347 180l-215 215l215 216l216 -216z" />
    <glyph glyph-name="o" unicode="o" 
d="M347 600l-51 -51l51 -51l-102 -103l51 -51l103 103l51 -52l-103 -102l52 -51l153 153zM347 180l-215 215l215 216l216 -216z" />
    <glyph glyph-name="underscore" unicode="_" horiz-adv-x="500" 
d="M340 594l-90 104l-90 -104h-69l125 153h68l125 -153h-69z" />
    <glyph glyph-name="nonbreakingspace" horiz-adv-x="249" 
 />
    <glyph glyph-name="a" unicode="a" 
d="M347 600l-51 -51l51 -51l-102 -103l51 -51l103 103l51 -52l-103 -102l52 -51l153 153zM347 180l-215 215l215 216l216 -216z" />
    <glyph glyph-name="less" unicode="&#x3c;" horiz-adv-x="522" 
d="M95 152v77l331 -168v-77zM95 302v65l331 168v-77l-250 -124l250 -123v-77z" />
    <glyph glyph-name="greater" unicode="&#x3e;" horiz-adv-x="522" 
d="M95 -16v77l331 168v-77zM95 134v77l250 123l-250 124v77l331 -168v-65z" />
    <glyph glyph-name="u" unicode="u" horiz-adv-x="1027" 
d="M491 -185l1 788l-365 -365v95l399 399l399 -400v-94l-364 365l-1 -788h-69z" />
    <glyph glyph-name="t" unicode="t" horiz-adv-x="1027" 
d="M102 273l365 -365l-1 789h70v-789l364 365l1 -94l-400 -400l-399 399v95z" />
    <glyph glyph-name="uni00A0" unicode="&#xa0;" horiz-adv-x="249" 
 />
    <glyph glyph-name="Euro" unicode="&#x20ac;" horiz-adv-x="678" 
d="M608 206q-9 -50 -31 -89.5t-54 -66.5t-73 -41.5t-89 -14.5q-107 0 -181 74q-19 19 -31 39t-19.5 43t-11 50t-4.5 60h-67v50h66v98h-66v49h67q1 31 5 57.5t11.5 49t19.5 42.5t30 38q74 74 181 74q48 0 89 -14.5t73.5 -41.5t54 -66.5t30.5 -89.5h-77q-14 66 -58.5 105
t-111.5 39q-73 0 -123 -50q-12 -13 -20.5 -26.5t-14 -30.5t-8.5 -38t-4 -48h219v-49h-221v-98h221v-50h-219q1 -29 4 -51t8 -39t13.5 -31t21.5 -27q50 -50 123 -50q67 0 112.5 39t59.5 105h75z" />
    <glyph glyph-name="minus" unicode="&#x2212;" 
d="M347 600l-51 -51l51 -51l-102 -103l51 -51l103 103l51 -52l-103 -102l52 -51l153 153zM347 180l-215 215l215 216l216 -216z" />
    <glyph glyph-name="fraction" unicode="&#x2215;" 
d="M347 600l-51 -51l51 -51l-102 -103l51 -51l103 103l51 -52l-103 -102l52 -51l153 153zM347 180l-215 215l215 216l216 -216z" />
    <glyph glyph-name="fi" unicode="&#xfb01;" 
d="M347 600l-51 -51l51 -51l-102 -103l51 -51l103 103l51 -52l-103 -102l52 -51l153 153zM347 180l-215 215l215 216l216 -216z" />
    <glyph glyph-name="fl" unicode="&#xfb02;" 
d="M347 600l-51 -51l51 -51l-102 -103l51 -51l103 103l51 -52l-103 -102l52 -51l153 153zM347 180l-215 215l215 216l216 -216z" />
    <glyph glyph-name="dotlessi" unicode="&#x131;" 
d="M347 600l-51 -51l51 -51l-102 -103l51 -51l103 103l51 -52l-103 -102l52 -51l153 153zM347 180l-215 215l215 216l216 -216z" />
    <glyph glyph-name="breve" unicode="&#x2d8;" 
d="M347 600l-51 -51l51 -51l-102 -103l51 -51l103 103l51 -52l-103 -102l52 -51l153 153zM347 180l-215 215l215 216l216 -216z" />
    <glyph glyph-name="dotaccent" unicode="&#x2d9;" 
d="M347 600l-51 -51l51 -51l-102 -103l51 -51l103 103l51 -52l-103 -102l52 -51l153 153zM347 180l-215 215l215 216l216 -216z" />
    <glyph glyph-name="ring" unicode="&#x2da;" 
d="M347 600l-51 -51l51 -51l-102 -103l51 -51l103 103l51 -52l-103 -102l52 -51l153 153zM347 180l-215 215l215 216l216 -216z" />
    <glyph glyph-name="hungarumlaut" unicode="&#x2dd;" 
d="M347 600l-51 -51l51 -51l-102 -103l51 -51l103 103l51 -52l-103 -102l52 -51l153 153zM347 180l-215 215l215 216l216 -216z" />
    <glyph glyph-name="ogonek" unicode="&#x2db;" 
d="M347 600l-51 -51l51 -51l-102 -103l51 -51l103 103l51 -52l-103 -102l52 -51l153 153zM347 180l-215 215l215 216l216 -216z" />
    <glyph glyph-name="caron" unicode="&#x2c7;" 
d="M347 600l-51 -51l51 -51l-102 -103l51 -51l103 103l51 -52l-103 -102l52 -51l153 153zM347 180l-215 215l215 216l216 -216z" />
    <glyph glyph-name="Lslash" unicode="&#x141;" 
d="M347 600l-51 -51l51 -51l-102 -103l51 -51l103 103l51 -52l-103 -102l52 -51l153 153zM347 180l-215 215l215 216l216 -216z" />
    <glyph glyph-name="lslash" unicode="&#x142;" 
d="M347 600l-51 -51l51 -51l-102 -103l51 -51l103 103l51 -52l-103 -102l52 -51l153 153zM347 180l-215 215l215 216l216 -216z" />
  </font>
</defs>
</svg>
