<?xml version="1.0" standalone="no"?>
<!DOCTYPE svg PUBLIC "-//W3C//DTD SVG 1.1//EN" "http://www.w3.org/Graphics/SVG/1.1/DTD/svg11.dtd" >
<svg xmlns="http://www.w3.org/2000/svg">
<metadata></metadata>
<defs>
<font id="kolo_medium" horiz-adv-x="1503" >
<font-face units-per-em="2048" ascent="1536" descent="-512" />
<missing-glyph horiz-adv-x="747" />
<glyph horiz-adv-x="2048" />
<glyph horiz-adv-x="2048" />
<glyph unicode="&#xd;" horiz-adv-x="2048" />
<glyph unicode=" "  horiz-adv-x="747" />
<glyph unicode="&#x09;" horiz-adv-x="747" />
<glyph unicode="&#xa0;" horiz-adv-x="747" />
<glyph unicode="!" horiz-adv-x="614" d="M184 111q0 51 35.5 86.5t87.5 35.5q51 0 87 -35.5t36 -86.5q0 -52 -36 -87.5t-87 -35.5q-53 0 -88 35t-35 88zM205 426v1028h198v-1028h-198z" />
<glyph unicode="&#x22;" horiz-adv-x="872" d="M143 827v627h195l-43 -627h-152zM535 827v627h194l-45 -627h-149z" />
<glyph unicode="#" horiz-adv-x="1538" d="M55 408v172h299l88 364h-262v170h303l82 340h180v-33l-73 -307h360l82 340h180v-33l-75 -307h264v-170h-305l-88 -364h268v-172h-309l-99 -408h-180v31l90 377h-358l-99 -408h-180v31l90 377h-258zM543 580h360l88 364h-360z" />
<glyph unicode="$" horiz-adv-x="1239" d="M57 252l138 108q75 -94 184.5 -145t238.5 -51q154 0 245 68t91 171q0 155 -239 218l-246 65q-174 48 -262 148.5t-88 234.5q0 157 114 260.5t312 120.5v289h166v-291q212 -24 393 -182l-113 -117q-184 141 -383 141q-132 0 -217.5 -57.5t-85.5 -163.5q0 -160 230 -221 l245 -66q165 -44 264 -138.5t99 -235.5q0 -153 -115.5 -265.5t-316.5 -136.5v-323h-166v319q-154 9 -279.5 72t-208.5 178z" />
<glyph unicode="%" horiz-adv-x="1677" d="M102 1004v198q0 125 92 202t218 77t217.5 -76.5t91.5 -202.5v-198q0 -124 -91.5 -200.5t-217.5 -76.5t-218 76.5t-92 200.5zM248 1022q0 -77 45.5 -118.5t118.5 -41.5q72 0 116.5 41.5t44.5 118.5v164q0 77 -44.5 118.5t-116.5 41.5q-73 0 -118.5 -41.5t-45.5 -118.5 v-164zM285 0v31l938 1423h166v-33l-943 -1421h-161zM956 250v199q0 125 92.5 201.5t217.5 76.5q127 0 219 -76t92 -202v-199q0 -124 -92 -200.5t-219 -76.5q-125 0 -217.5 76.5t-92.5 200.5zM1104 268q0 -77 45 -118t117 -41q73 0 118.5 41t45.5 118v164q0 77 -45.5 118.5 t-118.5 41.5q-72 0 -117 -41.5t-45 -118.5v-164z" />
<glyph unicode="&#x26;" horiz-adv-x="1449" d="M98 442q0 154 82 262.5t226 159.5q-154 113 -154 281q-2 142 107.5 239t289.5 97q197 0 340 -119l-104 -135q-60 46 -115.5 66t-122.5 20q-86 0 -142 -46t-56 -126q0 -150 172 -238h675v-162h-186v-641q-77 -54 -199 -88.5t-249 -34.5q-255 0 -409.5 125t-154.5 340z M295 455q0 -149 104.5 -227t282.5 -78q61 0 129 14.5t113 36.5v540h-277q-163 0 -257.5 -72t-94.5 -214z" />
<glyph unicode="'" horiz-adv-x="481" d="M143 827v627h195l-43 -627h-152z" />
<glyph unicode="(" horiz-adv-x="772" d="M147 662q0 327 113.5 593t321.5 465l135 -131q-188 -196 -277.5 -416t-89.5 -511h-203zM147 662h203q0 -577 375 -967l-137 -131q-205 198 -323 484t-118 614z" />
<glyph unicode=")" horiz-adv-x="772" d="M47 -305q375 390 375 967q0 291 -89.5 511t-277.5 416l138 131q207 -199 320.5 -465t113.5 -593t-118.5 -613.5t-324.5 -484.5z" />
<glyph unicode="*" horiz-adv-x="925" d="M51 1319l53 129l287 -107v318h144v-318l286 107l51 -129l-286 -111l194 -272l-114 -82l-203 283l-203 -283l-115 82l193 272z" />
<glyph unicode="+" horiz-adv-x="1112" d="M106 633v172h361v383h178v-383h361v-172h-361v-393h-178v393h-361z" />
<glyph unicode="," horiz-adv-x="542" d="M145 111q0 51 35.5 86.5t85.5 35.5q61 0 99 -51.5t38 -142.5q0 -222 -141 -391l-98 73q54 63 78 125t24 109q0 27 -4 37h-12q-37 0 -71 35t-34 84z" />
<glyph unicode="-" horiz-adv-x="733" d="M106 561v180h521v-180h-521z" />
<glyph unicode="." horiz-adv-x="526" d="M141 111q0 51 35.5 86.5t87.5 35.5q51 0 87 -35.5t36 -86.5q0 -52 -36 -87.5t-87 -35.5q-52 0 -87.5 35t-35.5 88z" />
<glyph unicode="/" horiz-adv-x="796" d="M-39 -389l639 2115h186v-30l-636 -2118h-189v33z" />
<glyph unicode="0" horiz-adv-x="1392" d="M143 528v398q0 255 154.5 405t398.5 150t397.5 -150t153.5 -405v-398q0 -255 -153.5 -405t-397.5 -150t-398.5 150t-154.5 405zM340 530q0 -184 95.5 -282t260.5 -98t261 98t96 282v394q0 184 -96 282.5t-261 98.5t-260.5 -98.5t-95.5 -282.5v-394z" />
<glyph unicode="1" horiz-adv-x="698" d="M37 1272v182h469v-1454h-195v1272h-274z" />
<glyph unicode="2" horiz-adv-x="1116" d="M68 1231q155 246 477 246q127 0 233.5 -53.5t171 -155.5t64.5 -232q0 -129 -71 -264.5t-202 -255.5l-364 -344h678v-172h-957v154l496 481q114 107 166.5 203.5t52.5 197.5q0 109 -81 185.5t-195 76.5q-97 0 -174.5 -37t-141.5 -128z" />
<glyph unicode="3" horiz-adv-x="1163" d="M16 238l144 108q71 -99 160.5 -146.5t211.5 -47.5q139 0 229.5 83t90.5 211q0 134 -76 212.5t-219 78.5h-121v162h142q44 0 84 -6q94 76 94 199q0 86 -66.5 146t-165.5 60q-161 0 -252 -120l-135 96q64 98 171.5 149.5t226.5 51.5q173 0 296 -107.5t123 -259.5 q0 -74 -30.5 -146.5t-83.5 -127.5q101 -57 157 -154.5t56 -216.5q0 -101 -37 -190t-104 -155t-168.5 -104.5t-223.5 -38.5q-327 0 -504 263z" />
<glyph unicode="4" horiz-adv-x="1198" d="M51 348v162l588 944h307v-936h195v-170h-195v-348h-196v348h-699zM262 518h488v744h-31z" />
<glyph unicode="5" horiz-adv-x="1236" d="M96 207l131 119q121 -170 369 -170q139 0 226 88.5t87 222.5q0 142 -90.5 225.5t-234.5 83.5t-254 -67l-150 51l76 694h737v-172h-577l-41 -377q98 45 223 45q143 0 259.5 -58t184.5 -167.5t68 -249.5q0 -217 -142 -357.5t-380 -140.5q-157 0 -284 57t-208 173z" />
<glyph unicode="6" horiz-adv-x="1255" d="M96 473q0 172 103 342l389 639h207v-33l-314 -489q66 26 174 26q92 0 179.5 -35t155 -96.5t108.5 -152.5t41 -195q0 -138 -68.5 -254t-188 -183t-261.5 -67q-145 0 -264.5 61.5t-190 176t-70.5 260.5zM299 479q0 -145 91.5 -235t232.5 -90q134 0 223.5 92.5t89.5 230.5 q0 137 -91.5 223t-234.5 86q-141 0 -227 -47q-84 -125 -84 -260z" />
<glyph unicode="7" horiz-adv-x="1021" d="M39 1282v172h928v-156l-623 -1298h-201v31l619 1251h-723z" />
<glyph unicode="8" horiz-adv-x="1271" d="M115 467q0 123 60 227.5t167 165.5q-106 118 -106 256q0 152 113.5 256.5t287.5 104.5q173 0 286 -104.5t113 -256.5q0 -134 -106 -256q106 -62 166.5 -166t60.5 -227q0 -100 -36.5 -189t-102.5 -156.5t-164.5 -107t-216.5 -39.5t-217.5 39.5t-165.5 107t-102.5 156.5 t-36.5 189zM315 469q0 -134 90 -226.5t232 -92.5q141 0 230 92.5t89 226.5q0 133 -84 216t-213 83h-47q-128 0 -212.5 -83t-84.5 -216zM426 1114q0 -108 86 -194q66 8 100 8h47q35 0 101 -8q86 86 86 196q0 92 -58 148.5t-151 56.5t-152 -57.5t-59 -149.5z" />
<glyph unicode="9" horiz-adv-x="1255" d="M90 975q0 138 68.5 254t187.5 183t262 67q144 0 263 -62t189 -176.5t70 -259.5q0 -179 -100 -342l-389 -639h-207v31l314 491q-69 -26 -175 -26q-92 0 -179 35t-154.5 96.5t-108.5 152.5t-41 195zM291 977q0 -137 92 -223t235 -86q139 0 228 47q84 125 84 260 q0 145 -91.5 235t-232.5 90q-134 0 -224.5 -92.5t-90.5 -230.5z" />
<glyph unicode=":" horiz-adv-x="544" d="M141 111q0 51 35.5 86.5t87.5 35.5q51 0 87 -35.5t36 -86.5q0 -52 -36 -87.5t-87 -35.5q-52 0 -87.5 35t-35.5 88zM141 856q0 51 35.5 87t87.5 36q51 0 87 -36t36 -87q0 -52 -36 -87.5t-87 -35.5q-52 0 -87.5 35.5t-35.5 87.5z" />
<glyph unicode=";" horiz-adv-x="544" d="M135 111q0 51 36 86.5t87 35.5q61 0 99 -51.5t38 -142.5q0 -223 -143 -391l-96 73q54 63 78 125t24 109q0 27 -4 37h-12q-37 0 -72 35t-35 84zM141 858q0 51 35.5 86t87.5 35q51 0 87 -35t36 -86q0 -52 -36 -87.5t-87 -35.5q-52 0 -87.5 35.5t-35.5 87.5z" />
<glyph unicode="&#x3c;" horiz-adv-x="1087" d="M98 618v117l838 459v-203l-600 -313l600 -316v-204z" />
<glyph unicode="=" horiz-adv-x="1085" d="M111 442v170h870v-170h-870zM111 840v170h870v-170h-870z" />
<glyph unicode="&#x3e;" horiz-adv-x="1087" d="M135 158v204l600 316l-600 313v203l838 -459v-117z" />
<glyph unicode="?" horiz-adv-x="995" d="M35 1360q70 54 174 85.5t217 31.5q211 0 344 -103t133 -272q0 -75 -20.5 -137.5t-60.5 -111.5t-85 -85.5t-108 -73.5l-105 -61v-207h-192v285l162 94q109 62 160 124t51 154q0 105 -80 164.5t-209 59.5q-77 0 -157 -23t-132 -61zM301 111q0 51 34.5 86.5t86.5 35.5 q51 0 87 -35.5t36 -86.5q0 -52 -36 -87.5t-87 -35.5q-52 0 -86.5 35t-34.5 88z" />
<glyph unicode="@" horiz-adv-x="1677" d="M154 330v420q0 180 55 321.5t152.5 230t225.5 134t279 45.5q142 0 263 -41t203 -110.5t127.5 -163t45.5 -197.5v-643q-173 -127 -448 -127q-185 0 -305.5 89.5t-120.5 243.5q0 139 121 233.5t309 94.5q109 0 258 -31v123q0 88 -38 158t-102.5 112.5t-145 64.5t-171.5 22 q-241 0 -379.5 -145.5t-138.5 -418.5v-417q0 -249 150.5 -394t390.5 -145q285 0 467 227l147 -100q-213 -299 -612 -299q-123 0 -232 28t-201 86t-158.5 141.5t-104 200.5t-37.5 257zM827 528q0 -82 70 -128t166 -46q149 0 256 58v264q-142 29 -260 29q-108 0 -170 -49 t-62 -128z" />
<glyph unicode="A" d="M29 0v31l567 1423h311l566 -1423v-31h-205l-156 397h-727l-154 -397h-202zM451 567h596l-275 713h-45z" />
<glyph unicode="B" horiz-adv-x="1456" d="M240 49v1405h557q201 0 322.5 -108t121.5 -281q0 -94 -43 -175t-127 -130q114 -40 186 -137t72 -217q0 -186 -154.5 -305t-416.5 -119q-270 0 -518 67zM434 193q143 -35 336 -35q159 0 254.5 73.5t95.5 184.5q0 113 -76 176t-200 63h-410v-462zM434 821h459 q151 68 151 232q0 103 -69 167t-187 64h-354v-463z" />
<glyph unicode="C" horiz-adv-x="1527" d="M131 725q0 210 101.5 383.5t276 272t382.5 98.5q174 0 313 -55t262 -179l-143 -135q-101 98 -204.5 140t-231.5 42q-111 0 -212 -43t-174.5 -117.5t-117 -180t-43.5 -224.5q0 -154 73.5 -284t200.5 -205.5t277 -75.5q261 0 446 203l138 -125q-121 -139 -260 -202 t-334 -63q-145 0 -280 53.5t-239.5 148.5t-167.5 238t-63 310z" />
<glyph unicode="D" horiz-adv-x="1654" d="M240 43v1411h499q184 0 333 -55t247.5 -152t151.5 -230.5t53 -291.5q0 -161 -53.5 -297.5t-153.5 -236t-250.5 -155.5t-335.5 -56q-112 0 -250.5 16t-240.5 47zM438 197q129 -35 293 -35q138 0 250 44t183.5 120.5t110 178t38.5 218.5q0 158 -65.5 282t-197 197.5 t-311.5 73.5h-301v-1079z" />
<glyph unicode="E" horiz-adv-x="1329" d="M240 0v1454h985v-180h-787v-459h684v-176h-684v-459h805v-180h-1003z" />
<glyph unicode="F" horiz-adv-x="1226" d="M240 0v1454h960v-180h-762v-481h633v-177h-633v-616h-198z" />
<glyph unicode="G" horiz-adv-x="1626" d="M131 725q0 210 101.5 383.5t276 272t382.5 98.5q174 0 313 -55t262 -179l-143 -135q-101 98 -204.5 140t-231.5 42q-111 0 -212 -43t-174.5 -117.5t-117 -180t-43.5 -224.5q0 -154 73.5 -284t200.5 -205.5t277 -75.5q222 0 397 153v400h193v-475q-118 -132 -263.5 -198.5 t-336.5 -66.5q-145 0 -280 53.5t-239.5 148.5t-167.5 238t-63 310z" />
<glyph unicode="H" horiz-adv-x="1728" d="M240 0v1454h198v-623h852v623h201v-1454h-201v649h-852v-649h-198z" />
<glyph unicode="I" horiz-adv-x="677" d="M240 0v1454h198v-1454h-198z" />
<glyph unicode="J" horiz-adv-x="645" d="M41 -319q199 110 199 311v1462h198v-1454q0 -168 -67.5 -283.5t-220.5 -199.5z" />
<glyph unicode="K" horiz-adv-x="1429" d="M240 0v1454h198v-635h213l486 635h200v-33l-514 -678l566 -712v-31h-205l-514 639h-232v-639h-198z" />
<glyph unicode="L" horiz-adv-x="1173" d="M240 0v1454h198v-1274h736v-180h-934z" />
<glyph unicode="M" horiz-adv-x="2093" d="M111 0v31l202 1423h336l391 -1159l375 1159h338l232 -1423v-31h-193l-199 1262h-41l-364 -1139h-281l-391 1141h-41l-178 -1264h-186z" />
<glyph unicode="N" horiz-adv-x="1763" d="M240 0v1454h284l772 -1194h33v1194h197v-1454h-269l-788 1202h-35v-1202h-194z" />
<glyph unicode="O" horiz-adv-x="1761" d="M129 725q0 158 60 299t162 241t241 158t291 58q151 0 288.5 -58.5t238.5 -158t160.5 -239.5t59.5 -296q0 -212 -101.5 -386t-273.5 -272t-376 -98q-150 0 -288 58t-239.5 157.5t-162 240t-60.5 296.5zM340 729q0 -118 42.5 -223.5t115 -182t173 -121t212.5 -44.5 q147 0 271 75.5t195.5 206t71.5 285.5q0 118 -42.5 223.5t-115 182t-173 121t-211.5 44.5q-149 0 -273 -75t-195 -205.5t-71 -286.5z" />
<glyph unicode="P" horiz-adv-x="1361" d="M240 0v1454h512q252 0 393 -125t141 -350q0 -155 -74 -272t-199 -177.5t-280 -60.5q-147 0 -295 29v-498h-198zM438 678q108 -29 303 -29q149 0 242.5 92t93.5 238q0 136 -86 216.5t-231 80.5h-322v-598z" />
<glyph unicode="Q" horiz-adv-x="1783" d="M129 725q0 158 60 299t162 241t241 158t291 58q151 0 288.5 -58.5t238.5 -158t160.5 -239.5t59.5 -296q0 -162 -61 -303.5t-170 -245.5l155 -184l-133 -107l-155 189q-178 -105 -387 -105q-150 0 -288 58t-239.5 157.5t-162 240t-60.5 296.5zM340 729q0 -118 42.5 -223.5 t115 -182t173 -121t212.5 -44.5q133 0 250 63l-195 223l137 105l191 -225q155 165 155 401q0 118 -42.5 223.5t-115 182t-173 121t-211.5 44.5q-149 0 -273 -75t-195 -205.5t-71 -286.5z" />
<glyph unicode="R" horiz-adv-x="1452" d="M240 0v1454h512q256 0 395 -115t139 -338q0 -166 -85 -280.5t-232 -167.5l362 -522v-31h-205l-344 516h-49q-153 0 -295 25v-541h-198zM438 721q108 -25 254 -25q385 0 385 305q0 134 -84.5 204.5t-232.5 70.5h-322v-555z" />
<glyph unicode="S" horiz-adv-x="1308" d="M86 229l143 123q72 -91 188.5 -139.5t239.5 -48.5q143 0 231.5 63.5t88.5 169.5q0 161 -219 215l-266 66q-159 40 -246.5 147t-87.5 244q0 176 139 288.5t369 112.5q277 0 487 -188l-125 -131q-181 139 -371 139q-132 0 -211 -57.5t-79 -163.5q0 -168 208 -219l246 -59 q177 -42 272 -145t95 -245q0 -87 -36.5 -163t-104 -133t-170.5 -90t-228 -33q-175 0 -324.5 63.5t-238.5 183.5z" />
<glyph unicode="T" horiz-adv-x="1136" d="M4 1274v180h1129v-180h-463v-1274h-201v1274h-465z" />
<glyph unicode="U" horiz-adv-x="1601" d="M176 563v891h201v-885q0 -183 116.5 -295t307.5 -112q183 0 304.5 113.5t121.5 293.5v885h198v-891q0 -173 -85.5 -309t-227 -207.5t-311.5 -71.5q-274 0 -449.5 162t-175.5 426z" />
<glyph unicode="V" horiz-adv-x="1480" d="M31 1421v33h198l484 -1274h45q41 126 243 635.5t244 638.5h205v-33l-553 -1421h-324z" />
<glyph unicode="W" horiz-adv-x="2205" d="M63 1421v33h193l330 -1270h47l348 1270h240l352 -1270h49l328 1270h194v-33l-379 -1421h-327l-336 1217l-330 -1217h-332z" />
<glyph unicode="X" horiz-adv-x="1413" d="M33 0v31l502 725l-480 665v33h201l424 -610h39l399 610h199v-33l-453 -673l516 -717v-31h-215l-446 645h-39l-434 -645h-213z" />
<glyph unicode="Y" horiz-adv-x="1277" d="M-6 1421v33h199l417 -741h62l415 741h197v-33l-502 -886h-41v-535h-198v535h-45z" />
<glyph unicode="Z" horiz-adv-x="1327" d="M117 0v158l819 1112h-782v184h1040v-147l-823 -1123h880v-184h-1134z" />
<glyph unicode="[" horiz-adv-x="645" d="M170 -422v2148h375v-172h-178v-1804h178v-172h-375z" />
<glyph unicode="\" horiz-adv-x="796" d="M-16 1696v30h186l639 -2115v-33h-188z" />
<glyph unicode="]" horiz-adv-x="641" d="M98 -250h181v1804h-181v172h373v-2148h-373v172z" />
<glyph unicode="^" horiz-adv-x="1107" d="M57 659l437 795h118l437 -795h-201l-295 560l-293 -560h-203z" />
<glyph unicode="_" horiz-adv-x="1042" d="M0 -170h1042v-180h-1042v180z" />
<glyph unicode="`" horiz-adv-x="573" d="M29 1401l92 112l293 -251l-70 -88z" />
<glyph unicode="a" horiz-adv-x="1103" d="M88 311q0 139 121 233.5t309 94.5q103 0 258 -29v68q0 109 -73 172t-183 63q-167 0 -299 -84l-86 138q94 62 187 86t206 24q120 0 218 -47.5t157.5 -139.5t59.5 -212v-572q-172 -126 -449 -126q-185 0 -305.5 89t-120.5 242zM285 309q0 -83 69.5 -129.5t165.5 -46.5 q151 0 256 60v264q-125 26 -258 26q-110 0 -171.5 -48t-61.5 -126z" />
<glyph unicode="b" horiz-adv-x="1230" d="M150 106v1448h190v-532q113 43 238 43q236 0 395.5 -152.5t159.5 -390.5q0 -113 -43.5 -214.5t-118.5 -174.5t-181 -115q-99 -39 -211 -38h-16q-108 1 -219.5 35.5t-193.5 90.5zM340 207q109 -57 238 -57q145 0 250.5 105t105.5 267q0 111 -53 197t-136.5 130t-181.5 44 q-127 0 -223 -47v-639z" />
<glyph unicode="c" horiz-adv-x="1134" d="M98 528q0 117 46.5 220.5t124.5 175.5t181.5 113.5t215.5 41.5q251 0 419 -180l-127 -115q-63 59 -141.5 91t-150.5 32q-154 0 -264.5 -111.5t-110.5 -267.5q0 -158 109 -267t266 -109q75 0 152 32t140 92l127 -116q-168 -183 -419 -183q-155 0 -285 71t-206.5 198 t-76.5 282z" />
<glyph unicode="d" horiz-adv-x="1230" d="M98 514q0 241 160 396t401 155q119 0 232 -43v532h188v-1448q-81 -56 -193.5 -91t-219.5 -35q-123 0 -229.5 42t-180.5 113.5t-116 170t-42 208.5zM297 514q0 -158 102 -260t252 -102q130 0 240 55v641q-92 45 -217 45q-159 0 -268 -105.5t-109 -273.5z" />
<glyph unicode="e" horiz-adv-x="1210" d="M98 541q0 148 62.5 269.5t184.5 196t282 74.5q219 0 354 -134t135 -349q0 -79 -14 -147l-805 -2q13 -132 116.5 -220t235.5 -88q89 0 170.5 35.5t143.5 97.5l106 -116q-171 -183 -420 -183q-166 0 -293 77t-192.5 205t-65.5 284zM297 600h631v27q0 124 -82.5 207.5 t-218.5 83.5q-77 0 -140.5 -27.5t-103.5 -73t-62 -101.5t-24 -116z" />
<glyph unicode="f" horiz-adv-x="694" d="M57 891v164h138v178q0 152 102 246t260 94q51 0 137 -23l-30 -159q-67 12 -119 12q-68 0 -114 -44t-46 -114v-190h268v-164h-268v-891h-190v891h-138z" />
<glyph unicode="g" horiz-adv-x="1230" d="M98 528q0 151 73 275t204 196t293 72q106 0 217.5 -35.5t193.5 -91.5v-981q0 -199 -129.5 -316.5t-353.5 -117.5q-225 0 -408 131l97 145q138 -106 329 -106q116 0 194.5 68.5t78.5 183.5v76q-109 -41 -234 -41q-237 0 -396 151.5t-159 390.5zM297 528q0 -111 53 -197 t136.5 -130.5t181.5 -44.5q127 0 223 47v641q-110 55 -238 55q-146 0 -251 -104.5t-105 -266.5z" />
<glyph unicode="h" horiz-adv-x="1232" d="M150 0v1554h190v-544q152 59 272 59q208 0 343 -120t135 -318v-631h-189v623q0 128 -85.5 201t-215.5 73q-135 0 -260 -53v-844h-190z" />
<glyph unicode="i" horiz-adv-x="491" d="M135 1348q0 46 33 78t80 32q45 0 77.5 -32.5t32.5 -77.5q0 -47 -32.5 -80t-77.5 -33q-47 0 -80 33t-33 80zM150 0v1055h192v-1055h-192z" />
<glyph unicode="j" horiz-adv-x="491" d="M-182 -446l28 165q18 -6 59.5 -11t63.5 -5q78 0 129.5 64t51.5 155v1131h192v-1119q0 -175 -97.5 -288t-275.5 -113q-89 0 -151 21zM135 1348q0 46 33 78t80 32q45 0 77.5 -32.5t32.5 -77.5q0 -47 -32.5 -80t-77.5 -33q-47 0 -80 33t-33 80z" />
<glyph unicode="k" horiz-adv-x="1075" d="M150 0v1554h190v-911h147l326 412h199v-27l-361 -473l387 -528v-27h-196l-338 459h-164v-459h-190z" />
<glyph unicode="l" horiz-adv-x="491" d="M150 0v1554h192v-1554h-192z" />
<glyph unicode="m" horiz-adv-x="1845" d="M150 0v952q99 55 214 86t220 31q188 0 311 -117q189 117 362 117q201 0 324 -122t123 -322v-625h-191v618q0 132 -72.5 206.5t-195.5 74.5q-114 0 -254 -82q39 -89 39 -192v-625h-190v618q0 137 -70.5 209t-200.5 72q-118 0 -229 -51v-848h-190z" />
<glyph unicode="n" horiz-adv-x="1232" d="M150 0v952q103 58 227.5 92.5t238.5 34.5q207 0 340.5 -120t133.5 -318v-641h-189v633q0 129 -83.5 201.5t-217.5 72.5q-125 0 -260 -57v-850h-190z" />
<glyph unicode="o" horiz-adv-x="1318" d="M98 526q0 154 75 281.5t204 200.5t282 73q114 0 218 -43t179.5 -116.5t120 -176.5t44.5 -217q0 -154 -76 -282t-205 -200.5t-283 -72.5q-152 0 -280.5 73t-203.5 200t-75 280zM291 528q0 -161 107.5 -274t260.5 -113q151 0 259 112t108 273q0 162 -108 274.5t-261 112.5 q-151 0 -258.5 -112t-107.5 -273z" />
<glyph unicode="p" horiz-adv-x="1230" d="M150 -457v1405q85 57 197 92t218 35q123 0 229.5 -42t180.5 -113.5t116 -170t42 -208.5q0 -242 -158.5 -396.5t-403.5 -154.5q-118 0 -231 43v-490h-190zM340 209q96 -47 217 -47q104 0 191 46.5t139.5 134t52.5 198.5q0 157 -105 259.5t-255 102.5q-135 0 -240 -55v-639 z" />
<glyph unicode="q" horiz-adv-x="1228" d="M98 532q0 150 74.5 274.5t205.5 196.5t290 72q106 0 217.5 -35.5t193.5 -91.5v-1405h-188v490q-113 -43 -238 -43q-237 0 -396 151.5t-159 390.5zM297 532q0 -111 53 -197t136.5 -130.5t181.5 -44.5q127 0 223 47v641q-110 55 -238 55q-146 0 -251 -104.5t-105 -266.5z " />
<glyph unicode="r" horiz-adv-x="694" d="M150 0v1055h544v-164h-352v-891h-192z" />
<glyph unicode="s" horiz-adv-x="999" d="M63 150l111 122q138 -127 346 -127q109 0 159 43t50 103q0 54 -36 87t-115 52l-160 35q-143 32 -221 111.5t-78 193.5q0 134 109.5 221.5t291.5 87.5q218 0 387 -135l-110 -129q-127 96 -291 96q-91 0 -141 -42t-50 -95q0 -58 38.5 -95.5t121.5 -57.5l158 -35 q137 -31 215 -104.5t78 -178.5q0 -64 -26 -122t-76.5 -104t-133 -73t-186.5 -27q-279 0 -441 173z" />
<glyph unicode="t" horiz-adv-x="727" d="M49 891v164h144l16 313l166 29v-342h264v-164h-264v-578q0 -71 37 -112t104 -41q56 0 123 26l59 -153q-95 -45 -202 -45q-148 0 -229 83.5t-81 233.5v586h-137z" />
<glyph unicode="u" horiz-adv-x="1226" d="M143 420v635h189v-619q0 -130 81 -204t218 -74q121 0 256 57v840h190v-953q-101 -57 -224 -88.5t-239 -31.5q-206 0 -338.5 120t-132.5 318z" />
<glyph unicode="v" horiz-adv-x="1105" d="M4 1028v27h184l349 -877h34l342 877h189v-27l-412 -1028h-270z" />
<glyph unicode="w" horiz-adv-x="1658" d="M25 1028v27h196l207 -875h41l242 875h237l244 -875h39l211 875h194v-27l-268 -1028h-307l-230 827l-231 -827h-305z" />
<glyph unicode="x" horiz-adv-x="1077" d="M20 0v27l367 516l-352 485v27h186l303 -426h31l295 426h188v-27l-352 -493l375 -508v-27h-195l-315 436h-29l-307 -436h-195z" />
<glyph unicode="y" horiz-adv-x="1107" d="M4 1028v27h191l325 -860h58l327 860h199v-27l-596 -1485h-176v31l178 426h-98z" />
<glyph unicode="z" horiz-adv-x="978" d="M70 0v141l587 750h-551v164h795v-146l-590 -745h623v-164h-864z" />
<glyph unicode="{" horiz-adv-x="823" d="M109 600v172q134 0 188.5 55.5t48.5 169.5l-20 359q-10 186 85.5 278t299.5 92v-172q-116 0 -158 -45.5t-37 -152.5l23 -359q6 -118 -39.5 -200t-137.5 -111q92 -29 137 -111t40 -200l-23 -426q-5 -106 37 -152.5t158 -46.5v-172q-203 0 -298.5 93t-86.5 278l20 426 q6 114 -48.5 169.5t-188.5 55.5z" />
<glyph unicode="|" horiz-adv-x="579" d="M199 -365v2104h182v-2104h-182z" />
<glyph unicode="}" horiz-adv-x="823" d="M113 -250q116 0 157 46.5t35 152.5l-20 426q-6 118 38.5 200t137.5 111q-94 29 -139 111t-37 200l20 359q6 107 -35 152.5t-157 45.5v172q204 0 299.5 -92t85.5 -278l-23 -359q-6 -114 50 -169.5t190 -55.5v-172q-134 0 -190 -55.5t-50 -169.5l23 -426q9 -185 -86.5 -278 t-298.5 -93v172z" />
<glyph unicode="~" horiz-adv-x="1292" d="M51 625q67 130 151 187.5t206 57.5q72 0 134.5 -27t153.5 -87q67 -43 106.5 -59.5t88.5 -16.5q58 0 101.5 34.5t80.5 116.5l166 -86q-66 -130 -149.5 -187.5t-204.5 -57.5q-72 0 -135.5 27t-153.5 87q-70 44 -108 60t-87 16q-59 0 -102.5 -35t-79.5 -116z" />
<glyph unicode="&#xa2;" horiz-adv-x="1128" d="M96 705q0 172 107 296.5t268 157.5v295h168v-289q153 -18 287 -135l-103 -110q-65 53 -123.5 79.5t-128.5 26.5q-136 0 -223.5 -92t-87.5 -229q0 -129 91.5 -219.5t219.5 -90.5q144 0 263 97l90 -119q-67 -54 -134 -84t-151 -39v-250h-168v258q-164 33 -269.5 156 t-105.5 291z" />
<glyph unicode="&#xa3;" horiz-adv-x="1253" d="M121 72q41 79 80.5 128t87.5 76v373h-162v144h162v254q0 193 120.5 308t303.5 115q254 0 403 -190l-137 -113q-63 73 -126 99t-140 26q-105 0 -169.5 -65t-64.5 -180v-254h514v-144h-514v-338q55 -3 103.5 -21.5t119.5 -58.5q115 -67 197 -67q122 0 191 153l141 -77 q-68 -131 -145 -189.5t-193 -58.5q-69 0 -125 18.5t-131 63.5q-115 67 -197 67q-57 0 -99.5 -33.5t-78.5 -113.5z" />
<glyph unicode="&#xa5;" horiz-adv-x="1323" d="M16 1421v33h195l416 -682h73l414 682h193v-33l-404 -649h248v-160h-393v-151h393v-158h-393v-303h-189v303h-397v158h397v151h-397v160h250z" />
<glyph unicode="&#xa8;" horiz-adv-x="878" d="M98 1348q0 46 33 78t80 32q46 0 79.5 -32.5t33.5 -77.5q0 -47 -33.5 -80t-79.5 -33q-47 0 -80 33t-33 80zM557 1348q0 46 33 78t80 32q45 0 77.5 -32.5t32.5 -77.5q0 -47 -32.5 -80t-77.5 -33q-47 0 -80 33t-33 80z" />
<glyph unicode="&#xa9;" horiz-adv-x="1898" d="M119 727q0 168 65.5 321.5t176.5 264t264.5 176t322.5 65.5q171 0 325 -65.5t265 -176t176.5 -263.5t65.5 -322t-65.5 -322.5t-176.5 -264t-265 -175.5t-325 -65q-169 0 -322.5 65t-264.5 175.5t-176.5 264t-65.5 322.5zM227 727q0 -152 55.5 -286t151.5 -229.5 t229.5 -150.5t284.5 -55t285.5 55t230.5 150.5t151.5 229.5t55.5 286t-55.5 286t-151.5 229.5t-230.5 150.5t-285.5 55t-284.5 -55t-229.5 -150.5t-151.5 -229.5t-55.5 -286zM549 735q0 91 36 172t96.5 137t141 88.5t168.5 32.5q196 0 328 -139l-115 -100q-88 88 -213 88 q-117 0 -195.5 -80t-78.5 -199q0 -118 77.5 -195t196.5 -77q133 0 221 88l107 -102q-131 -144 -328 -144q-185 0 -313.5 123.5t-128.5 306.5z" />
<glyph unicode="&#xab;" horiz-adv-x="1210" d="M80 541v94l395 434l123 -115l-344 -366l344 -367l-123 -115zM571 541v94l398 434l123 -115l-347 -366l347 -367l-123 -115z" />
<glyph unicode="&#xad;" horiz-adv-x="733" d="M106 561v180h521v-180h-521z" />
<glyph unicode="&#xae;" horiz-adv-x="808" d="M31 1106q0 157 109 266t266 109t265.5 -109t108.5 -266q0 -156 -109 -264.5t-265 -108.5q-157 0 -266 109t-109 264zM84 1106q0 -136 93 -229t229 -93q138 0 229.5 92.5t91.5 229.5q0 138 -91.5 231t-229.5 93q-137 0 -229.5 -93t-92.5 -231zM262 909v416h160 q73 0 114.5 -33t41.5 -96q0 -46 -25.5 -79.5t-67.5 -47.5l101 -149v-11h-72l-94 148h-4q-38 0 -84 6v-154h-70zM332 1126q31 -6 78 -6q51 0 72.5 19t21.5 57q0 66 -80 66h-92v-136z" />
<glyph unicode="&#xb4;" horiz-adv-x="573" d="M160 1262l293 251l92 -112l-316 -227z" />
<glyph unicode="&#xb8;" horiz-adv-x="593" d="M86 -434l31 108q61 -22 125 -22q49 0 81.5 26.5t32.5 71.5q0 86 -159 86l22 164h125l-14 -113q73 -3 120.5 -47.5t47.5 -111.5q0 -83 -62 -139t-160 -56q-100 0 -190 33z" />
<glyph unicode="&#xbb;" horiz-adv-x="1210" d="M117 221l344 367l-344 366l123 115l395 -434v-94l-395 -435zM608 221l344 367l-344 366l123 115l395 -434v-94l-395 -435z" />
<glyph unicode="&#xc1;" d="M29 0v31l567 1423h311l566 -1423v-31h-205l-156 397h-727l-154 -397h-202zM451 567h596l-275 713h-45zM559 1630l293 252l92 -113l-315 -227z" />
<glyph unicode="&#xc2;" d="M29 0v31l567 1423h311l566 -1423v-31h-205l-156 397h-727l-154 -397h-202zM451 567h596l-275 713h-45zM459 1573v31l223 217h139l223 -217v-31h-108l-184 143l-185 -143h-108z" />
<glyph unicode="&#xc4;" d="M29 0v31l567 1423h311l566 -1423v-31h-205l-156 397h-727l-154 -397h-202zM410 1716q0 46 32.5 78.5t79.5 32.5q46 0 79.5 -32.5t33.5 -78.5q0 -47 -33.5 -79.5t-79.5 -32.5q-47 0 -79.5 32.5t-32.5 79.5zM451 567h596l-275 713h-45zM868 1716q0 46 32.5 78.5t78.5 32.5 t79.5 -32.5t33.5 -78.5q0 -47 -33.5 -79.5t-79.5 -32.5t-78.5 32.5t-32.5 79.5z" />
<glyph unicode="&#xc7;" horiz-adv-x="1527" d="M131 725q0 210 101.5 383.5t276 272t382.5 98.5q174 0 313 -55t262 -179l-143 -135q-101 98 -204.5 140t-231.5 42q-111 0 -212 -43t-174.5 -117.5t-117 -180t-43.5 -224.5q0 -154 73.5 -284t200.5 -205.5t277 -75.5q261 0 446 203l138 -125q-110 -127 -233.5 -190 t-289.5 -73l-10 -90q72 -3 120 -47t48 -112q0 -84 -59.5 -139.5t-159.5 -55.5q-111 0 -193 33l31 110q21 -9 60.5 -15.5t62.5 -6.5q51 0 83 25.5t32 70.5q0 86 -158 86l18 141q-137 9 -262.5 66.5t-222 152t-154 232.5t-57.5 297z" />
<glyph unicode="&#xc9;" horiz-adv-x="1329" d="M240 0v1454h985v-180h-787v-459h684v-176h-684v-459h805v-180h-1003zM539 1630l292 252l93 -113l-316 -227z" />
<glyph unicode="&#xcb;" horiz-adv-x="1329" d="M240 0v1454h985v-180h-787v-459h684v-176h-684v-459h805v-180h-1003zM387 1716q0 46 33 78.5t80 32.5q46 0 78 -32.5t32 -78.5q0 -47 -32 -79.5t-78 -32.5q-47 0 -80 32.5t-33 79.5zM844 1716q0 46 32.5 78.5t79.5 32.5q46 0 78.5 -32.5t32.5 -78.5q0 -47 -32.5 -79.5 t-78.5 -32.5q-47 0 -79.5 32.5t-32.5 79.5z" />
<glyph unicode="&#xcd;" horiz-adv-x="600" d="M164 1630l291 252l92 -113l-314 -227zM199 0v1454h200v-1454h-200z" />
<glyph unicode="&#xce;" horiz-adv-x="600" d="M8 1573v31l223 217h140l223 -217v-31h-109l-184 143l-184 -143h-109zM199 0v1454h200v-1454h-200z" />
<glyph unicode="&#xd3;" horiz-adv-x="1761" d="M129 725q0 158 60 299t162 241t241 158t291 58q151 0 288.5 -58.5t238.5 -158t160.5 -239.5t59.5 -296q0 -212 -101.5 -386t-273.5 -272t-376 -98q-150 0 -288 58t-239.5 157.5t-162 240t-60.5 296.5zM340 729q0 -118 42.5 -223.5t115 -182t173 -121t212.5 -44.5 q147 0 271 75.5t195.5 206t71.5 285.5q0 118 -42.5 223.5t-115 182t-173 121t-211.5 44.5q-149 0 -273 -75t-195 -205.5t-71 -286.5zM688 1630l293 252l92 -113l-315 -227z" />
<glyph unicode="&#xd4;" horiz-adv-x="1761" d="M129 725q0 158 60 299t162 241t241 158t291 58q151 0 288.5 -58.5t238.5 -158t160.5 -239.5t59.5 -296q0 -212 -101.5 -386t-273.5 -272t-376 -98q-150 0 -288 58t-239.5 157.5t-162 240t-60.5 296.5zM340 729q0 -118 42.5 -223.5t115 -182t173 -121t212.5 -44.5 q147 0 271 75.5t195.5 206t71.5 285.5q0 118 -42.5 223.5t-115 182t-173 121t-211.5 44.5q-149 0 -273 -75t-195 -205.5t-71 -286.5zM586 1567v32l225 218h137l226 -218v-32h-109l-184 143l-187 -143h-108z" />
<glyph unicode="&#xd6;" horiz-adv-x="1761" d="M129 725q0 158 60 299t162 241t241 158t291 58q151 0 288.5 -58.5t238.5 -158t160.5 -239.5t59.5 -296q0 -212 -101.5 -386t-273.5 -272t-376 -98q-150 0 -288 58t-239.5 157.5t-162 240t-60.5 296.5zM340 729q0 -118 42.5 -223.5t115 -182t173 -121t212.5 -44.5 q147 0 271 75.5t195.5 206t71.5 285.5q0 118 -42.5 223.5t-115 182t-173 121t-211.5 44.5q-149 0 -273 -75t-195 -205.5t-71 -286.5zM539 1716q0 46 32.5 78.5t79.5 32.5q46 0 78.5 -32.5t32.5 -78.5q0 -47 -32.5 -79.5t-78.5 -32.5q-47 0 -79.5 32.5t-32.5 79.5zM995 1716 q0 46 33 78.5t80 32.5q46 0 79.5 -32.5t33.5 -78.5q0 -47 -33.5 -79.5t-79.5 -32.5q-47 0 -80 32.5t-33 79.5z" />
<glyph unicode="&#xda;" horiz-adv-x="1601" d="M176 563v891h201v-885q0 -183 116.5 -295t307.5 -112q183 0 304.5 113.5t121.5 293.5v885h198v-891q0 -173 -85.5 -309t-227 -207.5t-311.5 -71.5q-274 0 -449.5 162t-175.5 426zM649 1630l293 252l90 -113l-313 -227z" />
<glyph unicode="&#xdc;" horiz-adv-x="1601" d="M176 563v891h201v-885q0 -183 116.5 -295t307.5 -112q183 0 304.5 113.5t121.5 293.5v885h198v-891q0 -173 -85.5 -309t-227 -207.5t-311.5 -71.5q-274 0 -449.5 162t-175.5 426zM461 1716q0 46 32.5 78.5t79.5 32.5q45 0 78 -33t33 -78q0 -47 -33 -79.5t-78 -32.5 q-47 0 -79.5 32.5t-32.5 79.5zM918 1716q0 46 32.5 78.5t79.5 32.5q45 0 78 -33t33 -78q0 -47 -33 -79.5t-78 -32.5q-47 0 -79.5 32.5t-32.5 79.5z" />
<glyph unicode="&#xdd;" horiz-adv-x="1277" d="M-6 1421v33h199l417 -741h62l415 741h197v-33l-502 -886h-41v-535h-198v535h-45zM514 1630l293 252l92 -113l-315 -227z" />
<glyph unicode="&#xe1;" horiz-adv-x="1103" d="M88 311q0 139 121 233.5t309 94.5q103 0 258 -29v68q0 109 -73 172t-183 63q-167 0 -299 -84l-86 138q94 62 187 86t206 24q120 0 218 -47.5t157.5 -139.5t59.5 -212v-572q-172 -126 -449 -126q-185 0 -305.5 89t-120.5 242zM285 309q0 -83 69.5 -129.5t165.5 -46.5 q151 0 256 60v264q-125 26 -258 26q-110 0 -171.5 -48t-61.5 -126zM369 1262l293 251l92 -112l-316 -227z" />
<glyph unicode="&#xe2;" horiz-adv-x="1103" d="M88 311q0 139 121 233.5t309 94.5q103 0 258 -29v68q0 109 -73 172t-183 63q-167 0 -299 -84l-86 138q94 62 187 86t206 24q120 0 218 -47.5t157.5 -139.5t59.5 -212v-572q-172 -126 -449 -126q-185 0 -305.5 89t-120.5 242zM258 1204v31l225 217h138l225 -217v-31h-109 l-184 144l-186 -144h-109zM285 309q0 -83 69.5 -129.5t165.5 -46.5q151 0 256 60v264q-125 26 -258 26q-110 0 -171.5 -48t-61.5 -126z" />
<glyph unicode="&#xe4;" horiz-adv-x="1103" d="M88 311q0 139 121 233.5t309 94.5q103 0 258 -29v68q0 109 -73 172t-183 63q-167 0 -299 -84l-86 138q94 62 187 86t206 24q120 0 218 -47.5t157.5 -139.5t59.5 -212v-572q-172 -126 -449 -126q-185 0 -305.5 89t-120.5 242zM201 1348q0 46 32.5 78t79.5 32 q46 0 78.5 -32t32.5 -78q0 -47 -32.5 -80t-78.5 -33q-47 0 -79.5 33t-32.5 80zM285 309q0 -83 69.5 -129.5t165.5 -46.5q151 0 256 60v264q-125 26 -258 26q-110 0 -171.5 -48t-61.5 -126zM657 1348q0 46 33 78t80 32q46 0 79.5 -32.5t33.5 -77.5q0 -47 -33.5 -80t-79.5 -33 q-47 0 -80 33t-33 80z" />
<glyph unicode="&#xe7;" horiz-adv-x="1134" d="M98 528q0 117 46.5 220.5t124.5 175.5t181.5 113.5t215.5 41.5q251 0 419 -180l-127 -115q-63 59 -141.5 91t-150.5 32q-154 0 -264.5 -111.5t-110.5 -267.5q0 -158 109 -267t266 -109q75 0 152 32t140 92l127 -116q-145 -158 -358 -178l-12 -95q73 -3 120.5 -47.5 t47.5 -111.5q0 -83 -61.5 -139t-159.5 -56q-101 0 -191 33l31 108q60 -22 125 -22q49 0 81.5 26.5t32.5 71.5q0 86 -159 86l18 146q-215 22 -358.5 175t-143.5 371z" />
<glyph unicode="&#xe9;" horiz-adv-x="1210" d="M98 541q0 148 62.5 269.5t184.5 196t282 74.5q219 0 354 -134t135 -349q0 -79 -14 -147l-805 -2q13 -132 116.5 -220t235.5 -88q89 0 170.5 35.5t143.5 97.5l106 -116q-171 -183 -420 -183q-166 0 -293 77t-192.5 205t-65.5 284zM297 600h631v27q0 124 -82.5 207.5 t-218.5 83.5q-77 0 -140.5 -27.5t-103.5 -73t-62 -101.5t-24 -116zM453 1262l290 251l93 -112l-314 -227z" />
<glyph unicode="&#xeb;" horiz-adv-x="1210" d="M98 541q0 148 62.5 269.5t184.5 196t282 74.5q219 0 354 -134t135 -349q0 -79 -14 -147l-805 -2q13 -132 116.5 -220t235.5 -88q89 0 170.5 35.5t143.5 97.5l106 -116q-171 -183 -420 -183q-166 0 -293 77t-192.5 205t-65.5 284zM281 1348q0 46 32.5 78t79.5 32 q46 0 78.5 -32t32.5 -78q0 -47 -32.5 -80t-78.5 -33q-47 0 -79.5 33t-32.5 80zM297 600h631v27q0 124 -82.5 207.5t-218.5 83.5q-77 0 -140.5 -27.5t-103.5 -73t-62 -101.5t-24 -116zM737 1348q0 46 33 78t80 32q46 0 79.5 -32.5t33.5 -77.5q0 -47 -33.5 -80t-79.5 -33 q-47 0 -80 33t-33 80z" />
<glyph unicode="&#xed;" horiz-adv-x="491" d="M123 1262l293 251l92 -112l-315 -227zM150 0v1055h192v-1055h-192z" />
<glyph unicode="&#xee;" horiz-adv-x="491" d="M-45 1204v31l223 217h137l226 -217v-31h-109l-184 144l-187 -144h-106zM150 0v1055h192v-1055h-192z" />
<glyph unicode="&#xf3;" horiz-adv-x="1318" d="M98 526q0 154 75 281.5t204 200.5t282 73q114 0 218 -43t179.5 -116.5t120 -176.5t44.5 -217q0 -154 -76 -282t-205 -200.5t-283 -72.5q-152 0 -280.5 73t-203.5 200t-75 280zM291 528q0 -161 107.5 -274t260.5 -113q151 0 259 112t108 273q0 162 -108 274.5t-261 112.5 q-151 0 -258.5 -112t-107.5 -273zM465 1262l293 251l92 -112l-315 -227z" />
<glyph unicode="&#xf4;" horiz-adv-x="1318" d="M98 526q0 154 75 281.5t204 200.5t282 73q114 0 218 -43t179.5 -116.5t120 -176.5t44.5 -217q0 -154 -76 -282t-205 -200.5t-283 -72.5q-152 0 -280.5 73t-203.5 200t-75 280zM291 528q0 -161 107.5 -274t260.5 -113q151 0 259 112t108 273q0 162 -108 274.5t-261 112.5 q-151 0 -258.5 -112t-107.5 -273zM365 1204v31l225 217h137l225 -217v-31h-108l-187 144l-184 -144h-108z" />
<glyph unicode="&#xf6;" horiz-adv-x="1318" d="M98 526q0 154 75 281.5t204 200.5t282 73q114 0 218 -43t179.5 -116.5t120 -176.5t44.5 -217q0 -154 -76 -282t-205 -200.5t-283 -72.5q-152 0 -280.5 73t-203.5 200t-75 280zM291 528q0 -161 107.5 -274t260.5 -113q151 0 259 112t108 273q0 162 -108 274.5t-261 112.5 q-151 0 -258.5 -112t-107.5 -273zM317 1348q0 46 33 78t80 32q46 0 79.5 -32.5t33.5 -77.5q0 -47 -33.5 -80t-79.5 -33q-47 0 -80 33t-33 80zM776 1348q0 46 33 78t80 32q45 0 77.5 -32.5t32.5 -77.5q0 -47 -32.5 -80t-77.5 -33q-47 0 -80 33t-33 80z" />
<glyph unicode="&#xfa;" horiz-adv-x="1226" d="M143 420v635h189v-619q0 -130 81 -204t218 -74q121 0 256 57v840h190v-953q-101 -57 -224 -88.5t-239 -31.5q-206 0 -338.5 120t-132.5 318zM455 1262l290 251l93 -112l-316 -227z" />
<glyph unicode="&#xfc;" horiz-adv-x="1226" d="M143 420v635h189v-619q0 -130 81 -204t218 -74q121 0 256 57v840h190v-953q-101 -57 -224 -88.5t-239 -31.5q-206 0 -338.5 120t-132.5 318zM272 1348q0 46 33 78t80 32q46 0 78.5 -32t32.5 -78q0 -47 -32.5 -80t-78.5 -33q-47 0 -80 33t-33 80zM729 1348q0 46 33 78 t80 32q46 0 79 -32t33 -78q0 -47 -33 -80t-79 -33q-47 0 -80 33t-33 80z" />
<glyph unicode="&#xfd;" horiz-adv-x="1107" d="M4 1028v27h191l325 -860h58l327 860h199v-27l-596 -1485h-176v31l178 426h-98zM422 1262l293 251l92 -112l-315 -227z" />
<glyph unicode="&#x102;" d="M29 0v31l567 1423h311l566 -1423v-31h-205l-156 397h-727l-154 -397h-202zM451 567h596l-275 713h-45zM477 1823h127q1 -69 45.5 -107.5t106.5 -38.5q61 0 102.5 38.5t42.5 107.5h123q0 -123 -77.5 -192.5t-194.5 -69.5q-118 0 -196.5 69.5t-78.5 192.5z" />
<glyph unicode="&#x103;" horiz-adv-x="1103" d="M88 311q0 139 121 233.5t309 94.5q103 0 258 -29v68q0 109 -73 172t-183 63q-167 0 -299 -84l-86 138q94 62 187 86t206 24q120 0 218 -47.5t157.5 -139.5t59.5 -212v-572q-172 -126 -449 -126q-185 0 -305.5 89t-120.5 242zM279 1454h127q1 -69 44 -107t105 -38t104 38 t43 107h123q0 -123 -77.5 -192.5t-194.5 -69.5q-119 0 -196.5 69.5t-77.5 192.5zM285 309q0 -83 69.5 -129.5t165.5 -46.5q151 0 256 60v264q-125 26 -258 26q-110 0 -171.5 -48t-61.5 -126z" />
<glyph unicode="&#x104;" d="M29 0v31l567 1423h311l566 -1423v-31q-103 -70 -145 -124.5t-42 -108.5q0 -40 27.5 -71.5t70.5 -31.5q48 0 89 17l32 -123q-67 -27 -133 -27q-106 0 -170.5 62.5t-64.5 146.5q0 75 28 137.5t99 128.5h2l-154 391h-727l-154 -397h-202zM451 567h596l-275 713h-45z" />
<glyph unicode="&#x105;" horiz-adv-x="1114" d="M96 311q0 139 121 233.5t309 94.5q101 0 256 -29v68q0 109 -73 172t-183 63q-164 0 -299 -84l-86 138q94 62 187.5 86t206.5 24q120 0 218 -47.5t157 -139.5t59 -212v-572l-8 -6q-213 -161 -213 -317q0 -52 29 -86.5t73 -34.5q42 0 88 16l33 -120q-56 -27 -140 -27 q-97 0 -163 61.5t-66 153.5q0 68 27 128t88 124q-89 -18 -197 -18q-185 0 -304.5 89t-119.5 242zM291 309q0 -83 69.5 -129.5t165.5 -46.5q151 0 256 60v264q-125 26 -258 26q-108 0 -170.5 -48t-62.5 -126z" />
<glyph unicode="&#x106;" horiz-adv-x="1527" d="M131 725q0 210 101.5 383.5t276 272t382.5 98.5q174 0 313 -55t262 -179l-143 -135q-101 98 -204.5 140t-231.5 42q-111 0 -212 -43t-174.5 -117.5t-117 -180t-43.5 -224.5q0 -154 73.5 -284t200.5 -205.5t277 -75.5q261 0 446 203l138 -125q-121 -139 -260 -202 t-334 -63q-145 0 -280 53.5t-239.5 148.5t-167.5 238t-63 310zM678 1630l293 252l92 -113l-315 -227z" />
<glyph unicode="&#x107;" horiz-adv-x="1128" d="M96 528q0 117 46.5 220.5t124.5 175.5t181.5 113.5t215.5 41.5q252 0 417 -180l-127 -115q-61 59 -139.5 91t-150.5 32q-154 0 -264.5 -111.5t-110.5 -267.5q0 -158 109 -267t266 -109q75 0 151.5 32t138.5 92l127 -116q-168 -183 -417 -183q-155 0 -285 71t-206.5 198 t-76.5 282zM471 1262l293 251l92 -112l-315 -227z" />
<glyph unicode="&#x10c;" horiz-adv-x="1527" d="M131 725q0 210 101.5 383.5t276 272t382.5 98.5q174 0 313 -55t262 -179l-143 -135q-101 98 -204.5 140t-231.5 42q-111 0 -212 -43t-174.5 -117.5t-117 -180t-43.5 -224.5q0 -154 73.5 -284t200.5 -205.5t277 -75.5q261 0 446 203l138 -125q-121 -139 -260 -202 t-334 -63q-145 0 -280 53.5t-239.5 148.5t-167.5 238t-63 310zM596 1790v31h106l187 -144l184 144h109v-31l-224 -217h-139z" />
<glyph unicode="&#x10d;" horiz-adv-x="1128" d="M96 528q0 117 46.5 220.5t124.5 175.5t181.5 113.5t215.5 41.5q252 0 417 -180l-127 -115q-61 59 -139.5 91t-150.5 32q-154 0 -264.5 -111.5t-110.5 -267.5q0 -158 109 -267t266 -109q75 0 151.5 32t138.5 92l127 -116q-168 -183 -417 -183q-155 0 -285 71t-206.5 198 t-76.5 282zM369 1421v31h108l185 -143l186 143h106v-31l-223 -217h-137z" />
<glyph unicode="&#x10e;" horiz-adv-x="1615" d="M199 43v1411h501q183 0 332 -55t248 -152t152 -230.5t53 -291.5q0 -161 -54 -297.5t-153.5 -236t-250 -155.5t-335.5 -56q-113 0 -251 16t-242 47zM399 197q129 -35 293 -35q138 0 250 44t183.5 120.5t110 178t38.5 218.5q0 158 -65.5 282t-197 197.5t-311.5 73.5h-301 v-1079zM436 1763v31h109l184 -143l184 143h109v-31l-223 -217h-140z" />
<glyph unicode="&#x10f;" horiz-adv-x="1409" d="M98 514q0 241 160 396t401 155q119 0 232 -43v532h188v-1448q-81 -56 -193.5 -91t-219.5 -35q-123 0 -229.5 42t-180.5 113.5t-116 170t-42 208.5zM297 514q0 -158 102 -260t252 -102q130 0 240 55v641q-92 45 -217 45q-159 0 -268 -105.5t-109 -273.5zM1174 1491 q0 40 32 68t76 28q51 0 84 -40t33 -109q0 -86 -27.5 -158.5t-95.5 -142.5l-88 65q84 89 84 170q0 4 -1 12t-1 11h-13q-30 0 -56.5 28t-26.5 68z" />
<glyph unicode="&#x118;" horiz-adv-x="1329" d="M240 0v1454h985v-180h-787v-459h684v-176h-684v-459h805v-180h-39q-103 -70 -145.5 -124.5t-42.5 -108.5q0 -40 28.5 -72.5t69.5 -32.5q44 0 90 16l33 -120q-68 -27 -133 -27q-106 0 -171 62.5t-65 146.5q0 134 140 260h-768z" />
<glyph unicode="&#x119;" horiz-adv-x="1216" d="M94 541q0 110 37 208t104 172t167.5 117t220.5 43q219 0 354 -134t135 -349q0 -79 -14 -147l-805 -2q13 -132 116.5 -220t235.5 -88q89 0 171 36t142 97l107 -116q-89 -96 -199 -142q-168 -78 -168 -249q0 -40 28.5 -72.5t70.5 -32.5t88 16l33 -120q-65 -27 -134 -27 q-106 0 -170.5 62.5t-64.5 146.5q0 129 98 235h-2q-166 0 -293 77t-192.5 205t-65.5 284zM293 600h631v27q0 124 -82.5 207.5t-218.5 83.5q-77 0 -140.5 -27.5t-103.5 -73t-62 -101.5t-24 -116z" />
<glyph unicode="&#x11a;" horiz-adv-x="1329" d="M240 0v1454h985v-180h-787v-459h684v-176h-684v-459h805v-180h-1003zM434 1790v31h107l186 -144l184 144h109v-31l-225 -217h-138z" />
<glyph unicode="&#x11b;" horiz-adv-x="1210" d="M98 541q0 148 62.5 269.5t184.5 196t282 74.5q219 0 354 -134t135 -349q0 -79 -14 -147l-805 -2q13 -132 116.5 -220t235.5 -88q89 0 170.5 35.5t143.5 97.5l106 -116q-171 -183 -420 -183q-166 0 -293 77t-192.5 205t-65.5 284zM297 600h631v27q0 124 -82.5 207.5 t-218.5 83.5q-77 0 -140.5 -27.5t-103.5 -73t-62 -101.5t-24 -116zM328 1421v31h108l185 -143l184 143h108v-31l-223 -217h-139z" />
<glyph unicode="&#x139;" horiz-adv-x="1165" d="M195 1630l290 252l93 -113l-314 -227zM199 0v1454h200v-1274h734v-180h-934z" />
<glyph unicode="&#x13a;" horiz-adv-x="491" d="M113 1706l293 250l92 -111l-316 -229zM150 0v1554h192v-1554h-192z" />
<glyph unicode="&#x13d;" horiz-adv-x="1165" d="M199 0v1454h200v-1274h734v-180h-934zM532 1491q0 40 32.5 68t76.5 28q51 0 84 -40t33 -109q0 -86 -27.5 -158.5t-95.5 -142.5l-88 65q84 89 84 170q0 17 -2 23h-13q-30 0 -57 28t-27 68z" />
<glyph unicode="&#x13e;" horiz-adv-x="667" d="M150 0v1554h192v-1554h-192zM424 1491q0 40 32 68t76 28q51 0 84 -40t33 -109q0 -173 -123 -301l-90 65q86 91 86 170q0 4 -1 12t-1 11h-12q-30 0 -57 28t-27 68z" />
<glyph unicode="&#x141;" horiz-adv-x="1200" d="M12 602l240 129v723h201v-641l366 191l72 -154l-438 -221v-449h733v-180h-934v549l-174 -90z" />
<glyph unicode="&#x142;" horiz-adv-x="641" d="M0 612l211 174v768h192v-641l181 148l86 -119l-267 -211v-731h-192v604l-123 -104z" />
<glyph unicode="&#x143;" horiz-adv-x="1685" d="M199 0v1454h286l772 -1194h33v1194h195v-1454h-266l-789 1202h-35v-1202h-196zM690 1630l293 252l92 -113l-315 -227z" />
<glyph unicode="&#x144;" horiz-adv-x="1232" d="M150 0v952q103 58 227.5 92.5t238.5 34.5q207 0 340.5 -120t133.5 -318v-641h-189v633q0 129 -83.5 201.5t-217.5 72.5q-125 0 -260 -57v-850h-190zM442 1262l293 251l92 -112l-315 -227z" />
<glyph unicode="&#x147;" horiz-adv-x="1685" d="M199 0v1454h286l772 -1194h33v1194h195v-1454h-266l-789 1202h-35v-1202h-196zM578 1790v31h106l186 -144l185 144h108v-31l-225 -217h-137z" />
<glyph unicode="&#x148;" horiz-adv-x="1232" d="M150 0v952q101 58 225.5 92.5t238.5 34.5q207 0 341.5 -120t134.5 -318v-641h-191v633q0 129 -83.5 201.5t-217.5 72.5q-125 0 -260 -57v-850h-188zM319 1421v31h109l184 -143l185 143h108v-31l-223 -217h-139z" />
<glyph unicode="&#x150;" horiz-adv-x="1761" d="M129 725q0 158 60 299t162 241t241 158t291 58q151 0 288.5 -58.5t238.5 -158t160.5 -239.5t59.5 -296q0 -212 -101.5 -386t-273.5 -272t-376 -98q-150 0 -288 58t-239.5 157.5t-162 240t-60.5 296.5zM340 729q0 -118 42.5 -223.5t115 -182t173 -121t212.5 -44.5 q147 0 271 75.5t195.5 206t71.5 285.5q0 118 -42.5 223.5t-115 182t-173 121t-211.5 44.5q-149 0 -273 -75t-195 -205.5t-71 -286.5zM553 1630l291 252l92 -113l-315 -227zM924 1630l290 252l93 -113l-316 -227z" />
<glyph unicode="&#x151;" horiz-adv-x="1318" d="M98 526q0 154 75 281.5t204 200.5t282 73q114 0 218 -43t179.5 -116.5t120 -176.5t44.5 -217q0 -154 -76 -282t-205 -200.5t-283 -72.5q-152 0 -280.5 73t-203.5 200t-75 280zM291 528q0 -161 107.5 -274t260.5 -113q151 0 259 112t108 273q0 162 -108 274.5t-261 112.5 q-151 0 -258.5 -112t-107.5 -273zM334 1262l293 251l92 -112l-316 -227zM705 1262l292 251l93 -112l-316 -227z" />
<glyph unicode="&#x154;" horiz-adv-x="1413" d="M199 0v1454h514q254 0 394 -115t140 -338q0 -166 -85 -280.5t-232 -167.5l362 -522v-31h-205l-344 516h-49q-153 0 -297 25v-541h-198zM397 721q110 -25 254 -25q387 0 387 305q0 134 -84.5 204.5t-232.5 70.5h-324v-555zM498 1630l293 252l92 -113l-316 -227z" />
<glyph unicode="&#x155;" horiz-adv-x="694" d="M150 0v1055h544v-164h-352v-891h-192zM240 1262l292 251l93 -112l-316 -227z" />
<glyph unicode="&#x158;" horiz-adv-x="1413" d="M199 0v1454h514q254 0 394 -115t140 -338q0 -166 -85 -280.5t-232 -167.5l362 -522v-31h-205l-344 516h-49q-153 0 -297 25v-541h-198zM377 1790v31h108l185 -144l186 144h107v-31l-224 -217h-139zM397 721q110 -25 254 -25q387 0 387 305q0 134 -84.5 204.5t-232.5 70.5 h-324v-555z" />
<glyph unicode="&#x159;" horiz-adv-x="694" d="M123 1421v31h106l187 -143l184 143h109v-31l-224 -217h-139zM150 0v1055h544v-164h-352v-891h-192z" />
<glyph unicode="&#x15a;" horiz-adv-x="1308" d="M86 229l143 123q72 -91 188.5 -139.5t239.5 -48.5q143 0 231.5 63.5t88.5 169.5q0 161 -219 215l-266 66q-159 40 -246.5 147t-87.5 244q0 176 139 288.5t369 112.5q277 0 487 -188l-125 -131q-181 139 -371 139q-132 0 -211 -57.5t-79 -163.5q0 -168 208 -219l246 -59 q177 -42 272 -145t95 -245q0 -87 -36.5 -163t-104 -133t-170.5 -90t-228 -33q-175 0 -324.5 63.5t-238.5 183.5zM481 1630l293 252l92 -113l-315 -227z" />
<glyph unicode="&#x15b;" horiz-adv-x="999" d="M63 150l111 122q138 -127 346 -127q109 0 159 43t50 103q0 54 -36 87t-115 52l-160 35q-143 32 -221 111.5t-78 193.5q0 134 109.5 221.5t291.5 87.5q218 0 387 -135l-110 -129q-127 96 -291 96q-91 0 -141 -42t-50 -95q0 -58 38.5 -95.5t121.5 -57.5l158 -35 q137 -31 215 -104.5t78 -178.5q0 -64 -26 -122t-76.5 -104t-133 -73t-186.5 -27q-279 0 -441 173zM342 1262l293 251l92 -112l-315 -227z" />
<glyph unicode="&#x15e;" horiz-adv-x="1308" d="M86 229l143 123q72 -91 188.5 -139.5t239.5 -48.5q143 0 231.5 63.5t88.5 169.5q0 161 -219 215l-266 66q-159 40 -246.5 147t-87.5 244q0 176 139 288.5t369 112.5q277 0 487 -188l-125 -131q-181 139 -371 139q-132 0 -211 -57.5t-79 -163.5q0 -168 208 -219l246 -59 q177 -42 272 -145t95 -245q0 -164 -123.5 -280.5t-337.5 -134.5l-12 -99q72 -3 120 -47t48 -112q0 -84 -59.5 -139.5t-161.5 -55.5q-108 0 -191 33l31 110q21 -9 60 -15.5t63 -6.5q51 0 82.5 25.5t31.5 70.5q0 86 -157 86l18 148q-160 8 -295.5 70.5t-218.5 174.5z" />
<glyph unicode="&#x15f;" horiz-adv-x="999" d="M63 150l111 122q138 -127 346 -127q109 0 159 43t50 103q0 54 -36 87t-115 52l-160 35q-143 32 -221 111.5t-78 193.5q0 134 109.5 221.5t291.5 87.5q218 0 387 -135l-110 -129q-127 96 -291 96q-91 0 -141 -42t-50 -95q0 -58 38.5 -95.5t121.5 -57.5l158 -35 q137 -31 215 -104.5t78 -178.5q0 -123 -91.5 -214t-261.5 -107l-12 -95q73 -3 121.5 -47.5t48.5 -111.5q0 -83 -61.5 -139t-159.5 -56q-105 0 -191 33l31 108q60 -22 125 -22q49 0 81 26.5t32 71.5q0 86 -158 86l16 144q-242 16 -383 170z" />
<glyph unicode="&#x160;" horiz-adv-x="1308" d="M86 229l143 123q72 -91 188.5 -139.5t239.5 -48.5q143 0 231.5 63.5t88.5 169.5q0 161 -219 215l-266 66q-159 40 -246.5 147t-87.5 244q0 176 139 288.5t369 112.5q277 0 487 -188l-125 -131q-181 139 -371 139q-132 0 -211 -57.5t-79 -163.5q0 -168 208 -219l246 -59 q177 -42 272 -145t95 -245q0 -87 -36.5 -163t-104 -133t-170.5 -90t-228 -33q-175 0 -324.5 63.5t-238.5 183.5zM381 1790v31h108l185 -144l186 144h107v-31l-224 -217h-137z" />
<glyph unicode="&#x161;" horiz-adv-x="999" d="M63 150l111 122q138 -127 346 -127q109 0 159 43t50 103q0 54 -36 87t-115 52l-160 35q-143 32 -221 111.5t-78 193.5q0 134 109.5 221.5t291.5 87.5q218 0 387 -135l-110 -129q-127 96 -291 96q-91 0 -141 -42t-50 -95q0 -58 38.5 -95.5t121.5 -57.5l158 -35 q137 -31 215 -104.5t78 -178.5q0 -64 -26 -122t-76.5 -104t-133 -73t-186.5 -27q-279 0 -441 173zM231 1421v31h109l184 -143l185 143h108v-31l-223 -217h-139z" />
<glyph unicode="&#x162;" horiz-adv-x="1136" d="M4 1274v180h1129v-180h-463v-1274h-201v1274h-465zM453 -244q0 51 35 86t85 35q62 0 100 -51t38 -143q0 -221 -144 -390l-96 72q54 65 78 127t24 109q0 25 -4 37q-2 0 -5.5 -1.5t-6.5 -1.5q-37 0 -70.5 35t-33.5 86z" />
<glyph unicode="&#x163;" horiz-adv-x="727" d="M49 891v164h144l16 313l166 29v-342h264v-164h-264v-578q0 -71 37 -112t104 -41q56 0 123 26l59 -153q-95 -45 -202 -45q-148 0 -229 83.5t-81 233.5v586h-137zM309 -184q0 40 32.5 68t76.5 28q51 0 84 -40.5t33 -109.5q0 -176 -125 -301l-88 64q86 91 86 172q0 3 -1 11 t-1 11h-15q-29 0 -55.5 28t-26.5 69z" />
<glyph unicode="&#x164;" horiz-adv-x="1136" d="M4 1274v180h1129v-180h-463v-1274h-201v1274h-465zM274 1790v31h109l184 -144l185 144h108v-31l-223 -217h-139z" />
<glyph unicode="&#x165;" horiz-adv-x="933" d="M47 891v164h143l17 313l166 29v-342h264v-164h-264v-578q0 -71 37 -112t104 -41q56 0 123 26l57 -153q-92 -45 -200 -45q-148 0 -229 83.5t-81 233.5v586h-137zM453 1491q0 40 32 68t76 28q51 0 84 -40t33 -109q0 -86 -27.5 -158.5t-95.5 -142.5l-90 65q86 89 86 170 q0 4 -1 12t-1 11h-12q-30 0 -57 28t-27 68z" />
<glyph unicode="&#x16e;" horiz-adv-x="1601" d="M176 563v891h201v-885q0 -183 116.5 -295t307.5 -112q183 0 304.5 113.5t121.5 293.5v885h198v-891q0 -173 -85.5 -309t-227 -207.5t-311.5 -71.5q-274 0 -449.5 162t-175.5 426zM616 1704q0 79 51.5 130.5t131.5 51.5q82 0 134 -51t52 -131q0 -82 -52 -133t-134 -51 q-80 0 -131.5 51.5t-51.5 132.5zM705 1704q0 -43 25.5 -69.5t68.5 -26.5t69.5 26.5t26.5 69.5t-26.5 68.5t-69.5 25.5t-68.5 -25.5t-25.5 -68.5z" />
<glyph unicode="&#x16f;" horiz-adv-x="1226" d="M143 420v635h189v-619q0 -130 81 -204t218 -74q121 0 256 57v840h190v-953q-101 -57 -224 -88.5t-239 -31.5q-206 0 -338.5 120t-132.5 318zM428 1335q0 79 52 131t132 52q82 0 134.5 -51.5t52.5 -131.5q0 -81 -52.5 -132.5t-134.5 -51.5q-80 0 -132 51.5t-52 132.5z M518 1335q0 -43 25.5 -69.5t68.5 -26.5t70 26.5t27 69.5t-27 69t-70 26t-68.5 -26t-25.5 -69z" />
<glyph unicode="&#x170;" horiz-adv-x="1601" d="M176 563v891h201v-885q0 -183 116.5 -295t307.5 -112q183 0 304.5 113.5t121.5 293.5v885h198v-891q0 -173 -85.5 -309t-227 -207.5t-311.5 -71.5q-274 0 -449.5 162t-175.5 426zM475 1630l293 252l92 -113l-315 -227zM846 1630l293 252l92 -113l-316 -227z" />
<glyph unicode="&#x171;" horiz-adv-x="1226" d="M143 420v635h189v-619q0 -130 81 -204t218 -74q121 0 256 57v840h190v-953q-101 -57 -224 -88.5t-239 -31.5q-206 0 -338.5 120t-132.5 318zM289 1262l293 251l92 -112l-316 -227zM659 1262l293 251l90 -112l-313 -227z" />
<glyph unicode="&#x179;" horiz-adv-x="1327" d="M117 0v158l819 1112h-782v184h1040v-147l-823 -1123h880v-184h-1134zM512 1630l293 252l92 -113l-315 -227z" />
<glyph unicode="&#x17a;" horiz-adv-x="978" d="M70 0v141l587 750h-551v164h795v-146l-590 -745h623v-164h-864zM348 1262l293 251l92 -112l-315 -227z" />
<glyph unicode="&#x17b;" horiz-adv-x="1327" d="M117 0v158l819 1112h-782v184h1040v-147l-823 -1123h880v-184h-1134zM551 1716q0 46 33 78.5t80 32.5q46 0 78 -32.5t32 -78.5q0 -47 -32 -79.5t-78 -32.5q-47 0 -80 32.5t-33 79.5z" />
<glyph unicode="&#x17c;" horiz-adv-x="1009" d="M96 0v141l588 750h-549v164h793v-146l-588 -745h621v-164h-865zM387 1348q0 46 33 78t80 32q45 0 77.5 -32.5t32.5 -77.5q0 -47 -32.5 -80t-77.5 -33q-47 0 -80 33t-33 80z" />
<glyph unicode="&#x17d;" horiz-adv-x="1327" d="M117 0v158l819 1112h-782v184h1040v-147l-823 -1123h880v-184h-1134zM387 1790v31h109l184 -144l186 144h107v-31l-223 -217h-138z" />
<glyph unicode="&#x17e;" horiz-adv-x="978" d="M70 0v141l587 750h-551v164h795v-146l-590 -745h623v-164h-864zM195 1421v31h108l186 -143l185 143h108v-31l-225 -217h-137z" />
<glyph unicode="&#x218;" horiz-adv-x="1308" d="M86 229l143 123q72 -91 188.5 -139.5t239.5 -48.5q143 0 231.5 63.5t88.5 169.5q0 161 -219 215l-266 66q-159 40 -246.5 147t-87.5 244q0 176 139 288.5t369 112.5q277 0 487 -188l-125 -131q-181 139 -371 139q-132 0 -211 -57.5t-79 -163.5q0 -168 208 -219l246 -59 q177 -42 272 -145t95 -245q0 -87 -36.5 -163t-104 -133t-170.5 -90t-228 -33q-175 0 -324.5 63.5t-238.5 183.5zM555 -184q0 40 32.5 68t76.5 28q51 0 83.5 -40.5t32.5 -109.5q0 -178 -123 -301l-88 64q84 89 84 172q0 16 -2 22h-12q-30 0 -57 27.5t-27 69.5z" />
<glyph unicode="&#x219;" horiz-adv-x="999" d="M63 150l111 122q138 -127 346 -127q109 0 159 43t50 103q0 54 -36 87t-115 52l-160 35q-143 32 -221 111.5t-78 193.5q0 134 109.5 221.5t291.5 87.5q218 0 387 -135l-110 -129q-127 96 -291 96q-91 0 -141 -42t-50 -95q0 -58 38.5 -95.5t121.5 -57.5l158 -35 q137 -31 215 -104.5t78 -178.5q0 -64 -26 -122t-76.5 -104t-133 -73t-186.5 -27q-279 0 -441 173zM401 -184q0 40 32.5 68t76.5 28q51 0 84 -40.5t33 -109.5q0 -178 -123 -301l-88 64q84 89 84 172q0 16 -2 22h-13q-30 0 -57 27.5t-27 69.5z" />
<glyph unicode="&#x2c6;" horiz-adv-x="784" d="M98 1204v31l226 217h137l225 -217v-31h-108l-185 144l-186 -144h-109z" />
<glyph unicode="&#x2da;" horiz-adv-x="567" d="M98 1335q0 79 52.5 131t132.5 52q82 0 134 -51.5t52 -131.5q0 -82 -52 -133t-134 -51q-80 0 -132.5 51.5t-52.5 132.5zM188 1335q0 -43 26 -69.5t69 -26.5t69.5 26.5t26.5 69.5t-26.5 69t-69.5 26t-69 -26t-26 -69z" />
<glyph unicode="&#x2dc;" horiz-adv-x="876" d="M100 1274q42 93 90 131.5t117 38.5q70 0 160 -62q56 -43 100 -43q37 0 64 23t51 80l94 -47q-40 -93 -89 -132.5t-118 -39.5q-68 0 -157 63q-60 43 -103 43q-37 0 -63.5 -23t-48.5 -81z" />
<glyph unicode="&#x2000;" horiz-adv-x="978" />
<glyph unicode="&#x2001;" horiz-adv-x="1956" />
<glyph unicode="&#x2002;" horiz-adv-x="978" />
<glyph unicode="&#x2003;" horiz-adv-x="1956" />
<glyph unicode="&#x2004;" horiz-adv-x="652" />
<glyph unicode="&#x2005;" horiz-adv-x="489" />
<glyph unicode="&#x2006;" horiz-adv-x="326" />
<glyph unicode="&#x2007;" horiz-adv-x="326" />
<glyph unicode="&#x2008;" horiz-adv-x="244" />
<glyph unicode="&#x2009;" horiz-adv-x="391" />
<glyph unicode="&#x200a;" horiz-adv-x="108" />
<glyph unicode="&#x2010;" horiz-adv-x="733" d="M106 561v180h521v-180h-521z" />
<glyph unicode="&#x2011;" horiz-adv-x="733" d="M106 561v180h521v-180h-521z" />
<glyph unicode="&#x2012;" horiz-adv-x="733" d="M106 561v180h521v-180h-521z" />
<glyph unicode="&#x2013;" horiz-adv-x="884" d="M0 561v180h885v-180h-885z" />
<glyph unicode="&#x2014;" horiz-adv-x="1280" d="M0 561v180h1280v-180h-1280z" />
<glyph unicode="&#x2018;" horiz-adv-x="520" d="M133 1110q0 210 135 369l90 -68q-50 -60 -73 -120t-23 -101q0 -29 8 -45q12 4 15 4q36 0 68 -33t32 -78q0 -49 -33.5 -82.5t-81.5 -33.5q-57 0 -97 52t-40 136z" />
<glyph unicode="&#x2019;" horiz-adv-x="520" d="M135 1356q0 49 34.5 83t82.5 34q57 0 96 -52.5t39 -136.5q0 -212 -133 -369l-90 68q50 60 72 119t22 102q0 29 -8 45q-8 -4 -14 -4q-36 0 -68.5 32t-32.5 79z" />
<glyph unicode="&#x201a;" horiz-adv-x="520" d="M135 106q0 47 35 81t82 34q57 0 96 -52t39 -136q0 -212 -133 -369l-90 70q50 60 72 119t22 102q0 27 -8 43q-8 -4 -14 -4q-36 0 -68.5 32.5t-32.5 79.5z" />
<glyph unicode="&#x201c;" horiz-adv-x="847" d="M133 1110q0 210 135 369l90 -68q-50 -60 -73 -120t-23 -101q0 -29 8 -45q12 4 15 4q36 0 68 -33t32 -78q0 -49 -33.5 -82.5t-81.5 -33.5q-57 0 -97 52t-40 136zM461 1110q0 212 133 369l90 -68q-50 -59 -72 -119t-22 -102q0 -29 8 -45q8 4 14 4q36 0 68.5 -33t32.5 -78 q0 -49 -34.5 -82.5t-82.5 -33.5q-57 0 -96 52t-39 136z" />
<glyph unicode="&#x201d;" horiz-adv-x="847" d="M135 1356q0 49 34.5 83t82.5 34q57 0 96 -52.5t39 -136.5q0 -212 -133 -369l-90 68q50 60 72 119t22 102q0 29 -8 45q-8 -4 -14 -4q-36 0 -68.5 32t-32.5 79zM463 1356q0 49 33.5 83t81.5 34q57 0 97 -52.5t40 -136.5q0 -210 -135 -369l-91 68q51 60 74 119.5t23 101.5 q0 29 -8 45q-12 -4 -15 -4q-36 0 -68 32t-32 79z" />
<glyph unicode="&#x201e;" horiz-adv-x="847" d="M135 106q0 47 35 81t82 34q57 0 96 -52t39 -136q0 -212 -133 -369l-90 70q50 60 72 119t22 102q0 27 -8 43q-8 -4 -14 -4q-36 0 -68.5 32.5t-32.5 79.5zM463 106q0 47 34 81t81 34q57 0 97 -52t40 -136q0 -210 -135 -369l-91 70q51 60 74 119.5t23 101.5q0 27 -8 43 q-12 -4 -15 -4q-36 0 -68 32.5t-32 79.5z" />
<glyph unicode="&#x2022;" horiz-adv-x="792" d="M141 705q0 106 72.5 178.5t179.5 72.5q104 0 178 -73t74 -178t-74.5 -178.5t-177.5 -73.5q-107 0 -179.5 73t-72.5 179z" />
<glyph unicode="&#x2026;" horiz-adv-x="1638" d="M139 109q0 54 39 93.5t94 39.5q54 0 94 -39.5t40 -93.5q0 -60 -40.5 -97t-93.5 -37t-93 37t-40 97zM686 109q0 55 38.5 94t94.5 39q53 0 93 -39.5t40 -93.5q0 -60 -40 -97t-93 -37t-93 37t-40 97zM1231 109q0 54 39 93.5t94 39.5q54 0 94.5 -39.5t40.5 -93.5 q0 -60 -40.5 -97t-94.5 -37q-53 0 -93 37t-40 97z" />
<glyph unicode="&#x202f;" horiz-adv-x="391" />
<glyph unicode="&#x2039;" horiz-adv-x="716" d="M84 541v94l395 434l123 -115l-346 -366l346 -367l-123 -115z" />
<glyph unicode="&#x203a;" horiz-adv-x="716" d="M117 221l344 367l-344 366l123 115l395 -434v-94l-395 -435z" />
<glyph unicode="&#x205f;" horiz-adv-x="489" />
<glyph unicode="&#x20ac;" horiz-adv-x="1333" d="M88 473v158h166v182h-166v158h168q13 234 164.5 369t384.5 135q158 0 263 -49.5t187 -151.5l-145 -107q-107 131 -305 131q-154 0 -248 -83.5t-106 -243.5h608v-158h-610v-182h610v-158h-608q15 -156 108.5 -236.5t245.5 -80.5q198 0 305 131l145 -107 q-82 -101 -187 -150.5t-263 -49.5q-231 0 -381.5 131t-167.5 362h-168z" />
<glyph unicode="&#x2122;" horiz-adv-x="1529" d="M6 1362v92h520v-92h-204v-578h-111v578h-205zM530 799l97 655h178l176 -532l174 532h178l105 -655v-15h-103l-88 574h-18l-168 -516h-156l-174 518h-18l-82 -576h-99z" />
<glyph unicode="&#xe000;" horiz-adv-x="1054" d="M0 0v1055h1055v-1055h-1055z" />
</font>
</defs>
</svg>
