<?xml version="1.0" standalone="no"?>
<!DOCTYPE svg PUBLIC "-//W3C//DTD SVG 1.1//EN" "http://www.w3.org/Graphics/SVG/1.1/DTD/svg11.dtd" >
<svg xmlns="http://www.w3.org/2000/svg">
<metadata></metadata>
<defs>
<font id="kolo_bold" horiz-adv-x="534" >
<font-face units-per-em="2048" ascent="1536" descent="-512" />
<missing-glyph horiz-adv-x="768" />
<glyph horiz-adv-x="2048" />
<glyph horiz-adv-x="2048" />
<glyph unicode="&#xd;" horiz-adv-x="2048" />
<glyph unicode=" "  horiz-adv-x="768" />
<glyph unicode="&#x09;" horiz-adv-x="768" />
<glyph unicode="&#xa0;" horiz-adv-x="768" />
<glyph unicode="!" horiz-adv-x="653" d="M176 135q0 62 43 106t107 44q61 0 105 -44t44 -106q0 -63 -43.5 -106t-105.5 -43q-64 0 -107 43t-43 106zM197 451v1003h252v-1003h-252z" />
<glyph unicode="&#x22;" horiz-adv-x="976" d="M143 772v682h248l-55 -682h-193zM584 772v682h250l-58 -682h-192z" />
<glyph unicode="#" horiz-adv-x="1546" d="M53 377v219h285l76 317h-234v220h287l78 321h229v-37l-69 -284h313l78 321h231v-37l-70 -284h236v-220h-287l-78 -317h236v-219h-289l-90 -377h-229v37l82 340h-314l-90 -377h-229v37l82 340h-234zM575 596h314l76 317h-312z" />
<glyph unicode="$" horiz-adv-x="1247" d="M41 260l174 139q160 -192 401 -192q145 0 220 60t75 147q0 71 -53 113.5t-160 72.5l-245 68q-176 48 -264.5 150.5t-88.5 238.5q0 157 110.5 263.5t309.5 127.5v291h211v-293q109 -14 200 -60t183 -124l-141 -152q-189 135 -369 135q-120 0 -193 -49.5t-73 -138.5 q0 -40 15.5 -71t45.5 -52.5t62 -35.5t76 -26l245 -67q78 -21 143 -54.5t117.5 -80.5t81.5 -111t29 -139q0 -151 -111 -265.5t-311 -144.5v-327h-211v319q-311 29 -479 258z" />
<glyph unicode="%" horiz-adv-x="1708" d="M94 1006v196q0 126 95 202.5t225 76.5q83 0 155 -32.5t118 -97t46 -149.5v-196q0 -85 -46 -149.5t-118 -97t-155 -32.5q-130 0 -225 76.5t-95 202.5zM276 1026q0 -64 37 -97.5t101 -33.5q62 0 99.5 33.5t37.5 97.5v156q0 64 -37.5 97.5t-99.5 33.5q-64 0 -101 -33.5 t-37 -97.5v-156zM281 0v37l931 1417h211v-37l-938 -1417h-204zM975 252v197q0 126 94.5 202t224.5 76t225 -76t95 -202v-197q0 -126 -95 -202.5t-225 -76.5q-83 0 -155 32.5t-118 97t-46 149.5zM1157 272q0 -64 37 -97.5t100 -33.5q62 0 100 33.5t38 97.5v156q0 64 -38 97.5 t-100 33.5q-63 0 -100 -33.5t-37 -97.5v-156z" />
<glyph unicode="&#x26;" horiz-adv-x="1462" d="M90 451q0 149 76 256.5t211 162.5q-137 110 -137 267q-2 143 108.5 243.5t302.5 100.5q209 0 350 -125l-135 -170q-106 82 -213 82q-72 0 -118 -38t-46 -100q0 -126 152 -208h678v-207h-193v-606q-79 -59 -205.5 -95.5t-263.5 -36.5q-256 0 -411.5 128.5t-155.5 345.5z M344 467q0 -134 91.5 -203t248.5 -69q118 0 205 41v479h-236q-148 0 -228.5 -61.5t-80.5 -186.5z" />
<glyph unicode="'" d="M143 772v682h248l-55 -682h-193z" />
<glyph unicode="(" horiz-adv-x="823" d="M137 680q0 338 117 602.5t340 476.5l174 -168q-200 -207 -285.5 -413t-85.5 -498h-260zM137 680h260q0 -296 90.5 -521.5t288.5 -432.5l-174 -166q-221 210 -343 494t-122 626z" />
<glyph unicode=")" horiz-adv-x="823" d="M47 -274q198 207 288.5 432.5t90.5 521.5h260q0 -342 -122 -626t-343 -494zM55 1591l174 168q223 -212 340 -476.5t117 -602.5h-260q0 292 -85.5 498t-285.5 413z" />
<glyph unicode="*" horiz-adv-x="987" d="M37 1305l67 165l299 -110v328h181v-330l299 112l67 -165l-301 -113l201 -285l-148 -102l-208 293l-209 -293l-148 102l199 285z" />
<glyph unicode="+" horiz-adv-x="1091" d="M96 608v219h338v361h223v-361h338v-219h-338v-368h-223v368h-338z" />
<glyph unicode="," horiz-adv-x="612" d="M154 135q0 62 44 106t105 44q71 0 115.5 -55.5t44.5 -151.5q0 -249 -158 -432l-121 88q55 64 81 127.5t26 103.5q0 17 -2 25h-10q-42 0 -83.5 43t-41.5 102z" />
<glyph unicode="-" horiz-adv-x="724" d="M96 539v229h533v-229h-533z" />
<glyph unicode="." horiz-adv-x="604" d="M154 135q0 62 42.5 106t104.5 44q63 0 106.5 -44t43.5 -106q0 -63 -43.5 -106t-106.5 -43t-105 43t-42 106z" />
<glyph unicode="/" horiz-adv-x="833" d="M-47 -379l649 2153h238v-37l-645 -2153h-242v37z" />
<glyph unicode="0" horiz-adv-x="1400" d="M141 530v394q0 258 154.5 407.5t404.5 149.5t405 -149.5t155 -407.5v-394q0 -258 -155 -407.5t-405 -149.5t-404.5 149.5t-154.5 407.5zM389 530q0 -165 82 -248t229 -83t229.5 83t82.5 248v394q0 165 -82.5 248t-229.5 83t-229 -83t-82 -248v-394z" />
<glyph unicode="1" horiz-adv-x="716" d="M41 1221v233h489v-1454h-247v1221h-242z" />
<glyph unicode="2" horiz-adv-x="1126" d="M49 1214q81 133 209.5 198t288.5 65q98 0 186 -31.5t155 -88.5t106.5 -144t39.5 -191q0 -121 -67 -255t-197 -253l-319 -293h616v-221h-977v193l494 473q104 98 149 184t45 172q0 94 -73.5 160.5t-169.5 66.5q-181 0 -291 -159z" />
<glyph unicode="3" horiz-adv-x="1167" d="M-6 248l182 137q71 -96 153.5 -140t190.5 -44q126 0 203.5 69t77.5 183q0 120 -64.5 188t-197.5 68h-117v206h141q43 0 86 -6q68 68 68 160q0 73 -58 126.5t-143 53.5q-137 0 -221 -102l-170 121q64 100 172 152.5t231 52.5q182 0 310.5 -112t128.5 -271 q0 -137 -101 -256q93 -61 142 -155t49 -204q0 -103 -35.5 -192.5t-103.5 -158.5t-174.5 -109t-239.5 -40q-151 0 -285 68.5t-225 204.5z" />
<glyph unicode="4" horiz-adv-x="1230" d="M39 319v207l551 928h385v-917h207v-218h-207v-319h-252v319h-684zM305 537h418v669h-33z" />
<glyph unicode="5" horiz-adv-x="1247" d="M76 215l164 154q64 -86 150.5 -125t207.5 -39q117 0 191.5 76.5t74.5 193.5q0 120 -78.5 192t-203.5 72q-121 0 -222 -55l-190 64l78 706h751v-219h-546l-35 -303q77 29 182 29q223 0 371.5 -134t148.5 -346q0 -221 -144 -362.5t-390 -141.5q-345 0 -510 238z" />
<glyph unicode="6" horiz-adv-x="1282" d="M92 485q0 171 98 332l379 637h267v-37l-293 -463q50 17 135 17q90 0 176 -34.5t154 -95t109.5 -152t41.5 -197.5q0 -143 -70 -262t-191 -187t-265 -68q-148 0 -270.5 61t-196.5 178.5t-74 270.5zM348 492q0 -134 80.5 -212.5t204.5 -78.5q115 0 192.5 81.5t77.5 206.5 q0 118 -80.5 191.5t-204.5 73.5q-122 0 -200 -43q-70 -115 -70 -219z" />
<glyph unicode="7" horiz-adv-x="1040" d="M25 1233v221h960v-197l-598 -1257h-260v37l596 1196h-698z" />
<glyph unicode="8" horiz-adv-x="1290" d="M113 475q0 117 56.5 218.5t156.5 164.5q-99 122 -99 244q0 159 116.5 267t301.5 108q186 0 303 -107.5t117 -265.5q0 -123 -100 -246q101 -64 158 -164.5t57 -218.5q0 -103 -37.5 -194t-105 -159t-169.5 -107.5t-223 -39.5t-222 39.5t-168.5 107.5t-104.5 159t-37 194z M367 477q0 -121 78 -200.5t200 -79.5t200.5 79.5t78.5 200.5q0 116 -74 186t-180 70h-49q-104 0 -179 -70t-75 -186zM469 1102q0 -89 72 -170q41 6 80 6h49q40 0 80 -6q73 82 73 172q0 83 -48.5 129.5t-129.5 46.5q-79 0 -127.5 -47.5t-48.5 -130.5z" />
<glyph unicode="9" horiz-adv-x="1282" d="M84 963q0 143 70 261.5t190.5 186.5t265.5 68q148 0 270.5 -61t196.5 -178.5t74 -270.5q0 -171 -98 -332l-379 -637h-266v37l292 463q-50 -17 -135 -17q-90 0 -176 34.5t-154 95t-109.5 152.5t-41.5 198zM340 963q0 -117 80.5 -190t204.5 -73q122 0 200 43q70 112 70 220 q0 133 -80 210.5t-205 77.5q-115 0 -192.5 -81t-77.5 -207z" />
<glyph unicode=":" horiz-adv-x="608" d="M154 135q0 62 42.5 106t106.5 44q61 0 104.5 -44t43.5 -106q0 -63 -43 -106t-105 -43q-64 0 -106.5 43t-42.5 106zM154 858q0 62 42.5 105t106.5 43q61 0 104.5 -43t43.5 -105q0 -63 -43 -106t-105 -43q-64 0 -106.5 43t-42.5 106z" />
<glyph unicode=";" horiz-adv-x="608" d="M152 135q0 63 43.5 106.5t105.5 43.5q70 0 115 -55.5t45 -151.5q0 -249 -158 -432l-121 88q55 64 81 127.5t26 103.5q0 17 -2 25h-11q-43 0 -83.5 43t-40.5 102zM154 858q0 62 42.5 106t106.5 44q61 0 104.5 -44t43.5 -106q0 -63 -43 -106t-105 -43q-64 0 -106.5 43 t-42.5 106z" />
<glyph unicode="&#x3c;" horiz-adv-x="1083" d="M92 598v145l844 463v-256l-543 -280l543 -281v-256z" />
<glyph unicode="=" horiz-adv-x="1085" d="M100 403v220h891v-220h-891zM100 831v218h891v-218h-891z" />
<glyph unicode="&#x3e;" horiz-adv-x="1083" d="M141 950v256l844 -463v-145l-842 -465v256l541 281z" />
<glyph unicode="?" horiz-adv-x="1017" d="M29 1350q75 61 180 95t225 34q223 0 356.5 -104.5t133.5 -274.5q0 -137 -70 -229.5t-205 -172.5l-86 -51v-196h-246v294l152 86q110 62 156.5 116t46.5 132q0 84 -68 133.5t-182 49.5q-73 0 -148 -22.5t-127 -61.5zM283 135q0 62 42.5 106t106.5 44q62 0 106 -44.5 t44 -105.5q0 -63 -44 -106t-106 -43q-64 0 -106.5 43t-42.5 106z" />
<glyph unicode="@" horiz-adv-x="1710" d="M145 338v414q0 176 57 316.5t156.5 229.5t231 136t284.5 47q159 0 288.5 -45t209.5 -119t123 -165.5t43 -188.5v-635q-167 -138 -459 -138q-192 0 -314 93.5t-122 248.5q0 140 126.5 240t320.5 100q87 0 210 -24v92q0 155 -121 239.5t-311 84.5q-226 0 -353.5 -137 t-127.5 -382v-409q0 -229 140 -367.5t366 -138.5q277 0 450 213l187 -129q-209 -301 -635 -301q-157 0 -291.5 45.5t-237.5 133.5t-162 228t-59 318zM893 528q0 -66 56.5 -103.5t135.5 -37.5q131 0 215 47v219q-103 23 -213 23q-92 0 -143 -41.5t-51 -106.5z" />
<glyph unicode="A" horiz-adv-x="1538" d="M29 0v37l549 1417h383l548 -1417v-37h-264l-133 360h-690l-133 -360h-260zM500 575h532l-241 658h-48z" />
<glyph unicode="B" horiz-adv-x="1476" d="M229 51v1403h584q206 0 331.5 -111t125.5 -290q0 -84 -38 -161.5t-114 -129.5q106 -46 172 -141.5t66 -206.5q0 -190 -160 -311t-430 -121q-272 0 -537 69zM477 233q130 -26 303 -26q143 0 225 61t82 160q0 98 -67 151.5t-186 53.5h-357v-400zM477 842h418 q125 54 125 194q0 90 -59.5 146.5t-157.5 56.5h-326v-397z" />
<glyph unicode="C" horiz-adv-x="1527" d="M127 723q0 158 59.5 298.5t160.5 240.5t242 158.5t298 58.5q180 0 318.5 -54.5t267.5 -187.5l-183 -170q-102 97 -194 135.5t-211 38.5q-206 0 -349 -147.5t-143 -366.5q0 -139 66 -257.5t179.5 -187.5t248.5 -69q122 0 222 46.5t191 146.5l177 -160 q-126 -146 -263 -208.5t-340 -62.5q-143 0 -276 51.5t-238.5 145t-169 237t-63.5 314.5z" />
<glyph unicode="D" horiz-adv-x="1654" d="M229 41v1413h514q182 0 331 -55t248 -153t152.5 -232t53.5 -291q0 -162 -54.5 -298.5t-155 -235t-251 -154t-334.5 -55.5q-106 0 -255.5 16.5t-248.5 44.5zM483 238q122 -29 250 -29q126 0 227 40.5t166 111t99.5 162.5t34.5 198q0 142 -59.5 255.5t-178 182t-277.5 68.5 h-262v-989z" />
<glyph unicode="E" horiz-adv-x="1341" d="M229 0v1454h998v-229h-744v-394h658v-225h-658v-377h762v-229h-1016z" />
<glyph unicode="F" horiz-adv-x="1234" d="M229 0v1454h977v-229h-723v-416h598v-223h-598v-586h-254z" />
<glyph unicode="G" horiz-adv-x="1624" d="M127 723q0 158 59.5 298.5t160.5 240.5t242 158.5t298 58.5q180 0 318.5 -54.5t267.5 -187.5l-183 -170q-102 98 -194.5 137t-210.5 39q-135 0 -247.5 -67t-178.5 -185.5t-66 -263.5q0 -139 66 -257.5t179.5 -187.5t248.5 -69q198 0 352 131v371h246v-469 q-122 -136 -267 -203.5t-344 -67.5q-143 0 -276 51.5t-238.5 145t-169 237t-63.5 314.5z" />
<glyph unicode="H" horiz-adv-x="1736" d="M229 0v1454h254v-598h770v598h254v-1454h-254v627h-770v-627h-254z" />
<glyph unicode="I" horiz-adv-x="712" d="M229 0v1454h254v-1454h-254z" />
<glyph unicode="J" horiz-adv-x="684" d="M33 -270q196 96 196 264v1460h252v-1454q0 -167 -72.5 -282.5t-238.5 -198.5z" />
<glyph unicode="K" horiz-adv-x="1472" d="M229 0v1454h254v-612h189l448 612h258v-37l-487 -672l543 -708v-37h-263l-479 612h-209v-612h-254z" />
<glyph unicode="L" horiz-adv-x="1196" d="M229 0v1454h254v-1225h703v-229h-957z" />
<glyph unicode="M" horiz-adv-x="2136" d="M121 0v37l174 1417h416l348 -1110l327 1110h420l211 -1417v-37h-245l-168 1206h-45l-314 -1083h-352l-350 1087h-45l-140 -1210h-237z" />
<glyph unicode="N" horiz-adv-x="1785" d="M229 0v1454h351l690 -1120h37v1120h249v-1454h-329l-711 1126h-39v-1126h-248z" />
<glyph unicode="O" horiz-adv-x="1763" d="M125 725q0 212 103.5 386.5t277.5 272t379 97.5q151 0 289.5 -58t240.5 -157.5t162.5 -239t60.5 -295.5q0 -161 -60.5 -303t-163.5 -241t-242 -156.5t-293 -57.5q-149 0 -287.5 58t-241 157t-164 239.5t-61.5 297.5zM393 729q0 -144 65.5 -264t178.5 -189t248 -69 q133 0 245 68.5t177 188t65 261.5q0 107 -39 204t-105 166.5t-156.5 110.5t-190.5 41q-135 0 -247 -68.5t-176.5 -187.5t-64.5 -262z" />
<glyph unicode="P" horiz-adv-x="1384" d="M229 0v1454h529q263 0 405 -124.5t142 -354.5q0 -158 -76 -275.5t-202.5 -176t-283.5 -58.5q-108 0 -262 22v-487h-252zM481 717q92 -23 273 -23q127 0 205.5 76.5t78.5 204.5q0 118 -73 185t-197 67h-287v-510z" />
<glyph unicode="Q" horiz-adv-x="1783" d="M125 725q0 212 103.5 386.5t277.5 272t379 97.5q151 0 289.5 -58t240.5 -157.5t162.5 -239t60.5 -295.5q0 -164 -60.5 -304.5t-168.5 -244.5l133 -168l-166 -135l-141 180q-166 -86 -356 -86q-149 0 -287.5 58t-241 157t-164 239.5t-61.5 297.5zM393 729 q0 -144 65.5 -264t178.5 -189t248 -69q100 0 184 37l-156 188l174 133l156 -194q129 148 129 354q0 107 -39 204t-105 166.5t-156.5 110.5t-190.5 41q-135 0 -247 -68.5t-176.5 -187.5t-64.5 -262z" />
<glyph unicode="R" horiz-adv-x="1470" d="M229 0v1454h529q265 0 406 -117t141 -344q0 -164 -80.5 -278t-220.5 -170l356 -508v-37h-264l-332 500h-21q-136 0 -262 18v-518h-252zM481 748q86 -19 203 -19q193 0 273.5 64.5t80.5 199.5q0 115 -72 174.5t-198 59.5h-287v-479z" />
<glyph unicode="S" horiz-adv-x="1331" d="M74 236l182 159q75 -92 185 -137t227 -45q128 0 201 52.5t73 144.5q0 68 -44 111.5t-140 66.5l-275 69q-156 38 -241.5 149.5t-85.5 250.5q0 182 139.5 299t382.5 117q155 0 275.5 -49.5t228.5 -143.5l-158 -168q-184 129 -358 129q-116 0 -179 -48t-63 -138 q0 -141 168 -181l246 -57q180 -42 276 -149.5t96 -253.5q0 -88 -36 -166t-104 -138t-175 -95t-240 -35q-180 0 -332 64t-249 192z" />
<glyph unicode="T" horiz-adv-x="1171" d="M12 1225v229h1149v-229h-446v-1225h-254v1225h-449z" />
<glyph unicode="U" horiz-adv-x="1601" d="M168 565v889h256v-881q0 -164 103 -262t274 -98q164 0 270.5 99t106.5 261v881h256v-889q0 -133 -51 -245.5t-137.5 -187t-201.5 -116t-243 -41.5q-183 0 -326 70.5t-225 205.5t-82 314z" />
<glyph unicode="V" horiz-adv-x="1505" d="M31 1417v37h256l436 -1225h49q57 173 219 609t221 616h263v-37l-525 -1417h-405z" />
<glyph unicode="W" horiz-adv-x="2224" d="M61 1417v37h246l285 -1218h53l313 1218h302l321 -1218h51l283 1218h246v-37l-344 -1417h-408l-299 1147l-291 -1147h-411z" />
<glyph unicode="X" horiz-adv-x="1443" d="M25 0v37l481 719l-461 661v37h260l387 -584h39l365 584h258v-37l-436 -672l501 -708v-37h-274l-414 614h-39l-393 -614h-274z" />
<glyph unicode="Y" horiz-adv-x="1306" d="M-14 1417v37h254l383 -704h65l377 704h256v-37l-494 -895h-45v-522h-254v522h-45z" />
<glyph unicode="Z" horiz-adv-x="1337" d="M117 0v195l753 1026h-716v233h1046v-186l-756 -1032h809v-236h-1136z" />
<glyph unicode="[" horiz-adv-x="677" d="M166 -416v2190h418v-220h-170v-1751h170v-219h-418z" />
<glyph unicode="\" horiz-adv-x="833" d="M-14 1737v37h237l649 -2153v-37h-241z" />
<glyph unicode="]" horiz-adv-x="673" d="M94 -197h170v1751h-170v220h414v-2190h-414v219z" />
<glyph unicode="^" horiz-adv-x="1138" d="M53 651l443 803h145l444 -803h-256l-260 502l-260 -502h-256z" />
<glyph unicode="_" horiz-adv-x="1042" d="M0 -168h1042v-229h-1042v229z" />
<glyph unicode="`" horiz-adv-x="595" d="M23 1393l116 139l301 -256l-86 -111z" />
<glyph unicode="a" horiz-adv-x="1112" d="M84 319q0 140 126 240t318 100q103 0 211 -24v47q0 87 -62.5 139.5t-158.5 52.5q-162 0 -287 -77l-108 172q100 66 197 91t210 25q191 0 319 -113t128 -292v-565q-160 -135 -459 -135q-192 0 -313 92t-121 247zM334 315q0 -64 57 -102.5t135 -38.5q132 0 213 47v221 q-104 23 -213 23q-91 0 -141.5 -42t-50.5 -108z" />
<glyph unicode="b" horiz-adv-x="1243" d="M145 115v1439h242v-518q102 31 203 31q154 0 280 -67t200.5 -192t74.5 -284q0 -152 -74 -278q-75 -127 -207 -199q-124 -67 -272 -67h-21q-111 3 -229.5 40.5t-196.5 94.5zM387 242q95 -45 201 -45q127 0 216 90.5t89 236.5q0 148 -98 237t-224 89q-109 0 -184 -35v-573z " />
<glyph unicode="c" horiz-adv-x="1138" d="M96 530q0 118 47.5 222t126.5 176t183.5 113.5t216.5 41.5q254 0 426 -182l-162 -147q-57 55 -129 83.5t-135 28.5q-135 0 -231.5 -99.5t-96.5 -236.5q0 -138 95.5 -233.5t232.5 -95.5q65 0 136 28.5t128 83.5l162 -151q-175 -185 -426 -185q-154 0 -285.5 71.5t-210 199 t-78.5 282.5z" />
<glyph unicode="d" horiz-adv-x="1243" d="M96 514q0 160 75 287t204 196.5t287 69.5q92 0 194 -31v518h242v-1439q-79 -58 -199 -96.5t-227 -38.5q-125 0 -233 42t-183 114t-117.5 170t-42.5 208zM350 514q0 -137 88 -227t215 -90q108 0 203 45v573q-75 35 -174 35q-138 0 -235 -92.5t-97 -243.5z" />
<glyph unicode="e" horiz-adv-x="1216" d="M96 545q0 148 62 269.5t184.5 196t284.5 74.5q227 0 362 -135t135 -352q0 -86 -20 -168l-754 -2q13 -104 105 -173t196 -69q84 0 160 30t131 87l133 -149q-172 -179 -424 -179q-129 0 -235 45t-175 122.5t-107 181t-38 221.5zM350 618h533q2 8 2 21q0 99 -70 169.5 t-188 70.5q-68 0 -123 -24t-87.5 -62.5t-49.5 -83.5t-17 -91z" />
<glyph unicode="f" horiz-adv-x="720" d="M57 852v207h127v145q0 162 111 265.5t289 103.5q56 0 137 -25l-39 -200q-68 10 -115 10q-59 0 -99 -39.5t-40 -95.5v-164h240v-207h-242v-852h-242v852h-127z" />
<glyph unicode="g" horiz-adv-x="1243" d="M96 530q0 151 73 275t205 196t298 72q108 0 227 -38.5t199 -96.5v-969q0 -199 -136.5 -318.5t-365.5 -119.5q-235 0 -422 141l121 185q134 -109 326 -109q91 0 161 57.5t70 147.5v61q-95 -28 -199 -28q-154 0 -280.5 66.5t-201.5 192t-75 285.5zM350 530 q0 -100 48 -176.5t120.5 -113.5t153.5 -37q109 0 184 35v573q-88 45 -201 45q-127 0 -216 -90.5t-89 -235.5z" />
<glyph unicode="h" horiz-adv-x="1239" d="M145 0v1554h242v-532q132 49 234 49q209 0 346 -124.5t137 -323.5v-623h-242v616q0 109 -74.5 173.5t-183.5 64.5q-116 0 -217 -43v-811h-242z" />
<glyph unicode="i" d="M131 1350q0 55 39.5 94t97.5 39q54 0 93.5 -39.5t39.5 -93.5q0 -57 -39.5 -97.5t-93.5 -40.5q-58 0 -97.5 40.5t-39.5 97.5zM145 0v1059h244v-1059h-244z" />
<glyph unicode="j" d="M-176 -444l37 213q14 -6 60 -11.5t67 -5.5q65 0 111 60t46 133v1114h244v-1098q0 -119 -43 -213.5t-135.5 -153.5t-222.5 -59q-29 0 -82 6t-82 15zM131 1350q0 55 39.5 94t97.5 39q54 0 93.5 -39.5t39.5 -93.5q0 -57 -39.5 -97.5t-93.5 -40.5q-58 0 -97.5 40.5 t-39.5 97.5z" />
<glyph unicode="k" horiz-adv-x="1132" d="M145 0v1554h242v-886h133l295 391h256v-29l-340 -475l361 -526v-29h-254l-295 430h-154v-430h-244z" />
<glyph unicode="l" d="M145 0v1554h244v-1554h-244z" />
<glyph unicode="m" horiz-adv-x="1867" d="M145 0v948q98 58 222.5 90.5t234.5 32.5q188 0 313 -115q180 115 361 115q206 0 331.5 -125.5t125.5 -327.5v-618h-242v612q0 112 -62.5 177t-166.5 65q-101 0 -230 -70q29 -82 29 -166v-618h-242v612q0 118 -59 180t-172 62q-111 0 -201 -41v-813h-242z" />
<glyph unicode="n" horiz-adv-x="1239" d="M145 0v950q102 60 233.5 97.5t246.5 37.5q209 0 344 -124.5t135 -323.5v-637h-242v631q0 109 -71.5 173t-186.5 64q-102 0 -217 -49v-819h-242z" />
<glyph unicode="o" horiz-adv-x="1329" d="M96 528q0 154 75.5 282t206.5 201.5t288 73.5q155 0 285.5 -73.5t206 -201t75.5 -280.5q0 -155 -75.5 -283t-206 -201t-285.5 -73q-157 0 -288 73.5t-206.5 201t-75.5 280.5zM342 530q0 -143 94 -243.5t230 -100.5q135 0 228 99.5t93 242.5t-93 243.5t-228 100.5 q-136 0 -230 -100t-94 -242z" />
<glyph unicode="p" horiz-adv-x="1243" d="M145 -455v1399q80 58 199 96.5t227 38.5q125 0 233 -42t182 -114t116.5 -170t42.5 -208q0 -244 -158.5 -398.5t-406.5 -154.5q-84 0 -193 33v-480h-242zM387 246q75 -35 174 -35q138 0 239 92t101 242q0 136 -92.5 226.5t-220.5 90.5q-106 0 -201 -45v-571z" />
<glyph unicode="q" horiz-adv-x="1241" d="M96 535q0 113 44 214t120 173.5t183 114.5t229 42q108 0 227 -38.5t199 -96.5v-1399h-242v478q-102 -31 -203 -31q-154 0 -280.5 67t-201.5 192t-75 284zM350 535q0 -100 48 -176t120.5 -113t153.5 -37q109 0 184 35v573q-95 45 -201 45q-127 0 -216 -90.5t-89 -236.5z " />
<glyph unicode="r" horiz-adv-x="733" d="M145 0v1059h588v-207h-344v-852h-244z" />
<glyph unicode="s" horiz-adv-x="997" d="M53 147l137 158q74 -63 151 -90t179 -27q86 0 123 34t37 79q0 87 -115 109l-151 32q-144 30 -223.5 114.5t-79.5 201.5q0 142 114.5 234.5t296.5 92.5q214 0 391 -133l-141 -166q-130 86 -268 86q-65 0 -103.5 -34t-38.5 -74q0 -99 121 -125l152 -33q133 -30 215 -106.5 t82 -182.5q0 -68 -26.5 -128.5t-78 -109t-135.5 -76.5t-190 -28q-131 0 -249 42t-200 130z" />
<glyph unicode="t" horiz-adv-x="757" d="M47 852v207h137l19 299l213 35v-334h250v-207h-250v-508q0 -139 127 -139q53 0 125 31l73 -193q-88 -55 -223 -55q-172 0 -258 90t-86 256v518h-127z" />
<glyph unicode="u" horiz-adv-x="1232" d="M135 432v627h242v-608q0 -111 68.5 -177.5t187.5 -66.5q98 0 213 49v803h241v-948q-100 -59 -229 -93t-246 -34q-209 0 -343 124.5t-134 323.5z" />
<glyph unicode="v" horiz-adv-x="1132" d="M-2 1030v29h235l314 -834h39l307 834h242v-29l-398 -1030h-338z" />
<glyph unicode="w" horiz-adv-x="1695" d="M23 1030v29h253l168 -830h43l209 830h301l211 -830h43l172 830h250v-29l-248 -1030h-383l-192 768l-195 -768h-381z" />
<glyph unicode="x" horiz-adv-x="1114" d="M18 0v29l351 518l-338 483v29h239l273 -402h32l267 402h241v-29l-342 -493l357 -508v-29h-248l-279 412h-32l-273 -412h-248z" />
<glyph unicode="y" horiz-adv-x="1140" d="M-2 1030v29h246l288 -811h66l289 811h256v-29l-578 -1485h-225v37l172 418h-119z" />
<glyph unicode="z" horiz-adv-x="980" d="M66 0v174l526 678h-498v207h809v-185l-528 -667h565v-207h-874z" />
<glyph unicode="{" horiz-adv-x="843" d="M94 602v219q130 0 186 53t50 162l-21 342q-12 194 97.5 295t326.5 101v-220q-103 0 -144 -44t-36 -132l20 -342q7 -122 -41.5 -207t-142.5 -116q94 -32 142 -116.5t42 -209.5l-20 -407q-5 -89 36 -133t144 -44v-219q-216 0 -325 101t-99 295l21 407q6 110 -50 162.5 t-186 52.5z" />
<glyph unicode="|" horiz-adv-x="606" d="M188 -365v2104h230v-2104h-230z" />
<glyph unicode="}" horiz-adv-x="843" d="M111 -197q103 0 144 44t36 133l-21 407q-6 125 42.5 209.5t142.5 116.5q-94 31 -143 116t-42 207l21 342q5 88 -36 132t-144 44v220q217 0 326.5 -101t97.5 -295l-21 -342q-6 -109 50 -162t186 -53v-219q-130 0 -186 -52.5t-50 -162.5l21 -407q10 -194 -99 -295 t-325 -101v219z" />
<glyph unicode="~" horiz-adv-x="1306" d="M37 623q72 139 162 200.5t223 61.5q72 0 134 -25.5t161 -87.5q61 -39 95.5 -52t80.5 -13q51 0 90.5 32.5t73.5 108.5l213 -111q-72 -138 -162 -199t-223 -61q-73 0 -135.5 25.5t-159.5 87.5q-61 39 -95.5 52t-80.5 13q-51 0 -90.5 -32.5t-73.5 -108.5z" />
<glyph unicode="&#xa2;" horiz-adv-x="1177" d="M96 696q0 166 103 290t258 163v305h215v-299q132 -22 262 -129l-127 -139q-65 49 -116 71.5t-116 22.5q-124 0 -199 -82t-75 -203q0 -112 81.5 -192t192.5 -80q133 0 240 86l115 -152q-124 -96 -258 -114v-244h-215v252q-157 38 -259 159.5t-102 284.5z" />
<glyph unicode="&#xa3;" horiz-adv-x="1261" d="M102 92q44 86 84 138t90 81v316h-167v178h167v235q0 130 59 229t157.5 150t220.5 51q264 0 415 -198l-176 -144q-57 67 -113.5 91t-125.5 24q-89 0 -142 -53t-53 -150v-235h477v-178h-477v-277q68 -10 191 -74q114 -65 186 -65q52 0 99 36t81 111l178 -96 q-75 -144 -157 -207t-211 -63q-69 0 -123 16.5t-133 61.5q-114 65 -187 65q-51 0 -89.5 -32t-71.5 -107z" />
<glyph unicode="&#xa5;" horiz-adv-x="1345" d="M4 1417v37h250l383 -661h76l379 661h247v-37l-372 -624h211v-201h-381v-137h381v-201h-381v-254h-242v254h-387v201h387v137h-387v201h213z" />
<glyph unicode="&#xa8;" horiz-adv-x="931" d="M94 1350q0 54 39 93.5t96 39.5q55 0 95.5 -39.5t40.5 -93.5q0 -57 -40 -97.5t-96 -40.5q-57 0 -96 40.5t-39 97.5zM567 1350q0 54 39.5 93.5t95.5 39.5q55 0 95.5 -39.5t40.5 -93.5q0 -57 -40 -97.5t-96 -40.5q-57 0 -96 40.5t-39 97.5z" />
<glyph unicode="&#xa9;" horiz-adv-x="1900" d="M119 727q0 226 110 416t301 300.5t420 110.5q172 0 326.5 -65t265 -176t175.5 -264t65 -322t-65 -322t-175.5 -264t-265 -176t-326.5 -65q-229 0 -420 110.5t-301 300.5t-110 416zM252 727q0 -198 90.5 -357.5t250 -250t357.5 -90.5q199 0 358.5 90.5t249 250t89.5 357.5 q0 199 -89.5 358.5t-249 249.5t-358.5 90q-198 0 -357.5 -90t-250 -249.5t-90.5 -358.5zM551 735q0 121 62.5 220.5t164 153.5t217.5 54q198 0 330 -139l-143 -129q-79 76 -187 76q-99 0 -164 -67t-65 -169q0 -101 64.5 -165t164.5 -64q116 0 197 78l133 -133 q-140 -144 -330 -144q-183 0 -313.5 123.5t-130.5 304.5z" />
<glyph unicode="&#xab;" horiz-adv-x="1222" d="M61 530v115l392 432l155 -145l-327 -344l327 -344l-155 -146zM567 530v115l394 432l153 -145l-326 -344l326 -344l-153 -146z" />
<glyph unicode="&#xad;" horiz-adv-x="724" d="M96 539v229h533v-229h-533z" />
<glyph unicode="&#xae;" horiz-adv-x="796" d="M23 1106q0 157 109 266t267 109t266.5 -109t108.5 -266q0 -156 -108.5 -264.5t-266.5 -108.5t-267 108.5t-109 264.5zM86 1106q0 -135 88.5 -224t224.5 -89q137 0 225.5 88.5t88.5 224.5q0 137 -88 226t-226 89q-136 0 -224.5 -89t-88.5 -226zM250 909v414h164 q76 0 117.5 -32.5t41.5 -96.5q0 -90 -86 -129l97 -143v-13h-88l-88 142q-43 0 -74 4v-146h-84zM334 1133q47 -7 65 -7q49 0 66.5 17.5t17.5 50.5q0 53 -67 53h-82v-114z" />
<glyph unicode="&#xb4;" horiz-adv-x="595" d="M156 1276l301 256l116 -139l-331 -228z" />
<glyph unicode="&#xb8;" horiz-adv-x="620" d="M84 -432l35 135q20 -8 61.5 -15t63.5 -7q44 0 76 23.5t32 64.5q0 34 -37.5 54.5t-109.5 20.5l20 156h156l-12 -100q71 -3 116 -49t45 -113q0 -89 -65 -147t-170 -58q-125 0 -211 35z" />
<glyph unicode="&#xbb;" horiz-adv-x="1222" d="M106 244l326 344l-326 344l156 145l391 -432v-115l-391 -432zM612 244l328 344l-328 344l156 145l391 -432v-115l-391 -432z" />
<glyph unicode="&#xc1;" horiz-adv-x="1538" d="M29 0v37l549 1417h383l548 -1417v-37h-264l-133 360h-690l-133 -360h-260zM500 575h532l-241 658h-48zM561 1645l301 256l115 -140l-332 -227z" />
<glyph unicode="&#xc2;" horiz-adv-x="1538" d="M29 0v37l549 1417h383l548 -1417v-37h-264l-133 360h-690l-133 -360h-260zM459 1575v37l223 227h174l223 -227v-37h-135l-174 135l-176 -135h-135zM500 575h532l-241 658h-48z" />
<glyph unicode="&#xc4;" horiz-adv-x="1538" d="M29 0v37l549 1417h383l548 -1417v-37h-264l-133 360h-690l-133 -360h-260zM397 1718q0 54 39.5 93.5t95.5 39.5q55 0 95.5 -39.5t40.5 -93.5q0 -57 -40 -97t-96 -40q-57 0 -96 40t-39 97zM500 575h532l-241 658h-48zM870 1718q0 54 39.5 93.5t96.5 39.5q55 0 94 -39.5 t39 -93.5q0 -57 -39 -97t-94 -40q-57 0 -96.5 40t-39.5 97z" />
<glyph unicode="&#xc7;" horiz-adv-x="1527" d="M127 723q0 158 59.5 298.5t160.5 240.5t242 158.5t298 58.5q180 0 318.5 -54.5t267.5 -187.5l-183 -170q-102 97 -194 135.5t-211 38.5q-206 0 -349 -147.5t-143 -366.5q0 -139 66 -257.5t179.5 -187.5t248.5 -69q122 0 222 46.5t191 146.5l177 -160 q-112 -130 -229.5 -192t-280.5 -74l-9 -80q71 -3 116.5 -49t45.5 -113q0 -89 -65.5 -147t-171.5 -58q-125 0 -211 35l37 135q19 -7 60.5 -13.5t64.5 -6.5q44 0 76 22.5t32 63.5q0 34 -37.5 54.5t-111.5 20.5l16 136q-134 11 -255.5 67t-217 148t-152.5 229.5t-57 298.5z" />
<glyph unicode="&#xc9;" horiz-adv-x="1341" d="M229 0v1454h998v-229h-744v-394h658v-225h-658v-377h762v-229h-1016zM518 1645l301 256l117 -140l-332 -227z" />
<glyph unicode="&#xcb;" horiz-adv-x="1341" d="M229 0v1454h998v-229h-744v-394h658v-225h-658v-377h762v-229h-1016zM354 1718q0 55 40 94t98 39q54 0 93.5 -39.5t39.5 -93.5q0 -57 -39.5 -97t-93.5 -40q-58 0 -98 40t-40 97zM827 1718q0 55 40 94t98 39q54 0 93.5 -39.5t39.5 -93.5q0 -57 -39.5 -97t-93.5 -40 q-58 0 -98 40t-40 97z" />
<glyph unicode="&#xcd;" horiz-adv-x="647" d="M160 1645l303 256l115 -140l-332 -227zM197 0v1454h254v-1454h-254z" />
<glyph unicode="&#xce;" horiz-adv-x="647" d="M14 1575v37l224 227h174l223 -227v-37h-137l-174 135l-174 -135h-136zM197 0v1454h254v-1454h-254z" />
<glyph unicode="&#xd3;" horiz-adv-x="1763" d="M125 725q0 212 103.5 386.5t277.5 272t379 97.5q151 0 289.5 -58t240.5 -157.5t162.5 -239t60.5 -295.5q0 -161 -60.5 -303t-163.5 -241t-242 -156.5t-293 -57.5q-149 0 -287.5 58t-241 157t-164 239.5t-61.5 297.5zM393 729q0 -144 65.5 -264t178.5 -189t248 -69 q133 0 245 68.5t177 188t65 261.5q0 107 -39 204t-105 166.5t-156.5 110.5t-190.5 41q-135 0 -247 -68.5t-176.5 -187.5t-64.5 -262zM674 1645l301 256l117 -140l-332 -227z" />
<glyph unicode="&#xd4;" horiz-adv-x="1763" d="M125 725q0 212 103.5 386.5t277.5 272t379 97.5q151 0 289.5 -58t240.5 -157.5t162.5 -239t60.5 -295.5q0 -161 -60.5 -303t-163.5 -241t-242 -156.5t-293 -57.5q-149 0 -287.5 58t-241 157t-164 239.5t-61.5 297.5zM393 729q0 -144 65.5 -264t178.5 -189t248 -69 q133 0 245 68.5t177 188t65 261.5q0 107 -39 204t-105 166.5t-156.5 110.5t-190.5 41q-135 0 -247 -68.5t-176.5 -187.5t-64.5 -262zM571 1544v37l224 227h174l223 -227v-37h-135l-174 135l-176 -135h-136z" />
<glyph unicode="&#xd6;" horiz-adv-x="1763" d="M125 725q0 212 103.5 386.5t277.5 272t379 97.5q151 0 289.5 -58t240.5 -157.5t162.5 -239t60.5 -295.5q0 -161 -60.5 -303t-163.5 -241t-242 -156.5t-293 -57.5q-149 0 -287.5 58t-241 157t-164 239.5t-61.5 297.5zM393 729q0 -144 65.5 -264t178.5 -189t248 -69 q133 0 245 68.5t177 188t65 261.5q0 107 -39 204t-105 166.5t-156.5 110.5t-190.5 41q-135 0 -247 -68.5t-176.5 -187.5t-64.5 -262zM510 1718q0 54 39 93.5t96 39.5q55 0 95 -39.5t40 -93.5q0 -57 -39.5 -97t-95.5 -40q-57 0 -96 40t-39 97zM983 1718q0 54 39.5 93.5 t95.5 39.5q55 0 95 -39.5t40 -93.5q0 -57 -39.5 -97t-95.5 -40q-57 0 -96 40t-39 97z" />
<glyph unicode="&#xda;" horiz-adv-x="1601" d="M168 565v889h256v-881q0 -164 103 -262t274 -98q164 0 270.5 99t106.5 261v881h256v-889q0 -133 -51 -245.5t-137.5 -187t-201.5 -116t-243 -41.5q-183 0 -326 70.5t-225 205.5t-82 314zM633 1645l301 256l117 -140l-332 -227z" />
<glyph unicode="&#xdc;" horiz-adv-x="1601" d="M168 565v889h256v-881q0 -164 103 -262t274 -98q164 0 270.5 99t106.5 261v881h256v-889q0 -133 -51 -245.5t-137.5 -187t-201.5 -116t-243 -41.5q-183 0 -326 70.5t-225 205.5t-82 314zM428 1718q0 55 39.5 94t97.5 39q54 0 93.5 -39.5t39.5 -93.5q0 -57 -39.5 -97 t-93.5 -40q-58 0 -97.5 40t-39.5 97zM901 1718q0 54 39.5 93.5t95.5 39.5q55 0 95 -39.5t40 -93.5q0 -57 -39.5 -97t-95.5 -40q-57 0 -96 40t-39 97z" />
<glyph unicode="&#xdd;" horiz-adv-x="1306" d="M-14 1417v37h254l383 -704h65l377 704h256v-37l-494 -895h-45v-522h-254v522h-45zM514 1645l301 256l117 -140l-332 -227z" />
<glyph unicode="&#xe1;" horiz-adv-x="1112" d="M84 319q0 140 126 240t318 100q103 0 211 -24v47q0 87 -62.5 139.5t-158.5 52.5q-162 0 -287 -77l-108 172q100 66 197 91t210 25q191 0 319 -113t128 -292v-565q-160 -135 -459 -135q-192 0 -313 92t-121 247zM334 315q0 -64 57 -102.5t135 -38.5q132 0 213 47v221 q-104 23 -213 23q-91 0 -141.5 -42t-50.5 -108zM358 1276l301 256l117 -139l-332 -228z" />
<glyph unicode="&#xe2;" horiz-adv-x="1112" d="M84 319q0 140 126 240t318 100q103 0 211 -24v47q0 87 -62.5 139.5t-158.5 52.5q-162 0 -287 -77l-108 172q100 66 197 91t210 25q191 0 319 -113t128 -292v-565q-160 -135 -459 -135q-192 0 -313 92t-121 247zM246 1206v37l223 227h174l223 -227v-37h-137l-174 135 l-174 -135h-135zM334 315q0 -64 57 -102.5t135 -38.5q132 0 213 47v221q-104 23 -213 23q-91 0 -141.5 -42t-50.5 -108z" />
<glyph unicode="&#xe4;" horiz-adv-x="1112" d="M84 319q0 140 126 240t318 100q103 0 211 -24v47q0 87 -62.5 139.5t-158.5 52.5q-162 0 -287 -77l-108 172q100 66 197 91t210 25q191 0 319 -113t128 -292v-565q-160 -135 -459 -135q-192 0 -313 92t-121 247zM170 1350q0 54 39 93.5t96 39.5q55 0 95 -39.5t40 -93.5 q0 -57 -39.5 -97.5t-95.5 -40.5q-57 0 -96 40.5t-39 97.5zM334 315q0 -64 57 -102.5t135 -38.5q132 0 213 47v221q-104 23 -213 23q-91 0 -141.5 -42t-50.5 -108zM643 1350q0 54 39.5 93.5t95.5 39.5q55 0 95 -39.5t40 -93.5q0 -57 -39.5 -97.5t-95.5 -40.5q-57 0 -96 40.5 t-39 97.5z" />
<glyph unicode="&#xe7;" horiz-adv-x="1138" d="M96 530q0 118 47.5 222t126.5 176t183.5 113.5t216.5 41.5q254 0 426 -182l-162 -147q-57 55 -129 83.5t-135 28.5q-135 0 -231.5 -99.5t-96.5 -236.5q0 -138 95.5 -233.5t232.5 -95.5q65 0 136 28.5t128 83.5l162 -151q-146 -156 -351 -180l-10 -82q71 -3 116.5 -49 t45.5 -113q0 -89 -66 -147t-172 -58q-121 0 -210 35l36 135q21 -9 61 -15.5t64 -6.5q44 0 76.5 23.5t32.5 64.5q0 34 -38 54.5t-112 20.5l19 140q-210 28 -351 180t-141 366z" />
<glyph unicode="&#xe9;" horiz-adv-x="1216" d="M96 545q0 148 62 269.5t184.5 196t284.5 74.5q227 0 362 -135t135 -352q0 -86 -20 -168l-754 -2q13 -104 105 -173t196 -69q84 0 160 30t131 87l133 -149q-172 -179 -424 -179q-129 0 -235 45t-175 122.5t-107 181t-38 221.5zM350 618h533q2 8 2 21q0 99 -70 169.5 t-188 70.5q-68 0 -123 -24t-87.5 -62.5t-49.5 -83.5t-17 -91zM438 1276l303 256l115 -139l-332 -228z" />
<glyph unicode="&#xeb;" horiz-adv-x="1216" d="M96 545q0 148 62 269.5t184.5 196t284.5 74.5q227 0 362 -135t135 -352q0 -86 -20 -168l-754 -2q13 -104 105 -173t196 -69q84 0 160 30t131 87l133 -149q-172 -179 -424 -179q-129 0 -235 45t-175 122.5t-107 181t-38 221.5zM252 1350q0 55 39.5 94t97.5 39 q54 0 93.5 -39.5t39.5 -93.5q0 -57 -39.5 -97.5t-93.5 -40.5q-58 0 -97.5 40.5t-39.5 97.5zM350 618h533q2 8 2 21q0 99 -70 169.5t-188 70.5q-68 0 -123 -24t-87.5 -62.5t-49.5 -83.5t-17 -91zM725 1350q0 55 39.5 94t97.5 39q54 0 93.5 -39.5t39.5 -93.5 q0 -57 -39.5 -97.5t-93.5 -40.5q-58 0 -97.5 40.5t-39.5 97.5z" />
<glyph unicode="&#xed;" d="M123 1276l301 256l117 -139l-332 -228zM145 0v1059h244v-1059h-244z" />
<glyph unicode="&#xee;" d="M-43 1206v37l223 227h174l224 -227v-37h-136l-174 135l-174 -135h-137zM145 0v1059h244v-1059h-244z" />
<glyph unicode="&#xf3;" horiz-adv-x="1329" d="M96 528q0 154 75.5 282t206.5 201.5t288 73.5q155 0 285.5 -73.5t206 -201t75.5 -280.5q0 -155 -75.5 -283t-206 -201t-285.5 -73q-157 0 -288 73.5t-206.5 201t-75.5 280.5zM342 530q0 -143 94 -243.5t230 -100.5q135 0 228 99.5t93 242.5t-93 243.5t-228 100.5 q-136 0 -230 -100t-94 -242zM455 1276l301 256l116 -139l-331 -228z" />
<glyph unicode="&#xf4;" horiz-adv-x="1329" d="M96 528q0 154 75.5 282t206.5 201.5t288 73.5q155 0 285.5 -73.5t206 -201t75.5 -280.5q0 -155 -75.5 -283t-206 -201t-285.5 -73q-157 0 -288 73.5t-206.5 201t-75.5 280.5zM342 530q0 -143 94 -243.5t230 -100.5q135 0 228 99.5t93 242.5t-93 243.5t-228 100.5 q-136 0 -230 -100t-94 -242zM352 1206v37l223 227h175l225 -227v-37h-137l-174 135l-175 -135h-137z" />
<glyph unicode="&#xf6;" horiz-adv-x="1329" d="M96 528q0 154 75.5 282t206.5 201.5t288 73.5q155 0 285.5 -73.5t206 -201t75.5 -280.5q0 -155 -75.5 -283t-206 -201t-285.5 -73q-157 0 -288 73.5t-206.5 201t-75.5 280.5zM293 1350q0 54 39.5 93.5t95.5 39.5q55 0 95 -39.5t40 -93.5q0 -57 -39.5 -97.5t-95.5 -40.5 q-57 0 -96 40.5t-39 97.5zM342 530q0 -143 94 -243.5t230 -100.5q135 0 228 99.5t93 242.5t-93 243.5t-228 100.5q-136 0 -230 -100t-94 -242zM766 1350q0 54 39 93.5t96 39.5q55 0 95 -39.5t40 -93.5q0 -57 -39.5 -97.5t-95.5 -40.5q-57 0 -96 40.5t-39 97.5z" />
<glyph unicode="&#xfa;" horiz-adv-x="1232" d="M135 432v627h242v-608q0 -111 68.5 -177.5t187.5 -66.5q98 0 213 49v803h241v-948q-100 -59 -229 -93t-246 -34q-209 0 -343 124.5t-134 323.5zM446 1276l302 256l114 -139l-332 -228z" />
<glyph unicode="&#xfc;" horiz-adv-x="1232" d="M135 432v627h242v-608q0 -111 68.5 -177.5t187.5 -66.5q98 0 213 49v803h241v-948q-100 -59 -229 -93t-246 -34q-209 0 -343 124.5t-134 323.5zM244 1350q0 55 39.5 94t97.5 39q54 0 93.5 -39.5t39.5 -93.5q0 -57 -39.5 -97.5t-93.5 -40.5q-58 0 -97.5 40.5t-39.5 97.5z M717 1350q0 55 39.5 94t97.5 39q54 0 93.5 -39.5t39.5 -93.5q0 -57 -39.5 -97.5t-93.5 -40.5q-58 0 -97.5 40.5t-39.5 97.5z" />
<glyph unicode="&#xfd;" horiz-adv-x="1140" d="M-2 1030v29h246l288 -811h66l289 811h256v-29l-578 -1485h-225v37l172 418h-119zM422 1276l301 256l117 -139l-332 -228z" />
<glyph unicode="&#x102;" horiz-adv-x="1538" d="M29 0v37l549 1417h383l548 -1417v-37h-264l-133 360h-690l-133 -360h-260zM477 1837h160q0 -65 40 -99t97 -34q56 0 94.5 34t38.5 99h154q0 -134 -82.5 -207.5t-208.5 -73.5q-127 0 -210 73.5t-83 207.5zM500 575h532l-241 658h-48z" />
<glyph unicode="&#x103;" horiz-adv-x="1112" d="M84 319q0 140 126 240t318 100q103 0 211 -24v47q0 87 -62.5 139.5t-158.5 52.5q-162 0 -287 -77l-108 172q100 66 197 91t210 25q191 0 319 -113t128 -292v-565q-160 -135 -459 -135q-192 0 -313 92t-121 247zM264 1468h158q1 -65 41.5 -99t97.5 -34q55 0 93.5 34 t39.5 99h154q0 -134 -83.5 -207t-209.5 -73t-208.5 73t-82.5 207zM334 315q0 -64 57 -102.5t135 -38.5q132 0 213 47v221q-104 23 -213 23q-91 0 -141.5 -42t-50.5 -108z" />
<glyph unicode="&#x104;" horiz-adv-x="1538" d="M29 0v37l549 1417h383l548 -1417v-37q-98 -63 -137 -112t-39 -99q0 -36 24.5 -64t59.5 -28q48 0 84 16l41 -151q-71 -29 -141 -29q-113 0 -183.5 66.5t-70.5 156.5q0 71 20.5 129t75.5 117l-131 358h-690l-133 -360h-260zM500 575h532l-241 658h-48z" />
<glyph unicode="&#x105;" horiz-adv-x="1126" d="M92 319q0 140 126.5 240t320.5 100q103 0 211 -24v47q0 87 -63 139.5t-159 52.5q-160 0 -288 -77l-107 172q100 66 197.5 91t210.5 25q190 0 318 -113t128 -292v-565q-211 -169 -211 -308q0 -48 25 -79t61 -31q50 0 86 16l41 -149q-53 -31 -149 -31q-100 0 -173 64.5 t-73 160.5q0 64 24 119t80 117q-93 -14 -170 -14q-192 0 -314 92.5t-122 246.5zM342 315q0 -64 57.5 -102.5t135.5 -38.5q131 0 215 47v221q-104 23 -213 23q-92 0 -143.5 -42t-51.5 -108z" />
<glyph unicode="&#x106;" horiz-adv-x="1527" d="M127 723q0 158 59.5 298.5t160.5 240.5t242 158.5t298 58.5q180 0 318.5 -54.5t267.5 -187.5l-183 -170q-102 97 -194 135.5t-211 38.5q-206 0 -349 -147.5t-143 -366.5q0 -139 66 -257.5t179.5 -187.5t248.5 -69q122 0 222 46.5t191 146.5l177 -160 q-126 -146 -263 -208.5t-340 -62.5q-143 0 -276 51.5t-238.5 145t-169 237t-63.5 314.5zM659 1645l304 256l114 -140l-332 -227z" />
<glyph unicode="&#x107;" horiz-adv-x="1134" d="M92 530q0 118 47.5 222t126.5 176t183.5 113.5t216.5 41.5q254 0 426 -182l-160 -147q-58 55 -130.5 83.5t-135.5 28.5q-135 0 -231.5 -99.5t-96.5 -236.5q0 -138 95.5 -233.5t232.5 -95.5q64 0 136 28.5t130 83.5l160 -151q-175 -185 -426 -185q-154 0 -285.5 71.5 t-210 199t-78.5 282.5zM457 1276l301 256l114 -139l-329 -228z" />
<glyph unicode="&#x10c;" horiz-adv-x="1527" d="M127 723q0 158 59.5 298.5t160.5 240.5t242 158.5t298 58.5q180 0 318.5 -54.5t267.5 -187.5l-183 -170q-102 97 -194 135.5t-211 38.5q-206 0 -349 -147.5t-143 -366.5q0 -139 66 -257.5t179.5 -187.5t248.5 -69q122 0 222 46.5t191 146.5l177 -160 q-126 -146 -263 -208.5t-340 -62.5q-143 0 -276 51.5t-238.5 145t-169 237t-63.5 314.5zM571 1802v37h138l174 -135l174 135h137v-37l-223 -227h-174z" />
<glyph unicode="&#x10d;" horiz-adv-x="1134" d="M92 530q0 118 47.5 222t126.5 176t183.5 113.5t216.5 41.5q254 0 426 -182l-160 -147q-58 55 -130.5 83.5t-135.5 28.5q-135 0 -231.5 -99.5t-96.5 -236.5q0 -138 95.5 -233.5t232.5 -95.5q64 0 136 28.5t130 83.5l160 -151q-175 -185 -426 -185q-154 0 -285.5 71.5 t-210 199t-78.5 282.5zM352 1434v36h137l175 -135l174 135h135v-36l-223 -228h-175z" />
<glyph unicode="&#x10e;" horiz-adv-x="1622" d="M197 41v1413h514q182 0 331 -55t247.5 -153t152 -232t53.5 -291q0 -162 -54.5 -298.5t-155 -235t-251.5 -154t-336 -55.5q-104 0 -253 16.5t-248 44.5zM422 1765v37h135l174 -135l174 135h137v-37l-223 -227h-174zM451 238q122 -29 247 -29q126 0 227.5 40.5t166.5 111 t100 162.5t35 198q0 142 -59 255.5t-177.5 182t-277.5 68.5h-262v-989z" />
<glyph unicode="&#x10f;" horiz-adv-x="1441" d="M96 514q0 160 75 287t204 196.5t287 69.5q92 0 194 -31v518h242v-1439q-79 -58 -199 -96.5t-227 -38.5q-125 0 -233 42t-183 114t-117.5 170t-42.5 208zM350 514q0 -137 88 -227t215 -90q108 0 203 45v573q-75 35 -174 35q-138 0 -235 -92.5t-97 -243.5zM1167 1501 q0 47 39.5 81t93.5 34q57 0 96.5 -43t39.5 -117q0 -93 -30 -169.5t-103 -151.5l-113 77q86 86 86 158v16h-12q-34 0 -65.5 33.5t-31.5 81.5z" />
<glyph unicode="&#x118;" horiz-adv-x="1341" d="M229 0v1454h998v-229h-744v-394h658v-225h-658v-377h762v-229h-12q-98 -63 -137 -112t-39 -99q0 -36 24.5 -64t59.5 -28q47 0 86 16l39 -151q-68 -29 -140 -29q-114 0 -185 66.5t-71 156.5q0 128 119 244h-760z" />
<glyph unicode="&#x119;" horiz-adv-x="1224" d="M92 545q0 148 61.5 269.5t183.5 196t284 74.5q227 0 362 -135t135 -352q0 -76 -18 -168l-756 -2q14 -104 106 -173t197 -69q175 0 289 117l133 -149q-76 -82 -172 -127q-166 -69 -166 -238q0 -36 24.5 -64t59.5 -28q48 0 84 16l41 -151q-41 -17 -68 -23t-73 -6 q-113 0 -183.5 66.5t-70.5 156.5q0 118 86 219q-166 4 -290 82t-186.5 205t-62.5 283zM344 618h535v21q0 99 -70 169.5t-188 70.5q-67 0 -121.5 -24t-87 -62.5t-50 -83.5t-18.5 -91z" />
<glyph unicode="&#x11a;" horiz-adv-x="1341" d="M229 0v1454h998v-229h-744v-394h658v-225h-658v-377h762v-229h-1016zM416 1802v37h135l174 -135l174 135h137v-37l-223 -227h-174z" />
<glyph unicode="&#x11b;" horiz-adv-x="1216" d="M96 545q0 148 62 269.5t184.5 196t284.5 74.5q227 0 362 -135t135 -352q0 -86 -20 -168l-754 -2q13 -104 105 -173t196 -69q84 0 160 30t131 87l133 -149q-172 -179 -424 -179q-129 0 -235 45t-175 122.5t-107 181t-38 221.5zM313 1434v36h136l174 -135l174 135h137v-36 l-223 -228h-174zM350 618h533q2 8 2 21q0 99 -70 169.5t-188 70.5q-68 0 -123 -24t-87.5 -62.5t-49.5 -83.5t-17 -91z" />
<glyph unicode="&#x139;" horiz-adv-x="1183" d="M190 1645l304 256l114 -140l-332 -227zM197 0v1454h254v-1225h702v-229h-956z" />
<glyph unicode="&#x13a;" d="M104 1724l304 256l114 -139l-332 -227zM145 0v1554h244v-1554h-244z" />
<glyph unicode="&#x13d;" horiz-adv-x="1183" d="M197 0v1454h254v-1225h702v-229h-956zM555 1501q0 47 39.5 81t93.5 34q57 0 96 -43t39 -117q0 -93 -30 -169.5t-103 -151.5l-110 77q84 88 84 158v16h-11q-34 0 -66 33.5t-32 81.5z" />
<glyph unicode="&#x13e;" horiz-adv-x="747" d="M145 0v1554h244v-1554h-244zM465 1501q0 47 39 81t92 34q58 0 97.5 -43t39.5 -117q0 -92 -30.5 -169t-102.5 -152l-113 77q86 90 86 158v16h-12q-34 0 -65 33.5t-31 81.5z" />
<glyph unicode="&#x141;" horiz-adv-x="1253" d="M20 610l250 133v711h254v-608l340 176l90 -195l-430 -217v-381h703v-229h-957v512l-166 -86z" />
<glyph unicode="&#x142;" horiz-adv-x="714" d="M0 612l223 183v759h244v-600l164 129l106 -149l-270 -209v-725h-244v565l-112 -94z" />
<glyph unicode="&#x143;" horiz-adv-x="1718" d="M197 0v1454h350l690 -1120h37v1120h250v-1454h-330l-711 1126h-39v-1126h-247zM692 1645l301 256l115 -140l-330 -227z" />
<glyph unicode="&#x144;" horiz-adv-x="1239" d="M145 0v950q102 60 233.5 97.5t246.5 37.5q209 0 344 -124.5t135 -323.5v-637h-242v631q0 109 -71.5 173t-186.5 64q-102 0 -217 -49v-819h-242zM430 1276l303 256l115 -139l-332 -228z" />
<glyph unicode="&#x147;" horiz-adv-x="1718" d="M197 0v1454h350l690 -1120h37v1120h250v-1454h-330l-711 1126h-39v-1126h-247zM569 1802v37h138l174 -135l174 135h135v-37l-223 -227h-174z" />
<glyph unicode="&#x148;" horiz-adv-x="1241" d="M143 0v950q102 60 233.5 97.5t246.5 37.5q209 0 344 -124.5t135 -323.5v-637h-242v631q0 109 -71.5 173t-186.5 64q-102 0 -217 -49v-819h-242zM305 1434v36h135l174 -135l174 135h138v-36l-224 -228h-174z" />
<glyph unicode="&#x150;" horiz-adv-x="1763" d="M125 725q0 212 103.5 386.5t277.5 272t379 97.5q151 0 289.5 -58t240.5 -157.5t162.5 -239t60.5 -295.5q0 -161 -60.5 -303t-163.5 -241t-242 -156.5t-293 -57.5q-149 0 -287.5 58t-241 157t-164 239.5t-61.5 297.5zM393 729q0 -144 65.5 -264t178.5 -189t248 -69 q133 0 245 68.5t177 188t65 261.5q0 107 -39 204t-105 166.5t-156.5 110.5t-190.5 41q-135 0 -247 -68.5t-176.5 -187.5t-64.5 -262zM524 1645l301 256l115 -140l-332 -227zM915 1645l302 256l116 -140l-332 -227z" />
<glyph unicode="&#x151;" horiz-adv-x="1329" d="M96 528q0 154 75.5 282t206.5 201.5t288 73.5q155 0 285.5 -73.5t206 -201t75.5 -280.5q0 -155 -75.5 -283t-206 -201t-285.5 -73q-157 0 -288 73.5t-206.5 201t-75.5 280.5zM311 1276l301 256l115 -139l-332 -228zM342 530q0 -143 94 -243.5t230 -100.5q135 0 228 99.5 t93 242.5t-93 243.5t-228 100.5q-136 0 -230 -100t-94 -242zM702 1276l304 256l114 -139l-332 -228z" />
<glyph unicode="&#x154;" horiz-adv-x="1437" d="M197 0v1454h528q265 0 406 -117t141 -344q0 -165 -81.5 -279t-221.5 -169l356 -508v-37h-262l-332 500h-20q-136 0 -262 18v-518h-252zM449 748q83 -19 200 -19q195 0 275 64t80 200q0 115 -72 174.5t-199 59.5h-284v-479zM496 1645l301 256l116 -140l-331 -227z" />
<glyph unicode="&#x155;" horiz-adv-x="733" d="M145 0v1059h588v-207h-344v-852h-244zM244 1276l301 256l117 -139l-332 -228z" />
<glyph unicode="&#x158;" horiz-adv-x="1437" d="M197 0v1454h528q265 0 406 -117t141 -344q0 -165 -81.5 -279t-221.5 -169l356 -508v-37h-262l-332 500h-20q-136 0 -262 18v-518h-252zM375 1802v37h135l174 -135l174 135h137v-37l-223 -227h-174zM449 748q83 -19 200 -19q195 0 275 64t80 200q0 115 -72 174.5 t-199 59.5h-284v-479z" />
<glyph unicode="&#x159;" horiz-adv-x="733" d="M119 1434v36h137l174 -135l174 135h137v-36l-223 -228h-174zM145 0v1059h588v-207h-344v-852h-244z" />
<glyph unicode="&#x15a;" horiz-adv-x="1331" d="M74 236l182 159q75 -92 185 -137t227 -45q128 0 201 52.5t73 144.5q0 68 -44 111.5t-140 66.5l-275 69q-156 38 -241.5 149.5t-85.5 250.5q0 182 139.5 299t382.5 117q155 0 275.5 -49.5t228.5 -143.5l-158 -168q-184 129 -358 129q-116 0 -179 -48t-63 -138 q0 -141 168 -181l246 -57q180 -42 276 -149.5t96 -253.5q0 -88 -36 -166t-104 -138t-175 -95t-240 -35q-180 0 -332 64t-249 192zM471 1645l301 256l117 -140l-332 -227z" />
<glyph unicode="&#x15b;" horiz-adv-x="997" d="M53 147l137 158q74 -63 151 -90t179 -27q86 0 123 34t37 79q0 87 -115 109l-151 32q-144 30 -223.5 114.5t-79.5 201.5q0 142 114.5 234.5t296.5 92.5q214 0 391 -133l-141 -166q-130 86 -268 86q-65 0 -103.5 -34t-38.5 -74q0 -99 121 -125l152 -33q133 -30 215 -106.5 t82 -182.5q0 -68 -26.5 -128.5t-78 -109t-135.5 -76.5t-190 -28q-131 0 -249 42t-200 130zM328 1276l301 256l116 -139l-331 -228z" />
<glyph unicode="&#x15e;" horiz-adv-x="1331" d="M74 236l182 159q75 -92 185 -137t227 -45q128 0 201 52.5t73 144.5q0 68 -44 111.5t-140 66.5l-275 69q-156 38 -241.5 149.5t-85.5 250.5q0 182 139.5 299t382.5 117q155 0 275.5 -49.5t228.5 -143.5l-158 -168q-184 129 -358 129q-116 0 -179 -48t-63 -138 q0 -141 168 -181l246 -57q180 -42 276 -149.5t96 -253.5q0 -81 -29.5 -153t-86 -129.5t-144 -96t-196.5 -49.5l-13 -86q71 -3 117.5 -49.5t46.5 -112.5q0 -89 -65.5 -147t-171.5 -58q-125 0 -211 35l37 135q19 -7 60 -13.5t62 -6.5q45 0 78 23t33 63q0 34 -37.5 54.5 t-111.5 20.5l18 138q-163 9 -298.5 72.5t-223.5 181.5z" />
<glyph unicode="&#x15f;" horiz-adv-x="997" d="M53 147l137 158q74 -63 151 -90t179 -27q86 0 123 34t37 79q0 87 -115 109l-151 32q-144 30 -223.5 114.5t-79.5 201.5q0 142 114.5 234.5t296.5 92.5q214 0 391 -133l-141 -166q-130 86 -268 86q-65 0 -103.5 -34t-38.5 -74q0 -99 121 -125l152 -33q133 -30 215 -106.5 t82 -182.5q0 -127 -88 -220.5t-254 -114.5l-10 -82q71 -3 117 -49t46 -113q0 -89 -66 -147t-171 -58q-125 0 -211 35l37 135q19 -8 60 -15t65 -7q43 0 75.5 24t32.5 64q0 34 -37.5 54.5t-111.5 20.5l16 136q-244 21 -379 167z" />
<glyph unicode="&#x160;" horiz-adv-x="1331" d="M74 236l182 159q75 -92 185 -137t227 -45q128 0 201 52.5t73 144.5q0 68 -44 111.5t-140 66.5l-275 69q-156 38 -241.5 149.5t-85.5 250.5q0 182 139.5 299t382.5 117q155 0 275.5 -49.5t228.5 -143.5l-158 -168q-184 129 -358 129q-116 0 -179 -48t-63 -138 q0 -141 168 -181l246 -57q180 -42 276 -149.5t96 -253.5q0 -88 -36 -166t-104 -138t-175 -95t-240 -35q-180 0 -332 64t-249 192zM373 1802v37h137l174 -135l174 135h137v-37l-223 -227h-174z" />
<glyph unicode="&#x161;" horiz-adv-x="997" d="M53 147l137 158q74 -63 151 -90t179 -27q86 0 123 34t37 79q0 87 -115 109l-151 32q-144 30 -223.5 114.5t-79.5 201.5q0 142 114.5 234.5t296.5 92.5q214 0 391 -133l-141 -166q-130 86 -268 86q-65 0 -103.5 -34t-38.5 -74q0 -99 121 -125l152 -33q133 -30 215 -106.5 t82 -182.5q0 -68 -26.5 -128.5t-78 -109t-135.5 -76.5t-190 -28q-131 0 -249 42t-200 130zM213 1434v36h135l174 -135l174 135h138v-36l-224 -228h-174z" />
<glyph unicode="&#x162;" horiz-adv-x="1171" d="M12 1225v229h1149v-229h-446v-1225h-254v1225h-449zM453 -272q0 62 43.5 104.5t105.5 42.5q69 0 114.5 -55.5t45.5 -149.5q0 -251 -158 -434l-121 90q54 64 80.5 127.5t26.5 102.5q0 16 -2 26h-10q-43 0 -84 42.5t-41 103.5z" />
<glyph unicode="&#x163;" horiz-adv-x="757" d="M47 852v207h137l19 299l213 35v-334h250v-207h-250v-508q0 -139 127 -139q53 0 125 31l73 -193q-88 -55 -223 -55q-172 0 -258 90t-86 256v518h-127zM301 -195q0 47 39.5 81t93.5 34q57 0 96 -43t39 -117q0 -93 -30 -170t-103 -153l-112 80q86 86 86 157v17h-11 q-34 0 -66 33t-32 81z" />
<glyph unicode="&#x164;" horiz-adv-x="1171" d="M12 1225v229h1149v-229h-446v-1225h-254v1225h-449zM274 1802v37h136l176 -135l174 135h135v-37l-223 -227h-174z" />
<glyph unicode="&#x165;" horiz-adv-x="901" d="M47 852v207h135l21 299l213 35v-334h248v-207h-248v-508q0 -139 125 -139q53 0 125 31l75 -193q-88 -55 -225 -55q-170 0 -256 90t-86 256v518h-127zM469 1501q0 47 39 81t92 34q58 0 97.5 -43t39.5 -117q0 -92 -30.5 -169t-104.5 -152l-110 77q86 90 86 158v16h-13 q-34 0 -65 33.5t-31 81.5z" />
<glyph unicode="&#x16e;" horiz-adv-x="1601" d="M168 565v889h256v-881q0 -164 103 -262t274 -98q164 0 270.5 99t106.5 261v881h256v-889q0 -133 -51 -245.5t-137.5 -187t-201.5 -116t-243 -41.5q-183 0 -326 70.5t-225 205.5t-82 314zM608 1714q0 84 53.5 137.5t137.5 53.5q85 0 138.5 -53t53.5 -138t-53.5 -138.5 t-138.5 -53.5q-83 0 -137 54t-54 138zM717 1714q0 -37 22.5 -60.5t59.5 -23.5t60.5 23.5t23.5 60.5t-23.5 59.5t-60.5 22.5t-59.5 -22.5t-22.5 -59.5z" />
<glyph unicode="&#x16f;" horiz-adv-x="1232" d="M135 432v627h242v-608q0 -111 68.5 -177.5t187.5 -66.5q98 0 213 49v803h241v-948q-100 -59 -229 -93t-246 -34q-209 0 -343 124.5t-134 323.5zM424 1346q0 84 53 137t137 53q86 0 140.5 -52.5t54.5 -137.5t-54.5 -139t-140.5 -54q-83 0 -136.5 54t-53.5 139zM532 1346 q0 -37 22.5 -60.5t59.5 -23.5q38 0 62 23.5t24 60.5t-24 59t-62 22q-37 0 -59.5 -22t-22.5 -59z" />
<glyph unicode="&#x170;" horiz-adv-x="1601" d="M168 565v889h256v-881q0 -164 103 -262t274 -98q164 0 270.5 99t106.5 261v881h256v-889q0 -133 -51 -245.5t-137.5 -187t-201.5 -116t-243 -41.5q-183 0 -326 70.5t-225 205.5t-82 314zM444 1645l301 256l117 -140l-332 -227zM838 1645l301 256l114 -140l-331 -227z" />
<glyph unicode="&#x171;" horiz-adv-x="1232" d="M135 432v627h242v-608q0 -111 68.5 -177.5t187.5 -66.5q98 0 213 49v803h241v-948q-100 -59 -229 -93t-246 -34q-209 0 -343 124.5t-134 323.5zM270 1276l301 256l115 -139l-332 -228zM662 1276l303 256l114 -139l-331 -228z" />
<glyph unicode="&#x179;" horiz-adv-x="1337" d="M117 0v195l753 1026h-716v233h1046v-186l-756 -1032h809v-236h-1136zM500 1645l301 256l114 -140l-331 -227z" />
<glyph unicode="&#x17a;" horiz-adv-x="980" d="M66 0v174l526 678h-498v207h809v-185l-528 -667h565v-207h-874zM330 1276l301 256l114 -139l-331 -228z" />
<glyph unicode="&#x17b;" horiz-adv-x="1337" d="M117 0v195l753 1026h-716v233h1046v-186l-756 -1032h809v-236h-1136zM528 1718q0 55 40 94t98 39q54 0 93.5 -39.5t39.5 -93.5q0 -57 -39.5 -97t-93.5 -40q-58 0 -98 40t-40 97z" />
<glyph unicode="&#x17c;" horiz-adv-x="1015" d="M104 0v174l527 678h-500v207h809v-185l-526 -667h565v-207h-875zM362 1350q0 55 40 94t98 39q54 0 93.5 -39.5t39.5 -93.5q0 -57 -39.5 -97.5t-93.5 -40.5q-58 0 -98 40.5t-40 97.5z" />
<glyph unicode="&#x17d;" horiz-adv-x="1337" d="M117 0v195l753 1026h-716v233h1046v-186l-756 -1032h809v-236h-1136zM371 1802v37h137l174 -135l174 135h135v-37l-223 -227h-174z" />
<glyph unicode="&#x17e;" horiz-adv-x="980" d="M66 0v174l526 678h-498v207h809v-185l-528 -667h565v-207h-874zM180 1434v36h135l177 -135l174 135h135v-36l-223 -228h-175z" />
<glyph unicode="&#x218;" horiz-adv-x="1331" d="M74 236l182 159q75 -92 185 -137t227 -45q128 0 201 52.5t73 144.5q0 68 -44 111.5t-140 66.5l-275 69q-156 38 -241.5 149.5t-85.5 250.5q0 182 139.5 299t382.5 117q155 0 275.5 -49.5t228.5 -143.5l-158 -168q-184 129 -358 129q-116 0 -179 -48t-63 -138 q0 -141 168 -181l246 -57q180 -42 276 -149.5t96 -253.5q0 -88 -36 -166t-104 -138t-175 -95t-240 -35q-180 0 -332 64t-249 192zM537 -195q0 47 39.5 81t93.5 34q57 0 96 -43t39 -117q0 -93 -30 -170t-103 -153l-111 80q84 88 84 157v17h-10q-34 0 -66 33t-32 81z" />
<glyph unicode="&#x219;" horiz-adv-x="997" d="M53 147l137 158q74 -63 151 -90t179 -27q86 0 123 34t37 79q0 87 -115 109l-151 32q-144 30 -223.5 114.5t-79.5 201.5q0 142 114.5 234.5t296.5 92.5q214 0 391 -133l-141 -166q-130 86 -268 86q-65 0 -103.5 -34t-38.5 -74q0 -99 121 -125l152 -33q133 -30 215 -106.5 t82 -182.5q0 -68 -26.5 -128.5t-78 -109t-135.5 -76.5t-190 -28q-131 0 -249 42t-200 130zM373 -195q0 47 39.5 81t93.5 34q57 0 96 -43t39 -117q0 -93 -30 -170t-103 -153l-111 80q84 88 84 157v17h-10q-34 0 -66 33t-32 81z" />
<glyph unicode="&#x2c6;" horiz-adv-x="808" d="M94 1206v37l223 227h175l223 -227v-37h-135l-174 135l-177 -135h-135z" />
<glyph unicode="&#x2da;" horiz-adv-x="573" d="M94 1346q0 84 53.5 137t137.5 53q86 0 140 -52.5t54 -137.5t-54 -139t-140 -54q-83 0 -137 54t-54 139zM203 1346q0 -37 22.5 -60.5t59.5 -23.5q38 0 62 23.5t24 60.5t-24 59t-62 22q-37 0 -59.5 -22t-22.5 -59z" />
<glyph unicode="&#x2dc;" horiz-adv-x="892" d="M94 1286q50 97 99 136.5t122 39.5q70 0 164 -59q55 -37 96 -37q33 0 58 20.5t47 73.5l119 -63q-50 -96 -99 -135t-122 -39q-74 0 -164 59q-55 35 -97 35q-33 0 -57.5 -20t-46.5 -72z" />
<glyph unicode="&#x2000;" horiz-adv-x="990" />
<glyph unicode="&#x2001;" horiz-adv-x="1980" />
<glyph unicode="&#x2002;" horiz-adv-x="990" />
<glyph unicode="&#x2003;" horiz-adv-x="1980" />
<glyph unicode="&#x2004;" horiz-adv-x="660" />
<glyph unicode="&#x2005;" horiz-adv-x="495" />
<glyph unicode="&#x2006;" horiz-adv-x="330" />
<glyph unicode="&#x2007;" horiz-adv-x="330" />
<glyph unicode="&#x2008;" horiz-adv-x="247" />
<glyph unicode="&#x2009;" horiz-adv-x="396" />
<glyph unicode="&#x200a;" horiz-adv-x="110" />
<glyph unicode="&#x2010;" horiz-adv-x="724" d="M96 539v229h533v-229h-533z" />
<glyph unicode="&#x2011;" horiz-adv-x="724" d="M96 539v229h533v-229h-533z" />
<glyph unicode="&#x2012;" horiz-adv-x="724" d="M96 539v229h533v-229h-533z" />
<glyph unicode="&#x2013;" horiz-adv-x="894" d="M0 539v229h895v-229h-895z" />
<glyph unicode="&#x2014;" horiz-adv-x="1300" d="M0 539v229h1300v-229h-1300z" />
<glyph unicode="&#x2018;" horiz-adv-x="569" d="M137 1075q0 233 148 406l112 -84q-51 -59 -74.5 -118.5t-23.5 -96.5q0 -19 4 -27q2 0 4 1t4 1q41 0 79 -40t38 -97q0 -58 -41 -98.5t-98 -40.5q-65 0 -108.5 52t-43.5 142z" />
<glyph unicode="&#x2019;" horiz-adv-x="569" d="M141 1333q0 59 41.5 100.5t98.5 41.5q65 0 108 -53t43 -142q0 -112 -32.5 -211t-114.5 -195l-113 84q51 59 74.5 118.5t23.5 97.5q0 18 -2 26q-6 -2 -10 -2q-40 0 -78.5 40t-38.5 95z" />
<glyph unicode="&#x201a;" horiz-adv-x="569" d="M141 129q0 59 41 100t99 41q65 0 108 -53t43 -141q0 -112 -32.5 -211t-114.5 -195l-113 84q51 59 74.5 118.5t23.5 96.5q0 19 -2 27q-6 -2 -10 -2q-40 0 -78.5 40t-38.5 95z" />
<glyph unicode="&#x201c;" horiz-adv-x="927" d="M137 1075q0 233 148 406l112 -84q-51 -59 -74.5 -118.5t-23.5 -96.5q0 -19 4 -27q2 0 4 1t4 1q41 0 79 -40t38 -97q0 -58 -41 -98.5t-98 -40.5q-65 0 -108.5 52t-43.5 142zM494 1075q0 232 149 406l111 -84q-50 -60 -74.5 -119.5t-24.5 -95.5q0 -19 4 -27q2 0 4.5 1 t4.5 1q41 0 79.5 -40t38.5 -97q0 -58 -41.5 -98.5t-99.5 -40.5q-65 0 -108 52t-43 142z" />
<glyph unicode="&#x201d;" horiz-adv-x="927" d="M141 1333q0 59 41.5 100.5t98.5 41.5q65 0 108 -53t43 -142q0 -112 -32.5 -211t-114.5 -195l-113 84q51 59 74.5 118.5t23.5 97.5q0 18 -2 26q-6 -2 -10 -2q-40 0 -78.5 40t-38.5 95zM498 1333q0 59 41.5 100.5t97.5 41.5q65 0 108 -53t43 -142q0 -112 -32.5 -211 t-114.5 -195l-113 84q51 59 76 119.5t25 96.5q0 10 -4 26q-4 -2 -9 -2q-41 0 -79.5 40t-38.5 95z" />
<glyph unicode="&#x201e;" horiz-adv-x="927" d="M141 129q0 59 41 100t99 41q65 0 108 -53t43 -141q0 -112 -32.5 -211t-114.5 -195l-113 84q51 59 74.5 118.5t23.5 96.5q0 19 -2 27q-6 -2 -10 -2q-40 0 -78.5 40t-38.5 95zM498 129q0 59 41.5 100t97.5 41q65 0 108 -53t43 -141q0 -112 -32.5 -211t-114.5 -195l-113 84 q51 60 76 119.5t25 95.5q0 11 -4 27q-4 -2 -9 -2q-41 0 -79.5 40t-38.5 95z" />
<glyph unicode="&#x2022;" horiz-adv-x="835" d="M127 702q0 118 82 200.5t203 82.5q118 0 201 -83t83 -200q0 -121 -82.5 -202.5t-201.5 -81.5q-122 0 -203.5 81.5t-81.5 202.5z" />
<glyph unicode="&#x2026;" horiz-adv-x="1828" d="M141 133q0 66 48.5 114t115.5 48q65 0 113.5 -48t48.5 -114q0 -72 -49 -117t-113 -45t-114 44.5t-50 117.5zM752 133q0 66 47 114t114 48q65 0 114.5 -48.5t49.5 -113.5q0 -72 -49.5 -117t-114.5 -45q-64 0 -112.5 44.5t-48.5 117.5zM1362 133q0 66 47.5 114t114.5 48 q65 0 113.5 -48t48.5 -114q0 -72 -49 -117t-113 -45t-113 44.5t-49 117.5z" />
<glyph unicode="&#x202f;" horiz-adv-x="396" />
<glyph unicode="&#x2039;" horiz-adv-x="714" d="M61 530v115l394 432l153 -145l-325 -344l325 -344l-153 -146z" />
<glyph unicode="&#x203a;" horiz-adv-x="714" d="M106 244l326 344l-326 344l156 145l391 -432v-115l-391 -432z" />
<glyph unicode="&#x205f;" horiz-adv-x="495" />
<glyph unicode="&#x20ac;" horiz-adv-x="1345" d="M92 449v200h160v146h-160v198h162q23 226 175 353t384 127q163 0 269.5 -50.5t189.5 -156.5l-189 -136q-90 119 -270 119q-131 0 -210.5 -63.5t-96.5 -192.5h561v-198h-565v-146h565v-200h-559q20 -123 98.5 -183.5t206.5 -60.5q180 0 270 119l189 -136 q-83 -105 -189.5 -155.5t-269.5 -50.5q-230 0 -380.5 123t-176.5 344h-164z" />
<glyph unicode="&#x2122;" horiz-adv-x="1552" d="M8 1339v115h531v-115h-197v-555h-137v555h-197zM551 784v17l84 653h215l154 -510l153 510h217l92 -653v-17h-127l-71 551h-21l-143 -493h-193l-151 495h-19l-67 -553h-123z" />
<glyph unicode="&#xe000;" horiz-adv-x="1054" d="M0 0v1055h1055v-1055h-1055z" />
</font>
</defs>
</svg>
