<?xml version="1.0" standalone="no"?>
<!DOCTYPE svg PUBLIC "-//W3C//DTD SVG 1.1//EN" "http://www.w3.org/Graphics/SVG/1.1/DTD/svg11.dtd" >
<svg xmlns="http://www.w3.org/2000/svg">
<metadata></metadata>
<defs>
<font id="kolo_book" horiz-adv-x="450" >
<font-face units-per-em="2048" ascent="1536" descent="-512" />
<missing-glyph horiz-adv-x="729" />
<glyph horiz-adv-x="2048" />
<glyph horiz-adv-x="2048" />
<glyph unicode="&#xd;" horiz-adv-x="2048" />
<glyph unicode=" "  horiz-adv-x="729" />
<glyph unicode="&#x09;" horiz-adv-x="729" />
<glyph unicode="&#xa0;" horiz-adv-x="729" />
<glyph unicode="!" horiz-adv-x="577" d="M193 86q0 40 27.5 67t68.5 27q39 0 67.5 -27.5t28.5 -66.5q0 -41 -28.5 -68.5t-67.5 -27.5q-41 0 -68.5 27.5t-27.5 68.5zM215 401v1053h143v-1053h-143z" />
<glyph unicode="&#x22;" horiz-adv-x="768" d="M143 881v573h142l-33 -573h-109zM483 881v573h142l-31 -573h-111z" />
<glyph unicode="#" horiz-adv-x="1531" d="M59 440v123h312l100 410h-289v125h320l86 356h129v-27l-80 -329h407l86 356h132v-27l-80 -329h288v-125h-319l-100 -410h299v-123h-328l-107 -440h-129v27l99 413h-408l-106 -440h-129v27l100 413h-283zM506 563h409l99 410h-408z" />
<glyph unicode="$" horiz-adv-x="1230" d="M74 244l98 80q72 -94 193 -148.5t256 -54.5q163 0 268.5 76t105.5 194q0 182 -264 252l-246 64q-172 45 -261 143t-89 231q0 157 118.5 258t313.5 113v287h125v-289q222 -20 402 -180l-82 -84q-183 147 -400 147q-145 0 -242.5 -65t-97.5 -187q0 -189 260 -258l246 -63 q165 -43 261 -136.5t96 -228.5q0 -155 -121 -263t-322 -128v-321h-125v317q-156 8 -284 70.5t-209 173.5z" />
<glyph unicode="%" horiz-adv-x="1648" d="M109 1004v200q0 124 88.5 200.5t212.5 76.5q122 0 210.5 -76.5t88.5 -200.5v-200q0 -124 -88.5 -200.5t-210.5 -76.5q-124 0 -212.5 76.5t-88.5 200.5zM217 1018q0 -90 54.5 -139.5t138.5 -49.5q82 0 135 49.5t53 139.5v172q0 90 -53 139t-135 49q-84 0 -138.5 -49 t-54.5 -139v-172zM289 0v27l942 1427h123v-27l-946 -1427h-119zM938 250v201q0 124 89 200t212 76t212 -76t89 -200v-201q0 -124 -89 -200.5t-212 -76.5t-212 76.5t-89 200.5zM1049 264q0 -90 54 -139t136 -49q83 0 137 49t54 139v172q0 90 -54 139.5t-137 49.5 q-82 0 -136 -49.5t-54 -139.5v-172z" />
<glyph unicode="&#x26;" horiz-adv-x="1437" d="M104 436q0 158 89 267t239 153q-168 110 -168 297q-2 143 106 235.5t277 92.5q94 0 173 -26.5t159 -86.5l-78 -98q-62 46 -122.5 67t-137.5 21q-100 0 -167.5 -56t-67.5 -153q0 -169 188 -264q14 2 45 2h635v-119h-180v-676q-77 -49 -195 -82t-235 -33 q-253 0 -406.5 122.5t-153.5 336.5zM248 442q0 -165 117 -252.5t315 -87.5q68 0 148 18.5t130 45.5v602h-317q-176 0 -284.5 -83.5t-108.5 -242.5z" />
<glyph unicode="'" horiz-adv-x="428" d="M143 881v573h142l-33 -573h-109z" />
<glyph unicode="(" horiz-adv-x="722" d="M156 645q0 314 109.5 582.5t301.5 455.5l101 -96q-363 -374 -363 -942q0 -290 97.5 -545t271.5 -436l-101 -96q-190 185 -303.5 472.5t-113.5 604.5z" />
<glyph unicode=")" horiz-adv-x="722" d="M49 -336q174 181 271.5 436t97.5 545h147q0 -318 -113.5 -605t-304.5 -472zM55 1587l101 96q191 -187 300 -455t109 -583h-147q0 565 -363 942z" />
<glyph unicode="*" horiz-adv-x="864" d="M68 1331l38 94l275 -102v305h102v-305l275 102l39 -94l-273 -102l189 -264l-84 -60l-197 269l-196 -269l-84 60l188 264z" />
<glyph unicode="+" horiz-adv-x="1132" d="M117 657v125h385v406h129v-406h385v-125h-385v-417h-129v417h-385z" />
<glyph unicode="," horiz-adv-x="471" d="M135 86q0 40 28 67t68 27q52 0 82.5 -47t30.5 -135q0 -195 -127 -346l-74 55q99 120 99 238q0 35 -6 49q-2 0 -7 -1t-8 -1q-32 0 -59 27t-27 67z" />
<glyph unicode="-" horiz-adv-x="741" d="M117 586v131h508v-131h-508z" />
<glyph unicode="." d="M129 86q0 40 28 67t68 27t68.5 -27.5t28.5 -66.5q0 -41 -28.5 -68.5t-68.5 -27.5t-68 27.5t-28 68.5z" />
<glyph unicode="/" horiz-adv-x="761" d="M-33 -399l631 2078h135v-26l-629 -2079h-137v27z" />
<glyph unicode="0" horiz-adv-x="1382" d="M147 526v402q0 252 153 402.5t392 150.5q238 0 390.5 -150.5t152.5 -402.5v-402q0 -252 -152.5 -402.5t-390.5 -150.5q-239 0 -392 150.5t-153 402.5zM289 530q0 -202 110 -315t293 -113q182 0 292 113t110 315v394q0 202 -110 315t-292 113q-183 0 -293 -113t-110 -315 v-394z" />
<glyph unicode="1" horiz-adv-x="677" d="M33 1323v131h448v-1454h-141v1323h-307z" />
<glyph unicode="2" horiz-adv-x="1105" d="M86 1247q149 230 459 230q189 0 318.5 -120t129.5 -306q0 -138 -74.5 -275t-207.5 -260l-408 -391h739v-125h-938v115l502 487q123 120 182.5 226.5t59.5 222.5q0 123 -89 210t-222 87q-105 0 -188 -38t-152 -134z" />
<glyph unicode="3" horiz-adv-x="1159" d="M37 227l104 78q73 -102 170 -151.5t232 -49.5q153 0 256.5 96t103.5 240q0 149 -88.5 237.5t-241.5 88.5h-122v119h141q46 0 86 -6q119 86 119 235q0 98 -76 166t-189 68q-182 0 -282 -138l-98 70q62 96 168 146.5t221 50.5q165 0 282 -103t117 -248q0 -83 -34.5 -159 t-94.5 -129q111 -54 174.5 -156t63.5 -229q0 -207 -143 -342.5t-369 -135.5q-331 0 -500 252z" />
<glyph unicode="4" horiz-adv-x="1165" d="M63 377v117l625 960h232v-954h182v-123h-182v-377h-144v377h-713zM217 500h559v817h-28z" />
<glyph unicode="5" horiz-adv-x="1226" d="M119 199l94 86q60 -86 159.5 -132.5t221.5 -46.5q161 0 260.5 100.5t99.5 254.5q0 164 -102 258t-264 94q-161 0 -289 -78l-111 37l74 682h727v-125h-610l-47 -450q113 61 264 61q216 0 361 -130t145 -343q0 -211 -141 -350.5t-373 -139.5q-148 0 -271.5 57t-197.5 165z " />
<glyph unicode="6" horiz-adv-x="1230" d="M102 463q0 178 105 350l399 641h146v-27l-334 -518q83 35 213 35q128 0 238.5 -59.5t178.5 -170t68 -247.5q0 -205 -147 -348.5t-361 -143.5q-215 0 -360.5 138.5t-145.5 349.5zM248 467q0 -156 103 -259.5t259 -103.5q154 0 257.5 105t103.5 256q0 156 -103.5 255 t-265.5 99q-155 0 -254 -51q-100 -137 -100 -301z" />
<glyph unicode="7" horiz-adv-x="1005" d="M51 1329v125h897v-117l-647 -1337h-141v27l641 1302h-750z" />
<glyph unicode="8" horiz-adv-x="1253" d="M119 459q0 132 62 238.5t175 164.5q-112 119 -112 266q0 146 110 247.5t273 101.5t273 -101t110 -248q0 -73 -31 -142.5t-84 -123.5q113 -58 176.5 -165t63.5 -238q0 -97 -35.5 -184.5t-99.5 -154t-161 -106t-212 -39.5t-212 39.5t-161 106t-99.5 154t-35.5 184.5z M264 459q0 -145 101.5 -251t261.5 -106t261 106t101 251q0 152 -93.5 247t-246.5 95h-45q-152 0 -246 -95.5t-94 -246.5zM383 1126q0 -132 100 -219q60 13 121 13h45q58 0 121 -13q100 89 100 221q0 101 -68.5 166.5t-174.5 65.5q-105 0 -174.5 -66.5t-69.5 -167.5z" />
<glyph unicode="9" horiz-adv-x="1230" d="M96 987q0 134 67 247t184 179t257 66q141 0 257 -62.5t183.5 -174.5t67.5 -251q0 -181 -106 -350l-398 -641h-147v27l334 518q-80 -35 -211 -35q-129 0 -240 59.5t-179.5 170t-68.5 247.5zM242 989q0 -156 104 -255t266 -99q155 0 254 51q99 139 99 301 q0 156 -102.5 259.5t-260.5 103.5q-154 0 -257 -105t-103 -256z" />
<glyph unicode=":" horiz-adv-x="481" d="M131 86q0 40 27.5 67t68.5 27q39 0 67 -27.5t28 -66.5q0 -41 -28 -68.5t-67 -27.5q-41 0 -68.5 27.5t-27.5 68.5zM131 854q0 40 27.5 68t68.5 28q39 0 67 -28t28 -68t-28 -68t-67 -28q-41 0 -68.5 28t-27.5 68z" />
<glyph unicode=";" horiz-adv-x="481" d="M121 86q0 40 27.5 67t68.5 27q52 0 82.5 -47t30.5 -135q0 -195 -127 -346l-74 55q96 116 96 238q0 35 -4 49q-2 0 -6.5 -1t-7.5 -1q-32 0 -59 27t-27 67zM131 856q0 41 27.5 68.5t68.5 27.5q39 0 67 -27.5t28 -68.5q0 -39 -28 -66.5t-67 -27.5q-41 0 -68.5 27t-27.5 67z " />
<glyph unicode="&#x3c;" horiz-adv-x="1093" d="M104 637v92l834 451v-150l-662 -346l660 -350v-150z" />
<glyph unicode="=" horiz-adv-x="1085" d="M119 479v125h850v-125h-850zM119 848v123h850v-123h-850z" />
<glyph unicode="&#x3e;" horiz-adv-x="1093" d="M127 1030v150l831 -451v-92l-829 -453v150l659 350z" />
<glyph unicode="?" horiz-adv-x="970" d="M41 1370q64 47 166 76t209 29q199 0 333 -101t134 -268q0 -79 -22 -144.5t-63 -115.5t-85.5 -85.5t-104.5 -70.5l-121 -72v-217h-141v275l170 100q111 64 167 134.5t56 179.5q0 123 -92 191.5t-237 68.5q-81 0 -166 -23.5t-135 -58.5zM317 86q0 40 28 67t69 27 q39 0 66.5 -27.5t27.5 -66.5q0 -41 -27.5 -68.5t-66.5 -27.5q-41 0 -69 27.5t-28 68.5z" />
<glyph unicode="@" horiz-adv-x="1646" d="M162 322v428q0 147 34.5 267.5t97 206t150 144t192 86t224.5 27.5q167 0 306.5 -62.5t223 -179t83.5 -264.5v-649q-180 -119 -439 -119q-178 0 -297 86t-119 237q0 138 116.5 228t299.5 90q119 0 303 -35v150q0 99 -42.5 177t-112.5 123.5t-153 69t-171 23.5 q-258 0 -407.5 -155t-149.5 -456v-423q0 -180 75.5 -311.5t205.5 -197t297 -65.5q288 0 483 242l106 -72q-213 -295 -589 -295q-151 0 -280.5 44.5t-227.5 130t-153.5 220t-55.5 304.5zM762 530q0 -100 81.5 -154t194.5 -54q76 0 157 18t142 51v307q-162 33 -305 33 q-126 0 -198 -54.5t-72 -146.5z" />
<glyph unicode="A" horiz-adv-x="1468" d="M31 0v27l583 1427h240l584 -1427v-27h-148l-176 434h-764l-174 -434h-145zM401 559h664l-309 768h-45z" />
<glyph unicode="B" horiz-adv-x="1433" d="M248 45v1409h532q196 0 315 -105.5t119 -271.5q0 -104 -49 -188t-139 -131q120 -34 198.5 -134t78.5 -227q0 -180 -149 -298.5t-402 -118.5q-254 0 -504 65zM391 150q153 -39 367 -39q179 0 286 83t107 209q0 130 -84.5 203.5t-214.5 73.5h-461v-530zM391 801h498 q182 82 182 268q0 115 -80 187.5t-217 72.5h-383v-528z" />
<glyph unicode="C" horiz-adv-x="1529" d="M135 727q0 210 102.5 383t276 271t379.5 98q340 0 565 -228l-104 -96q-195 186 -463 186q-164 0 -302.5 -79t-220 -220.5t-81.5 -312.5q0 -127 48 -241.5t129.5 -196.5t193.5 -130t235 -48q285 0 481 211l99 -93q-114 -131 -256.5 -193.5t-329.5 -62.5q-147 0 -283.5 55 t-240 151.5t-166 239t-62.5 306.5z" />
<glyph unicode="D" horiz-adv-x="1654" d="M248 45v1409h487q185 0 334 -54t247.5 -151t151 -230.5t52.5 -291.5q0 -161 -53 -297.5t-152 -236.5t-249.5 -156.5t-336.5 -56.5q-279 0 -481 65zM393 156q142 -43 336 -43q152 0 274.5 47.5t201 130.5t120 194t41.5 240t-41.5 238.5t-120 189.5t-199 125t-270.5 45 h-342v-1167z" />
<glyph unicode="E" horiz-adv-x="1316" d="M248 0v1454h973v-131h-828v-524h713v-129h-713v-539h848v-131h-993z" />
<glyph unicode="F" horiz-adv-x="1218" d="M248 0v1454h946v-131h-801v-549h668v-129h-668v-645h-145z" />
<glyph unicode="G" horiz-adv-x="1628" d="M135 727q0 210 102.5 383t276 271t379.5 98q340 0 565 -228l-104 -96q-197 188 -463 188q-123 0 -234 -47t-192.5 -128t-129.5 -195.5t-48 -243.5q0 -127 48 -241.5t129.5 -196.5t193.5 -130t235 -48q252 0 442 172v430h142v-484q-227 -256 -590 -256q-147 0 -283.5 55 t-240 151.5t-166 239t-62.5 306.5z" />
<glyph unicode="H" horiz-adv-x="1720" d="M248 0v1454h145v-647h934v647h146v-1454h-146v674h-934v-674h-145z" />
<glyph unicode="I" horiz-adv-x="643" d="M248 0v1454h145v-1454h-145z" />
<glyph unicode="J" horiz-adv-x="606" d="M49 -369q199 123 199 359v1464h145v-1454q0 -170 -62.5 -286.5t-203.5 -200.5z" />
<glyph unicode="K" horiz-adv-x="1386" d="M248 0v1454h145v-657h240l520 657h145v-27l-540 -686l585 -714v-27h-147l-551 666h-252v-666h-145z" />
<glyph unicode="L" horiz-adv-x="1150" d="M248 0v1454h145v-1323h766v-131h-911z" />
<glyph unicode="M" horiz-adv-x="2050" d="M98 0l2 27l234 1427h256l432 -1206l422 1206h258l250 -1427v-27h-142l-225 1317h-41l-416 -1194h-206l-433 1196h-38l-215 -1319h-138z" />
<glyph unicode="N" horiz-adv-x="1742" d="M248 0v1454h221l854 -1270h29v1270h141v-1454h-203l-866 1276h-33v-1276h-143z" />
<glyph unicode="O" horiz-adv-x="1757" d="M133 727q0 156 59.5 296t160 240.5t238.5 159t290 58.5q150 0 286.5 -59t236.5 -159t159 -240t59 -294q0 -157 -59 -298t-159.5 -241t-237.5 -158.5t-289 -58.5q-150 0 -287 58.5t-237.5 159t-160 240.5t-59.5 296zM287 727q0 -170 78.5 -312t215 -224t300.5 -82 q121 0 230 48.5t188 130.5t125 197t46 242q0 169 -79 311.5t-215 225t-297 82.5q-163 0 -299.5 -82t-214.5 -224.5t-78 -312.5z" />
<glyph unicode="P" horiz-adv-x="1339" d="M248 0v1454h497q241 0 382 -126t141 -347q0 -150 -72 -267.5t-195.5 -180t-275.5 -62.5q-171 0 -332 37v-508h-145zM393 641q124 -37 338 -37q168 0 276.5 107t108.5 270q0 156 -98.5 249t-263.5 93h-361v-682z" />
<glyph unicode="Q" horiz-adv-x="1781" d="M133 727q0 156 59.5 296t160 240.5t238.5 159t290 58.5q150 0 286.5 -59t236.5 -159t159 -240t59 -294q0 -163 -61.5 -305.5t-171.5 -245.5l176 -201l-97 -79l-174 202q-187 -127 -417 -127q-150 0 -287 58.5t-237.5 159t-160 240.5t-59.5 296zM287 727q0 -170 78.5 -312 t215 -224t300.5 -82q170 0 313 92l-231 256l100 78l227 -256q85 87 132.5 202t47.5 246q0 169 -79 311.5t-215 225t-297 82.5q-163 0 -299.5 -82t-214.5 -224.5t-78 -312.5z" />
<glyph unicode="R" horiz-adv-x="1433" d="M248 0v1454h497q245 0 384 -112.5t139 -329.5q0 -169 -90 -285.5t-242 -163.5l369 -536v-27h-148l-356 537q-63 -5 -76 -5q-185 0 -332 31v-563h-145zM393 694q125 -30 307 -30q201 0 308.5 92t107.5 256q0 152 -97 231.5t-265 79.5h-361v-629z" />
<glyph unicode="S" horiz-adv-x="1284" d="M98 221l107 88q66 -88 189 -140t253 -52q157 0 261 74t104 196q0 90 -63.5 154t-188.5 94l-258 65q-164 40 -253 143t-89 238q0 172 137.5 280.5t355.5 108.5q271 0 473 -184l-92 -94q-183 145 -387 145q-146 0 -241 -66.5t-95 -189.5q0 -92 61.5 -158.5t186.5 -97.5 l246 -61q172 -41 265 -140t93 -237q0 -174 -142.5 -288.5t-377.5 -114.5q-171 0 -319 63t-226 174z" />
<glyph unicode="T" horiz-adv-x="1101" d="M-2 1323v131h1108v-131h-481v-1323h-146v1323h-481z" />
<glyph unicode="U" horiz-adv-x="1603" d="M184 561v893h146v-889q0 -200 131.5 -326t341.5 -126q199 0 335 127.5t136 324.5v889h145v-893q0 -170 -84.5 -305t-224.5 -208t-307 -73q-178 0 -319 73.5t-220.5 207.5t-79.5 305z" />
<glyph unicode="V" horiz-adv-x="1456" d="M31 1427v27h141l533 -1323h38q25 77 267.5 660.5t267.5 662.5h147v-27l-581 -1427h-242z" />
<glyph unicode="W" horiz-adv-x="2189" d="M63 1427v27h140l377 -1319h41l383 1319h180l383 -1319h43l375 1319h141v-27l-410 -1427h-250l-372 1286l-371 -1286h-248z" />
<glyph unicode="X" horiz-adv-x="1380" d="M41 0v27l520 727l-495 673v27h143l459 -637h37l436 637h141v-27l-471 -679l530 -721v-27h-153l-483 676h-37l-475 -676h-152z" />
<glyph unicode="Y" horiz-adv-x="1251" d="M2 1427v27h141l453 -778h61l453 778h139v-27l-512 -880h-39v-547h-143v547h-41z" />
<glyph unicode="Z" horiz-adv-x="1314" d="M115 0v121l889 1200h-850v133h1036v-108l-893 -1211h950v-135h-1132z" />
<glyph unicode="[" horiz-adv-x="610" d="M176 -426v2105h330v-125h-189v-1855h189v-125h-330z" />
<glyph unicode="\" horiz-adv-x="761" d="M-18 1653v26h135l631 -2078v-27h-136z" />
<glyph unicode="]" horiz-adv-x="608" d="M104 -301h189v1855h-189v125h328v-2105h-328v125z" />
<glyph unicode="^" horiz-adv-x="1077" d="M63 666l429 788h92l430 -788h-148l-329 618l-326 -618h-148z" />
<glyph unicode="_" horiz-adv-x="1042" d="M0 -174h1042v-129h-1042v129z" />
<glyph unicode="`" horiz-adv-x="552" d="M35 1411l69 82l283 -246l-53 -65z" />
<glyph unicode="a" horiz-adv-x="1097" d="M94 303q0 137 116 226t300 89q135 0 303 -32v88q0 130 -84 203t-209 73q-172 0 -309 -88l-66 101q90 59 180.5 83.5t200.5 24.5q114 0 209 -45.5t154 -137t59 -212.5v-580q-185 -119 -438 -119q-115 0 -208.5 36.5t-150.5 112t-57 177.5zM238 301q0 -67 41 -115.5 t102 -70t133 -21.5q172 0 299 68v309q-162 33 -305 33q-126 0 -198 -55t-72 -148z" />
<glyph unicode="b" horiz-adv-x="1218" d="M156 96v1458h137v-546q123 53 274 53q154 0 280 -68.5t198.5 -192.5t72.5 -280q0 -150 -73.5 -275t-202.5 -197q-126 -71 -277 -71h-8q-217 3 -401 119zM293 172q126 -68 272 -68q108 0 201.5 52.5t151 148.5t57.5 215q0 183 -121.5 299.5t-296.5 116.5q-150 0 -264 -57 v-707z" />
<glyph unicode="c" horiz-adv-x="1130" d="M100 526q0 116 45.5 219t122.5 175t179.5 113.5t214.5 41.5q242 0 411 -176l-92 -86q-67 64 -151 99.5t-168 35.5q-112 0 -208.5 -55.5t-154 -153t-57.5 -213.5q0 -177 122.5 -299.5t297.5 -122.5q184 0 319 138l92 -86q-161 -181 -411 -181q-155 0 -283.5 71.5 t-203.5 198t-75 281.5z" />
<glyph unicode="d" horiz-adv-x="1218" d="M100 512q0 241 158.5 396t396.5 155q143 0 271 -55v546h137v-1456q-84 -54 -191.5 -86t-212.5 -32q-243 0 -401 153.5t-158 378.5zM244 512q0 -177 116 -291.5t289 -114.5q148 0 277 66v707q-114 57 -258 57q-183 0 -303.5 -119t-120.5 -305z" />
<glyph unicode="e" horiz-adv-x="1204" d="M100 537q0 110 37.5 208t104 172t167 117t218.5 43q212 0 347.5 -134t135.5 -345q0 -72 -12 -127h-854q12 -162 127.5 -268.5t273.5 -106.5q95 0 183.5 41.5t154.5 110.5l80 -86q-174 -189 -418 -189q-162 0 -287.5 76.5t-191.5 204t-66 283.5zM244 582h727q2 14 2 32 q0 148 -96 244t-250 96q-169 0 -273 -109.5t-110 -262.5z" />
<glyph unicode="f" horiz-adv-x="669" d="M57 930v121h148v211q0 141 92.5 226t232.5 85q47 0 140 -21l-25 -116q-59 12 -123 12q-78 0 -128 -47t-50 -131v-219h295v-121h-297v-930h-137v930h-148z" />
<glyph unicode="g" horiz-adv-x="1218" d="M100 526q0 228 162 384.5t402 156.5q104 0 209 -32t190 -85v-991q0 -202 -123.5 -318t-343.5 -116q-213 0 -393 121l69 108q139 -104 338 -104q141 0 227.5 79.5t86.5 219.5v90q-125 -55 -273 -55q-154 0 -280 68.5t-198.5 192.5t-72.5 281zM244 526q0 -183 122 -299 t298 -116q148 0 262 57v706q-126 68 -273 68q-166 0 -287.5 -119t-121.5 -297z" />
<glyph unicode="h" horiz-adv-x="1224" d="M156 0v1554h137v-559q171 70 313 70q134 0 239.5 -50.5t167.5 -148.5t62 -229v-637h-137v629q0 148 -95.5 228.5t-246.5 80.5q-159 0 -303 -64v-874h-137z" />
<glyph unicode="i" d="M137 1346q0 37 25.5 62.5t62.5 25.5t62.5 -25.5t25.5 -62.5q0 -38 -25.5 -64.5t-62.5 -26.5t-62.5 26.5t-25.5 64.5zM156 0v1051h139v-1051h-139z" />
<glyph unicode="j" d="M-190 -449l22 121q52 -18 121 -18q89 0 146 69t57 175v1149h139v-1139q0 -166 -91 -272.5t-251 -106.5q-79 0 -143 22zM137 1346q0 37 25.5 62.5t62.5 25.5t62.5 -25.5t25.5 -62.5q0 -38 -25.5 -64.5t-62.5 -26.5t-62.5 26.5t-25.5 64.5z" />
<glyph unicode="k" horiz-adv-x="1017" d="M156 0v1554h137v-936h160l358 433h141v-25l-381 -469l414 -534v-23h-141l-379 485h-172v-485h-137z" />
<glyph unicode="l" d="M156 0v1554h139v-1554h-139z" />
<glyph unicode="m" horiz-adv-x="1822" d="M156 0v956q208 111 407 111q189 0 311 -119q194 119 365 119q197 0 315.5 -119t118.5 -317v-631h-137v625q0 152 -83 234.5t-224 82.5q-132 0 -283 -90q51 -97 51 -221v-631h-137v625q0 158 -79.5 237.5t-227.5 79.5q-125 0 -260 -61v-881h-137z" />
<glyph unicode="n" horiz-adv-x="1224" d="M156 0v956q222 117 452 117q204 0 335.5 -115.5t131.5 -312.5v-645h-137v637q0 149 -94.5 230t-247.5 81q-152 0 -303 -67v-881h-137z" />
<glyph unicode="o" horiz-adv-x="1306" d="M100 524q0 154 74.5 281.5t201.5 199.5t277 72q112 0 214 -42.5t177 -115t119.5 -175.5t44.5 -218q0 -154 -75.5 -281.5t-203 -199.5t-278.5 -72q-111 0 -212.5 43t-176 116t-118.5 175.5t-44 216.5zM242 526q0 -179 120.5 -304.5t290.5 -125.5q110 0 205 56t152 155 t57 217q0 182 -122.5 305t-293.5 123q-169 0 -289 -123t-120 -303z" />
<glyph unicode="p" horiz-adv-x="1218" d="M156 -461v1413q88 55 193.5 87t209.5 32q243 0 401 -153.5t158 -380.5q0 -240 -157.5 -394.5t-397.5 -154.5q-142 0 -270 55v-504h-137zM293 172q114 -57 260 -57q182 0 304 118.5t122 303.5q0 177 -118 292t-292 115q-152 0 -276 -67v-705z" />
<glyph unicode="q" horiz-adv-x="1218" d="M100 528q0 149 74.5 274t204 197t285.5 72q104 0 209 -32.5t190 -86.5v-1413h-137v502q-123 -53 -275 -53q-115 0 -217 40t-175.5 110.5t-116 171.5t-42.5 218zM244 528q0 -183 122 -299t298 -116q148 0 262 57v707q-124 67 -273 67q-167 0 -288 -118.5t-121 -297.5z" />
<glyph unicode="r" horiz-adv-x="653" d="M156 0v1051h497v-121h-358v-930h-139z" />
<glyph unicode="s" horiz-adv-x="1003" d="M72 152l84 90q145 -142 366 -142q128 0 191 54t63 127q0 66 -44 106.5t-142 63.5l-166 38q-142 33 -220.5 107.5t-78.5 183.5q0 126 105.5 209.5t289.5 83.5q220 0 381 -135l-82 -94q-123 106 -311 106q-117 0 -178.5 -49.5t-61.5 -116.5q0 -135 197 -182l164 -37 q141 -33 216 -103t75 -173q0 -129 -107.5 -220.5t-304.5 -91.5q-270 0 -436 175z" />
<glyph unicode="t" horiz-adv-x="694" d="M49 930v121h152l14 327l121 25v-352h276v-121h-276v-649q0 -76 42 -121t111 -45q58 0 123 22l41 -112q-85 -35 -178 -35q-126 0 -202 77t-76 209v654h-148z" />
<glyph unicode="u" horiz-adv-x="1220" d="M150 408v643h137v-629q0 -150 93 -231.5t249 -81.5q148 0 299 67v875h137v-959q-213 -112 -449 -112q-204 0 -335 115.5t-131 312.5z" />
<glyph unicode="v" horiz-adv-x="1079" d="M10 1026v25h133l383 -922h31l377 922h135v-25l-426 -1026h-203z" />
<glyph unicode="w" horiz-adv-x="1624" d="M25 1026v25h141l248 -920h35l276 920h174l277 -920h34l250 920h139v-25l-290 -1026h-230l-264 887l-270 -887h-228z" />
<glyph unicode="x" horiz-adv-x="1038" d="M25 0v23l378 516l-366 487v25h135l334 -453h29l323 453h135v-25l-362 -494l391 -509v-23h-139l-351 461h-28l-340 -461h-139z" />
<glyph unicode="y" horiz-adv-x="1077" d="M10 1026v25h137l361 -912h51l365 912h143v-25l-616 -1487h-129v27l186 434h-80z" />
<glyph unicode="z" horiz-adv-x="974" d="M74 0v106l649 824h-602v121h778v-109l-651 -821h680v-121h-854z" />
<glyph unicode="{" horiz-adv-x="800" d="M123 596v125q137 0 191 58t48 177l-20 379q-11 177 71 260.5t273 83.5v-125q-126 0 -168.5 -48t-36.5 -171l23 -379q5 -110 -36.5 -190t-131.5 -107q90 -27 131.5 -107t36.5 -192l-23 -442q-6 -123 36.5 -171t168.5 -48v-125q-191 0 -272 83.5t-72 260.5l20 442 q6 120 -47.5 178t-191.5 58z" />
<glyph unicode="|" horiz-adv-x="550" d="M209 -365v2104h133v-2104h-133z" />
<glyph unicode="}" horiz-adv-x="800" d="M117 -301q126 0 168 48t34 171l-20 442q-6 112 35.5 192t132.5 107q-91 27 -132.5 107t-35.5 190l20 379q8 123 -34 171t-168 48v125q190 0 272.5 -84t71.5 -260l-23 -379q-6 -119 48.5 -177t193.5 -58v-125q-140 0 -194 -57.5t-48 -178.5l23 -442q9 -177 -72.5 -260.5 t-271.5 -83.5v125z" />
<glyph unicode="~" horiz-adv-x="1277" d="M68 627q61 122 138 175.5t187 53.5q49 0 102 -18.5t87 -38.5t92 -58q53 -34 78.5 -48.5t63 -27t73.5 -12.5q64 0 112 38t89 124l120 -63q-63 -121 -140 -174.5t-185 -53.5q-50 0 -102.5 18t-87.5 38.5t-93 58.5q-72 47 -116.5 66.5t-98.5 19.5q-64 0 -112 -37.5 t-87 -122.5z" />
<glyph unicode="&#xa1;" horiz-adv-x="577" d="M193 969q0 41 28 68.5t68 27.5t68 -27.5t28 -68.5q0 -40 -28 -68.5t-68 -28.5t-68 28.5t-28 68.5zM217 -461v1114h145v-1114h-145z" />
<glyph unicode="&#xa2;" horiz-adv-x="1077" d="M98 713q0 176 109 301t276 153v287h125v-280q167 -13 307 -140l-75 -80q-143 115 -273 115q-150 0 -248 -100.5t-98 -255.5q0 -146 100.5 -246t245.5 -100q152 0 283 104l68 -86q-145 -117 -310 -127v-258h-125v264q-168 28 -276.5 152t-108.5 297z" />
<glyph unicode="&#xa3;" horiz-adv-x="1245" d="M141 49q72 144 160 193v432h-156v106h156v273q0 191 115.5 304t294.5 113q121 0 218 -42.5t177 -139.5l-100 -84q-68 80 -137 108.5t-158 28.5q-122 0 -196.5 -77.5t-74.5 -210.5v-273h549v-106h-549v-400h2q68 0 125 -21t129 -65q111 -71 207 -71q129 0 201 157l104 -55 q-60 -120 -132.5 -173.5t-176.5 -53.5q-70 0 -128 20.5t-126 63.5q-114 71 -209 71q-61 0 -107 -35.5t-83 -117.5z" />
<glyph unicode="&#xa4;" horiz-adv-x="1337" d="M117 252l162 164q-103 125 -103 307q0 175 105 309l-164 170l90 90l166 -174q126 90 289 90q167 0 294 -94l172 176l91 -88l-172 -176q100 -130 100 -303q0 -170 -96 -299l168 -172l-91 -90l-167 174q-129 -96 -299 -96q-167 0 -293 90l-162 -168zM299 723 q0 -159 102 -262t261 -103t259.5 103t100.5 262q0 160 -100.5 263.5t-259.5 103.5t-261 -103.5t-102 -263.5z" />
<glyph unicode="&#xa5;" horiz-adv-x="1302" d="M29 1427v27h137l450 -704h70l453 704h135v-27l-438 -677h288v-115h-403v-168h403v-117h-403v-350h-137v350h-408v117h408v168h-408v115h291z" />
<glyph unicode="&#xa6;" horiz-adv-x="550" d="M209 -365v852h133v-852h-133zM209 887v852h133v-852h-133z" />
<glyph unicode="&#xa7;" horiz-adv-x="1073" d="M72 152l84 90q145 -142 366 -142q129 0 193.5 51.5t64.5 122.5q0 65 -45 102.5t-145 61.5l-166 39q-142 33 -224.5 111t-82.5 186q0 125 108 213q-100 78 -100 201q0 126 105.5 209.5t289.5 83.5q220 0 381 -135l-82 -95q-124 107 -311 107q-118 0 -181 -49.5t-63 -116.5 q0 -135 201 -180l164 -39q141 -33 220 -106.5t79 -176.5q0 -127 -109 -219q101 -72 101 -188q0 -128 -107 -217t-305 -89q-270 0 -436 175zM256 778q0 -69 55 -118.5t154 -73.5l164 -37q13 -3 36 -10.5t33 -10.5q90 56 90 154q0 133 -198 180l-166 39q-34 8 -76 21 q-45 -25 -68.5 -64.5t-23.5 -79.5z" />
<glyph unicode="&#xa8;" horiz-adv-x="827" d="M104 1346q0 37 26 62.5t63 25.5t62.5 -25.5t25.5 -62.5q0 -38 -25.5 -64.5t-62.5 -26.5t-63 26.5t-26 64.5zM545 1346q0 37 26 62.5t64 25.5q36 0 62 -26t26 -62q0 -38 -26 -64.5t-62 -26.5q-38 0 -64 26.5t-26 64.5z" />
<glyph unicode="&#xa9;" horiz-adv-x="1896" d="M119 725q0 169 66 322.5t177.5 264.5t264.5 176.5t321 65.5t321.5 -65.5t265 -176.5t177.5 -264.5t66 -322.5q0 -167 -66 -320t-177.5 -263.5t-265 -176t-321.5 -65.5t-321 65.5t-264.5 176t-177.5 263.5t-66 320zM203 725q0 -205 99.5 -376t270.5 -269t375 -98t375.5 98 t271 269t99.5 376q0 156 -58.5 295t-158.5 238.5t-238 157t-291 57.5t-290.5 -57.5t-237.5 -157t-158.5 -238.5t-58.5 -295zM545 735q0 123 61 223t161.5 154.5t219.5 54.5q199 0 326 -137l-84 -74q-101 101 -242 101q-133 0 -225 -93t-92 -229t91 -226.5t226 -90.5 q146 0 248 102l78 -76q-126 -141 -326 -141q-186 0 -314 123.5t-128 308.5z" />
<glyph unicode="&#xab;" horiz-adv-x="1198" d="M100 551v74l398 438l92 -84l-365 -391l365 -391l-92 -84zM578 551v74l399 438l90 -84l-365 -391l365 -391l-90 -84z" />
<glyph unicode="&#xad;" horiz-adv-x="741" d="M117 586v131h508v-131h-508z" />
<glyph unicode="&#xae;" horiz-adv-x="821" d="M37 1106q0 155 110 265t265 110q154 0 264 -110t110 -265t-110 -264t-264 -109q-155 0 -265 109t-110 264zM82 1106q0 -138 96.5 -234t233.5 -96q138 0 233.5 96t95.5 234q0 139 -95.5 235.5t-233.5 96.5q-137 0 -233.5 -96.5t-96.5 -235.5zM274 907v420h156 q71 0 111.5 -32.5t40.5 -94.5q0 -48 -26.5 -81.5t-70.5 -47.5l103 -153v-11h-56l-100 156h-10q-51 0 -92 8v-164h-56zM330 1120q44 -8 90 -8q55 0 78.5 22.5t23.5 65.5q0 78 -90 78h-102v-158z" />
<glyph unicode="&#xaf;" horiz-adv-x="745" d="M104 1284v88h537v-88h-537z" />
<glyph unicode="&#xb0;" horiz-adv-x="798" d="M133 1319q0 117 75.5 191.5t194.5 74.5q117 0 193 -74.5t76 -191.5q0 -119 -75.5 -194.5t-193.5 -75.5q-119 0 -194.5 75t-75.5 195zM236 1319q0 -75 46.5 -122.5t120.5 -47.5t121 47.5t47 122.5q0 73 -47 119.5t-121 46.5t-120.5 -46.5t-46.5 -119.5z" />
<glyph unicode="&#xb1;" horiz-adv-x="1134" d="M117 692v123h385v406h129v-406h385v-123h-385v-379h-129v379h-385zM143 0v125h850v-125h-850z" />
<glyph unicode="&#xb2;" horiz-adv-x="747" d="M66 1806q93 150 286 150q120 0 202.5 -75t82.5 -195q0 -79 -44 -163.5t-124 -158.5l-231 -217h426v-96h-582v88l305 295q135 129 135 252q0 70 -50 118.5t-122 48.5q-62 0 -110 -22.5t-88 -79.5z" />
<glyph unicode="&#xb3;" horiz-adv-x="751" d="M35 1194l80 61q43 -62 98.5 -91t134.5 -29q88 0 145.5 52.5t57.5 135.5q0 84 -49.5 133t-139.5 49h-71v92h86q19 0 51 -4q61 47 61 127q0 57 -41.5 95t-103.5 38q-106 0 -160 -77l-78 55q39 60 105 91.5t137 31.5q104 0 179 -65.5t75 -157.5q0 -98 -72 -170 q62 -33 97 -94t35 -134q0 -129 -88 -213t-234 -84q-201 0 -305 158z" />
<glyph unicode="&#xb4;" horiz-adv-x="552" d="M166 1247l283 246l69 -82l-299 -229z" />
<glyph unicode="&#xb5;" horiz-adv-x="1224" d="M154 -461v1512h137v-629q0 -150 93 -231.5t249 -81.5q148 0 299 67v875h137v-959q-213 -112 -448 -112q-201 0 -330 126v-567h-137z" />
<glyph unicode="&#xb6;" horiz-adv-x="1376" d="M162 1102q0 146 103.5 249t248.5 103h721v-125h-186v-1329h-142v1329h-256v-1433q0 -158 -85.5 -262.5t-235.5 -104.5q-73 0 -117 16l23 121q34 -12 94 -12q78 0 130 68t52 163v869q-144 0 -247 102.5t-103 245.5z" />
<glyph unicode="&#xb7;" horiz-adv-x="557" d="M182 709q0 40 28 68t69 28q39 0 67.5 -28.5t28.5 -67.5t-28.5 -68t-67.5 -29q-41 0 -69 28.5t-28 68.5z" />
<glyph unicode="&#xb8;" horiz-adv-x="567" d="M90 -436l25 82q61 -23 125 -23q53 0 85.5 30t32.5 77q0 100 -168 100l23 170h92l-16 -127q74 -2 124 -44.5t50 -111.5q0 -79 -55.5 -131.5t-147.5 -52.5t-170 31z" />
<glyph unicode="&#xb9;" horiz-adv-x="464" d="M41 1837v105h285v-891h-109v786h-176z" />
<glyph unicode="&#xbb;" horiz-adv-x="1198" d="M125 197l364 391l-364 391l92 84l397 -438v-74l-397 -438zM604 197l363 391l-363 391l90 84l398 -438v-74l-398 -438z" />
<glyph unicode="&#xbc;" horiz-adv-x="1622" d="M41 1350v104h287v-891h-113v787h-174zM201 37l391 680l430 753l98 -53l-434 -747l-389 -686zM803 219v92l364 580h176v-576h117v-96h-117v-219h-110v219h-430zM922 315h311v465h-21z" />
<glyph unicode="&#xbd;" horiz-adv-x="1595" d="M41 1350v104h287v-891h-113v787h-174zM201 37l391 680l430 753l98 -53l-434 -747l-389 -686zM913 756q93 149 289 149q120 0 202.5 -75t82.5 -195q0 -79 -44.5 -163t-123.5 -157l-229 -215h423v-100h-583v90l305 295q135 129 135 250q0 70 -50 119t-122 49 q-127 0 -197 -105z" />
<glyph unicode="&#xbe;" horiz-adv-x="1722" d="M35 707l82 63q81 -121 231 -121q88 0 144.5 52.5t56.5 134.5q0 86 -48.5 134t-138.5 48h-71v94h86q17 0 53 -4q59 48 59 127q0 54 -42 92.5t-103 38.5q-103 0 -160 -78l-78 58q39 59 105 89.5t137 30.5q106 0 180 -64.5t74 -156.5q0 -101 -72 -170q63 -35 98.5 -95.5 t35.5 -133.5q0 -128 -88.5 -212.5t-235.5 -84.5q-201 0 -305 158zM348 37l391 680l430 753l99 -53l-434 -747l-390 -686zM950 219v92l365 580h176v-576h117v-96h-117v-219h-111v219h-430zM1069 315h311v465h-20z" />
<glyph unicode="&#xbf;" horiz-adv-x="970" d="M88 -102q0 66 16 123t39.5 97.5t62.5 78.5t73 62.5t83 53.5l121 72v268h142v-325l-181 -103q-51 -30 -86 -57t-66 -64t-46 -84.5t-15 -107.5q0 -123 92 -191.5t234 -68.5q82 0 167.5 23.5t141.5 58.5l66 -109q-70 -43 -173.5 -70.5t-203.5 -27.5q-130 0 -235.5 44 t-168.5 129.5t-63 197.5zM461 969q0 41 28.5 68.5t67.5 27.5q41 0 68.5 -27.5t27.5 -68.5q0 -40 -27.5 -68.5t-68.5 -28.5q-39 0 -67.5 29t-28.5 68z" />
<glyph unicode="&#xc0;" horiz-adv-x="1468" d="M31 0v27l583 1427h240l584 -1427v-27h-148l-176 434h-764l-174 -434h-145zM401 559h664l-309 768h-45zM575 1616l283 246l70 -82l-299 -230z" />
<glyph unicode="&#xc1;" horiz-adv-x="1468" d="M31 0v27l583 1427h240l584 -1427v-27h-148l-176 434h-764l-174 -434h-145zM401 559h664l-309 768h-45zM557 1616l283 246l69 -82l-299 -230z" />
<glyph unicode="&#xc2;" horiz-adv-x="1468" d="M31 0v27l583 1427h240l584 -1427v-27h-148l-176 434h-764l-174 -434h-145zM401 559h664l-309 768h-45zM459 1571v26l225 205h102l224 -205v-26h-80l-195 151l-196 -151h-80z" />
<glyph unicode="&#xc3;" horiz-adv-x="1501" d="M31 0v27l583 1427h240l584 -1427v-27h-148l-176 434h-764l-174 -434h-145zM401 559h664l-309 768h-45zM426 1630q35 90 82 128t113 38q67 0 153 -65q63 -52 107 -52q41 0 69 26t51 89l74 -35q-34 -90 -80.5 -128t-111.5 -38q-69 0 -154 66q-62 49 -111 49 q-39 0 -66.5 -25t-51.5 -88z" />
<glyph unicode="&#xc4;" horiz-adv-x="1468" d="M31 0v27l583 1427h240l584 -1427v-27h-148l-176 434h-764l-174 -434h-145zM401 559h664l-309 768h-45zM424 1714q0 37 26 62.5t64 25.5q36 0 62 -26t26 -62q0 -38 -26 -64t-62 -26q-38 0 -64 26t-26 64zM866 1714q0 37 25.5 62.5t62.5 25.5t62.5 -25.5t25.5 -62.5 q0 -38 -25.5 -64t-62.5 -26t-62.5 26t-25.5 64z" />
<glyph unicode="&#xc5;" horiz-adv-x="1468" d="M31 0v27l583 1427h240l584 -1427v-27h-148l-176 434h-764l-174 -434h-145zM401 559h664l-309 768h-45zM557 1683q0 78 49.5 127.5t126.5 49.5q78 0 128 -49.5t50 -127.5q0 -77 -50 -126.5t-128 -49.5q-77 0 -126.5 49.5t-49.5 126.5zM627 1683q0 -47 29.5 -76.5 t76.5 -29.5q49 0 79 29.5t30 76.5q0 49 -30 79t-79 30q-47 0 -76.5 -30t-29.5 -79z" />
<glyph unicode="&#xc6;" horiz-adv-x="1908" d="M-31 0v27l819 1427h1027v-131h-756v-524h639v-129h-639v-539h774v-131h-918v434h-550l-250 -434h-146zM436 559h479v768h-34z" />
<glyph unicode="&#xc7;" horiz-adv-x="1529" d="M135 727q0 210 102.5 383t276 271t379.5 98q340 0 565 -228l-104 -96q-195 186 -463 186q-164 0 -302.5 -79t-220 -220.5t-81.5 -312.5q0 -127 48 -241.5t129.5 -196.5t193.5 -130t235 -48q285 0 481 211l99 -93q-208 -239 -535 -254l-12 -104q73 -2 124.5 -44t51.5 -110 q0 -81 -55 -133.5t-150 -52.5q-98 0 -172 29l25 86q65 -21 122 -21q56 0 88.5 28.5t32.5 74.5q0 100 -168 100l19 147q-141 7 -269.5 65.5t-226 154.5t-155.5 234t-58 296z" />
<glyph unicode="&#xc8;" horiz-adv-x="1316" d="M248 0v1454h973v-131h-828v-524h713v-129h-713v-539h848v-131h-993zM500 1780l67 82l285 -246l-53 -66z" />
<glyph unicode="&#xc9;" horiz-adv-x="1316" d="M248 0v1454h973v-131h-828v-524h713v-129h-713v-539h848v-131h-993zM559 1616l283 246l69 -82l-299 -230z" />
<glyph unicode="&#xca;" horiz-adv-x="1316" d="M248 0v1454h973v-131h-828v-524h713v-129h-713v-539h848v-131h-993zM453 1571v26l223 205h102l226 -205v-26h-80l-197 151l-195 -151h-79z" />
<glyph unicode="&#xcb;" horiz-adv-x="1316" d="M248 0v1454h973v-131h-828v-524h713v-129h-713v-539h848v-131h-993zM420 1714q0 37 25.5 62.5t62.5 25.5t62.5 -25.5t25.5 -62.5q0 -38 -25.5 -64t-62.5 -26t-62.5 26t-25.5 64zM860 1714q0 37 26 62.5t64 25.5q36 0 62 -26t26 -62q0 -38 -26 -64t-62 -26q-38 0 -64 26 t-26 64z" />
<glyph unicode="&#xcc;" horiz-adv-x="552" d="M29 1780l69 82l283 -246l-53 -66zM203 0v1454h145v-1454h-145z" />
<glyph unicode="&#xcd;" horiz-adv-x="552" d="M166 1616l283 246l69 -82l-299 -230zM203 0v1454h145v-1454h-145z" />
<glyph unicode="&#xce;" horiz-adv-x="552" d="M2 1571v26l223 205h103l225 -205v-26h-80l-197 151l-194 -151h-80zM203 0v1454h145v-1454h-145z" />
<glyph unicode="&#xcf;" horiz-adv-x="552" d="M-33 1714q0 37 25.5 62.5t62.5 25.5t62.5 -25.5t25.5 -62.5q0 -38 -25.5 -64t-62.5 -26t-62.5 26t-25.5 64zM203 0v1454h145v-1454h-145zM408 1714q0 37 26 62.5t64 25.5q36 0 62 -26t26 -62q0 -38 -26 -64t-62 -26q-38 0 -64 26t-26 64z" />
<glyph unicode="&#xd0;" horiz-adv-x="1603" d="M16 719v123h187v612h485q185 0 334.5 -54t247.5 -151t150.5 -230t52.5 -292q0 -161 -53 -297.5t-151.5 -236.5t-248.5 -156.5t-336 -56.5q-279 0 -481 65v674h-187zM348 156q142 -43 336 -43q152 0 274 47.5t200.5 130.5t120.5 194t42 240t-41.5 238.5t-120 189.5 t-199 125t-270.5 45h-342v-481h268v-123h-268v-563z" />
<glyph unicode="&#xd1;" horiz-adv-x="1652" d="M203 0v1454h219l856 -1270h29v1270h141v-1454h-205l-864 1276h-33v-1276h-143zM518 1630q35 90 82.5 128t112.5 38q67 0 153 -65q65 -52 109 -52q40 0 68.5 26t52.5 89l71 -35q-34 -91 -80 -128.5t-112 -37.5q-67 0 -154 66q-59 49 -108 49q-40 0 -68.5 -25.5 t-52.5 -87.5z" />
<glyph unicode="&#xd2;" horiz-adv-x="1757" d="M133 727q0 156 59.5 296t160 240.5t238.5 159t290 58.5q150 0 286.5 -59t236.5 -159t159 -240t59 -294q0 -157 -59 -298t-159.5 -241t-237.5 -158.5t-289 -58.5q-150 0 -287 58.5t-237.5 159t-160 240.5t-59.5 296zM287 727q0 -170 78.5 -312t215 -224t300.5 -82 q121 0 230 48.5t188 130.5t125 197t46 242q0 169 -79 311.5t-215 225t-297 82.5q-163 0 -299.5 -82t-214.5 -224.5t-78 -312.5zM690 1780l70 82l282 -246l-53 -66z" />
<glyph unicode="&#xd3;" horiz-adv-x="1757" d="M133 727q0 156 59.5 296t160 240.5t238.5 159t290 58.5q150 0 286.5 -59t236.5 -159t159 -240t59 -294q0 -157 -59 -298t-159.5 -241t-237.5 -158.5t-289 -58.5q-150 0 -287 58.5t-237.5 159t-160 240.5t-59.5 296zM287 727q0 -170 78.5 -312t215 -224t300.5 -82 q121 0 230 48.5t188 130.5t125 197t46 242q0 169 -79 311.5t-215 225t-297 82.5q-163 0 -299.5 -82t-214.5 -224.5t-78 -312.5zM705 1616l282 246l70 -82l-299 -230z" />
<glyph unicode="&#xd4;" horiz-adv-x="1757" d="M133 727q0 156 59.5 296t160 240.5t238.5 159t290 58.5q150 0 286.5 -59t236.5 -159t159 -240t59 -294q0 -157 -59 -298t-159.5 -241t-237.5 -158.5t-289 -58.5q-150 0 -287 58.5t-237.5 159t-160 240.5t-59.5 296zM287 727q0 -170 78.5 -312t215 -224t300.5 -82 q121 0 230 48.5t188 130.5t125 197t46 242q0 169 -79 311.5t-215 225t-297 82.5q-163 0 -299.5 -82t-214.5 -224.5t-78 -312.5zM602 1591v27l225 205h103l223 -205v-27h-80l-194 152l-197 -152h-80z" />
<glyph unicode="&#xd5;" horiz-adv-x="1757" d="M133 727q0 156 59.5 296t160 240.5t238.5 159t290 58.5q150 0 286.5 -59t236.5 -159t159 -240t59 -294q0 -157 -59 -298t-159.5 -241t-237.5 -158.5t-289 -58.5q-150 0 -287 58.5t-237.5 159t-160 240.5t-59.5 296zM287 727q0 -170 78.5 -312t215 -224t300.5 -82 q121 0 230 48.5t188 130.5t125 197t46 242q0 169 -79 311.5t-215 225t-297 82.5q-163 0 -299.5 -82t-214.5 -224.5t-78 -312.5zM553 1630q35 90 82.5 128t112.5 38q70 0 153 -65q65 -52 109 -52q40 0 68 26t52 89l74 -35q-36 -91 -82 -128.5t-112 -37.5q-67 0 -154 66 q-59 49 -108 49q-40 0 -68.5 -25.5t-50.5 -87.5z" />
<glyph unicode="&#xd6;" horiz-adv-x="1757" d="M133 727q0 156 59.5 296t160 240.5t238.5 159t290 58.5q150 0 286.5 -59t236.5 -159t159 -240t59 -294q0 -157 -59 -298t-159.5 -241t-237.5 -158.5t-289 -58.5q-150 0 -287 58.5t-237.5 159t-160 240.5t-59.5 296zM287 727q0 -170 78.5 -312t215 -224t300.5 -82 q121 0 230 48.5t188 130.5t125 197t46 242q0 169 -79 311.5t-215 225t-297 82.5q-163 0 -299.5 -82t-214.5 -224.5t-78 -312.5zM569 1714q0 37 25.5 62.5t62.5 25.5t62.5 -25.5t25.5 -62.5q0 -38 -25.5 -64t-62.5 -26t-62.5 26t-25.5 64zM1010 1714q0 37 26 62.5t64 25.5 q36 0 62 -26t26 -62q0 -38 -26 -64t-62 -26q-38 0 -64 26t-26 64z" />
<glyph unicode="&#xd7;" horiz-adv-x="1024" d="M117 408l307 319l-307 320l90 90l305 -320l307 320l88 -88l-305 -322l305 -319l-90 -91l-305 322l-305 -322z" />
<glyph unicode="&#xd8;" horiz-adv-x="1757" d="M133 727q0 156 59.5 296t160 240.5t238.5 159t290 58.5q251 0 450 -156l115 129h141v-27l-166 -184q96 -103 148.5 -235t52.5 -279q0 -157 -59 -298t-159.5 -241t-237.5 -158.5t-289 -58.5q-253 0 -455 156l-115 -129h-137v27l164 184q-96 102 -148.5 234t-52.5 282z M287 727q0 -235 143 -408l807 902q-160 125 -358 125q-163 0 -299.5 -82t-214.5 -224.5t-78 -312.5zM516 233q159 -124 365 -124q121 0 230 48.5t188 130.5t125 197t46 242q0 234 -147 408z" />
<glyph unicode="&#xd9;" horiz-adv-x="1603" d="M184 561v893h146v-889q0 -200 131.5 -326t341.5 -126q199 0 335 127.5t136 324.5v889h145v-893q0 -170 -84.5 -305t-224.5 -208t-307 -73q-178 0 -319 73.5t-220.5 207.5t-79.5 305zM586 1780l67 82l283 -246l-51 -66z" />
<glyph unicode="&#xda;" horiz-adv-x="1603" d="M184 561v893h146v-889q0 -200 131.5 -326t341.5 -126q199 0 335 127.5t136 324.5v889h145v-893q0 -170 -84.5 -305t-224.5 -208t-307 -73q-178 0 -319 73.5t-220.5 207.5t-79.5 305zM666 1616l282 246l68 -82l-299 -230z" />
<glyph unicode="&#xdb;" horiz-adv-x="1603" d="M184 561v893h146v-889q0 -200 131.5 -326t341.5 -126q199 0 335 127.5t136 324.5v889h145v-893q0 -170 -84.5 -305t-224.5 -208t-307 -73q-178 0 -319 73.5t-220.5 207.5t-79.5 305zM524 1571v26l226 205h102l225 -205v-26h-80l-196 151l-197 -151h-80z" />
<glyph unicode="&#xdc;" horiz-adv-x="1603" d="M184 561v893h146v-889q0 -200 131.5 -326t341.5 -126q199 0 335 127.5t136 324.5v889h145v-893q0 -170 -84.5 -305t-224.5 -208t-307 -73q-178 0 -319 73.5t-220.5 207.5t-79.5 305zM492 1714q0 37 26 62.5t64 25.5q36 0 62 -26t26 -62q0 -38 -26 -64t-62 -26 q-38 0 -64 26t-26 64zM934 1714q0 37 25.5 62.5t62.5 25.5t62.5 -25.5t25.5 -62.5q0 -38 -25.5 -64t-62.5 -26t-62.5 26t-25.5 64z" />
<glyph unicode="&#xdd;" horiz-adv-x="1251" d="M2 1427v27h141l453 -778h61l453 778h139v-27l-512 -880h-39v-547h-143v547h-41zM514 1616l283 246l69 -82l-299 -230z" />
<glyph unicode="&#xde;" horiz-adv-x="1310" d="M248 0v1454h145v-219h352q241 0 382 -126t141 -347q0 -149 -72 -266.5t-195.5 -180.5t-275.5 -63q-171 0 -332 37v-289h-145zM393 422q133 -37 338 -37q168 0 276.5 107t108.5 270q0 157 -99 250.5t-263 93.5h-361v-684z" />
<glyph unicode="&#xdf;" horiz-adv-x="1228" d="M57 930v121h148v211q0 141 101.5 226t252.5 85q142 0 232 -78t90 -209q0 -132 -117 -268q-11 -12 -36.5 -42t-35 -41.5t-26.5 -35t-23 -39t-12 -37.5t-6 -45q0 -133 159 -178l95 -27q132 -38 209 -111.5t77 -185.5q0 -130 -90.5 -214.5t-259.5 -84.5q-221 0 -379 166 l84 90q136 -133 309 -133q89 0 141 48.5t52 121.5q0 70 -44 115.5t-138 73.5l-97 26q-128 35 -193 108.5t-65 176.5q0 32 8 62.5t17.5 52.5t30.5 51t33 43.5t40.5 46t38.5 43.5q47 53 67.5 98t20.5 109q0 81 -51 126.5t-139 45.5q-95 0 -151 -46t-56 -132v-1270h-139v930 h-148z" />
<glyph unicode="&#xe0;" horiz-adv-x="1097" d="M94 303q0 137 116 226t300 89q135 0 303 -32v88q0 130 -84 203t-209 73q-172 0 -309 -88l-66 101q90 59 180.5 83.5t200.5 24.5q114 0 209 -45.5t154 -137t59 -212.5v-580q-185 -119 -438 -119q-115 0 -208.5 36.5t-150.5 112t-57 177.5zM238 301q0 -67 41 -115.5 t102 -70t133 -21.5q172 0 299 68v309q-162 33 -305 33q-126 0 -198 -55t-72 -148zM358 1411l68 82l283 -246l-54 -65z" />
<glyph unicode="&#xe1;" horiz-adv-x="1097" d="M94 303q0 137 116 226t300 89q135 0 303 -32v88q0 130 -84 203t-209 73q-172 0 -309 -88l-66 101q90 59 180.5 83.5t200.5 24.5q114 0 209 -45.5t154 -137t59 -212.5v-580q-185 -119 -438 -119q-115 0 -208.5 36.5t-150.5 112t-57 177.5zM238 301q0 -67 41 -115.5 t102 -70t133 -21.5q172 0 299 68v309q-162 33 -305 33q-126 0 -198 -55t-72 -148zM381 1247l283 246l67 -82l-299 -229z" />
<glyph unicode="&#xe2;" horiz-adv-x="1097" d="M94 303q0 137 116 226t300 89q135 0 303 -32v88q0 130 -84 203t-209 73q-172 0 -309 -88l-66 101q90 59 180.5 83.5t200.5 24.5q114 0 209 -45.5t154 -137t59 -212.5v-580q-185 -119 -438 -119q-115 0 -208.5 36.5t-150.5 112t-57 177.5zM238 301q0 -67 41 -115.5 t102 -70t133 -21.5q172 0 299 68v309q-162 33 -305 33q-126 0 -198 -55t-72 -148zM272 1202v27l226 205h102l223 -205v-27h-80l-194 152l-197 -152h-80z" />
<glyph unicode="&#xe3;" horiz-adv-x="1097" d="M94 303q0 137 116 226t300 89q135 0 303 -32v88q0 130 -84 203t-209 73q-172 0 -309 -88l-66 101q90 59 180.5 83.5t200.5 24.5q114 0 209 -45.5t154 -137t59 -212.5v-580q-185 -119 -438 -119q-115 0 -208.5 36.5t-150.5 112t-57 177.5zM211 1262q35 90 82.5 127.5 t112.5 37.5q70 0 153 -65q64 -51 109 -51q41 0 68.5 25.5t51.5 88.5l74 -34q-36 -91 -82 -128.5t-112 -37.5q-68 0 -154 65q-59 49 -108 49q-40 0 -68.5 -25t-50.5 -87zM238 301q0 -67 41 -115.5t102 -70t133 -21.5q172 0 299 68v309q-162 33 -305 33q-126 0 -198 -55 t-72 -148z" />
<glyph unicode="&#xe4;" horiz-adv-x="1097" d="M94 303q0 137 116 226t300 89q135 0 303 -32v88q0 130 -84 203t-209 73q-172 0 -309 -88l-66 101q90 59 180.5 83.5t200.5 24.5q114 0 209 -45.5t154 -137t59 -212.5v-580q-185 -119 -438 -119q-115 0 -208.5 36.5t-150.5 112t-57 177.5zM233 1346q0 37 26 62.5t63 25.5 t62.5 -25.5t25.5 -62.5q0 -38 -25.5 -64.5t-62.5 -26.5t-63 26.5t-26 64.5zM238 301q0 -67 41 -115.5t102 -70t133 -21.5q172 0 299 68v309q-162 33 -305 33q-126 0 -198 -55t-72 -148zM674 1346q0 37 25.5 62.5t62.5 25.5t62.5 -25.5t25.5 -62.5q0 -38 -25.5 -64.5 t-62.5 -26.5t-62.5 26.5t-25.5 64.5z" />
<glyph unicode="&#xe5;" horiz-adv-x="1101" d="M102 303q0 137 116 226t298 89q137 0 303 -32v88q0 130 -83.5 203t-207.5 73q-175 0 -309 -88l-65 101q90 59 180.5 83.5t200.5 24.5q84 0 160 -27t134 -76.5t92.5 -125t34.5 -166.5v-580q-185 -119 -438 -119q-115 0 -208.5 36.5t-150.5 112t-57 177.5zM244 301 q0 -99 82 -153t196 -54q170 0 297 68v309q-160 33 -303 33q-127 0 -199.5 -55t-72.5 -148zM375 1323q0 78 49 127t127 49q77 0 126.5 -49t49.5 -127q0 -77 -49.5 -126.5t-126.5 -49.5q-78 0 -127 49.5t-49 126.5zM442 1323q0 -47 30 -76.5t79 -29.5q47 0 76.5 29.5 t29.5 76.5q0 49 -29.5 79t-76.5 30q-49 0 -79 -30t-30 -79z" />
<glyph unicode="&#xe6;" horiz-adv-x="1914" d="M94 289q0 135 115 215t301 80h330v90q0 128 -92.5 202t-219.5 74q-175 0 -309 -88l-65 101q90 59 180.5 83.5t200.5 24.5q126 0 233 -58.5t158 -162.5q63 106 168.5 166.5t248.5 60.5q211 0 344.5 -133.5t133.5 -345.5q0 -47 -13 -127h-827q12 -164 119 -269.5 t264 -105.5q185 0 334 152l80 -86q-174 -189 -414 -189q-155 0 -268.5 68.5t-177.5 189.5q-59 -127 -174.5 -190.5t-245.5 -63.5q-181 0 -292.5 81t-111.5 231zM238 287q0 -94 74 -144.5t186 -50.5q65 0 124 22t109 65.5t79.5 119t29.5 172.5h-332q-129 0 -199.5 -46.5 t-70.5 -137.5zM981 582h700v32q0 149 -92.5 244.5t-245.5 95.5q-86 0 -154.5 -30.5t-112.5 -83t-68 -118.5t-27 -140z" />
<glyph unicode="&#xe7;" horiz-adv-x="1130" d="M100 526q0 116 45.5 219t122.5 175t179.5 113.5t214.5 41.5q242 0 411 -176l-92 -86q-67 64 -151 99.5t-168 35.5q-112 0 -208.5 -55.5t-154 -153t-57.5 -213.5q0 -177 122.5 -299.5t297.5 -122.5q184 0 319 138l92 -86q-149 -165 -368 -179l-13 -104q74 -2 125 -44.5 t51 -111.5q0 -78 -56 -131t-148 -53t-170 31l24 82q61 -23 125 -23q53 0 86 30.5t33 76.5q0 100 -168 100l18 147q-219 17 -365.5 172t-146.5 377z" />
<glyph unicode="&#xe8;" horiz-adv-x="1204" d="M100 537q0 110 37.5 208t104 172t167 117t218.5 43q212 0 347.5 -134t135.5 -345q0 -72 -12 -127h-854q12 -162 127.5 -268.5t273.5 -106.5q95 0 183.5 41.5t154.5 110.5l80 -86q-174 -189 -418 -189q-162 0 -287.5 76.5t-191.5 204t-66 283.5zM244 582h727q2 14 2 32 q0 148 -96 244t-250 96q-169 0 -273 -109.5t-110 -262.5zM446 1411l70 82l283 -246l-54 -65z" />
<glyph unicode="&#xe9;" horiz-adv-x="1204" d="M100 537q0 110 37.5 208t104 172t167 117t218.5 43q212 0 347.5 -134t135.5 -345q0 -72 -12 -127h-854q12 -162 127.5 -268.5t273.5 -106.5q95 0 183.5 41.5t154.5 110.5l80 -86q-174 -189 -418 -189q-162 0 -287.5 76.5t-191.5 204t-66 283.5zM244 582h727q2 14 2 32 q0 148 -96 244t-250 96q-169 0 -273 -109.5t-110 -262.5zM465 1247l283 246l69 -82l-299 -229z" />
<glyph unicode="&#xea;" horiz-adv-x="1204" d="M100 537q0 110 37.5 208t104 172t167 117t218.5 43q212 0 347.5 -134t135.5 -345q0 -72 -12 -127h-854q12 -162 127.5 -268.5t273.5 -106.5q95 0 183.5 41.5t154.5 110.5l80 -86q-174 -189 -418 -189q-162 0 -287.5 76.5t-191.5 204t-66 283.5zM244 582h727q2 14 2 32 q0 148 -96 244t-250 96q-169 0 -273 -109.5t-110 -262.5zM342 1202v27l223 205h103l225 -205v-27h-80l-197 152l-194 -152h-80z" />
<glyph unicode="&#xeb;" horiz-adv-x="1204" d="M100 537q0 110 37.5 208t104 172t167 117t218.5 43q212 0 347.5 -134t135.5 -345q0 -72 -12 -127h-854q12 -162 127.5 -268.5t273.5 -106.5q95 0 183.5 41.5t154.5 110.5l80 -86q-174 -189 -418 -189q-162 0 -287.5 76.5t-191.5 204t-66 283.5zM244 582h727q2 14 2 32 q0 148 -96 244t-250 96q-169 0 -273 -109.5t-110 -262.5zM309 1346q0 37 25.5 62.5t62.5 25.5t62.5 -25.5t25.5 -62.5q0 -38 -25.5 -64.5t-62.5 -26.5t-62.5 26.5t-25.5 64.5zM750 1346q0 37 26 62.5t64 25.5q36 0 62 -26t26 -62q0 -38 -26 -64.5t-62 -26.5q-38 0 -64 26.5 t-26 64.5z" />
<glyph unicode="&#xec;" d="M-29 1411l68 82l283 -246l-52 -65zM156 0v1051h139v-1051h-139z" />
<glyph unicode="&#xed;" d="M123 1247l283 246l69 -82l-299 -229zM156 0v1051h139v-1051h-139z" />
<glyph unicode="&#xee;" d="M-49 1202v27l223 205h102l226 -205v-27h-80l-197 152l-194 -152h-80zM156 0v1051h139v-1051h-139z" />
<glyph unicode="&#xef;" d="M-84 1346q0 37 25.5 62.5t62.5 25.5t62.5 -25.5t25.5 -62.5q0 -38 -25.5 -64.5t-62.5 -26.5t-62.5 26.5t-25.5 64.5zM156 0v1051h139v-1051h-139zM356 1346q0 37 26 62.5t64 25.5q36 0 62.5 -26t26.5 -62q0 -38 -26.5 -64.5t-62.5 -26.5q-38 0 -64 26.5t-26 64.5z" />
<glyph unicode="&#xf0;" horiz-adv-x="1218" d="M100 512q0 159 73 285t199.5 195t282.5 69q75 0 126 -10.5t112 -36.5q-81 162 -227 270l-314 -127l-39 92l252 101q-90 51 -241 110l36 109q180 -66 336 -168l234 96l39 -92l-181 -72q133 -108 204 -233t71 -250v-752q-84 -54 -191.5 -86t-212.5 -32q-243 0 -401 153.5 t-158 378.5zM244 512q0 -177 116 -291.5t289 -114.5q148 0 277 66v705q-114 57 -258 57q-183 0 -303.5 -118t-120.5 -304z" />
<glyph unicode="&#xf1;" horiz-adv-x="1224" d="M156 0v956q222 117 450 117q134 0 239.5 -50.5t167.5 -148.5t62 -229v-645h-139v637q0 150 -94 230.5t-248 80.5q-150 0 -301 -67v-881h-137zM287 1262q35 90 81.5 127.5t112.5 37.5q68 0 154 -65q61 -51 106 -51q41 0 69.5 25.5t51.5 88.5l74 -34q-34 -90 -81 -128 t-112 -38q-70 0 -153 65q-62 49 -111 49q-40 0 -67.5 -25t-51.5 -87z" />
<glyph unicode="&#xf2;" horiz-adv-x="1306" d="M100 524q0 154 74.5 281.5t201.5 199.5t277 72q112 0 214 -42.5t177 -115t119.5 -175.5t44.5 -218q0 -154 -75.5 -281.5t-203 -199.5t-278.5 -72q-111 0 -212.5 43t-176 116t-118.5 175.5t-44 216.5zM242 526q0 -179 120.5 -304.5t290.5 -125.5q110 0 205 56t152 155 t57 217q0 182 -122.5 305t-293.5 123q-169 0 -289 -123t-120 -303zM438 1411l68 82l282 -246l-51 -65z" />
<glyph unicode="&#xf3;" horiz-adv-x="1306" d="M100 524q0 154 74.5 281.5t201.5 199.5t277 72q112 0 214 -42.5t177 -115t119.5 -175.5t44.5 -218q0 -154 -75.5 -281.5t-203 -199.5t-278.5 -72q-111 0 -212.5 43t-176 116t-118.5 175.5t-44 216.5zM242 526q0 -179 120.5 -304.5t290.5 -125.5q110 0 205 56t152 155 t57 217q0 182 -122.5 305t-293.5 123q-169 0 -289 -123t-120 -303zM477 1247l283 246l67 -82l-299 -229z" />
<glyph unicode="&#xf4;" horiz-adv-x="1306" d="M100 524q0 154 74.5 281.5t201.5 199.5t277 72q112 0 214 -42.5t177 -115t119.5 -175.5t44.5 -218q0 -154 -75.5 -281.5t-203 -199.5t-278.5 -72q-111 0 -212.5 43t-176 116t-118.5 175.5t-44 216.5zM242 526q0 -179 120.5 -304.5t290.5 -125.5q110 0 205 56t152 155 t57 217q0 182 -122.5 305t-293.5 123q-169 0 -289 -123t-120 -303zM377 1202v27l225 205h103l225 -205v-27h-80l-197 152l-196 -152h-80z" />
<glyph unicode="&#xf5;" horiz-adv-x="1306" d="M100 524q0 154 74.5 281.5t201.5 199.5t277 72q112 0 214 -42.5t177 -115t119.5 -175.5t44.5 -218q0 -154 -75.5 -281.5t-203 -199.5t-278.5 -72q-111 0 -212.5 43t-176 116t-118.5 175.5t-44 216.5zM242 526q0 -179 120.5 -304.5t290.5 -125.5q110 0 205 56t152 155 t57 217q0 182 -122.5 305t-293.5 123q-169 0 -289 -123t-120 -303zM328 1262q35 90 81.5 127.5t112.5 37.5q68 0 154 -65q61 -51 108 -51q40 0 68.5 26t52.5 88l72 -34q-34 -90 -81 -128t-112 -38q-67 0 -153 65q-62 49 -109 49q-40 0 -68.5 -25t-52.5 -87z" />
<glyph unicode="&#xf6;" horiz-adv-x="1306" d="M100 524q0 154 74.5 281.5t201.5 199.5t277 72q112 0 214 -42.5t177 -115t119.5 -175.5t44.5 -218q0 -154 -75.5 -281.5t-203 -199.5t-278.5 -72q-111 0 -212.5 43t-176 116t-118.5 175.5t-44 216.5zM242 526q0 -179 120.5 -304.5t290.5 -125.5q110 0 205 56t152 155 t57 217q0 182 -122.5 305t-293.5 123q-169 0 -289 -123t-120 -303zM344 1346q0 37 25.5 62.5t62.5 25.5t62.5 -25.5t25.5 -62.5q0 -38 -25.5 -64.5t-62.5 -26.5t-62.5 26.5t-25.5 64.5zM784 1346q0 37 26 62.5t64 25.5q36 0 62.5 -26t26.5 -62q0 -38 -26.5 -64.5 t-62.5 -26.5q-38 0 -64 26.5t-26 64.5z" />
<glyph unicode="&#xf7;" horiz-adv-x="1083" d="M117 657v125h850v-125h-850zM432 340q0 40 27 68t67 28t68.5 -28t28.5 -68q0 -41 -28.5 -68.5t-68.5 -27.5t-67 27.5t-27 68.5zM432 1110q0 40 27 67t67 27t68.5 -27.5t28.5 -66.5q0 -41 -28.5 -68.5t-68.5 -27.5t-67 27.5t-27 68.5z" />
<glyph unicode="&#xf8;" horiz-adv-x="1306" d="M100 524q0 154 74.5 281.5t201.5 199.5t277 72q187 0 330 -106l72 80h114v-27l-108 -123q147 -157 147 -375q0 -154 -75.5 -281.5t-203 -199.5t-278.5 -72q-180 0 -325 107l-72 -80h-113v27l107 120q-148 158 -148 377zM242 526q0 -154 96 -278l557 624q-110 80 -244 80 q-169 0 -289 -123t-120 -303zM412 176q107 -80 241 -80q110 0 205 56t152 155t57 217q0 158 -98 277z" />
<glyph unicode="&#xf9;" horiz-adv-x="1220" d="M150 408v643h137v-629q0 -150 93 -231.5t249 -81.5q148 0 299 67v875h137v-959q-213 -112 -449 -112q-204 0 -335 115.5t-131 312.5zM406 1411l67 82l283 -246l-54 -65z" />
<glyph unicode="&#xfa;" horiz-adv-x="1220" d="M150 408v643h137v-629q0 -150 93 -231.5t249 -81.5q148 0 299 67v875h137v-959q-213 -112 -449 -112q-204 0 -335 115.5t-131 312.5zM463 1247l282 246l68 -82l-299 -229z" />
<glyph unicode="&#xfb;" horiz-adv-x="1220" d="M150 408v643h137v-629q0 -150 93 -231.5t249 -81.5q148 0 299 67v875h137v-959q-213 -112 -449 -112q-204 0 -335 115.5t-131 312.5zM334 1202v27l225 205h103l225 -205v-27h-80l-197 152l-196 -152h-80z" />
<glyph unicode="&#xfc;" horiz-adv-x="1220" d="M150 408v643h137v-629q0 -150 93 -231.5t249 -81.5q148 0 299 67v875h137v-959q-213 -112 -449 -112q-204 0 -335 115.5t-131 312.5zM301 1346q0 37 25.5 62.5t62.5 25.5t62.5 -25.5t25.5 -62.5q0 -38 -25.5 -64.5t-62.5 -26.5t-62.5 26.5t-25.5 64.5zM741 1346 q0 37 26 62.5t64 25.5q36 0 62.5 -26t26.5 -62q0 -38 -26.5 -64.5t-62.5 -26.5q-38 0 -64 26.5t-26 64.5z" />
<glyph unicode="&#xfd;" horiz-adv-x="1077" d="M10 1026v25h137l361 -912h51l365 912h143v-25l-616 -1487h-129v27l186 434h-80zM422 1247l283 246l69 -82l-299 -229z" />
<glyph unicode="&#xfe;" horiz-adv-x="1218" d="M156 -461v2015h137v-546q123 53 274 53q154 0 280 -68.5t198.5 -192.5t72.5 -280q0 -150 -73.5 -275t-202.5 -197.5t-285 -70.5q-134 3 -264 52v-490h-137zM293 172q126 -68 272 -68q108 0 201.5 52.5t151 148.5t57.5 215q0 183 -121.5 299.5t-296.5 116.5 q-150 0 -264 -57v-707z" />
<glyph unicode="&#xff;" horiz-adv-x="1077" d="M10 1026v25h137l361 -912h51l365 912h143v-25l-616 -1487h-129v27l186 434h-80zM229 1346q0 37 25.5 62.5t62.5 25.5t63 -25.5t26 -62.5q0 -38 -26 -64.5t-63 -26.5t-62.5 26.5t-25.5 64.5zM670 1346q0 37 26 62.5t64 25.5q36 0 62 -26t26 -62q0 -38 -26 -64.5t-62 -26.5 q-38 0 -64 26.5t-26 64.5z" />
<glyph unicode="&#x100;" horiz-adv-x="1468" d="M31 0v27l583 1427h240l584 -1427v-27h-148l-176 434h-764l-174 -434h-145zM401 559h664l-309 768h-45zM467 1653v88h534v-88h-534z" />
<glyph unicode="&#x101;" horiz-adv-x="1097" d="M94 303q0 137 116 226t300 89q135 0 303 -32v88q0 130 -84 203t-209 73q-172 0 -309 -88l-66 101q90 59 180.5 83.5t200.5 24.5q114 0 209 -45.5t154 -137t59 -212.5v-580q-185 -119 -438 -119q-115 0 -208.5 36.5t-150.5 112t-57 177.5zM238 301q0 -67 41 -115.5 t102 -70t133 -21.5q172 0 299 68v309q-162 33 -305 33q-126 0 -198 -55t-72 -148zM281 1284v88h534v-88h-534z" />
<glyph unicode="&#x102;" horiz-adv-x="1468" d="M31 0v27l583 1427h240l584 -1427v-27h-148l-176 434h-764l-174 -434h-145zM401 559h664l-309 768h-45zM479 1808h94q3 -73 49 -114t115 -41q67 0 112 41t48 114h92q0 -111 -73 -178t-181 -67q-109 0 -182.5 67t-73.5 178z" />
<glyph unicode="&#x103;" horiz-adv-x="1097" d="M94 303q0 137 116 226t300 89q135 0 303 -32v88q0 130 -84 203t-209 73q-172 0 -309 -88l-66 101q90 59 180.5 83.5t200.5 24.5q114 0 209 -45.5t154 -137t59 -212.5v-580q-185 -119 -438 -119q-115 0 -208.5 36.5t-150.5 112t-57 177.5zM238 301q0 -67 41 -115.5 t102 -70t133 -21.5q172 0 299 68v309q-162 33 -305 33q-126 0 -198 -55t-72 -148zM293 1440h94q3 -73 49.5 -114.5t114.5 -41.5q67 0 112 41.5t48 114.5h92q0 -111 -73.5 -178.5t-180.5 -67.5q-109 0 -182.5 67.5t-73.5 178.5z" />
<glyph unicode="&#x104;" horiz-adv-x="1468" d="M31 0v27l583 1427h240l584 -1427v-27q-109 -74 -154 -134.5t-45 -123.5q0 -44 31 -78.5t82 -34.5q46 0 90 17l26 -92q-64 -25 -127 -25q-98 0 -156.5 59t-58.5 136q0 78 36 145t124 141l-172 424h-764l-174 -434h-145zM401 559h664l-309 768h-45z" />
<glyph unicode="&#x105;" horiz-adv-x="1103" d="M98 303q0 137 116 226t300 89q135 0 303 -32v88q0 130 -84 203t-209 73q-172 0 -309 -88l-65 101q91 59 180.5 83.5t199.5 24.5q114 0 209 -45.5t154 -137t59 -212.5v-580q-119 -79 -175 -167t-56 -171q0 -57 32 -94t85 -37q39 0 92 17l24 -90q-58 -25 -129 -25 q-94 0 -153.5 58.5t-59.5 146.5q0 142 125 270q-115 -27 -223 -27q-115 0 -208.5 36.5t-150.5 112t-57 177.5zM242 301q0 -67 41 -115.5t102 -70t133 -21.5q172 0 299 68v309q-162 33 -305 33q-126 0 -198 -55t-72 -148z" />
<glyph unicode="&#x106;" horiz-adv-x="1529" d="M135 727q0 210 102.5 383t276 271t379.5 98q340 0 565 -228l-104 -96q-195 186 -463 186q-164 0 -302.5 -79t-220 -220.5t-81.5 -312.5q0 -127 48 -241.5t129.5 -196.5t193.5 -130t235 -48q285 0 481 211l99 -93q-114 -131 -256.5 -193.5t-329.5 -62.5q-147 0 -283.5 55 t-240 151.5t-166 239t-62.5 306.5zM696 1616l283 246l70 -82l-299 -230z" />
<glyph unicode="&#x107;" horiz-adv-x="1124" d="M98 526q0 116 45.5 219t122 175t179 113.5t214.5 41.5q241 0 414 -176l-94 -86q-67 64 -151.5 99.5t-168.5 35.5t-161 -33t-133.5 -89t-90.5 -134.5t-34 -165.5q0 -177 122 -299.5t297 -122.5q185 0 320 138l94 -86q-164 -181 -414 -181q-155 0 -283.5 71.5t-203 198 t-74.5 281.5zM485 1247l285 246l68 -82l-299 -229z" />
<glyph unicode="&#x108;" horiz-adv-x="1529" d="M135 727q0 210 102.5 383t276 271t379.5 98q340 0 565 -228l-104 -96q-195 186 -463 186q-164 0 -302.5 -79t-220 -220.5t-81.5 -312.5q0 -127 48 -241.5t129.5 -196.5t193.5 -130t235 -48q285 0 481 211l99 -93q-114 -131 -256.5 -193.5t-329.5 -62.5q-147 0 -283.5 55 t-240 151.5t-166 239t-62.5 306.5zM612 1595v27l226 205h102l223 -205v-27h-80l-194 152l-197 -152h-80z" />
<glyph unicode="&#x109;" horiz-adv-x="1130" d="M100 526q0 116 45.5 219t122.5 175t179.5 113.5t214.5 41.5q242 0 411 -176l-92 -86q-67 64 -151 99.5t-168 35.5q-112 0 -208.5 -55.5t-154 -153t-57.5 -213.5q0 -177 122.5 -299.5t297.5 -122.5q184 0 319 138l92 -86q-161 -181 -411 -181q-155 0 -283.5 71.5 t-203.5 198t-75 281.5zM375 1202v27l225 205h102l226 -205v-27h-80l-197 152l-196 -152h-80z" />
<glyph unicode="&#x10a;" horiz-adv-x="1529" d="M135 727q0 210 102.5 383t276 271t379.5 98q340 0 565 -228l-104 -96q-195 186 -463 186q-164 0 -302.5 -79t-220 -220.5t-81.5 -312.5q0 -127 48 -241.5t129.5 -196.5t193.5 -130t235 -48q285 0 481 211l99 -93q-114 -131 -256.5 -193.5t-329.5 -62.5q-147 0 -283.5 55 t-240 151.5t-166 239t-62.5 306.5zM811 1722q0 38 26 63t64 25q36 0 62 -25t26 -63q0 -36 -26 -62t-62 -26q-38 0 -64 25.5t-26 62.5z" />
<glyph unicode="&#x10b;" horiz-adv-x="1130" d="M100 526q0 116 45.5 219t122.5 175t179.5 113.5t214.5 41.5q242 0 411 -176l-92 -86q-67 64 -151 99.5t-168 35.5q-112 0 -208.5 -55.5t-154 -153t-57.5 -213.5q0 -177 122.5 -299.5t297.5 -122.5q184 0 319 138l92 -86q-161 -181 -411 -181q-155 0 -283.5 71.5 t-203.5 198t-75 281.5zM578 1346q0 37 26 62.5t64 25.5q36 0 62 -26t26 -62q0 -38 -26 -64.5t-62 -26.5q-38 0 -64 26.5t-26 64.5z" />
<glyph unicode="&#x10c;" horiz-adv-x="1529" d="M135 727q0 210 102.5 383t276 271t379.5 98q340 0 565 -228l-104 -96q-195 186 -463 186q-164 0 -302.5 -79t-220 -220.5t-81.5 -312.5q0 -127 48 -241.5t129.5 -196.5t193.5 -130t235 -48q285 0 481 211l99 -93q-114 -131 -256.5 -193.5t-329.5 -62.5q-147 0 -283.5 55 t-240 151.5t-166 239t-62.5 306.5zM618 1776v26h80l197 -151l195 151h79v-26l-223 -205h-102z" />
<glyph unicode="&#x10d;" horiz-adv-x="1124" d="M98 526q0 116 45.5 219t122 175t179 113.5t214.5 41.5q241 0 414 -176l-94 -86q-67 64 -151.5 99.5t-168.5 35.5t-161 -33t-133.5 -89t-90.5 -134.5t-34 -165.5q0 -177 122 -299.5t297 -122.5q185 0 320 138l94 -86q-164 -181 -414 -181q-155 0 -283.5 71.5t-203 198 t-74.5 281.5zM385 1407v27h80l197 -152l194 152h80v-27l-223 -205h-103z" />
<glyph unicode="&#x10e;" horiz-adv-x="1609" d="M203 45v1409h485q185 0 334.5 -54t247.5 -151t150.5 -230t52.5 -292q0 -161 -53 -297.5t-151.5 -236.5t-248.5 -156.5t-336 -56.5q-279 0 -481 65zM348 156q142 -43 336 -43q152 0 274 47.5t200.5 130.5t120.5 194t42 240t-41.5 238.5t-120 189.5t-199 125t-270.5 45 h-342v-1167zM451 1759v27h79l195 -152l197 152h79v-27l-225 -205h-102z" />
<glyph unicode="&#x10f;" horiz-adv-x="1374" d="M100 512q0 241 158.5 396t396.5 155q143 0 271 -55v546h137v-1456q-84 -54 -191.5 -86t-212.5 -32q-243 0 -401 153.5t-158 378.5zM244 512q0 -177 116 -291.5t289 -114.5q148 0 277 66v707q-114 57 -258 57q-183 0 -303.5 -119t-120.5 -305zM1180 1481q0 33 25 55.5 t61 22.5q43 0 69.5 -38t26.5 -102q0 -165 -113 -278l-65 49q84 91 84 184q0 13 -4 29l-5 -1q-5 -1 -10 -1q-26 0 -47.5 22.5t-21.5 57.5z" />
<glyph unicode="&#x110;" horiz-adv-x="1609" d="M16 719v123h187v612h485q185 0 334.5 -54t247.5 -151t150.5 -230t52.5 -292q0 -161 -53 -297.5t-151.5 -236.5t-248.5 -156.5t-336 -56.5q-279 0 -481 65v674h-187zM348 156q142 -43 336 -43q152 0 274 47.5t200.5 130.5t120.5 194t42 240t-41.5 238.5t-120 189.5 t-199 125t-270.5 45h-342v-481h268v-123h-268v-563z" />
<glyph unicode="&#x111;" horiz-adv-x="1218" d="M100 512q0 241 158.5 396t396.5 155q143 0 271 -55v225h-404v115h404v206h137v-206h156v-115h-156v-1135q-84 -54 -191.5 -86t-212.5 -32q-243 0 -401 153.5t-158 378.5zM244 512q0 -177 116 -291.5t289 -114.5q148 0 277 66v707q-114 57 -258 57q-183 0 -303.5 -119 t-120.5 -305z" />
<glyph unicode="&#x112;" horiz-adv-x="1316" d="M248 0v1454h973v-131h-828v-524h713v-129h-713v-539h848v-131h-993zM446 1653v88h537v-88h-537z" />
<glyph unicode="&#x113;" horiz-adv-x="1204" d="M100 537q0 110 37.5 208t104 172t167 117t218.5 43q212 0 347.5 -134t135.5 -345q0 -72 -12 -127h-854q12 -162 127.5 -268.5t273.5 -106.5q95 0 183.5 41.5t154.5 110.5l80 -86q-174 -189 -418 -189q-162 0 -287.5 76.5t-191.5 204t-66 283.5zM244 582h727q2 14 2 32 q0 148 -96 244t-250 96q-169 0 -273 -109.5t-110 -262.5zM350 1284v88h535v-88h-535z" />
<glyph unicode="&#x114;" horiz-adv-x="1316" d="M248 0v1454h973v-131h-828v-524h713v-129h-713v-539h848v-131h-993zM475 1808h94q3 -73 49 -114t115 -41q68 0 113.5 41t46.5 114h92q0 -111 -73 -178t-181 -67q-109 0 -182.5 67t-73.5 178z" />
<glyph unicode="&#x115;" horiz-adv-x="1204" d="M100 537q0 110 37.5 208t104 172t167 117t218.5 43q212 0 347.5 -134t135.5 -345q0 -72 -12 -127h-854q12 -162 127.5 -268.5t273.5 -106.5q95 0 183.5 41.5t154.5 110.5l80 -86q-174 -189 -418 -189q-162 0 -287.5 76.5t-191.5 204t-66 283.5zM244 582h727q2 14 2 32 q0 148 -96 244t-250 96q-169 0 -273 -109.5t-110 -262.5zM362 1440h95q3 -73 49.5 -114.5t114.5 -41.5t113 41.5t46 114.5h92q0 -111 -73.5 -178.5t-180.5 -67.5q-109 0 -182.5 67.5t-73.5 178.5z" />
<glyph unicode="&#x116;" horiz-adv-x="1316" d="M248 0v1454h973v-131h-828v-524h713v-129h-713v-539h848v-131h-993zM639 1714q0 37 26 62.5t64 25.5q36 0 62 -26t26 -62q0 -38 -26 -64t-62 -26q-38 0 -64 26t-26 64z" />
<glyph unicode="&#x117;" horiz-adv-x="1204" d="M100 537q0 110 37.5 208t104 172t167 117t218.5 43q212 0 347.5 -134t135.5 -345q0 -72 -12 -127h-854q12 -162 127.5 -268.5t273.5 -106.5q95 0 183.5 41.5t154.5 110.5l80 -86q-174 -189 -418 -189q-162 0 -287.5 76.5t-191.5 204t-66 283.5zM244 582h727q2 14 2 32 q0 148 -96 244t-250 96q-169 0 -273 -109.5t-110 -262.5zM535 1346q0 37 25.5 62.5t62.5 25.5t62.5 -25.5t25.5 -62.5q0 -38 -25.5 -64.5t-62.5 -26.5t-62.5 26.5t-25.5 64.5z" />
<glyph unicode="&#x118;" horiz-adv-x="1316" d="M248 0v1454h973v-131h-828v-524h713v-129h-713v-539h848v-131h-65q-108 -75 -153.5 -135.5t-45.5 -122.5q0 -45 31 -80t82 -35q39 0 92 17l24 -90q-64 -25 -125 -25q-99 0 -158 59t-59 136q0 74 38 139t124 137h-778z" />
<glyph unicode="&#x119;" horiz-adv-x="1208" d="M98 537q0 110 37.5 208t104 172t167 117t218.5 43q210 0 346.5 -134t136.5 -345q0 -53 -12 -127h-854q12 -162 127.5 -268.5t273.5 -106.5q95 0 183.5 41.5t154.5 110.5l80 -86q-97 -105 -217 -152q-178 -88 -178 -268q0 -44 31.5 -79.5t82.5 -35.5q37 0 90 17l27 -90 q-64 -25 -127 -25q-98 0 -156.5 59t-58.5 136q0 137 109 249h-21q-162 0 -287.5 76.5t-191.5 204t-66 283.5zM242 582h727v32q0 148 -95 244t-249 96q-169 0 -273 -109.5t-110 -262.5z" />
<glyph unicode="&#x11a;" horiz-adv-x="1316" d="M248 0v1454h973v-131h-828v-524h713v-129h-713v-539h848v-131h-993zM453 1776v26h79l195 -151l197 151h80v-26l-226 -205h-102z" />
<glyph unicode="&#x11b;" horiz-adv-x="1204" d="M100 537q0 110 37.5 208t104 172t167 117t218.5 43q212 0 347.5 -134t135.5 -345q0 -72 -12 -127h-854q12 -162 127.5 -268.5t273.5 -106.5q95 0 183.5 41.5t154.5 110.5l80 -86q-174 -189 -418 -189q-162 0 -287.5 76.5t-191.5 204t-66 283.5zM244 582h727q2 14 2 32 q0 148 -96 244t-250 96q-169 0 -273 -109.5t-110 -262.5zM342 1407v27h80l194 -152l197 152h80v-27l-225 -205h-103z" />
<glyph unicode="&#x11c;" horiz-adv-x="1628" d="M135 727q0 210 102.5 383t276 271t379.5 98q340 0 565 -228l-104 -96q-197 188 -463 188q-123 0 -234 -47t-192.5 -128t-129.5 -195.5t-48 -243.5q0 -127 48 -241.5t129.5 -196.5t193.5 -130t235 -48q252 0 442 172v430h142v-484q-227 -256 -590 -256q-147 0 -283.5 55 t-240 151.5t-166 239t-62.5 306.5zM618 1571v26l226 205h102l223 -205v-26h-79l-195 151l-197 -151h-80z" />
<glyph unicode="&#x11d;" horiz-adv-x="1218" d="M100 526q0 228 162 384.5t402 156.5q104 0 209 -32t190 -85v-991q0 -202 -123.5 -318t-343.5 -116q-213 0 -393 121l69 108q139 -104 338 -104q141 0 227.5 79.5t86.5 219.5v90q-125 -55 -273 -55q-154 0 -280 68.5t-198.5 192.5t-72.5 281zM244 526q0 -183 122 -299 t298 -116q148 0 262 57v706q-126 68 -273 68q-166 0 -287.5 -119t-121.5 -297zM381 1202v27l223 205h103l225 -205v-27h-80l-197 152l-194 -152h-80z" />
<glyph unicode="&#x11e;" horiz-adv-x="1628" d="M135 727q0 210 102.5 383t276 271t379.5 98q340 0 565 -228l-104 -96q-197 188 -463 188q-123 0 -234 -47t-192.5 -128t-129.5 -195.5t-48 -243.5q0 -127 48 -241.5t129.5 -196.5t193.5 -130t235 -48q252 0 442 172v430h142v-484q-227 -256 -590 -256q-147 0 -283.5 55 t-240 151.5t-166 239t-62.5 306.5zM633 1808h94q3 -72 50 -113.5t114 -41.5q68 0 113.5 41t48.5 114h92q0 -111 -74 -178t-182 -67t-182 67t-74 178z" />
<glyph unicode="&#x11f;" horiz-adv-x="1218" d="M100 526q0 228 162 384.5t402 156.5q104 0 209 -32t190 -85v-991q0 -202 -123.5 -318t-343.5 -116q-213 0 -393 121l69 108q139 -104 338 -104q141 0 227.5 79.5t86.5 219.5v90q-125 -55 -273 -55q-154 0 -280 68.5t-198.5 192.5t-72.5 281zM244 526q0 -183 122 -299 t298 -116q148 0 262 57v706q-126 68 -273 68q-166 0 -287.5 -119t-121.5 -297zM387 1440h94q3 -72 50 -114t114 -42q68 0 113.5 41.5t48.5 114.5h92q0 -111 -74 -178.5t-182 -67.5t-182 67.5t-74 178.5z" />
<glyph unicode="&#x120;" horiz-adv-x="1628" d="M135 727q0 210 102.5 383t276 271t379.5 98q340 0 565 -228l-104 -96q-197 188 -463 188q-123 0 -234 -47t-192.5 -128t-129.5 -195.5t-48 -243.5q0 -127 48 -241.5t129.5 -196.5t193.5 -130t235 -48q252 0 442 172v430h142v-484q-227 -256 -590 -256q-147 0 -283.5 55 t-240 151.5t-166 239t-62.5 306.5zM801 1714q0 37 25.5 62.5t62.5 25.5t62.5 -25.5t25.5 -62.5q0 -38 -25.5 -64t-62.5 -26t-62.5 26t-25.5 64z" />
<glyph unicode="&#x121;" horiz-adv-x="1218" d="M100 526q0 228 162 384.5t402 156.5q104 0 209 -32t190 -85v-991q0 -202 -123.5 -318t-343.5 -116q-213 0 -393 121l69 108q139 -104 338 -104q141 0 227.5 79.5t86.5 219.5v90q-125 -55 -273 -55q-154 0 -280 68.5t-198.5 192.5t-72.5 281zM244 526q0 -183 122 -299 t298 -116q148 0 262 57v706q-126 68 -273 68q-166 0 -287.5 -119t-121.5 -297zM567 1346q0 37 26 62.5t64 25.5q36 0 62 -26t26 -62q0 -38 -26 -64.5t-62 -26.5q-38 0 -64 26.5t-26 64.5z" />
<glyph unicode="&#x122;" horiz-adv-x="1628" d="M135 727q0 210 102.5 383t276 271t379.5 98q340 0 565 -228l-104 -96q-197 188 -463 188q-123 0 -234 -47t-192.5 -128t-129.5 -195.5t-48 -243.5q0 -127 48 -241.5t129.5 -196.5t193.5 -130t235 -48q252 0 442 172v430h142v-484q-227 -256 -590 -256q-147 0 -283.5 55 t-240 151.5t-166 239t-62.5 306.5zM813 -176q0 32 25.5 56t60.5 24q44 0 71 -38t27 -102q0 -166 -114 -280l-66 51q84 89 84 182q0 7 -1 17t-1 12h-16q-25 0 -47.5 22.5t-22.5 55.5z" />
<glyph unicode="&#x123;" horiz-adv-x="1218" d="M100 526q0 228 162 384.5t402 156.5q104 0 209 -32t190 -85v-991q0 -202 -123.5 -318t-343.5 -116q-213 0 -393 121l69 108q139 -104 338 -104q141 0 227.5 79.5t86.5 219.5v90q-125 -55 -273 -55q-154 0 -280 68.5t-198.5 192.5t-72.5 281zM244 526q0 -183 122 -299 t298 -116q148 0 262 57v706q-126 68 -273 68q-166 0 -287.5 -119t-121.5 -297zM567 1329q0 164 115 279l66 -49q-84 -91 -84 -185q0 -20 2 -28q2 0 6.5 1t7.5 1q27 0 49.5 -22.5t22.5 -57.5q0 -32 -25.5 -55t-60.5 -23q-45 0 -72 37.5t-27 101.5z" />
<glyph unicode="&#x124;" horiz-adv-x="1632" d="M203 0v1454h145v-647h934v647h145v-1454h-145v674h-934v-674h-145zM539 1571v26l225 205h102l226 -205v-26h-80l-197 151l-197 -151h-79z" />
<glyph unicode="&#x125;" horiz-adv-x="1224" d="M-53 1595v27l225 205h102l224 -205v-27h-80l-195 152l-196 -152h-80zM156 0v1554h137v-559q171 70 313 70q134 0 239.5 -50.5t167.5 -148.5t62 -229v-637h-137v629q0 148 -95.5 228.5t-246.5 80.5q-159 0 -303 -64v-874h-137z" />
<glyph unicode="&#x126;" horiz-adv-x="1632" d="M16 1067v121h187v266h145v-266h934v266h145v-266h189v-121h-189v-1067h-145v674h-934v-674h-145v1067h-187zM348 807h934v260h-934v-260z" />
<glyph unicode="&#x127;" horiz-adv-x="1224" d="M0 1243v100h156v211h137v-211h405v-100h-405v-248q171 70 313 70q134 0 239.5 -50.5t167.5 -148.5t62 -229v-637h-137v629q0 148 -95.5 228.5t-246.5 80.5q-159 0 -303 -64v-874h-137v1243h-156z" />
<glyph unicode="&#x128;" horiz-adv-x="552" d="M-49 1630q36 91 82 128.5t112 37.5q68 0 154 -65q63 -52 109 -52q39 0 67.5 26t52.5 89l72 -35q-34 -90 -80.5 -128t-111.5 -38q-67 0 -154 66q-62 49 -109 49q-40 0 -68 -25.5t-52 -87.5zM203 0v1454h145v-1454h-145z" />
<glyph unicode="&#x129;" d="M-100 1262q35 90 81.5 127.5t112.5 37.5q68 0 154 -65q61 -51 108 -51q40 0 68.5 26t52.5 88l72 -34q-34 -90 -81 -128t-112 -38q-67 0 -153 65q-62 49 -109 49q-40 0 -68.5 -25t-52.5 -87zM156 0v1051h139v-1051h-139z" />
<glyph unicode="&#x12a;" horiz-adv-x="552" d="M8 1653v88h537v-88h-537zM203 0v1454h145v-1454h-145z" />
<glyph unicode="&#x12b;" d="M-43 1284v88h537v-88h-537zM156 0v1051h139v-1051h-139z" />
<glyph unicode="&#x12c;" horiz-adv-x="552" d="M16 1808h95q3 -72 49.5 -113.5t113.5 -41.5q68 0 113.5 41t48.5 114h92q0 -111 -74 -178t-182 -67t-182 67t-74 178zM203 0v1454h145v-1454h-145z" />
<glyph unicode="&#x12d;" d="M-31 1440h97q1 -73 47.5 -114.5t115.5 -41.5q67 0 112 41.5t48 114.5h92q0 -111 -74 -178.5t-182 -67.5t-182 67.5t-74 178.5zM156 0v1051h139v-1051h-139z" />
<glyph unicode="&#x12e;" horiz-adv-x="552" d="M37 -276q0 153 166 286v1444h145v-1454q-109 -74 -153.5 -134.5t-44.5 -123.5q0 -44 30.5 -78.5t81.5 -34.5q46 0 90 17l27 -92q-64 -25 -127 -25q-98 0 -156.5 59t-58.5 136z" />
<glyph unicode="&#x12f;" d="M-16 -276q0 90 56.5 169t190.5 175v983h140v-1051h-76q-109 -74 -154 -134.5t-45 -123.5q0 -45 30 -79t81 -34q48 0 92 17l27 -92q-64 -25 -127 -25q-98 0 -156.5 59t-58.5 136zM213 1346q0 37 26 62.5t64 25.5q36 0 62 -26t26 -62q0 -38 -26 -64.5t-62 -26.5 q-38 0 -64 26.5t-26 64.5z" />
<glyph unicode="&#x130;" horiz-adv-x="552" d="M188 1714q0 37 25.5 62.5t62.5 25.5t63 -25.5t26 -62.5q0 -38 -26 -64t-63 -26t-62.5 26t-25.5 64zM203 0v1454h145v-1454h-145z" />
<glyph unicode="&#x131;" d="M156 0v1051h139v-1051h-139z" />
<glyph unicode="&#x132;" horiz-adv-x="1073" d="M203 0v1454h145v-1454h-145zM522 -369q201 125 201 359v1464h143v-1454q0 -170 -62 -287t-202 -200z" />
<glyph unicode="&#x133;" horiz-adv-x="901" d="M213 1346q0 37 26 62.5t64 25.5q36 0 62 -26t26 -62q0 -38 -26 -64.5t-62 -26.5q-38 0 -64 26.5t-26 64.5zM231 0v1051h140v-1051h-140zM260 -449l23 121q52 -18 118 -18q90 0 147.5 69t57.5 175v1149h139v-1139q0 -166 -92 -272.5t-252 -106.5q-77 0 -141 22zM588 1346 q0 37 25.5 62.5t62.5 25.5t62.5 -25.5t25.5 -62.5q0 -38 -25.5 -64.5t-62.5 -26.5t-62.5 26.5t-25.5 64.5z" />
<glyph unicode="&#x134;" horiz-adv-x="555" d="M0 1571v26l223 205h103l225 -205v-26h-80l-197 151l-194 -151h-80zM2 -369q201 123 201 359v1464h145v-1454q0 -170 -62.5 -286.5t-203.5 -200.5z" />
<glyph unicode="&#x135;" d="M-190 -449l22 121q52 -18 121 -18q89 0 146 69t57 175v1149h139v-1139q0 -166 -91 -272.5t-251 -106.5q-79 0 -143 22zM-49 1202v27l223 205h102l226 -205v-27h-80l-197 152l-194 -152h-80z" />
<glyph unicode="&#x136;" horiz-adv-x="1341" d="M203 0v1454h145v-657h238l520 657h145v-27l-538 -686l585 -714v-27h-147l-551 666h-252v-666h-145zM590 -176q0 32 25.5 56t60.5 24q44 0 71 -38t27 -102q0 -165 -115 -280l-65 51q84 89 84 182q0 7 -1 17t-1 12h-17q-25 0 -47 22.5t-22 55.5z" />
<glyph unicode="&#x137;" horiz-adv-x="1017" d="M156 0v1554h137v-936h160l358 433h141v-25l-381 -469l414 -534v-23h-141l-379 485h-172v-485h-137zM440 -176q0 32 25.5 56t60.5 24q45 0 72 -38t27 -102q0 -164 -113 -280l-66 51q82 89 82 182q0 23 -2 29h-14q-27 0 -49.5 22.5t-22.5 55.5z" />
<glyph unicode="&#x138;" horiz-adv-x="1017" d="M156 0v1051h137v-433h160l358 433h141v-25l-381 -469l414 -534v-23h-141l-379 485h-172v-485h-137z" />
<glyph unicode="&#x139;" horiz-adv-x="1146" d="M197 1616l282 246l70 -82l-299 -230zM203 0v1454h145v-1323h766v-131h-911z" />
<glyph unicode="&#x13a;" d="M121 1686l282 245l70 -82l-299 -229zM156 0v1554h139v-1554h-139z" />
<glyph unicode="&#x13b;" horiz-adv-x="1146" d="M203 0v1454h145v-1323h766v-131h-911zM506 -176q0 33 25 56.5t61 23.5q43 0 69.5 -38t26.5 -102q0 -167 -113 -280l-65 51q84 89 84 182q0 17 -4 29h-15q-26 0 -47.5 22t-21.5 56z" />
<glyph unicode="&#x13c;" d="M137 -176q0 32 25.5 56t60.5 24q43 0 71 -38t28 -102q0 -165 -115 -280l-66 51q84 89 84 182q0 7 -1 17t-1 12h-16q-25 0 -47.5 22.5t-22.5 55.5zM156 0v1554h139v-1554h-139z" />
<glyph unicode="&#x13d;" horiz-adv-x="1146" d="M203 0v1454h145v-1323h766v-131h-911zM508 1481q0 32 25.5 55t60.5 23q44 0 71 -38t27 -102q0 -163 -112 -278l-66 49q82 92 82 184q0 21 -2 29q-2 0 -6.5 -1t-7.5 -1q-27 0 -49.5 22.5t-22.5 57.5z" />
<glyph unicode="&#x13e;" horiz-adv-x="587" d="M156 0v1554h139v-1554h-139zM381 1481q0 32 25.5 55t60.5 23q44 0 71 -38t27 -102q0 -163 -112 -278l-66 49q82 92 82 184q0 21 -2 29q-2 0 -6.5 -1t-7.5 -1q-27 0 -49.5 22.5t-22.5 57.5z" />
<glyph unicode="&#x13f;" horiz-adv-x="1146" d="M203 0v1454h145v-1323h766v-131h-911zM614 799q0 40 28.5 68t68.5 28t68 -28t28 -68q0 -41 -28 -69t-68 -28t-68.5 28t-28.5 69z" />
<glyph unicode="&#x140;" horiz-adv-x="604" d="M156 0v1554h139v-1554h-139zM387 709q0 40 27.5 68t68.5 28q39 0 68 -28.5t29 -67.5t-29 -68t-68 -29q-41 0 -68.5 28.5t-27.5 68.5z" />
<glyph unicode="&#x141;" horiz-adv-x="1146" d="M2 596l234 125v733h145v-676l393 207l53 -113l-446 -227v-514h766v-131h-911v588l-185 -99z" />
<glyph unicode="&#x142;" horiz-adv-x="569" d="M0 612l199 164v778h141v-684l199 166l63 -86l-262 -213v-737h-141v643l-133 -115z" />
<glyph unicode="&#x143;" horiz-adv-x="1652" d="M203 0v1454h219l856 -1270h29v1270h141v-1454h-205l-864 1276h-33v-1276h-143zM690 1616l283 246l67 -82l-297 -230z" />
<glyph unicode="&#x144;" horiz-adv-x="1224" d="M156 0v956q222 117 452 117q204 0 335.5 -115.5t131.5 -312.5v-645h-137v637q0 149 -94.5 230t-247.5 81q-152 0 -303 -67v-881h-137zM455 1247l284 246l68 -82l-299 -229z" />
<glyph unicode="&#x145;" horiz-adv-x="1652" d="M203 0v1454h219l856 -1270h29v1270h141v-1454h-205l-864 1276h-33v-1276h-143zM737 -176q0 32 25.5 56t60.5 24q45 0 72 -38t27 -102q0 -165 -115 -280l-66 51q84 89 84 182q0 23 -2 29h-14q-27 0 -49.5 22.5t-22.5 55.5z" />
<glyph unicode="&#x146;" horiz-adv-x="1224" d="M156 0v956q222 117 452 117q204 0 335.5 -115.5t131.5 -312.5v-645h-137v637q0 149 -94.5 230t-247.5 81q-152 0 -303 -67v-881h-137zM524 -176q0 33 25 56.5t61 23.5q43 0 70 -38t27 -102q0 -167 -113 -280l-66 51q84 89 84 182q0 17 -4 29h-14q-26 0 -48 22t-22 56z " />
<glyph unicode="&#x147;" horiz-adv-x="1652" d="M203 0v1454h219l856 -1270h29v1270h141v-1454h-205l-864 1276h-33v-1276h-143zM584 1776v26h80l194 -151l197 151h80v-26l-226 -205h-102z" />
<glyph unicode="&#x148;" horiz-adv-x="1224" d="M156 0v956q222 117 450 117q134 0 239.5 -50.5t167.5 -148.5t62 -229v-645h-139v637q0 150 -94 230.5t-248 80.5q-150 0 -301 -67v-881h-137zM334 1407v27h80l194 -152l197 152h80v-27l-226 -205h-102z" />
<glyph unicode="&#x149;" horiz-adv-x="1224" d="M156 0v956q222 117 452 117q204 0 335.5 -115.5t131.5 -312.5v-645h-137v637q0 149 -94.5 230t-247.5 81q-152 0 -303 -67v-881h-137zM160 1481q0 32 25.5 55t60.5 23q44 0 71 -38t27 -102q0 -162 -113 -278l-65 49q82 92 82 184q0 21 -2 29q-2 0 -7 -1t-8 -1 q-27 0 -49 22.5t-22 57.5z" />
<glyph unicode="&#x14a;" horiz-adv-x="1742" d="M248 0v1454h221l854 -1270h29v1270h141v-1454q0 -171 -61 -287.5t-201 -199.5l-74 110q195 121 195 359v18h-62l-866 1276h-33v-1276h-143z" />
<glyph unicode="&#x14b;" horiz-adv-x="1224" d="M156 0v956q222 117 452 117q204 0 335.5 -115.5t131.5 -312.5v-737q0 -166 -91 -272.5t-251 -106.5q-79 0 -143 22l24 121q49 -18 119 -18q89 0 147 69t58 175v739q0 149 -94.5 230t-247.5 81q-152 0 -303 -67v-881h-137z" />
<glyph unicode="&#x14c;" horiz-adv-x="1757" d="M133 727q0 156 59.5 296t160 240.5t238.5 159t290 58.5q150 0 286.5 -59t236.5 -159t159 -240t59 -294q0 -157 -59 -298t-159.5 -241t-237.5 -158.5t-289 -58.5q-150 0 -287 58.5t-237.5 159t-160 240.5t-59.5 296zM287 727q0 -170 78.5 -312t215 -224t300.5 -82 q121 0 230 48.5t188 130.5t125 197t46 242q0 169 -79 311.5t-215 225t-297 82.5q-163 0 -299.5 -82t-214.5 -224.5t-78 -312.5zM610 1653v88h535v-88h-535z" />
<glyph unicode="&#x14d;" horiz-adv-x="1306" d="M100 524q0 154 74.5 281.5t201.5 199.5t277 72q112 0 214 -42.5t177 -115t119.5 -175.5t44.5 -218q0 -154 -75.5 -281.5t-203 -199.5t-278.5 -72q-111 0 -212.5 43t-176 116t-118.5 175.5t-44 216.5zM242 526q0 -179 120.5 -304.5t290.5 -125.5q110 0 205 56t152 155 t57 217q0 182 -122.5 305t-293.5 123q-169 0 -289 -123t-120 -303zM385 1284v88h537v-88h-537z" />
<glyph unicode="&#x14e;" horiz-adv-x="1757" d="M133 727q0 156 59.5 296t160 240.5t238.5 159t290 58.5q150 0 286.5 -59t236.5 -159t159 -240t59 -294q0 -157 -59 -298t-159.5 -241t-237.5 -158.5t-289 -58.5q-150 0 -287 58.5t-237.5 159t-160 240.5t-59.5 296zM287 727q0 -170 78.5 -312t215 -224t300.5 -82 q121 0 230 48.5t188 130.5t125 197t46 242q0 169 -79 311.5t-215 225t-297 82.5q-163 0 -299.5 -82t-214.5 -224.5t-78 -312.5zM623 1808h94q3 -72 50 -113.5t114 -41.5q68 0 113 41t48 114h93q0 -111 -74 -178t-182 -67t-182 67t-74 178z" />
<glyph unicode="&#x14f;" horiz-adv-x="1304" d="M98 524q0 154 75 281.5t202 199.5t278 72q111 0 213 -42.5t176.5 -115t119 -175.5t44.5 -218q0 -154 -75.5 -281.5t-203 -199.5t-278.5 -72q-111 0 -212.5 43t-176 116t-118.5 175.5t-44 216.5zM240 526q0 -179 121 -304.5t292 -125.5q168 0 290 124.5t122 303.5 q0 182 -122.5 305t-293.5 123q-169 0 -289 -123t-120 -303zM399 1440h95q3 -73 49 -114.5t114 -41.5q67 0 112 41.5t48 114.5h92q0 -111 -73.5 -178.5t-180.5 -67.5q-109 0 -182.5 67.5t-73.5 178.5z" />
<glyph unicode="&#x150;" horiz-adv-x="1757" d="M133 727q0 156 59.5 296t160 240.5t238.5 159t290 58.5q150 0 286.5 -59t236.5 -159t159 -240t59 -294q0 -157 -59 -298t-159.5 -241t-237.5 -158.5t-289 -58.5q-150 0 -287 58.5t-237.5 159t-160 240.5t-59.5 296zM287 727q0 -170 78.5 -312t215 -224t300.5 -82 q121 0 230 48.5t188 130.5t125 197t46 242q0 169 -79 311.5t-215 225t-297 82.5q-163 0 -299.5 -82t-214.5 -224.5t-78 -312.5zM582 1616l282 246l68 -82l-299 -230zM930 1616l282 246l68 -82l-297 -230z" />
<glyph unicode="&#x151;" horiz-adv-x="1306" d="M100 524q0 154 74.5 281.5t201.5 199.5t277 72q112 0 214 -42.5t177 -115t119.5 -175.5t44.5 -218q0 -154 -75.5 -281.5t-203 -199.5t-278.5 -72q-111 0 -212.5 43t-176 116t-118.5 175.5t-44 216.5zM242 526q0 -179 120.5 -304.5t290.5 -125.5q110 0 205 56t152 155 t57 217q0 182 -122.5 305t-293.5 123q-169 0 -289 -123t-120 -303zM358 1247l283 246l70 -82l-299 -229zM707 1247l284 246l68 -82l-299 -229z" />
<glyph unicode="&#x152;" horiz-adv-x="2021" d="M133 727q0 207 101 374.5t271.5 260t375.5 92.5h1046v-131h-756v-524h639v-129h-639v-539h775v-131h-1069q-151 0 -287.5 54.5t-237 149.5t-160 231t-59.5 292zM287 727q0 -170 78.5 -307t214.5 -213t301 -76h147v1192h-149q-164 0 -299.5 -76t-214 -213t-78.5 -307z" />
<glyph unicode="&#x153;" horiz-adv-x="2170" d="M100 524q0 154 74.5 281.5t201.5 199.5t277 72q151 0 278.5 -74t198.5 -200q65 126 185 200t278 74q212 0 348 -134t136 -345q0 -67 -13 -127h-854q12 -161 128 -268t274 -107q95 0 183.5 41.5t154.5 110.5l80 -86q-174 -189 -418 -189q-163 0 -287 75.5t-190 205.5 q-71 -129 -200.5 -205t-283.5 -76q-111 0 -212.5 43t-176 116t-118.5 175.5t-44 216.5zM242 526q0 -179 120.5 -304.5t290.5 -125.5q110 0 205 56t152 155t57 217q0 182 -122.5 305t-293.5 123q-169 0 -289 -123t-120 -303zM1210 582h727q2 14 2 32q0 148 -96 244t-250 96 q-169 0 -273 -109.5t-110 -262.5z" />
<glyph unicode="&#x154;" horiz-adv-x="1388" d="M203 0v1454h497q245 0 384 -112.5t139 -329.5q0 -169 -90 -285.5t-244 -163.5l371 -536v-27h-148l-356 537q-68 -5 -78 -5q-183 0 -330 31v-563h-145zM348 694q122 -30 305 -30q202 0 310 91.5t108 256.5q0 152 -97 231.5t-267 79.5h-359v-629zM500 1616l282 246l68 -82 l-297 -230z" />
<glyph unicode="&#x155;" horiz-adv-x="653" d="M156 0v1051h497v-121h-358v-930h-139zM236 1247l282 246l70 -82l-299 -229z" />
<glyph unicode="&#x156;" horiz-adv-x="1388" d="M203 0v1454h497q245 0 384 -112.5t139 -329.5q0 -169 -90 -285.5t-244 -163.5l371 -536v-27h-148l-356 537q-68 -5 -78 -5q-183 0 -330 31v-563h-145zM348 694q122 -30 305 -30q202 0 310 91.5t108 256.5q0 152 -97 231.5t-267 79.5h-359v-629zM608 -176q0 33 25 56.5 t61 23.5q43 0 70 -38t27 -102q0 -167 -113 -280l-66 51q84 89 84 182q0 17 -4 29h-14q-26 0 -48 22t-22 56z" />
<glyph unicode="&#x157;" horiz-adv-x="653" d="M143 -176q0 33 25 56.5t61 23.5q43 0 70 -38t27 -102q0 -167 -113 -280l-66 51q84 89 84 182q0 17 -4 29h-14q-26 0 -48 22t-22 56zM156 0v1051h497v-121h-358v-930h-139z" />
<glyph unicode="&#x158;" horiz-adv-x="1388" d="M203 0v1454h497q245 0 384 -112.5t139 -329.5q0 -169 -90 -285.5t-244 -163.5l371 -536v-27h-148l-356 537q-68 -5 -78 -5q-183 0 -330 31v-563h-145zM348 694q122 -30 305 -30q202 0 310 91.5t108 256.5q0 152 -97 231.5t-267 79.5h-359v-629zM381 1776v26h80l194 -151 l197 151h80v-26l-225 -205h-103z" />
<glyph unicode="&#x159;" horiz-adv-x="653" d="M125 1407v27h80l196 -152l195 152h80v-27l-223 -205h-103zM156 0v1051h497v-121h-358v-930h-139z" />
<glyph unicode="&#x15a;" horiz-adv-x="1284" d="M98 221l107 88q66 -88 189 -140t253 -52q157 0 261 74t104 196q0 90 -63.5 154t-188.5 94l-258 65q-164 40 -253 143t-89 238q0 172 137.5 280.5t355.5 108.5q271 0 473 -184l-92 -94q-183 145 -387 145q-146 0 -241 -66.5t-95 -189.5q0 -92 61.5 -158.5t186.5 -97.5 l246 -61q172 -41 265 -140t93 -237q0 -174 -142.5 -288.5t-377.5 -114.5q-171 0 -319 63t-226 174zM492 1616l282 246l70 -82l-299 -230z" />
<glyph unicode="&#x15b;" horiz-adv-x="1003" d="M72 152l84 90q145 -142 366 -142q128 0 191 54t63 127q0 66 -44 106.5t-142 63.5l-166 38q-142 33 -220.5 107.5t-78.5 183.5q0 126 105.5 209.5t289.5 83.5q220 0 381 -135l-82 -94q-123 106 -311 106q-117 0 -178.5 -49.5t-61.5 -116.5q0 -135 197 -182l164 -37 q141 -33 216 -103t75 -173q0 -129 -107.5 -220.5t-304.5 -91.5q-270 0 -436 175zM358 1247l283 246l70 -82l-299 -229z" />
<glyph unicode="&#x15c;" horiz-adv-x="1284" d="M98 221l107 88q66 -88 189 -140t253 -52q157 0 261 74t104 196q0 90 -63.5 154t-188.5 94l-258 65q-164 40 -253 143t-89 238q0 172 137.5 280.5t355.5 108.5q271 0 473 -184l-92 -94q-183 145 -387 145q-146 0 -241 -66.5t-95 -189.5q0 -92 61.5 -158.5t186.5 -97.5 l246 -61q172 -41 265 -140t93 -237q0 -174 -142.5 -288.5t-377.5 -114.5q-171 0 -319 63t-226 174zM379 1571v26l223 205h103l225 -205v-26h-80l-197 151l-194 -151h-80z" />
<glyph unicode="&#x15d;" horiz-adv-x="1003" d="M72 152l84 90q145 -142 366 -142q128 0 191 54t63 127q0 66 -44 106.5t-142 63.5l-166 38q-142 33 -220.5 107.5t-78.5 183.5q0 126 105.5 209.5t289.5 83.5q220 0 381 -135l-82 -94q-123 106 -311 106q-117 0 -178.5 -49.5t-61.5 -116.5q0 -135 197 -182l164 -37 q141 -33 216 -103t75 -173q0 -129 -107.5 -220.5t-304.5 -91.5q-270 0 -436 175zM236 1202v27l225 205h102l225 -205v-27h-79l-197 152l-197 -152h-79z" />
<glyph unicode="&#x15e;" horiz-adv-x="1284" d="M98 221l107 88q66 -88 189 -140t253 -52q157 0 261 74t104 196q0 90 -63.5 154t-188.5 94l-258 65q-164 40 -253 143t-89 238q0 172 137.5 280.5t355.5 108.5q271 0 473 -184l-92 -94q-183 145 -387 145q-146 0 -241 -66.5t-95 -189.5q0 -92 61.5 -158.5t186.5 -97.5 l246 -61q172 -41 265 -140t93 -237q0 -163 -126.5 -275.5t-336.5 -125.5l-14 -113q73 -2 124.5 -44t51.5 -110q0 -81 -55 -133.5t-150 -52.5q-94 0 -172 29l25 86q65 -21 123 -21q56 0 88.5 28.5t32.5 74.5q0 100 -168 100l20 156q-160 6 -297 68.5t-211 166.5z" />
<glyph unicode="&#x15f;" horiz-adv-x="1003" d="M72 152l84 90q145 -142 366 -142q128 0 191 54t63 127q0 66 -44 106.5t-142 63.5l-166 38q-142 33 -220.5 107.5t-78.5 183.5q0 126 105.5 209.5t289.5 83.5q220 0 381 -135l-82 -94q-123 106 -311 106q-117 0 -178.5 -49.5t-61.5 -116.5q0 -135 197 -182l164 -37 q141 -33 216 -103t75 -173q0 -120 -95 -209t-270 -100l-12 -107q74 -2 125 -44.5t51 -111.5q0 -78 -56.5 -131t-148.5 -53q-93 0 -170 31l25 82q61 -23 125 -23q53 0 85.5 30t32.5 77q0 100 -168 100l19 150q-242 13 -391 172z" />
<glyph unicode="&#x160;" horiz-adv-x="1284" d="M98 221l107 88q66 -88 189 -140t253 -52q157 0 261 74t104 196q0 90 -63.5 154t-188.5 94l-258 65q-164 40 -253 143t-89 238q0 172 137.5 280.5t355.5 108.5q271 0 473 -184l-92 -94q-183 145 -387 145q-146 0 -241 -66.5t-95 -189.5q0 -92 61.5 -158.5t186.5 -97.5 l246 -61q172 -41 265 -140t93 -237q0 -174 -142.5 -288.5t-377.5 -114.5q-171 0 -319 63t-226 174zM389 1776v26h80l197 -151l194 151h80v-26l-223 -205h-103z" />
<glyph unicode="&#x161;" horiz-adv-x="1003" d="M72 152l84 90q145 -142 366 -142q128 0 191 54t63 127q0 66 -44 106.5t-142 63.5l-166 38q-142 33 -220.5 107.5t-78.5 183.5q0 126 105.5 209.5t289.5 83.5q220 0 381 -135l-82 -94q-123 106 -311 106q-117 0 -178.5 -49.5t-61.5 -116.5q0 -135 197 -182l164 -37 q141 -33 216 -103t75 -173q0 -129 -107.5 -220.5t-304.5 -91.5q-270 0 -436 175zM250 1407v27h80l196 -152l195 152h80v-27l-223 -205h-103z" />
<glyph unicode="&#x162;" horiz-adv-x="1101" d="M-2 1323v131h1108v-131h-481v-1323h-146v1323h-481zM451 -215q0 40 28 67t68 27q52 0 82 -47t30 -135q0 -195 -127 -346l-73 55q98 119 98 238q0 35 -4 49q-2 0 -7.5 -1t-8.5 -1q-32 0 -59 27t-27 67z" />
<glyph unicode="&#x163;" horiz-adv-x="694" d="M49 930v121h152l14 327l121 25v-352h276v-121h-276v-649q0 -76 42 -121t111 -45q58 0 123 22l41 -112q-85 -35 -178 -35q-126 0 -202 77t-76 209v654h-148zM315 -176q0 32 25.5 56t60.5 24q43 0 71 -38t28 -102q0 -165 -115 -280l-66 51q84 89 84 182q0 7 -1 17t-1 12 h-16q-25 0 -47.5 22.5t-22.5 55.5z" />
<glyph unicode="&#x164;" horiz-adv-x="1101" d="M-2 1323v131h1108v-131h-481v-1323h-146v1323h-481zM274 1776v26h80l197 -151l194 151h80v-26l-223 -205h-102z" />
<glyph unicode="&#x165;" horiz-adv-x="966" d="M45 930v121h152l14 327l121 25v-352h276v-121h-276v-649q0 -76 42 -121t111 -45q58 0 123 22l41 -112q-85 -35 -178 -35q-126 0 -202 77t-76 209v654h-148zM436 1481q0 32 25.5 55t60.5 23q43 0 71 -38t28 -102q0 -163 -115 -278l-66 49q84 91 84 184q0 6 -1 16t-1 13 q-2 0 -7 -1t-9 -1q-25 0 -47.5 22.5t-22.5 57.5z" />
<glyph unicode="&#x166;" horiz-adv-x="1101" d="M-2 1323v131h1108v-131h-481v-520h411v-121h-411v-682h-146v682h-411v121h411v520h-481z" />
<glyph unicode="&#x167;" horiz-adv-x="694" d="M49 502v121h148v307h-148v121h152l14 327l121 25v-352h276v-121h-276v-307h276v-121h-276v-221q0 -76 42 -121t111 -45q58 0 123 22l41 -112q-85 -35 -178 -35q-126 0 -202 77t-76 209v226h-148z" />
<glyph unicode="&#x168;" horiz-adv-x="1603" d="M184 561v893h146v-889q0 -200 131.5 -326t341.5 -126q199 0 335 127.5t136 324.5v889h145v-893q0 -170 -84.5 -305t-224.5 -208t-307 -73q-178 0 -319 73.5t-220.5 207.5t-79.5 305zM477 1630q35 90 82 128t113 38q67 0 153 -65q63 -52 107 -52q41 0 69.5 26t51.5 89 l73 -35q-34 -90 -80.5 -128t-111.5 -38q-69 0 -154 66q-62 49 -110 49q-40 0 -67.5 -25t-51.5 -88z" />
<glyph unicode="&#x169;" horiz-adv-x="1220" d="M150 408v643h137v-629q0 -150 93 -231.5t249 -81.5q148 0 299 67v875h137v-959q-213 -112 -449 -112q-204 0 -335 115.5t-131 312.5zM285 1262q35 90 81.5 127.5t112.5 37.5q68 0 154 -65q61 -51 108 -51q40 0 68.5 26t52.5 88l72 -34q-34 -90 -81 -128t-112 -38 q-67 0 -153 65q-62 49 -109 49q-40 0 -68.5 -25t-52.5 -87z" />
<glyph unicode="&#x16a;" horiz-adv-x="1603" d="M184 561v893h146v-889q0 -200 131.5 -326t341.5 -126q199 0 335 127.5t136 324.5v889h145v-893q0 -170 -84.5 -305t-224.5 -208t-307 -73q-178 0 -319 73.5t-220.5 207.5t-79.5 305zM532 1653v88h537v-88h-537z" />
<glyph unicode="&#x16b;" horiz-adv-x="1220" d="M150 408v643h137v-629q0 -150 93 -231.5t249 -81.5q148 0 299 67v875h137v-959q-213 -112 -449 -112q-204 0 -335 115.5t-131 312.5zM342 1284v88h537v-88h-537z" />
<glyph unicode="&#x16c;" horiz-adv-x="1603" d="M184 561v893h146v-889q0 -200 131.5 -326t341.5 -126q199 0 335 127.5t136 324.5v889h145v-893q0 -170 -84.5 -305t-224.5 -208t-307 -73q-178 0 -319 73.5t-220.5 207.5t-79.5 305zM547 1808h94q3 -73 49 -114t115 -41q67 0 112 41t48 114h92q0 -111 -73 -178t-181 -67 q-109 0 -182.5 67t-73.5 178z" />
<glyph unicode="&#x16d;" horiz-adv-x="1220" d="M150 408v643h137v-629q0 -150 93 -231.5t249 -81.5q148 0 299 67v875h137v-959q-213 -112 -449 -112q-204 0 -335 115.5t-131 312.5zM354 1440h95q3 -73 49 -114.5t114 -41.5t113.5 41.5t46.5 114.5h92q0 -111 -73.5 -178.5t-180.5 -67.5q-109 0 -182.5 67.5t-73.5 178.5 z" />
<glyph unicode="&#x16e;" horiz-adv-x="1603" d="M184 561v893h146v-889q0 -200 131.5 -326t341.5 -126q199 0 335 127.5t136 324.5v889h145v-893q0 -170 -84.5 -305t-224.5 -208t-307 -73q-178 0 -319 73.5t-220.5 207.5t-79.5 305zM625 1692q0 78 49 127t127 49q77 0 126.5 -49t49.5 -127q0 -76 -49.5 -126t-126.5 -50 q-78 0 -127 49.5t-49 126.5zM692 1692q0 -48 30 -77.5t79 -29.5q47 0 76.5 30t29.5 77q0 49 -29 78.5t-77 29.5q-50 0 -79.5 -29.5t-29.5 -78.5z" />
<glyph unicode="&#x16f;" horiz-adv-x="1220" d="M150 408v643h137v-629q0 -150 93 -231.5t249 -81.5q148 0 299 67v875h137v-959q-213 -112 -449 -112q-204 0 -335 115.5t-131 312.5zM434 1323q0 78 49.5 127t126.5 49q78 0 127 -49t49 -127q0 -77 -49 -126.5t-127 -49.5q-76 0 -126 49.5t-50 126.5zM504 1323 q0 -47 29.5 -76.5t76.5 -29.5q48 0 78.5 29.5t30.5 76.5q0 49 -30.5 79t-78.5 30q-47 0 -76.5 -30t-29.5 -79z" />
<glyph unicode="&#x170;" horiz-adv-x="1603" d="M184 561v893h146v-889q0 -200 131.5 -326t341.5 -126q199 0 335 127.5t136 324.5v889h145v-893q0 -170 -84.5 -305t-224.5 -208t-307 -73q-178 0 -319 73.5t-220.5 207.5t-79.5 305zM506 1616l282 246l70 -82l-299 -230zM854 1616l283 246l69 -82l-299 -230z" />
<glyph unicode="&#x171;" horiz-adv-x="1220" d="M150 408v643h137v-629q0 -150 93 -231.5t249 -81.5q148 0 299 67v875h137v-959q-213 -112 -449 -112q-204 0 -335 115.5t-131 312.5zM307 1247l283 246l69 -82l-299 -229zM655 1247l285 246l68 -82l-299 -229z" />
<glyph unicode="&#x172;" horiz-adv-x="1603" d="M184 561v893h146v-889q0 -200 131.5 -326t341.5 -126q199 0 335 127.5t136 324.5v889h145v-893q0 -188 -102 -331t-268 -210q-114 -53 -175 -132t-61 -146q0 -45 30 -79t81 -34q48 0 92 17l26 -92q-64 -25 -127 -25q-98 0 -156.5 59t-58.5 136q0 131 123 251h-20 q-178 0 -319 73.5t-220.5 207.5t-79.5 305z" />
<glyph unicode="&#x173;" horiz-adv-x="1220" d="M150 408v643h137v-629q0 -150 93 -231.5t249 -81.5q148 0 299 67v875h137v-959q-118 -79 -173.5 -165.5t-55.5 -168.5q0 -57 30.5 -93t83.5 -36q48 0 92 17l25 -92q-55 -25 -129 -25q-94 0 -153.5 58.5t-59.5 146.5q0 148 139 278q-131 -32 -248 -32q-204 0 -335 115.5 t-131 312.5z" />
<glyph unicode="&#x174;" horiz-adv-x="2189" d="M63 1427v27h140l377 -1319h41l383 1319h180l383 -1319h43l375 1319h141v-27l-410 -1427h-250l-372 1286l-371 -1286h-248zM819 1571v26l225 205h103l223 -205v-26h-80l-194 151l-197 -151h-80z" />
<glyph unicode="&#x175;" horiz-adv-x="1624" d="M25 1026v25h141l248 -920h35l276 920h174l277 -920h34l250 920h139v-25l-290 -1026h-230l-264 887l-270 -887h-228zM539 1202v27l225 205h102l224 -205v-27h-80l-195 152l-197 -152h-79z" />
<glyph unicode="&#x176;" horiz-adv-x="1251" d="M2 1427v27h141l453 -778h61l453 778h139v-27l-512 -880h-39v-547h-143v547h-41zM350 1571v26l223 205h103l225 -205v-26h-80l-196 151l-195 -151h-80z" />
<glyph unicode="&#x177;" horiz-adv-x="1077" d="M10 1026v25h137l361 -912h51l365 912h143v-25l-616 -1487h-129v27l186 434h-80zM262 1202v27l223 205h103l225 -205v-27h-80l-196 152l-195 -152h-80z" />
<glyph unicode="&#x178;" horiz-adv-x="1251" d="M2 1427v27h141l453 -778h61l453 778h139v-27l-512 -880h-39v-547h-143v547h-41zM319 1714q0 37 26 62.5t63 25.5t62.5 -25.5t25.5 -62.5q0 -38 -25.5 -64t-62.5 -26t-63 26t-26 64zM760 1714q0 37 25.5 62.5t62.5 25.5t62.5 -25.5t25.5 -62.5q0 -38 -25.5 -64t-62.5 -26 t-62.5 26t-25.5 64z" />
<glyph unicode="&#x179;" horiz-adv-x="1314" d="M115 0v121l889 1200h-850v133h1036v-108l-893 -1211h950v-135h-1132zM526 1616l283 246l70 -82l-299 -230z" />
<glyph unicode="&#x17a;" horiz-adv-x="974" d="M74 0v106l649 824h-602v121h778v-109l-651 -821h680v-121h-854zM367 1247l282 246l70 -82l-299 -229z" />
<glyph unicode="&#x17b;" horiz-adv-x="1314" d="M115 0v121l889 1200h-850v133h1036v-108l-893 -1211h950v-135h-1132zM573 1714q0 37 26 62.5t63 25.5t62.5 -25.5t25.5 -62.5q0 -38 -25.5 -64t-62.5 -26t-63 26t-26 64z" />
<glyph unicode="&#x17c;" horiz-adv-x="1003" d="M90 0v106l649 824h-602v121h778v-109l-651 -821h680v-121h-854zM410 1346q0 37 25.5 62.5t62.5 25.5t62.5 -25.5t25.5 -62.5q0 -38 -25.5 -64.5t-62.5 -26.5t-62.5 26.5t-25.5 64.5z" />
<glyph unicode="&#x17d;" horiz-adv-x="1314" d="M115 0v121l889 1200h-850v133h1036v-108l-893 -1211h950v-135h-1132zM403 1776v26h80l197 -151l194 151h80v-26l-223 -205h-102z" />
<glyph unicode="&#x17e;" horiz-adv-x="974" d="M74 0v106l649 824h-602v121h778v-109l-651 -821h680v-121h-854zM211 1407v27h80l196 -152l195 152h80v-27l-223 -205h-103z" />
<glyph unicode="&#x192;" horiz-adv-x="815" d="M-68 -332q104 -2 160 51.5t76 182.5l145 950h-184v119h203l18 123q28 186 120 273t259 87v-129q-105 2 -162 -50.5t-78 -180.5l-18 -123h219v-119h-237l-146 -950q-28 -188 -119 -275.5t-256 -87.5v129z" />
<glyph unicode="&#x1fc;" horiz-adv-x="1908" d="M-31 0v27l819 1427h1027v-131h-756v-524h639v-129h-639v-539h774v-131h-918v434h-550l-250 -434h-146zM436 559h479v768h-34zM823 1616l283 246l70 -82l-299 -230z" />
<glyph unicode="&#x1fd;" horiz-adv-x="1914" d="M94 289q0 135 115 215t301 80h330v90q0 128 -92.5 202t-219.5 74q-175 0 -309 -88l-65 101q90 59 180.5 83.5t200.5 24.5q126 0 233 -58.5t158 -162.5q63 106 168.5 166.5t248.5 60.5q211 0 344.5 -133.5t133.5 -345.5q0 -47 -13 -127h-827q12 -164 119 -269.5 t264 -105.5q185 0 334 152l80 -86q-174 -189 -414 -189q-155 0 -268.5 68.5t-177.5 189.5q-59 -127 -174.5 -190.5t-245.5 -63.5q-181 0 -292.5 81t-111.5 231zM238 287q0 -94 74 -144.5t186 -50.5q65 0 124 22t109 65.5t79.5 119t29.5 172.5h-332q-129 0 -199.5 -46.5 t-70.5 -137.5zM817 1247l283 246l67 -82l-299 -229zM981 582h700v32q0 149 -92.5 244.5t-245.5 95.5q-86 0 -154.5 -30.5t-112.5 -83t-68 -118.5t-27 -140z" />
<glyph unicode="&#x1fe;" horiz-adv-x="1757" d="M133 727q0 156 59.5 296t160 240.5t238.5 159t290 58.5q251 0 450 -156l115 129h141v-27l-166 -184q96 -103 148.5 -235t52.5 -279q0 -157 -59 -298t-159.5 -241t-237.5 -158.5t-289 -58.5q-253 0 -455 156l-115 -129h-137v27l164 184q-96 102 -148.5 234t-52.5 282z M287 727q0 -235 143 -408l807 902q-160 125 -358 125q-163 0 -299.5 -82t-214.5 -224.5t-78 -312.5zM516 233q159 -124 365 -124q121 0 230 48.5t188 130.5t125 197t46 242q0 234 -147 408zM737 1616l283 246l70 -82l-299 -230z" />
<glyph unicode="&#x1ff;" horiz-adv-x="1306" d="M100 524q0 154 74.5 281.5t201.5 199.5t277 72q187 0 330 -106l72 80h114v-27l-108 -123q147 -157 147 -375q0 -154 -75.5 -281.5t-203 -199.5t-278.5 -72q-180 0 -325 107l-72 -80h-113v27l107 120q-148 158 -148 377zM242 526q0 -154 96 -278l557 624q-110 80 -244 80 q-169 0 -289 -123t-120 -303zM412 176q107 -80 241 -80q110 0 205 56t152 155t57 217q0 158 -98 277zM498 1247l282 246l68 -82l-299 -229z" />
<glyph unicode="&#x218;" horiz-adv-x="1284" d="M98 221l107 88q66 -88 189 -140t253 -52q157 0 261 74t104 196q0 90 -63.5 154t-188.5 94l-258 65q-164 40 -253 143t-89 238q0 172 137.5 280.5t355.5 108.5q271 0 473 -184l-92 -94q-183 145 -387 145q-146 0 -241 -66.5t-95 -189.5q0 -92 61.5 -158.5t186.5 -97.5 l246 -61q172 -41 265 -140t93 -237q0 -174 -142.5 -288.5t-377.5 -114.5q-171 0 -319 63t-226 174zM571 -176q0 32 25.5 56t60.5 24q45 0 72 -38t27 -102q0 -164 -113 -280l-65 51q81 88 81 182q0 23 -2 29h-14q-27 0 -49.5 22.5t-22.5 55.5z" />
<glyph unicode="&#x219;" horiz-adv-x="1003" d="M72 152l84 90q145 -142 366 -142q128 0 191 54t63 127q0 66 -44 106.5t-142 63.5l-166 38q-142 33 -220.5 107.5t-78.5 183.5q0 126 105.5 209.5t289.5 83.5q220 0 381 -135l-82 -94q-123 106 -311 106q-117 0 -178.5 -49.5t-61.5 -116.5q0 -135 197 -182l164 -37 q141 -33 216 -103t75 -173q0 -129 -107.5 -220.5t-304.5 -91.5q-270 0 -436 175zM428 -176q0 32 25.5 56t60.5 24q44 0 71 -38t27 -102q0 -165 -112 -280l-66 51q82 89 82 182q0 23 -2 29h-14q-27 0 -49.5 22.5t-22.5 55.5z" />
<glyph unicode="&#x2c6;" horiz-adv-x="759" d="M104 1202v27l226 205h102l223 -205v-27h-80l-194 152l-197 -152h-80z" />
<glyph unicode="&#x2da;" horiz-adv-x="561" d="M104 1323q0 78 50 127t127 49q78 0 127 -49t49 -127q0 -77 -49 -126.5t-127 -49.5q-77 0 -127 50t-50 126zM174 1323q0 -47 30 -76.5t77 -29.5t77.5 29.5t30.5 76.5q0 49 -30 79t-78 30t-77.5 -30t-29.5 -79z" />
<glyph unicode="&#x2dc;" horiz-adv-x="860" d="M106 1262q35 90 81.5 127.5t111.5 37.5q71 0 154 -65q64 -51 108 -51q41 0 69.5 25.5t51.5 88.5l74 -34q-35 -90 -82 -128t-111 -38q-70 0 -153 65q-62 49 -111 49q-40 0 -68.5 -25t-50.5 -87z" />
<glyph unicode="&#x1e80;" horiz-adv-x="2189" d="M63 1427v27h140l377 -1319h41l383 1319h180l383 -1319h43l375 1319h141v-27l-410 -1427h-250l-372 1286l-371 -1286h-248zM868 1780l68 82l283 -246l-54 -66z" />
<glyph unicode="&#x1e81;" horiz-adv-x="1624" d="M25 1026v25h141l248 -920h35l276 920h174l277 -920h34l250 920h139v-25l-290 -1026h-230l-264 887l-270 -887h-228zM584 1411l67 82l283 -246l-53 -65z" />
<glyph unicode="&#x1e82;" horiz-adv-x="2189" d="M63 1427v27h140l377 -1319h41l383 1319h180l383 -1319h43l375 1319h141v-27l-410 -1427h-250l-372 1286l-371 -1286h-248zM963 1616l284 246l68 -82l-299 -230z" />
<glyph unicode="&#x1e83;" horiz-adv-x="1624" d="M25 1026v25h141l248 -920h35l276 920h174l277 -920h34l250 920h139v-25l-290 -1026h-230l-264 887l-270 -887h-228zM666 1247l284 246l68 -82l-299 -229z" />
<glyph unicode="&#x1e84;" horiz-adv-x="2189" d="M63 1427v27h140l377 -1319h41l383 1319h180l383 -1319h43l375 1319h141v-27l-410 -1427h-250l-372 1286l-371 -1286h-248zM784 1714q0 37 26 62.5t64 25.5q36 0 62.5 -26t26.5 -62q0 -38 -26.5 -64t-62.5 -26q-38 0 -64 26t-26 64zM1227 1714q0 37 25.5 62.5t62.5 25.5 t62.5 -25.5t25.5 -62.5q0 -38 -25.5 -64t-62.5 -26t-62.5 26t-25.5 64z" />
<glyph unicode="&#x1e85;" horiz-adv-x="1624" d="M25 1026v25h141l248 -920h35l276 920h174l277 -920h34l250 920h139v-25l-290 -1026h-230l-264 887l-270 -887h-228zM506 1346q0 37 26 62.5t64 25.5q36 0 62 -26t26 -62q0 -38 -26 -64.5t-62 -26.5q-38 0 -64 26.5t-26 64.5zM948 1346q0 37 25.5 62.5t62.5 25.5 t62.5 -25.5t25.5 -62.5q0 -38 -25.5 -64.5t-62.5 -26.5t-62.5 26.5t-25.5 64.5z" />
<glyph unicode="&#x1ef2;" horiz-adv-x="1251" d="M2 1427v27h141l453 -778h61l453 778h139v-27l-512 -880h-39v-547h-143v547h-41zM383 1780l68 82l282 -246l-53 -66z" />
<glyph unicode="&#x1ef3;" horiz-adv-x="1077" d="M10 1026v25h137l361 -912h51l365 912h143v-25l-616 -1487h-129v27l186 434h-80zM309 1411l70 82l283 -246l-54 -65z" />
<glyph unicode="&#x2000;" horiz-adv-x="978" />
<glyph unicode="&#x2001;" horiz-adv-x="1956" />
<glyph unicode="&#x2002;" horiz-adv-x="978" />
<glyph unicode="&#x2003;" horiz-adv-x="1956" />
<glyph unicode="&#x2004;" horiz-adv-x="652" />
<glyph unicode="&#x2005;" horiz-adv-x="489" />
<glyph unicode="&#x2006;" horiz-adv-x="326" />
<glyph unicode="&#x2007;" horiz-adv-x="326" />
<glyph unicode="&#x2008;" horiz-adv-x="244" />
<glyph unicode="&#x2009;" horiz-adv-x="391" />
<glyph unicode="&#x200a;" horiz-adv-x="108" />
<glyph unicode="&#x2010;" horiz-adv-x="741" d="M117 586v131h508v-131h-508z" />
<glyph unicode="&#x2011;" horiz-adv-x="741" d="M117 586v131h508v-131h-508z" />
<glyph unicode="&#x2012;" horiz-adv-x="741" d="M117 586v131h508v-131h-508z" />
<glyph unicode="&#x2013;" horiz-adv-x="876" d="M0 586v131h877v-131h-877z" />
<glyph unicode="&#x2014;" horiz-adv-x="1261" d="M0 586v131h1262v-131h-1262z" />
<glyph unicode="&#x2018;" horiz-adv-x="471" d="M129 1145q0 190 121 332l67 -52q-92 -112 -92 -227q0 -40 15 -61q12 6 20 6q29 0 54.5 -25.5t25.5 -62.5t-26 -63.5t-64 -26.5q-49 0 -85 51.5t-36 128.5z" />
<glyph unicode="&#x2019;" horiz-adv-x="471" d="M131 1378q0 38 26 65t64 27q49 0 85 -52t36 -130q0 -190 -121 -332l-67 52q92 112 92 229q0 35 -13 61q-9 -6 -22 -6q-30 0 -55 25t-25 61z" />
<glyph unicode="&#x201a;" horiz-adv-x="471" d="M131 82q0 38 26 65t64 27q49 0 85 -52t36 -130q0 -190 -121 -332l-67 51q92 112 92 230q0 35 -13 61q-9 -6 -22 -6q-30 0 -55 25t-25 61z" />
<glyph unicode="&#x201c;" horiz-adv-x="770" d="M129 1145q0 190 121 332l67 -52q-92 -112 -92 -227q0 -40 15 -61q12 6 20 6q29 0 54.5 -25.5t25.5 -62.5t-26 -63.5t-64 -26.5q-49 0 -85 51.5t-36 128.5zM426 1145q0 190 121 332l67 -52q-90 -110 -90 -227q0 -43 13 -61q18 6 20 6q30 0 56 -26t26 -62 q0 -37 -26.5 -63.5t-65.5 -26.5q-49 0 -85 51.5t-36 128.5z" />
<glyph unicode="&#x201d;" horiz-adv-x="770" d="M131 1378q0 38 26 65t64 27q49 0 85 -52t36 -130q0 -190 -121 -332l-67 52q92 112 92 229q0 35 -13 61q-9 -6 -22 -6q-30 0 -55 25t-25 61zM428 1378q0 38 26 65t64 27q49 0 85 -52t36 -130q0 -192 -119 -332l-69 52q92 109 92 229q0 35 -13 61q-9 -6 -20 -6 q-31 0 -56.5 24.5t-25.5 61.5z" />
<glyph unicode="&#x201e;" horiz-adv-x="770" d="M131 82q0 38 26 65t64 27q49 0 85 -52t36 -130q0 -190 -121 -332l-67 51q92 112 92 230q0 35 -13 61q-9 -6 -22 -6q-30 0 -55 25t-25 61zM428 82q0 38 26 65t64 27q49 0 85 -52t36 -130q0 -192 -119 -332l-69 51q92 109 92 230q0 35 -13 61q-9 -6 -20 -6 q-31 0 -56.5 24.5t-25.5 61.5z" />
<glyph unicode="&#x2020;" horiz-adv-x="962" d="M84 926v125h328v403h139v-403h328v-125h-328v-1352h-139v1352h-328z" />
<glyph unicode="&#x2021;" horiz-adv-x="962" d="M84 283v125h328v518h-328v125h328v403h139v-403h328v-125h-328v-518h328v-125h-328v-709h-139v709h-328z" />
<glyph unicode="&#x2022;" horiz-adv-x="751" d="M154 709q0 92 64 155.5t155 63.5t155 -63.5t64 -155.5q0 -93 -64 -156.5t-155 -63.5t-155 63.5t-64 156.5z" />
<glyph unicode="&#x2026;" horiz-adv-x="1447" d="M137 84q0 43 30.5 73.5t74.5 30.5q42 0 73 -31t31 -73q0 -47 -31.5 -75.5t-72.5 -28.5t-73 28.5t-32 75.5zM621 84q0 43 29 73.5t73 30.5q42 0 73 -31t31 -73q0 -47 -31 -75.5t-73 -28.5q-41 0 -71.5 28.5t-30.5 75.5zM1102 84q0 43 30 73.5t74 30.5q42 0 73.5 -31 t31.5 -73q0 -47 -32 -75.5t-73 -28.5t-72.5 28.5t-31.5 75.5z" />
<glyph unicode="&#x202f;" horiz-adv-x="391" />
<glyph unicode="&#x2030;" horiz-adv-x="2394" d="M106 1004v200q0 124 89.5 200.5t212.5 76.5t212 -76.5t89 -200.5v-200q0 -124 -89 -200.5t-212 -76.5t-212.5 76.5t-89.5 200.5zM217 1018q0 -90 54.5 -139.5t136.5 -49.5t136 49.5t54 139.5v172q0 90 -54 139t-136 49t-136.5 -49t-54.5 -139v-172zM289 0v27l942 1427 h121v-27l-944 -1427h-119zM938 250v201q0 124 88.5 200t212.5 76q123 0 211 -76t88 -200v-201q0 -124 -88.5 -200.5t-210.5 -76.5q-124 0 -212.5 76.5t-88.5 200.5zM1047 264q0 -90 54 -139t138 -49q82 0 135 49t53 139v172q0 90 -53 139.5t-135 49.5q-83 0 -137.5 -49.5 t-54.5 -139.5v-172zM1686 250v201q0 124 88.5 200t212.5 76q123 0 211 -76t88 -200v-201q0 -124 -88.5 -200.5t-210.5 -76.5q-124 0 -212.5 76.5t-88.5 200.5zM1794 264q0 -90 54.5 -139t138.5 -49q82 0 135 49t53 139v172q0 90 -53 139.5t-135 49.5q-84 0 -138.5 -49.5 t-54.5 -139.5v-172z" />
<glyph unicode="&#x2039;" horiz-adv-x="718" d="M104 551v74l400 438l90 -84l-365 -391l365 -391l-90 -84z" />
<glyph unicode="&#x203a;" horiz-adv-x="718" d="M125 197l364 391l-364 391l92 84l397 -438v-74l-397 -438z" />
<glyph unicode="&#x2044;" horiz-adv-x="868" d="M-27 37l392 680l432 753l96 -53l-432 -747l-391 -686z" />
<glyph unicode="&#x205f;" horiz-adv-x="489" />
<glyph unicode="&#x20ac;" horiz-adv-x="1320" d="M84 498v116h172v217h-172v115h172q6 244 157.5 387.5t385.5 143.5q153 0 257 -49t185 -148l-104 -76q-123 144 -338 144q-178 0 -287 -105t-115 -297h654v-115h-654v-217h654v-116h-654q9 -187 118 -289.5t284 -102.5q215 0 338 144l104 -76q-81 -99 -185 -148t-257 -49 q-232 0 -383 140.5t-160 380.5h-172z" />
<glyph unicode="&#x2122;" horiz-adv-x="1507" d="M4 1384v70h510v-70h-215v-600h-82v600h-213zM512 797l109 657h139l196 -557l197 557h139l115 -657v-13h-76l-102 598h-19l-190 -540h-123l-195 542h-16l-100 -600h-72z" />
<glyph unicode="&#xe000;" horiz-adv-x="1054" d="M0 0v1055h1055v-1055h-1055z" />
</font>
</defs>
</svg>
