<svg width="20" height="20" viewBox="0 0 20 20" fill="none" xmlns="http://www.w3.org/2000/svg">
<path d="M9.12879 10.8013V1H10.8713V10.8013L13.1946 8.47871L14.426 9.70968L10.6157 13.5187C10.4524 13.6818 10.2309 13.7734 10 13.7734C9.76914 13.7734 9.54772 13.6818 9.38436 13.5187L5.57411 9.70968L6.80547 8.47871L9.12879 10.8013Z" fill="black"/>
<path d="M14.6466 19H5.35336C4.38551 18.9994 3.44545 18.6765 2.68151 18.0825C1.91761 17.4884 1.37333 16.657 1.13461 15.7193C0.895878 14.7817 0.976281 13.7913 1.36316 12.9044C1.75004 12.0176 2.4213 11.2847 3.27107 10.8216L4.59538 12.1455C3.99622 12.3278 3.4825 12.7191 3.14766 13.2482C2.81282 13.7773 2.67914 14.4089 2.77096 15.0282C2.86278 15.6476 3.17396 16.2133 3.64795 16.6226C4.12189 17.0318 4.72708 17.2573 5.35336 17.2581H14.6466C15.2729 17.2573 15.8781 17.0318 16.3521 16.6226C16.826 16.2133 17.1372 15.6476 17.229 15.0282C17.3209 14.4089 17.1872 13.7773 16.8523 13.2482C16.5175 12.7191 16.0037 12.3278 15.4046 12.1455L16.7289 10.8216C17.5787 11.2847 18.25 12.0176 18.6368 12.9044C19.0237 13.7913 19.1041 14.7817 18.8654 15.7193C18.6267 16.657 18.0824 17.4884 17.3184 18.0825C16.5545 18.6765 15.6145 18.9994 14.6466 19Z" fill="black"/>
<path d="M9.12879 10.8013V1H10.8713V10.8013L13.1946 8.47871L14.426 9.70968L10.6157 13.5187C10.4524 13.6818 10.2309 13.7734 10 13.7734C9.76914 13.7734 9.54772 13.6818 9.38436 13.5187L5.57411 9.70968L6.80547 8.47871L9.12879 10.8013Z" stroke="white" stroke-width="0.4"/>
<path d="M14.6466 19H5.35336C4.38551 18.9994 3.44545 18.6765 2.68151 18.0825C1.91761 17.4884 1.37333 16.657 1.13461 15.7193C0.895878 14.7817 0.976281 13.7913 1.36316 12.9044C1.75004 12.0176 2.4213 11.2847 3.27107 10.8216L4.59538 12.1455C3.99622 12.3278 3.4825 12.7191 3.14766 13.2482C2.81282 13.7773 2.67914 14.4089 2.77096 15.0282C2.86278 15.6476 3.17396 16.2133 3.64795 16.6226C4.12189 17.0318 4.72708 17.2573 5.35336 17.2581H14.6466C15.2729 17.2573 15.8781 17.0318 16.3521 16.6226C16.826 16.2133 17.1372 15.6476 17.229 15.0282C17.3209 14.4089 17.1872 13.7773 16.8523 13.2482C16.5175 12.7191 16.0037 12.3278 15.4046 12.1455L16.7289 10.8216C17.5787 11.2847 18.25 12.0176 18.6368 12.9044C19.0237 13.7913 19.1041 14.7817 18.8654 15.7193C18.6267 16.657 18.0824 17.4884 17.3184 18.0825C16.5545 18.6765 15.6145 18.9994 14.6466 19Z" stroke="white" stroke-width="0.4"/>
</svg>
