<svg xmlns="http://www.w3.org/2000/svg" width="17" height="17" viewBox="0 0 17 17">
  <defs>
    <clipPath id="a">
      <rect width="9" height="9" transform="translate(4 4)" fill="#fff"/>
    </clipPath>
  </defs>
  <circle cx="8.5" cy="8.5" r="8.5"/>
  <g clip-path="url(#a)">
    <path d="M12.85,8.156,8.812,4.127a.443.443,0,0,0-.622,0l-4,4.029a.5.5,0,0,0-.12.534A.46.46,0,0,0,4.5,9H5v3.721A.272.272,0,0,0,5.265,13H7.3a.272.272,0,0,0,.265-.278V10.366H9.5v2.355A.272.272,0,0,0,9.765,13h1.971A.272.272,0,0,0,12,12.721V9h.539a.459.459,0,0,0,.43-.31A.5.5,0,0,0,12.85,8.156Z" fill="#fff"/>
  </g>
</svg>