<svg xmlns="http://www.w3.org/2000/svg" width="109" height="44" viewBox="0 0 109 44"><path d="M2.9,39.246H5.19v2.423a2.423,2.423,0,0,1-.518.367,3.278,3.278,0,0,1-.574.275l-.629.147a3.733,3.733,0,0,1-.629,0,3.112,3.112,0,0,1-1.2-.22,2.35,2.35,0,0,1-.888-.624,2.876,2.876,0,0,1-.555-.991,4.791,4.791,0,0,1,0-2.7,3.15,3.15,0,0,1,.574-1.01,2.388,2.388,0,0,1,.87-.606,2.7,2.7,0,0,1,1.092-.22,2.7,2.7,0,0,1,.907.128,1.856,1.856,0,0,1,.685.349,1.932,1.932,0,0,1,.463.551,2.594,2.594,0,0,1,.259.7l-.759.129a2.136,2.136,0,0,0-.185-.477l-.3-.386a1.26,1.26,0,0,0-.444-.239,2.029,2.029,0,0,0-.629,0,1.733,1.733,0,0,0-.833.183,1.459,1.459,0,0,0-.592.514,2.414,2.414,0,0,0-.37.789,4.08,4.08,0,0,0,0,2.038,2.086,2.086,0,0,0,.37.789,1.552,1.552,0,0,0,.629.514,1.973,1.973,0,0,0,.888.184,3.315,3.315,0,0,0,.888-.129,2.116,2.116,0,0,0,.74-.349v-1.45H2.9Z"/><path d="M6.244,37.961h.74v.679a1.843,1.843,0,0,1,.574-.551,1.433,1.433,0,0,1,.722-.2h.389v.7H7.8l-.389.294-.3.385a.985.985,0,0,0-.111.5v2.607h-.74Z"/><path d="M9.353,37.961h.74v2.772a1.442,1.442,0,0,0,.2.863.743.743,0,0,0,.648.257,1.338,1.338,0,0,0,.907-.349l.333-.4a1.093,1.093,0,0,0,.111-.532V37.961h.666v4.406h-.74v-.679a2.14,2.14,0,0,1-.7.606,1.73,1.73,0,0,1-.814.2,1.319,1.319,0,0,1-1.018-.422,1.825,1.825,0,0,1-.333-1.212Z"/><path d="M14.182,37.961h.74V38.6a1.679,1.679,0,0,1,.629-.569,1.862,1.862,0,0,1,.851-.2,1.973,1.973,0,0,1,.833.165,1.588,1.588,0,0,1,.574.477,1.829,1.829,0,0,1,.352.734,2.9,2.9,0,0,1,.129.918,3.276,3.276,0,0,1-.148.991,2.142,2.142,0,0,1-.389.734,1.718,1.718,0,0,1-.611.477,2.047,2.047,0,0,1-.833.165,2.124,2.124,0,0,1-.74-.147,1.736,1.736,0,0,1-.648-.532V44h-.74Zm.74,2.276a2.094,2.094,0,0,0,0,.716,1.262,1.262,0,0,0,.259.5l.425.294a1.527,1.527,0,0,0,.518,0,1.416,1.416,0,0,0,.5,0l.407-.312a1.592,1.592,0,0,0,.278-.532,3.358,3.358,0,0,0,0-.808,2.5,2.5,0,0,0-.111-.808,1.318,1.318,0,0,0-.278-.532l-.259-.22-.389-.128a1.269,1.269,0,0,0-.537.11l-.425.275a1.32,1.32,0,0,0-.3.5,1.821,1.821,0,0,0,0,.661Z"/><path d="M22.046,41.761a2.754,2.754,0,0,1-.611.5,1.976,1.976,0,0,1-.925.2,2.145,2.145,0,0,1-.61,0,1.521,1.521,0,0,1-.481-.257l-.3-.4a1.44,1.44,0,0,1-.111-.587,1.223,1.223,0,0,1,.185-.716,1.108,1.108,0,0,1,.518-.44,2.55,2.55,0,0,1,.722-.239l.833-.092h.759v-.165a1.168,1.168,0,0,0-.241-.808,1.06,1.06,0,0,0-.777-.257,1.415,1.415,0,0,0-.777.184.807.807,0,0,0-.333.477h-.666a1.206,1.206,0,0,1,.186-.505,1.218,1.218,0,0,1,.388-.376A2.309,2.309,0,0,1,21.028,38a2.647,2.647,0,0,1,.814.11,1.315,1.315,0,0,1,.537.33,1.484,1.484,0,0,1,.3.532,2.659,2.659,0,0,1,.092.7v2.845h-.722Zm0-1.6h-.722a3.732,3.732,0,0,0-.74.092,1.32,1.32,0,0,0-.481.184l-.241.275V41.1a.658.658,0,0,0,.2.532.837.837,0,0,0,.648.2,1.581,1.581,0,0,0,1.036-.312,1.152,1.152,0,0,0,.37-.881Z"/><path d="M28.577,39.246h2.276v2.423a1.943,1.943,0,0,1-.5.367,3.48,3.48,0,0,1-.592.275l-.611.147h-.629a3.055,3.055,0,0,1-1.2-.22,2.349,2.349,0,0,1-.888-.624,2.875,2.875,0,0,1-.555-.991,4.353,4.353,0,0,1-.185-1.34,3.883,3.883,0,0,1,.2-1.358,2.582,2.582,0,0,1,.574-1.01,2.33,2.33,0,0,1,.851-.606,2.85,2.85,0,0,1,1.11-.22,2.7,2.7,0,0,1,.907.128,1.855,1.855,0,0,1,.666.349,1.676,1.676,0,0,1,.463.551,2.122,2.122,0,0,1,.278.7l-.759.129a3.659,3.659,0,0,0-.185-.477l-.3-.386a1.706,1.706,0,0,0-.444-.239,2.106,2.106,0,0,0-.629,0,1.733,1.733,0,0,0-.833.183,1.626,1.626,0,0,0-.611.514,2.377,2.377,0,0,0-.352.789,3.515,3.515,0,0,0-.129,1.01,3.643,3.643,0,0,0,.129,1.028,2.086,2.086,0,0,0,.37.789,1.552,1.552,0,0,0,.629.514,1.863,1.863,0,0,0,.888.184,3.429,3.429,0,0,0,.87-.11,2.19,2.19,0,0,0,.722-.349v-1.45H28.577Z"/><path d="M35.738,41.118a1.577,1.577,0,0,1-.574.954,2.14,2.14,0,0,1-1.314.367,1.858,1.858,0,0,1-1.554-.606,2.5,2.5,0,0,1-.537-1.689,3.317,3.317,0,0,1,.148-1.01,2.676,2.676,0,0,1,.426-.753A2.2,2.2,0,0,1,33,37.943a2.323,2.323,0,0,1,1.721,0,1.683,1.683,0,0,1,.611.441,1.975,1.975,0,0,1,.352.679,3.151,3.151,0,0,1,.111.863v.367H32.537a2.1,2.1,0,0,0,0,.606,1.575,1.575,0,0,0,.259.5l.426.33a1.381,1.381,0,0,0,.574.129,1.266,1.266,0,0,0,.814-.22,1.118,1.118,0,0,0,.352-.569ZM35.164,39.8a1.823,1.823,0,0,0,0-.569,1.207,1.207,0,0,0-.2-.44l-.389-.275a1.248,1.248,0,0,0-.555-.11,1.133,1.133,0,0,0-.907.349,1.7,1.7,0,0,0-.389,1.046Z"/><path d="M36.792,36.291h.74v2.295a2.029,2.029,0,0,1,.648-.551,1.749,1.749,0,0,1,.833-.2,1.972,1.972,0,0,1,.833.165,1.515,1.515,0,0,1,.592.477,2.087,2.087,0,0,1,.352.734,3.646,3.646,0,0,1,.111.918,3.3,3.3,0,0,1-.13.991,2.142,2.142,0,0,1-.389.734,1.958,1.958,0,0,1-.629.477,1.951,1.951,0,0,1-1.573,0,1.569,1.569,0,0,1-.648-.532v.551h-.74Zm.74,4a2.689,2.689,0,0,0,0,.716,1.592,1.592,0,0,0,.278.5l.407.294a1.62,1.62,0,0,0,.518,0,1.247,1.247,0,0,0,.518-.11l.407-.294a1.3,1.3,0,0,0,.259-.532,2.583,2.583,0,0,0,.111-.808,2.492,2.492,0,0,0-.111-.808,1.592,1.592,0,0,0-.278-.532l-.389-.275-.389-.037a1.36,1.36,0,0,0-.555.11l-.426.275a1.081,1.081,0,0,0-.278.5,1.821,1.821,0,0,0-.111.661Z"/><path d="M45.729,41.118a1.5,1.5,0,0,1-.574,1.01,2.065,2.065,0,0,1-1.314.367,1.858,1.858,0,0,1-1.536-.606,2.411,2.411,0,0,1-.555-1.689,2.826,2.826,0,0,1,.167-1.01,2,2,0,0,1,.426-.753A1.851,1.851,0,0,1,43.009,38a2.321,2.321,0,0,1,1.721,0,1.85,1.85,0,0,1,.611.441,1.94,1.94,0,0,1,.333.679,2.571,2.571,0,0,1,.13.863v.367H42.565a2.077,2.077,0,0,0,.092.606,1.262,1.262,0,0,0,.259.5l.407.33a1.453,1.453,0,0,0,.574.129,1.228,1.228,0,0,0,.814-.22,1.008,1.008,0,0,0,.352-.569ZM45.044,39.8a2.59,2.59,0,0,0,0-.569,1.651,1.651,0,0,0-.222-.441l-.37-.275a1.248,1.248,0,0,0-.555-.11,1.208,1.208,0,0,0-.925.349,1.7,1.7,0,0,0-.389,1.046Z"/><path d="M46.784,37.961h.74v.679a1.843,1.843,0,0,1,.574-.551,1.433,1.433,0,0,1,.722-.2h.389l-.092.7h-.777l-.407.239-.3.385a.985.985,0,0,0-.111.5v2.607h-.74Z"/><path d="M49.966,36.291h.8v.863h-.8Zm0,1.67h.74v4.406h-.74Z"/><path d="M52.094,38.548H51.41v-.587h.685V36.768h.74v1.193h1.184v.587H52.834v2.57a.912.912,0,0,0,.148.532.5.5,0,0,0,.444.184h.592l.13.569-.37.092a1.871,1.871,0,0,1-.481,0,1.509,1.509,0,0,1-.611-.11l-.352-.312a1.006,1.006,0,0,1-.185-.477,3.081,3.081,0,0,1,0-.606Z"/><path d="M66.684,13.088a3.249,3.249,0,0,1,.564-1.81,3.3,3.3,0,0,1,5.961,1.2,3.256,3.256,0,0,1-1.4,3.349,3.306,3.306,0,0,1-5.121-2.773"/><path d="M29.29,14.538a10.213,10.213,0,0,0,2.686,7.381,10.378,10.378,0,0,0,7.157,3.34,10.377,10.377,0,0,0,7.157-3.34,10.213,10.213,0,0,0,2.686-7.381,10.213,10.213,0,0,0-2.686-7.38,10.377,10.377,0,0,0-7.157-3.34,10.377,10.377,0,0,0-7.157,3.34A10.213,10.213,0,0,0,29.29,14.538Zm-5.273,0A14.87,14.87,0,0,1,28.6,4.325a15.129,15.129,0,0,1,20.9,0,14.87,14.87,0,0,1,4.585,10.213A14.87,14.87,0,0,1,49.5,24.751a15.129,15.129,0,0,1-20.9,0A14.87,14.87,0,0,1,24.017,14.538Z"/><path d="M15.838.037h6.587L11.453,13.565,24.294,28.691H17.633L6.272,13.639Z"/><path d="M4.959,0H0V28.709H4.959Z"/><path d="M84.206,14.538a10.213,10.213,0,0,0,2.686,7.381,10.376,10.376,0,0,0,7.157,3.34,10.4,10.4,0,0,0,7.152-3.345,10.232,10.232,0,0,0,2.691-7.375A10.232,10.232,0,0,0,101.2,7.163,10.4,10.4,0,0,0,94.05,3.818a10.377,10.377,0,0,0-7.157,3.34A10.213,10.213,0,0,0,84.206,14.538Zm-5.31,0a14.888,14.888,0,0,1,4.59-10.226,15.148,15.148,0,0,1,20.924,0A14.888,14.888,0,0,1,109,14.538a14.889,14.889,0,0,1-4.59,10.226,15.148,15.148,0,0,1-20.924,0A14.889,14.889,0,0,1,78.9,14.538Z"/><path d="M58.709.037H63.5V24.873L77.915,24.6v4.094H58.709Z"/></svg>