<svg width="24" height="16" viewBox="0 0 24 16" fill="none" xmlns="http://www.w3.org/2000/svg">
<path d="M23.1475 7.24074C21.8745 3.25543 17.0821 0.25 12 0.25C6.91795 0.25 2.12547 3.25543 0.852492 7.24074L0.75 7.5625L0.852752 7.88426C2.12547 11.8696 6.91795 14.875 12 14.875C17.0821 14.875 21.8745 11.8696 23.1475 7.88398L23.25 7.5625L23.1475 7.24074ZM15.532 6.04222C15.532 8.1515 13.9476 9.86736 12 9.86736C10.0524 9.86736 8.46804 8.1515 8.46804 6.04222C8.46804 3.93295 10.0524 2.21709 12 2.21709C13.9476 2.21709 15.532 3.93295 15.532 6.04222ZM12 12.9079C7.80068 12.9079 3.87251 10.6317 2.68256 7.5625C3.40909 5.68843 5.15742 4.11139 7.36398 3.16606C6.91354 4.01472 6.65173 4.99489 6.65173 6.04194C6.65173 9.23565 9.05108 11.8342 12 11.8342C14.9489 11.8342 17.3483 9.23565 17.3483 6.04194C17.3483 4.99461 17.0865 4.01444 16.636 3.16606C18.8426 4.11139 20.5909 5.68843 21.3174 7.5625C20.1275 10.632 16.1993 12.9079 12 12.9079Z" fill="black" stroke="white" stroke-width="0.4"/>
</svg>
