<svg width="18" height="12" viewBox="0 0 18 12" fill="none" xmlns="http://www.w3.org/2000/svg">
<path fill-rule="evenodd" clip-rule="evenodd" d="M7.1415 8.21292L7.14094 3.4192L12.0043 5.82433L7.1415 8.21292ZM17.82 2.58853C17.82 2.58853 17.6439 1.4129 17.1045 0.895192C16.4199 0.215404 15.6527 0.212198 15.3011 0.172744C12.7822 -2.5034e-06 9.00394 0 9.00394 0H8.99606C8.99606 0 5.21775 -2.5034e-06 2.69888 0.172744C2.34675 0.212198 1.58006 0.215404 0.894939 0.895192C0.355502 1.4129 0.179998 2.58853 0.179998 2.58853C0.179998 2.58853 0 3.96943 0 5.3498V6.64434C0 8.02524 0.179998 9.40561 0.179998 9.40561C0.179998 9.40561 0.355502 10.5812 0.894939 11.0989C1.58006 11.7787 2.4795 11.7574 2.88 11.8283C4.32 11.9595 9 12 9 12C9 12 12.7822 11.9947 15.3011 11.8219C15.6527 11.7819 16.4199 11.7787 17.1045 11.0989C17.6439 10.5812 17.82 9.40561 17.82 9.40561C17.82 9.40561 18 8.02524 18 6.64434V5.3498C18 3.96943 17.82 2.58853 17.82 2.58853Z" fill="black"/>
</svg>
