<?xml version="1.0" standalone="no"?>
<!DOCTYPE svg PUBLIC "-//W3C//DTD SVG 1.1//EN" "http://www.w3.org/Graphics/SVG/1.1/DTD/svg11.dtd" >
<svg xmlns="http://www.w3.org/2000/svg">
<metadata></metadata>
<defs>
<font id="futura_bkbold" horiz-adv-x="1405" >
<font-face units-per-em="2048" ascent="1556" descent="-492" />
<missing-glyph horiz-adv-x="705" />
<glyph horiz-adv-x="2048" />
<glyph horiz-adv-x="2048" />
<glyph unicode="&#xd;" horiz-adv-x="705" />
<glyph unicode=" "  horiz-adv-x="705" />
<glyph unicode="&#x09;" horiz-adv-x="705" />
<glyph unicode="&#xa0;" horiz-adv-x="705" />
<glyph unicode="!" horiz-adv-x="786" d="M182 180q0 88 60.5 149.5t148.5 61.5q90 0 151.5 -61t61.5 -150q0 -90 -61.5 -151.5t-151.5 -61.5q-88 0 -148.5 61.5t-60.5 151.5zM199 506v1038h389v-1038h-389z" />
<glyph unicode="&#x22;" horiz-adv-x="1024" d="M164 958v586h233v-586h-233zM627 958v586h233v-586h-233z" />
<glyph unicode="#" d="M18 412l39 241h242l35 240h-254l41 240h250l59 411h262l-57 -411h246l59 411h262l-57 -411h241l-40 -240h-240l-33 -240h248l-37 -241h-246l-59 -412h-262l57 412h-246l-59 -412h-262l57 412h-246zM559 651h256l33 242h-256z" />
<glyph unicode="$" d="M100 217l189 287q83 -96 174 -142.5t199 -46.5q85 0 133.5 35t48.5 99q0 75 -45.5 115.5t-196.5 80.5q-223 59 -323.5 165.5t-100.5 281.5q0 197 117 315t332 137v193h164v-193q107 -12 200.5 -44.5t169.5 -84.5l-133 -299q-69 59 -144 90t-149 31q-78 0 -123 -30 t-45 -83q0 -101 218 -160q18 -5 29 -8q226 -60 328.5 -169t102.5 -285q0 -212 -122.5 -347t-331.5 -155v-254h-164l-1 254q-156 3 -285 56.5t-241 160.5z" />
<glyph unicode="%" horiz-adv-x="1997" d="M82 1176q0 165 119 283t286 118q168 0 287 -118t119 -283q0 -166 -119 -284t-287 -118q-167 0 -286 118t-119 284zM307 1176q0 -78 52.5 -132.5t127.5 -54.5q76 0 128.5 54.5t52.5 132.5q0 77 -52.5 131.5t-128.5 54.5q-75 0 -127.5 -54.5t-52.5 -131.5zM426 -33 l926 1610h196l-925 -1610h-197zM1104 369q0 165 119 283t286 118q168 0 287 -118t119 -283q0 -166 -119 -284t-287 -118q-167 0 -286 118t-119 284zM1329 369q0 -78 52.5 -132.5t127.5 -54.5q76 0 128.5 54.5t52.5 132.5t-52.5 132t-128.5 54q-75 0 -127.5 -54t-52.5 -132z " />
<glyph unicode="&#x26;" horiz-adv-x="1737" d="M131 401q0 142 77.5 243.5t272.5 207.5q-65 77 -101 167.5t-36 176.5q0 171 121 276t330 105q216 0 334 -104t118 -293q0 -107 -71 -206t-213 -190l180 -192q57 48 110.5 102.5t104.5 114.5l217 -229q-51 -65 -103 -120.5t-106 -101.5l340 -358h-463l-135 150 q-100 -95 -221 -139t-287 -44q-204 0 -336.5 123t-132.5 311zM504 430q0 -69 47 -117.5t117 -48.5q52 0 109 28t120 85l-238 262q-75 -42 -115 -96t-40 -113zM668 1176q0 -26 16 -65.5t39 -68.5l59 -73l52 41q51 41 78.5 86.5t27.5 89.5q0 56 -36 90.5t-95 34.5 q-67 0 -104 -36t-37 -99z" />
<glyph unicode="'" horiz-adv-x="512" d="M139 958v586h234v-586h-234z" />
<glyph unicode="(" horiz-adv-x="721" d="M102 543q0 306 94 562.5t283 471.5l236 -158q-143 -173 -216 -394t-73 -482q0 -267 71.5 -484.5t217.5 -392.5l-236 -158q-189 215 -283 471.5t-94 563.5z" />
<glyph unicode=")" horiz-adv-x="721" d="M6 -334q146 175 217.5 392.5t71.5 484.5q0 261 -73 482t-216 394l236 158q189 -215 282.5 -471.5t93.5 -562.5q0 -307 -93.5 -563.5t-282.5 -471.5z" />
<glyph unicode="*" horiz-adv-x="989" d="M94 1038l264 107l-264 106l109 187l223 -174l-39 280h215l-39 -280l223 174l109 -187l-262 -106l262 -107l-109 -186l-223 174l39 -281h-215l39 281l-223 -174z" />
<glyph unicode="+" d="M76 518v242h504v516h247v-516h502v-242h-502v-518h-247v518h-504z" />
<glyph unicode="," horiz-adv-x="702" d="M-59 -301l223 655h389l-324 -655h-288z" />
<glyph unicode="-" horiz-adv-x="803" d="M66 377v319h671v-319h-671z" />
<glyph unicode="." horiz-adv-x="702" d="M139 180q0 88 61 148.5t150 60.5q90 0 151.5 -60t61.5 -149q0 -90 -61.5 -151.5t-151.5 -61.5q-88 0 -149.5 62t-61.5 151z" />
<glyph unicode="/" horiz-adv-x="1186" d="M-10 -199l891 1776h252l-891 -1776h-252z" />
<glyph unicode="0" d="M82 774q0 362 172.5 582.5t450.5 220.5q281 0 449.5 -221t168.5 -596q0 -356 -171.5 -574.5t-446.5 -218.5q-278 0 -450.5 222t-172.5 585zM481 774q0 -227 55.5 -339.5t168.5 -112.5q110 0 164.5 112t54.5 340q0 227 -54 338t-165 111q-115 0 -169.5 -110t-54.5 -339z " />
<glyph unicode="1" d="M186 1204l181 340h546v-1544h-399v1204h-328z" />
<glyph unicode="2" d="M55 0l688 813q57 66 86 132t29 126q0 82 -48.5 132t-129.5 50q-101 0 -152 -66t-51 -198h-368q0 268 156.5 428t420.5 160q256 0 413.5 -141.5t157.5 -362.5q0 -111 -49 -216.5t-157 -225.5l-275 -301h467v-330h-1188z" />
<glyph unicode="3" d="M113 516h387q0 -108 47 -164.5t139 -56.5q89 0 143 51.5t54 132.5q0 104 -64 148.5t-207 44.5v266q128 0 183 41.5t55 130.5q0 69 -47 113.5t-121 44.5q-80 0 -125 -43.5t-45 -120.5h-368q4 219 153 346t405 127q233 0 376 -116t143 -300q0 -123 -62 -212.5t-172 -123.5 q120 -14 207.5 -116t87.5 -240q0 -232 -158 -367t-432 -135q-272 0 -425.5 144.5t-153.5 404.5z" />
<glyph unicode="4" d="M78 342v303l569 899h500v-905h168v-297h-168v-342h-373v342h-696zM399 639h375v604z" />
<glyph unicode="5" horiz-adv-x="1411" d="M127 90l47 371q56 -84 157 -135.5t210 -51.5q145 0 220 64.5t75 189.5q0 112 -83.5 191.5t-215.5 79.5q-96 0 -193 -27.5t-164 -73.5l131 846h834v-327h-582l-31 -183q55 10 102.5 15.5t88.5 5.5q235 0 374.5 -148t139.5 -397q0 -252 -171 -397.5t-468 -145.5 q-138 0 -261 32t-210 91z" />
<glyph unicode="6" d="M109 522q0 230 273 652l11 18l228 352h428l-373 -538q42 11 81.5 16.5t78.5 5.5q205 0 331.5 -140t126.5 -364q0 -250 -163.5 -403.5t-432.5 -153.5t-429 152t-160 403zM463 506q0 -93 63 -154t168 -61t168.5 58t63.5 157q0 106 -65 170.5t-167 64.5q-103 0 -167 -66 t-64 -169z" />
<glyph unicode="7" d="M133 1204v340h1204l-700 -1544h-434l577 1204h-647z" />
<glyph unicode="8" d="M119 430q0 161 83 265.5t232 131.5q-116 27 -185 119t-69 217q0 194 137.5 304t382.5 110q246 0 385.5 -110t139.5 -304q0 -125 -69 -217t-185 -119q149 -27 232 -131.5t83 -265.5q0 -217 -155 -340t-431 -123q-275 0 -428 122.5t-153 340.5zM492 467q0 -94 56 -148.5 t152 -54.5q100 0 156.5 54t56.5 149q0 94 -56.5 147.5t-156.5 53.5q-98 0 -153 -53.5t-55 -147.5zM522 1141q0 -81 48.5 -128.5t129.5 -47.5q84 0 133.5 47.5t49.5 128.5q0 80 -48.5 125t-134.5 45q-83 0 -130.5 -45.5t-47.5 -124.5z" />
<glyph unicode="9" d="M111 1020q0 250 163.5 403.5t432.5 153.5t429 -152t160 -403q0 -230 -273 -652l-11 -18l-228 -352h-428l373 539q-42 -12 -82 -17.5t-78 -5.5q-204 0 -331 145.5t-127 358.5zM479 1038q0 -106 65 -170.5t167 -64.5q103 0 167 66t64 169q0 94 -63 154.5t-168 60.5 t-168.5 -58t-63.5 -157z" />
<glyph unicode=":" horiz-adv-x="702" d="M139 180q0 88 61 148.5t150 60.5q90 0 151.5 -60t61.5 -149q0 -90 -61.5 -151.5t-151.5 -61.5q-88 0 -149.5 62t-61.5 151zM139 877q0 87 61 147.5t150 60.5q90 0 151.5 -60t61.5 -148q0 -91 -61.5 -152t-151.5 -61q-88 0 -149.5 61.5t-61.5 151.5z" />
<glyph unicode=";" horiz-adv-x="702" d="M-59 -301l223 655h389l-324 -655h-288zM139 877q0 87 62 147.5t151 60.5q90 0 150.5 -60t60.5 -148q0 -91 -60.5 -152t-150.5 -61q-89 0 -151 61.5t-62 151.5z" />
<glyph unicode="&#x3c;" d="M86 516v244l1233 510v-264l-893 -367l893 -365v-266z" />
<glyph unicode="=" d="M76 285v241h1253v-241h-1253zM76 752v241h1253v-241h-1253z" />
<glyph unicode="&#x3e;" d="M86 8v266l893 365l-893 367v264l1233 -510v-244z" />
<glyph unicode="?" horiz-adv-x="1219" d="M90 1124q0 211 146.5 332t388.5 121q222 0 362.5 -131t140.5 -338q0 -174 -93.5 -284t-243.5 -113v-205h-361v414h111q111 0 163 44.5t52 141.5q0 75 -41.5 123.5t-106.5 48.5q-75 0 -117 -40.5t-42 -113.5h-359zM397 178q0 88 62 149.5t151 61.5t149 -60.5t60 -150.5 t-59.5 -150.5t-149.5 -60.5q-89 0 -151 61t-62 150z" />
<glyph unicode="@" horiz-adv-x="1516" d="M20 711q0 382 226 624t581 242q290 0 479 -181t189 -470q0 -248 -121 -414t-327 -166q-75 0 -124 29t-67 84q-42 -56 -96 -83.5t-121 -27.5q-129 0 -198.5 83.5t-69.5 236.5q0 218 112.5 367t278.5 149q57 0 102 -23.5t76 -68.5l31 63h174l-117 -537q0 -1 -1 -6 q-3 -18 -3 -24q0 -28 12.5 -42t36.5 -14q108 0 166.5 102t58.5 294q0 211 -129 338t-346 127q-281 0 -443.5 -181.5t-162.5 -498.5q0 -261 144 -406t403 -145q126 0 244 43.5t227 130.5l80 -158q-123 -106 -258 -158.5t-289 -52.5q-341 0 -544.5 199t-203.5 545zM578 666 q0 -69 24.5 -101.5t77.5 -32.5t105 60.5t71 146.5l29 133q-9 63 -37.5 95t-75.5 32q-80 0 -137 -95t-57 -238z" />
<glyph unicode="A" horiz-adv-x="1599" d="M-10 0l549 1544h522l549 -1544h-430l-84 274h-590l-86 -274h-430zM596 571h412l-205 656z" />
<glyph unicode="B" horiz-adv-x="1386" d="M143 0v1544h389q388 0 531 -93t143 -290q0 -123 -64.5 -211.5t-172.5 -118.5q149 -11 247.5 -119t98.5 -266q0 -241 -166 -343.5t-582 -102.5h-424zM537 297h90q145 0 215.5 43t70.5 131q0 92 -66 134t-214 42h-96v-350zM537 934h28q131 0 189.5 35t58.5 116 q0 86 -57.5 124t-184.5 38h-34v-313z" />
<glyph unicode="C" horiz-adv-x="1352" d="M72 770q0 347 224.5 577t563.5 230q130 0 233 -24t177 -72v-457q-70 78 -166.5 121t-200.5 43q-185 0 -299.5 -117.5t-114.5 -308.5q0 -178 116 -292t298 -114q101 0 199.5 43.5t167.5 120.5v-457q-74 -47 -178.5 -71.5t-231.5 -24.5q-340 0 -564 228t-224 575z" />
<glyph unicode="D" horiz-adv-x="1540" d="M143 0v1544h334q529 0 760 -188t231 -586q0 -390 -227 -580t-704 -190h-394zM545 340h35q243 0 357 104.5t114 325.5q0 223 -114.5 328.5t-356.5 105.5h-35v-864z" />
<glyph unicode="E" horiz-adv-x="1126" d="M143 0v1544h883v-340h-481v-258h461v-328h-461v-278h481v-340h-883z" />
<glyph unicode="F" horiz-adv-x="1110" d="M143 0v1544h899v-327h-497v-271h467v-328h-467v-618h-402z" />
<glyph unicode="G" horiz-adv-x="1724" d="M72 768q0 349 233 579t586 230q223 0 397.5 -89.5t292.5 -264.5l-362 -176q-65 89 -146 132.5t-182 43.5q-185 0 -293.5 -126.5t-108.5 -344.5q0 -206 106.5 -327.5t285.5 -121.5q156 0 253.5 71.5t112.5 192.5h-383v328h789v-98q0 -408 -196.5 -619t-575.5 -211 q-354 0 -581.5 224t-227.5 577z" />
<glyph unicode="H" horiz-adv-x="1645" d="M143 0v1544h402v-598h555v598h401v-1544h-401v618h-555v-618h-402z" />
<glyph unicode="I" horiz-adv-x="664" d="M131 0v1544h401v-1544h-401z" />
<glyph unicode="J" horiz-adv-x="1001" d="M-49 203l256 231q14 -48 48 -80t75 -32q81 0 104 70t23 278v874h401v-1003q0 -284 -120 -429t-357 -145q-158 0 -266.5 59.5t-163.5 176.5z" />
<glyph unicode="K" horiz-adv-x="1552" d="M143 0v1544h402v-696l518 696h475l-598 -747l627 -797h-510l-512 721v-721h-402z" />
<glyph unicode="L" horiz-adv-x="1014" d="M143 0v1544h418v-1190h418v-354h-836z" />
<glyph unicode="M" horiz-adv-x="2013" d="M68 0l235 1544h422l283 -971l280 971h422l236 -1544h-400l-127 944l-274 -944h-277l-274 944l-129 -944h-397z" />
<glyph unicode="N" horiz-adv-x="1804" d="M143 0v1544h404l713 -960v960h401v-1544h-401l-715 958v-958h-402z" />
<glyph unicode="O" horiz-adv-x="1817" d="M72 770q0 340 241.5 573.5t595.5 233.5q355 0 595.5 -233t240.5 -574t-240.5 -572t-595.5 -231q-356 0 -596.5 231t-240.5 572zM489 770q0 -178 118.5 -296t301.5 -118q182 0 300 118.5t118 295.5q0 178 -118.5 298t-299.5 120q-185 0 -302.5 -118.5t-117.5 -299.5z" />
<glyph unicode="P" horiz-adv-x="1354" d="M143 0v1544h449q357 0 523.5 -129.5t166.5 -396.5q0 -254 -170 -383t-502 -129h-65v-506h-402zM545 834h51q146 0 207 44t61 146q0 101 -61.5 147t-202.5 46h-55v-383z" />
<glyph unicode="Q" horiz-adv-x="1817" d="M72 770q0 340 241.5 573.5t595.5 233.5q355 0 595.5 -233t240.5 -574q0 -171 -66.5 -323.5t-189.5 -264.5l244 -321l-336 -41l-158 209q-79 -31 -161.5 -46.5t-168.5 -15.5q-356 0 -596.5 231t-240.5 572zM489 770q0 -178 118.5 -296t301.5 -118q20 0 39.5 1.5t38.5 5.5 l-188 247l336 41l106 -141q42 55 64 121t22 139q0 178 -118.5 298t-299.5 120q-185 0 -302.5 -118.5t-117.5 -299.5z" />
<glyph unicode="R" horiz-adv-x="1393" d="M143 0v1544h471q376 0 528 -117.5t152 -371.5q0 -178 -88 -290.5t-256 -148.5l422 -616h-473l-354 600v-600h-402zM545 807h73q133 0 196 48t63 149q0 114 -57.5 163.5t-194.5 49.5h-80v-410z" />
<glyph unicode="S" horiz-adv-x="1262" d="M31 193l188 290q85 -96 174 -142t191 -46q84 0 137 44t53 114q0 76 -48.5 118.5t-209.5 83.5q-215 56 -315.5 163.5t-100.5 281.5q0 214 147.5 345.5t387.5 131.5q129 0 242 -34t213 -103l-132 -310q-68 58 -143.5 88.5t-150.5 30.5q-80 0 -127.5 -31.5t-47.5 -84.5 q0 -103 227 -162q15 -4 23 -6q233 -62 335 -175t102 -303q0 -237 -164 -378.5t-437 -141.5q-160 0 -289 53.5t-255 172.5z" />
<glyph unicode="T" horiz-adv-x="1092" d="M31 1190v354h1030v-354h-313v-1190h-402v1190h-315z" />
<glyph unicode="U" horiz-adv-x="1593" d="M133 713v831h402v-835q0 -228 57 -307.5t205 -79.5q147 0 204.5 79.5t57.5 307.5v835h401v-831q0 -430 -148.5 -588t-514.5 -158q-367 0 -515.5 158t-148.5 588z" />
<glyph unicode="V" horiz-adv-x="1559" d="M-10 1544h436l354 -973l353 973h436l-631 -1544h-317z" />
<glyph unicode="W" horiz-adv-x="2288" d="M-10 1544h436l293 -973l260 973h330l260 -973l293 973h436l-549 -1544h-338l-266 903l-268 -903h-338z" />
<glyph unicode="X" horiz-adv-x="1616" d="M14 0l547 817l-493 727h462l279 -428l278 428h482l-533 -735l566 -809h-482l-311 514l-334 -514h-461z" />
<glyph unicode="Y" horiz-adv-x="1462" d="M-6 1544h479l258 -508l258 508h479l-538 -846v-698h-398v698z" />
<glyph unicode="Z" horiz-adv-x="1448" d="M10 0l746 1206h-619v338h1290l-743 -1204h676v-340h-1350z" />
<glyph unicode="[" horiz-adv-x="717" d="M133 -459v2003h524v-254h-227v-1495h227v-254h-524z" />
<glyph unicode="\" horiz-adv-x="1186" d="M53 1577h252l891 -1776h-252z" />
<glyph unicode="]" horiz-adv-x="717" d="M59 -205h228v1495h-228v254h525v-2003h-525v254z" />
<glyph unicode="^" d="M209 850l342 694h303l342 -694h-276l-218 418l-217 -418h-276z" />
<glyph unicode="_" horiz-adv-x="1024" d="M0 -254h1024v-252h-1024v252z" />
<glyph unicode="`" horiz-adv-x="823" d="M98 1376l133 201l351 -258l-93 -141z" />
<glyph unicode="a" horiz-adv-x="1397" d="M72 524q0 260 131 410.5t354 150.5q117 0 200.5 -43t143.5 -133v144h367v-1053h-367v143q-56 -93 -140.5 -134.5t-215.5 -41.5q-212 0 -342.5 153t-130.5 404zM461 524q0 -120 60.5 -190t164.5 -70q97 0 156 71.5t59 188.5q0 125 -58 194.5t-157 69.5q-101 0 -163 -71 t-62 -193z" />
<glyph unicode="b" horiz-adv-x="1397" d="M129 0v1690h367v-781q49 97 129 136.5t227 39.5q212 0 342.5 -153t130.5 -404q0 -259 -131 -410t-354 -151q-117 0 -200.5 43t-143.5 133v-143h-367zM496 528q0 -125 58 -194.5t157 -69.5q101 0 163 71.5t62 192.5t-60.5 190.5t-164.5 69.5q-97 0 -156 -71.5t-59 -188.5z " />
<glyph unicode="c" horiz-adv-x="989" d="M72 526q0 248 154 403.5t415 155.5q77 0 144.5 -16.5t121.5 -48.5v-350q-37 43 -92.5 67.5t-114.5 24.5q-110 0 -174.5 -64.5t-64.5 -169.5q0 -115 63.5 -176t184.5 -61q48 0 103.5 25.5t94.5 66.5v-342q-65 -39 -128 -56.5t-142 -17.5q-261 0 -413 150.5t-152 408.5z " />
<glyph unicode="d" horiz-adv-x="1397" d="M72 528q0 251 130.5 404t342.5 153q147 0 227 -39.5t129 -136.5v781h367v-1690h-367v143q-60 -90 -143.5 -133t-200.5 -43q-223 0 -354 151t-131 410zM461 528q0 -121 62 -192.5t163 -71.5q99 0 157 69.5t58 194.5q0 117 -59 188.5t-156 71.5q-104 0 -164.5 -69.5 t-60.5 -190.5z" />
<glyph unicode="e" horiz-adv-x="1249" d="M72 516q0 254 150 411.5t401 157.5q259 0 407 -163t148 -451v-16h-748q0 -108 58.5 -170t154.5 -62q60 0 117.5 32.5t83.5 86.5l280 -113q-76 -142 -190 -202t-297 -60q-270 0 -417.5 145t-147.5 404zM430 660h389q-10 93 -63 146.5t-135 53.5q-83 0 -136 -57.5 t-55 -142.5z" />
<glyph unicode="f" horiz-adv-x="795" d="M51 756v297h123v252q0 201 107.5 306t314.5 105q31 0 72.5 -4.5t85.5 -13.5v-297q-24 8 -48.5 13t-41.5 5q-58 0 -87.5 -33.5t-29.5 -99.5v-233h207v-297h-207v-756h-373v756h-123z" />
<glyph unicode="g" horiz-adv-x="1386" d="M72 541q0 256 129 400t356 144q117 0 200.5 -43t143.5 -133v144h367v-1096q0 -250 -152.5 -380t-445.5 -130q-237 0 -386 116t-149 292h385q0 -47 50 -77t128 -30q109 0 156 66.5t47 214.5v147q-49 -97 -129 -136.5t-227 -39.5q-215 0 -344 146.5t-129 394.5zM461 541 q0 -117 59 -180.5t166 -63.5q100 0 157.5 65t57.5 179q0 121 -55.5 184t-159.5 63q-105 0 -165 -64.5t-60 -182.5z" />
<glyph unicode="h" horiz-adv-x="1354" d="M129 0v1690h373v-813q71 115 151 161.5t205 46.5q202 0 289.5 -114t87.5 -371v-600h-373v547q0 134 -36 187.5t-124 53.5q-104 0 -152 -87.5t-48 -274.5v-426h-373z" />
<glyph unicode="i" horiz-adv-x="618" d="M104 1372q0 84 60.5 144.5t144.5 60.5q85 0 145 -59.5t60 -145.5q0 -85 -60.5 -147t-144.5 -62q-83 0 -144 62.5t-61 146.5zM123 0v1053h373v-1053h-373z" />
<glyph unicode="j" horiz-adv-x="618" d="M104 1372q0 84 60.5 144.5t144.5 60.5q85 0 145 -59.5t60 -145.5q0 -85 -60.5 -147t-144.5 -62q-83 0 -144 62.5t-61 146.5zM123 -532v1585h373v-1585h-373z" />
<glyph unicode="k" horiz-adv-x="1409" d="M129 0v1690h373v-1094l383 457h463l-476 -504l519 -549h-492l-397 469v-469h-373z" />
<glyph unicode="l" horiz-adv-x="618" d="M123 0v1690h373v-1690h-373z" />
<glyph unicode="m" horiz-adv-x="2025" d="M129 0v1053h373v-166q53 95 137.5 146.5t187.5 51.5q143 0 226.5 -54.5t120.5 -170.5q54 114 143 169.5t213 55.5q202 0 289.5 -114t87.5 -371v-600h-373v547q0 124 -36.5 182.5t-113.5 58.5q-96 0 -138 -82t-42 -280v-426h-373v547q0 124 -36 182.5t-113 58.5 q-96 0 -138 -82t-42 -280v-426h-373z" />
<glyph unicode="n" horiz-adv-x="1354" d="M129 0v1053h373v-176q71 115 151 161.5t205 46.5q202 0 289.5 -114t87.5 -371v-600h-373v547q0 134 -36 187.5t-124 53.5q-102 0 -151 -88.5t-49 -273.5v-426h-373z" />
<glyph unicode="o" horiz-adv-x="1356" d="M72 526q0 237 174 398t432 161q264 0 435 -156.5t171 -402.5q0 -240 -171.5 -399.5t-434.5 -159.5q-266 0 -436 159t-170 400zM461 526q0 -107 58.5 -171t158.5 -64q96 0 156.5 64t60.5 171q0 100 -62 168t-155 68q-98 0 -157.5 -68t-59.5 -168z" />
<glyph unicode="p" horiz-adv-x="1397" d="M129 -532v1585h367v-144q60 90 143.5 133t200.5 43q223 0 354 -150.5t131 -410.5q0 -251 -130.5 -404t-342.5 -153q-147 0 -227 39.5t-129 136.5v-675h-367zM496 524q0 -117 59 -188.5t156 -71.5q104 0 164.5 70t60.5 190q0 122 -62 193t-163 71q-99 0 -157 -69.5 t-58 -194.5z" />
<glyph unicode="q" horiz-adv-x="1397" d="M72 524q0 260 131 410.5t354 150.5q117 0 200.5 -43t143.5 -133v144h367v-1585h-367v675q-49 -97 -129 -136.5t-227 -39.5q-212 0 -342.5 153t-130.5 404zM461 524q0 -120 60.5 -190t164.5 -70q97 0 156 71.5t59 188.5q0 125 -58 194.5t-157 69.5q-101 0 -163 -71 t-62 -193z" />
<glyph unicode="r" horiz-adv-x="928" d="M129 0v1053h371v-203q57 120 136.5 177.5t184.5 57.5q20 0 46.5 -1.5t60.5 -4.5l-38 -364q-40 11 -70 15.5t-58 4.5q-132 0 -197 -79.5t-65 -239.5v-416h-371z" />
<glyph unicode="s" horiz-adv-x="1051" d="M57 96l78 285q79 -70 178 -109t199 -39q69 0 99 19t30 61q0 73 -143 107q-43 10 -68 16q-165 43 -242 119.5t-77 196.5q0 152 115 242.5t313 90.5q114 0 216 -23t206 -73l-76 -256q-70 48 -151 75.5t-154 27.5q-65 0 -97 -18.5t-32 -55.5q0 -56 148 -95q60 -15 95 -26 q160 -49 229.5 -124t69.5 -195q0 -162 -123 -258.5t-331 -96.5q-138 0 -256.5 32t-225.5 97z" />
<glyph unicode="t" horiz-adv-x="737" d="M51 756v297h123v317h373v-317h180v-297h-180v-756h-373v756h-123z" />
<glyph unicode="u" horiz-adv-x="1350" d="M119 524v529h373v-537q0 -139 41 -195.5t137 -56.5q99 0 143.5 59t44.5 193v537h373v-529q0 -289 -133.5 -423t-421.5 -134q-289 0 -423 133.5t-134 423.5z" />
<glyph unicode="v" horiz-adv-x="1276" d="M14 1053h410l223 -580l217 580h398l-480 -1053h-293z" />
<glyph unicode="w" horiz-adv-x="2040" d="M10 1053h398l256 -621l227 621h270l234 -621l237 621h398l-480 -1053h-282l-236 618l-244 -618h-303z" />
<glyph unicode="x" horiz-adv-x="1458" d="M23 0l475 555l-416 498h428l211 -277l213 277h442l-424 -498l484 -555h-441l-270 340l-270 -340h-432z" />
<glyph unicode="y" horiz-adv-x="1339" d="M20 1053h414l242 -609l244 609h399l-692 -1585h-416l278 585z" />
<glyph unicode="z" horiz-adv-x="1145" d="M10 0l504 756h-438v297h1052l-534 -756h487v-297h-1071z" />
<glyph unicode="{" horiz-adv-x="721" d="M53 414v276q100 0 130 23.5t30 93.5v377q0 209 87.5 284.5t367.5 75.5v-276q-103 0 -130.5 -15.5t-27.5 -101.5v-336q0 -96 -37 -167.5t-98 -94.5q62 -18 98.5 -90.5t36.5 -173.5v-336q0 -86 27.5 -101.5t130.5 -15.5v-276q-280 0 -367.5 75.5t-87.5 284.5v377 q0 70 -32.5 93.5t-127.5 23.5z" />
<glyph unicode="|" horiz-adv-x="1186" d="M465 -504v2048h256v-2048h-256z" />
<glyph unicode="}" horiz-adv-x="721" d="M53 -164q103 0 130.5 15.5t27.5 101.5v336q0 101 36.5 173.5t98.5 90.5q-62 23 -98.5 94.5t-36.5 167.5v336q0 86 -27.5 101.5t-130.5 15.5v276q280 0 367.5 -75.5t87.5 -284.5v-377q0 -70 30 -93.5t130 -23.5v-276q-95 0 -127.5 -23.5t-32.5 -93.5v-377 q0 -209 -87.5 -284.5t-367.5 -75.5v276z" />
<glyph unicode="~" d="M133 344v285q73 93 152 135.5t184 42.5q60 0 124.5 -21t108.5 -55q74 -56 128 -80t112 -24q88 0 167.5 49.5t162.5 154.5v-284q-73 -93 -152 -135.5t-184 -42.5q-60 0 -124.5 20.5t-109.5 54.5q-73 57 -127 81t-112 24q-88 0 -167.5 -49.5t-162.5 -155.5z" />
<glyph unicode="&#xa2;" d="M123 784q0 219 125 371t340 182v207h164v-202q52 -4 106.5 -20.5t99.5 -43.5v-350q-37 43 -92 67.5t-114 24.5q-111 0 -175.5 -64.5t-64.5 -169.5q0 -115 63.5 -176t184.5 -61q48 0 104 26t94 66v-342q-54 -33 -103.5 -50t-102.5 -22v-227h-164v231q-218 28 -341.5 174.5 t-123.5 378.5z" />
<glyph unicode="&#xa3;" d="M41 0q36 276 324 342q6 2 8 2q26 41 38.5 88t12.5 109q0 23 -8.5 66t-18.5 73h-243v147h168q-62 88 -87.5 164.5t-25.5 161.5q0 184 145 304t381 120q248 0 382.5 -126.5t139.5 -365.5l-360 1q-2 95 -44.5 144.5t-123.5 49.5q-68 0 -109.5 -41.5t-41.5 -108.5 q0 -53 61 -182q37 -76 55 -121h350v-147h-329q-2 -111 -33.5 -194t-91.5 -132q58 -5 148.5 -47.5t156.5 -42.5q43 0 66.5 12t42.5 48h319q-41 -188 -133.5 -272.5t-308.5 -84.5q-96 0 -221.5 57.5t-174.5 57.5q-43 0 -84.5 -24t-54.5 -58h-305z" />
<glyph unicode="&#xa5;" d="M14 1544h408l285 -545l284 545h400l-285 -491h268v-148h-352l-121 -209h473v-147h-485v-549h-369v549h-489v147h477l-121 209h-356v148h270z" />
<glyph unicode="&#xa8;" horiz-adv-x="1237" d="M240 1339q0 64 48.5 112t112.5 48q66 0 113 -47t47 -113q0 -68 -46 -114.5t-114 -46.5q-67 0 -114 47t-47 114zM676 1339q0 64 48.5 112t113.5 48q66 0 112.5 -47t46.5 -113q0 -68 -45.5 -114.5t-113.5 -46.5t-115 47t-47 114z" />
<glyph unicode="&#xa9;" horiz-adv-x="1638" d="M14 772q0 333 236 569t569 236q334 0 569.5 -236t235.5 -569t-235.5 -569t-569.5 -236q-333 0 -569 236t-236 569zM158 772q0 -273 194 -467t467 -194q274 0 468 194t194 467q0 274 -194 468t-468 194q-273 0 -467 -194t-194 -468zM358 786q0 226 138 368t358 142 q90 0 173 -28t147 -80v-273q-72 78 -149.5 117t-162.5 39q-133 0 -200.5 -71t-67.5 -214q0 -137 68 -212.5t190 -75.5q92 0 166 32.5t156 110.5v-268q-66 -48 -150.5 -74.5t-169.5 -26.5q-226 0 -361 141t-135 373z" />
<glyph unicode="&#xab;" horiz-adv-x="1235" d="M68 524l374 512l201 -139l-276 -373l276 -364l-201 -146zM578 524l376 512l199 -139l-274 -373l274 -364l-199 -146z" />
<glyph unicode="&#xad;" horiz-adv-x="803" d="M66 377v319h671v-319h-671z" />
<glyph unicode="&#xae;" horiz-adv-x="1638" d="M14 772q0 333 236 569t569 236q334 0 569.5 -236t235.5 -569t-235.5 -569t-569.5 -236q-333 0 -569 236t-236 569zM158 772q0 -273 194 -467t467 -194q274 0 468 194t194 467q0 274 -194 468t-468 194q-273 0 -467 -194t-194 -468zM532 293v983h299q152 0 241 -76.5 t89 -200.5q0 -99 -57 -169.5t-150 -86.5l273 -450h-246l-233 428v-428h-216zM748 895h57q70 0 100.5 23t30.5 73q0 61 -28 86t-103 25h-57v-207z" />
<glyph unicode="&#xb4;" horiz-adv-x="823" d="M242 1319l350 258l133 -201l-391 -198z" />
<glyph unicode="&#xb8;" horiz-adv-x="778" d="M154 -444l256 397l204 -152l-323 -354z" />
<glyph unicode="&#xbb;" horiz-adv-x="1235" d="M82 160l274 364l-274 373l199 139l374 -512l-374 -510zM592 160l274 364l-274 373l199 139l376 -512l-376 -510z" />
<glyph unicode="&#xc0;" horiz-adv-x="1599" d="M-10 0l549 1544h522l549 -1544h-430l-84 274h-590l-86 -274h-430zM487 1868l133 201l351 -258l-93 -141zM596 571h412l-205 656z" />
<glyph unicode="&#xc8;" horiz-adv-x="1126" d="M143 0v1544h883v-340h-481v-258h461v-328h-461v-278h481v-340h-883zM260 1868l133 201l351 -258l-93 -141z" />
<glyph unicode="&#xc9;" horiz-adv-x="1126" d="M143 0v1544h883v-340h-481v-258h461v-328h-461v-278h481v-340h-883zM404 1811l350 258l133 -201l-391 -198z" />
<glyph unicode="&#xcc;" horiz-adv-x="664" d="M18 1868l133 201l351 -258l-93 -141zM131 0v1544h401v-1544h-401z" />
<glyph unicode="&#xd2;" horiz-adv-x="1817" d="M72 770q0 340 241.5 573.5t595.5 233.5q355 0 595.5 -233t240.5 -574t-240.5 -572t-595.5 -231q-356 0 -596.5 231t-240.5 572zM489 770q0 -178 118.5 -296t301.5 -118q182 0 300 118.5t118 295.5q0 178 -118.5 298t-299.5 120q-185 0 -302.5 -118.5t-117.5 -299.5z M596 1868l133 201l351 -258l-93 -141z" />
<glyph unicode="&#xd3;" horiz-adv-x="1817" d="M72 770q0 340 241.5 573.5t595.5 233.5q355 0 595.5 -233t240.5 -574t-240.5 -572t-595.5 -231q-356 0 -596.5 231t-240.5 572zM489 770q0 -178 118.5 -296t301.5 -118q182 0 300 118.5t118 295.5q0 178 -118.5 298t-299.5 120q-185 0 -302.5 -118.5t-117.5 -299.5z M740 1811l350 258l133 -201l-391 -198z" />
<glyph unicode="&#xd9;" horiz-adv-x="1593" d="M133 713v831h402v-835q0 -228 57 -307.5t205 -79.5q147 0 204.5 79.5t57.5 307.5v835h401v-831q0 -430 -148.5 -588t-514.5 -158q-367 0 -515.5 158t-148.5 588zM483 1868l133 201l351 -258l-93 -141z" />
<glyph unicode="&#xe0;" horiz-adv-x="1397" d="M72 524q0 260 131 410.5t354 150.5q117 0 200.5 -43t143.5 -133v144h367v-1053h-367v143q-56 -93 -140.5 -134.5t-215.5 -41.5q-212 0 -342.5 153t-130.5 404zM354 1376l133 201l351 -258l-93 -141zM461 524q0 -120 60.5 -190t164.5 -70q97 0 156 71.5t59 188.5 q0 125 -58 194.5t-157 69.5q-101 0 -163 -71t-62 -193z" />
<glyph unicode="&#xe8;" horiz-adv-x="1249" d="M72 516q0 254 150 411.5t401 157.5q259 0 407 -163t148 -451v-16h-748q0 -108 58.5 -170t154.5 -62q60 0 117.5 32.5t83.5 86.5l280 -113q-76 -142 -190 -202t-297 -60q-270 0 -417.5 145t-147.5 404zM311 1376l133 201l351 -258l-93 -141zM430 660h389q-10 93 -63 146.5 t-135 53.5q-83 0 -136 -57.5t-55 -142.5z" />
<glyph unicode="&#xe9;" horiz-adv-x="1249" d="M72 516q0 254 150 411.5t401 157.5q259 0 407 -163t148 -451v-16h-748q0 -108 58.5 -170t154.5 -62q60 0 117.5 32.5t83.5 86.5l280 -113q-76 -142 -190 -202t-297 -60q-270 0 -417.5 145t-147.5 404zM430 660h389q-10 93 -63 146.5t-135 53.5q-83 0 -136 -57.5 t-55 -142.5zM455 1319l350 258l133 -201l-391 -198z" />
<glyph unicode="&#xec;" horiz-adv-x="618" d="M-4 1376l133 201l351 -258l-93 -141zM123 0v1053h373v-1053h-373z" />
<glyph unicode="&#xf2;" horiz-adv-x="1356" d="M72 526q0 237 174 398t432 161q264 0 435 -156.5t171 -402.5q0 -240 -171.5 -399.5t-434.5 -159.5q-266 0 -436 159t-170 400zM364 1376l133 201l351 -258l-93 -141zM461 526q0 -107 58.5 -171t158.5 -64q96 0 156.5 64t60.5 171q0 100 -62 168t-155 68q-98 0 -157.5 -68 t-59.5 -168z" />
<glyph unicode="&#xf3;" horiz-adv-x="1356" d="M72 526q0 237 174 398t432 161q264 0 435 -156.5t171 -402.5q0 -240 -171.5 -399.5t-434.5 -159.5q-266 0 -436 159t-170 400zM461 526q0 -107 58.5 -171t158.5 -64q96 0 156.5 64t60.5 171q0 100 -62 168t-155 68q-98 0 -157.5 -68t-59.5 -168zM508 1319l350 258 l133 -201l-391 -198z" />
<glyph unicode="&#xf9;" horiz-adv-x="1350" d="M119 524v529h373v-537q0 -139 41 -195.5t137 -56.5q99 0 143.5 59t44.5 193v537h373v-529q0 -289 -133.5 -423t-421.5 -134q-289 0 -423 133.5t-134 423.5zM362 1376l133 201l351 -258l-93 -141z" />
<glyph unicode="&#x100;" horiz-adv-x="1599" d="M-10 0l549 1544h522l549 -1544h-430l-84 274h-590l-86 -274h-430zM479 1735v217h641v-217h-641zM596 571h412l-205 656z" />
<glyph unicode="&#x101;" horiz-adv-x="1397" d="M72 524q0 260 131 410.5t354 150.5q117 0 200.5 -43t143.5 -133v144h367v-1053h-367v143q-56 -93 -140.5 -134.5t-215.5 -41.5q-212 0 -342.5 153t-130.5 404zM348 1243v217h641v-217h-641zM461 524q0 -120 60.5 -190t164.5 -70q97 0 156 71.5t59 188.5q0 125 -58 194.5 t-157 69.5q-101 0 -163 -71t-62 -193z" />
<glyph unicode="&#x102;" horiz-adv-x="1599" d="M-10 0l549 1544h522l549 -1544h-430l-84 274h-590l-86 -274h-430zM461 1995l156 66q19 -78 65.5 -117t118.5 -39t116 38t64 118l158 -66q-39 -158 -120 -231.5t-218 -73.5q-141 0 -229.5 79.5t-110.5 225.5zM596 571h412l-205 656z" />
<glyph unicode="&#x103;" horiz-adv-x="1397" d="M72 524q0 260 131 410.5t354 150.5q117 0 200.5 -43t143.5 -133v144h367v-1053h-367v143q-56 -93 -140.5 -134.5t-215.5 -41.5q-212 0 -342.5 153t-130.5 404zM330 1503l156 66q19 -78 65.5 -117t118.5 -39t116 38t64 118l158 -66q-39 -158 -120 -231.5t-218 -73.5 q-141 0 -229.5 79.5t-110.5 225.5zM461 524q0 -120 60.5 -190t164.5 -70q97 0 156 71.5t59 188.5q0 125 -58 194.5t-157 69.5q-101 0 -163 -71t-62 -193z" />
<glyph unicode="&#x104;" horiz-adv-x="1599" d="M-10 0l549 1544h522l549 -1544h-8q-69 -68 -102.5 -126.5t-33.5 -111.5q0 -44 33.5 -61.5t110.5 -17.5v-215q-213 0 -293 48t-80 177q0 73 45 154.5t125 152.5h-227l-84 274h-590l-86 -274h-430zM596 571h412l-205 656z" />
<glyph unicode="&#x105;" horiz-adv-x="1397" d="M72 524q0 260 131 410.5t354 150.5q117 0 200.5 -43t143.5 -133v144h367v-1053h-8q-69 -68 -102.5 -126.5t-33.5 -111.5q0 -44 33.5 -61.5t110.5 -17.5v-215q-213 0 -293 48t-80 177q0 73 45 154.5t125 152.5h-164v143q-56 -93 -140.5 -134.5t-215.5 -41.5 q-212 0 -342.5 153t-130.5 404zM461 524q0 -120 60.5 -190t164.5 -70q97 0 156 71.5t59 188.5q0 125 -58 194.5t-157 69.5q-101 0 -163 -71t-62 -193z" />
<glyph unicode="&#x106;" horiz-adv-x="1352" d="M72 770q0 347 224.5 577t563.5 230q130 0 233 -24t177 -72v-457q-70 78 -166.5 121t-200.5 43q-185 0 -299.5 -117.5t-114.5 -308.5q0 -178 116 -292t298 -114q101 0 199.5 43.5t167.5 120.5v-457q-74 -47 -178.5 -71.5t-231.5 -24.5q-340 0 -564 228t-224 575zM680 1811 l350 258l133 -201l-391 -198z" />
<glyph unicode="&#x107;" horiz-adv-x="989" d="M72 526q0 248 154 403.5t415 155.5q77 0 144.5 -16.5t121.5 -48.5v-350q-37 43 -92.5 67.5t-114.5 24.5q-110 0 -174.5 -64.5t-64.5 -169.5q0 -115 63.5 -176t184.5 -61q48 0 103.5 25.5t94.5 66.5v-342q-65 -39 -128 -56.5t-142 -17.5q-261 0 -413 150.5t-152 408.5z M449 1319l350 258l133 -201l-391 -198z" />
<glyph unicode="&#x108;" horiz-adv-x="1352" d="M72 770q0 347 224.5 577t563.5 230q130 0 233 -24t177 -72v-457q-70 78 -166.5 121t-200.5 43q-185 0 -299.5 -117.5t-114.5 -308.5q0 -178 116 -292t298 -114q101 0 199.5 43.5t167.5 120.5v-457q-74 -47 -178.5 -71.5t-231.5 -24.5q-340 0 -564 228t-224 575zM498 1817 l352 277l352 -277l-94 -147l-258 141l-258 -141z" />
<glyph unicode="&#x109;" horiz-adv-x="989" d="M72 526q0 248 154 403.5t415 155.5q77 0 144.5 -16.5t121.5 -48.5v-350q-37 43 -92.5 67.5t-114.5 24.5q-110 0 -174.5 -64.5t-64.5 -169.5q0 -115 63.5 -176t184.5 -61q48 0 103.5 25.5t94.5 66.5v-342q-65 -39 -128 -56.5t-142 -17.5q-261 0 -413 150.5t-152 408.5z M266 1325l352 277l352 -277l-94 -147l-258 141l-258 -141z" />
<glyph unicode="&#x10a;" horiz-adv-x="1352" d="M72 770q0 347 224.5 577t563.5 230q130 0 233 -24t177 -72v-457q-70 78 -166.5 121t-200.5 43q-185 0 -299.5 -117.5t-114.5 -308.5q0 -178 116 -292t298 -114q101 0 199.5 43.5t167.5 120.5v-457q-74 -47 -178.5 -71.5t-231.5 -24.5q-340 0 -564 228t-224 575zM690 1831 q0 64 48.5 112t113.5 48q66 0 112.5 -47t46.5 -113q0 -68 -45.5 -114.5t-113.5 -46.5t-115 47t-47 114z" />
<glyph unicode="&#x10b;" horiz-adv-x="989" d="M72 526q0 248 154 403.5t415 155.5q77 0 144.5 -16.5t121.5 -48.5v-350q-37 43 -92.5 67.5t-114.5 24.5q-110 0 -174.5 -64.5t-64.5 -169.5q0 -115 63.5 -176t184.5 -61q48 0 103.5 25.5t94.5 66.5v-342q-65 -39 -128 -56.5t-142 -17.5q-261 0 -413 150.5t-152 408.5z M459 1339q0 64 48.5 112t113.5 48q66 0 112.5 -47t46.5 -113q0 -68 -45.5 -114.5t-113.5 -46.5t-115 47t-47 114z" />
<glyph unicode="&#x10c;" horiz-adv-x="1352" d="M72 770q0 347 224.5 577t563.5 230q130 0 233 -24t177 -72v-457q-70 78 -166.5 121t-200.5 43q-185 0 -299.5 -117.5t-114.5 -308.5q0 -178 116 -292t298 -114q101 0 199.5 43.5t167.5 120.5v-457q-74 -47 -178.5 -71.5t-231.5 -24.5q-340 0 -564 228t-224 575zM498 1946 l94 148l258 -142l258 142l94 -148l-352 -276z" />
<glyph unicode="&#x10d;" horiz-adv-x="989" d="M72 526q0 248 154 403.5t415 155.5q77 0 144.5 -16.5t121.5 -48.5v-350q-37 43 -92.5 67.5t-114.5 24.5q-110 0 -174.5 -64.5t-64.5 -169.5q0 -115 63.5 -176t184.5 -61q48 0 103.5 25.5t94.5 66.5v-342q-65 -39 -128 -56.5t-142 -17.5q-261 0 -413 150.5t-152 408.5z M266 1454l94 148l258 -142l258 142l94 -148l-352 -276z" />
<glyph unicode="&#x10e;" horiz-adv-x="1540" d="M143 0v1544h334q529 0 760 -188t231 -586q0 -390 -227 -580t-704 -190h-394zM311 1946l94 148l258 -142l258 142l94 -148l-352 -276zM545 340h35q243 0 357 104.5t114 325.5q0 223 -114.5 328.5t-356.5 105.5h-35v-864z" />
<glyph unicode="&#x10f;" horiz-adv-x="2159" d="M72 528q0 251 130.5 404t342.5 153q147 0 227 -39.5t129 -136.5v781h367v-1690h-367v143q-60 -90 -143.5 -133t-200.5 -43q-223 0 -354 151t-131 410zM461 528q0 -121 62 -192.5t163 -71.5q99 0 157 69.5t58 194.5q0 117 -59 188.5t-156 71.5q-104 0 -164.5 -69.5 t-60.5 -190.5zM1477 889l221 655h391l-323 -655h-289z" />
<glyph unicode="&#x110;" horiz-adv-x="1540" d="M0 647v262h143v635h334q529 0 760 -188t231 -586q0 -390 -227 -580t-704 -190h-394v647h-143zM545 340h35q243 0 357 104.5t114 325.5q0 223 -114.5 328.5t-356.5 105.5h-35v-295h235v-262h-235v-307z" />
<glyph unicode="&#x111;" horiz-adv-x="1397" d="M72 528q0 251 130.5 404t342.5 153q147 0 227 -39.5t129 -136.5v365h-326v221h326v195h367v-195h129v-221h-129v-1274h-367v143q-60 -90 -143.5 -133t-200.5 -43q-223 0 -354 151t-131 410zM461 528q0 -121 62 -192.5t163 -71.5q99 0 157 69.5t58 194.5q0 117 -59 188.5 t-156 71.5q-104 0 -164.5 -69.5t-60.5 -190.5z" />
<glyph unicode="&#x112;" horiz-adv-x="1126" d="M143 0v1544h883v-340h-481v-258h461v-328h-461v-278h481v-340h-883zM252 1735v217h641v-217h-641z" />
<glyph unicode="&#x113;" horiz-adv-x="1249" d="M72 516q0 254 150 411.5t401 157.5q259 0 407 -163t148 -451v-16h-748q0 -108 58.5 -170t154.5 -62q60 0 117.5 32.5t83.5 86.5l280 -113q-76 -142 -190 -202t-297 -60q-270 0 -417.5 145t-147.5 404zM305 1243v217h641v-217h-641zM430 660h389q-10 93 -63 146.5 t-135 53.5q-83 0 -136 -57.5t-55 -142.5z" />
<glyph unicode="&#x114;" horiz-adv-x="1126" d="M143 0v1544h883v-340h-481v-258h461v-328h-461v-278h481v-340h-883zM233 1995l156 66q19 -78 65.5 -117t118.5 -39t116 38t64 118l158 -66q-39 -158 -120 -231.5t-218 -73.5q-141 0 -229.5 79.5t-110.5 225.5z" />
<glyph unicode="&#x115;" horiz-adv-x="1249" d="M72 516q0 254 150 411.5t401 157.5q259 0 407 -163t148 -451v-16h-748q0 -108 58.5 -170t154.5 -62q60 0 117.5 32.5t83.5 86.5l280 -113q-76 -142 -190 -202t-297 -60q-270 0 -417.5 145t-147.5 404zM287 1503l156 66q19 -78 65.5 -117t118.5 -39t116 38t64 118l158 -66 q-39 -158 -120 -231.5t-218 -73.5q-141 0 -229.5 79.5t-110.5 225.5zM430 660h389q-10 93 -63 146.5t-135 53.5q-83 0 -136 -57.5t-55 -142.5z" />
<glyph unicode="&#x116;" horiz-adv-x="1126" d="M143 0v1544h883v-340h-481v-258h461v-328h-461v-278h481v-340h-883zM414 1831q0 64 48.5 112t113.5 48q66 0 112.5 -47t46.5 -113q0 -68 -45.5 -114.5t-113.5 -46.5t-115 47t-47 114z" />
<glyph unicode="&#x117;" horiz-adv-x="1249" d="M72 516q0 254 150 411.5t401 157.5q259 0 407 -163t148 -451v-16h-748q0 -108 58.5 -170t154.5 -62q60 0 117.5 32.5t83.5 86.5l280 -113q-76 -142 -190 -202t-297 -60q-270 0 -417.5 145t-147.5 404zM430 660h389q-10 93 -63 146.5t-135 53.5q-83 0 -136 -57.5 t-55 -142.5zM465 1339q0 64 48.5 112t113.5 48q66 0 112.5 -47t46.5 -113q0 -68 -45.5 -114.5t-113.5 -46.5t-115 47t-47 114z" />
<glyph unicode="&#x118;" horiz-adv-x="1126" d="M143 0v1544h883v-340h-481v-258h461v-328h-461v-278h481v-340h-8q-68 -68 -101.5 -126.5t-33.5 -111.5q0 -44 33 -61.5t110 -17.5v-215q-213 0 -293 48t-80 177q0 73 45 154.5t125 152.5h-680z" />
<glyph unicode="&#x119;" horiz-adv-x="1249" d="M72 516q0 254 150 411.5t401 157.5q259 0 407 -163t148 -451v-16h-748q0 -108 58.5 -170t154.5 -62q60 0 117.5 32.5t83.5 86.5l280 -113q-56 -103 -126.5 -160t-170.5 -81q-62 -65 -92 -120.5t-30 -105.5q0 -44 33 -61.5t110 -17.5v-215q-213 0 -293 48t-80 177 q0 65 35.5 137.5t99.5 136.5q-257 8 -397.5 152.5t-140.5 396.5zM430 660h389q-10 93 -63 146.5t-135 53.5q-83 0 -136 -57.5t-55 -142.5z" />
<glyph unicode="&#x11a;" horiz-adv-x="1126" d="M143 0v1544h883v-340h-481v-258h461v-328h-461v-278h481v-340h-883zM221 1946l94 148l258 -142l258 142l94 -148l-352 -276z" />
<glyph unicode="&#x11b;" horiz-adv-x="1249" d="M72 516q0 254 150 411.5t401 157.5q259 0 407 -163t148 -451v-16h-748q0 -108 58.5 -170t154.5 -62q60 0 117.5 32.5t83.5 86.5l280 -113q-76 -142 -190 -202t-297 -60q-270 0 -417.5 145t-147.5 404zM272 1454l94 148l258 -142l258 142l94 -148l-352 -276zM430 660h389 q-10 93 -63 146.5t-135 53.5q-83 0 -136 -57.5t-55 -142.5z" />
<glyph unicode="&#x11c;" horiz-adv-x="1724" d="M72 768q0 349 233 579t586 230q223 0 397.5 -89.5t292.5 -264.5l-362 -176q-65 89 -146 132.5t-182 43.5q-185 0 -293.5 -126.5t-108.5 -344.5q0 -206 106.5 -327.5t285.5 -121.5q156 0 253.5 71.5t112.5 192.5h-383v328h789v-98q0 -408 -196.5 -619t-575.5 -211 q-354 0 -581.5 224t-227.5 577zM510 1817l352 277l352 -277l-94 -147l-258 141l-258 -141z" />
<glyph unicode="&#x11d;" horiz-adv-x="1386" d="M72 541q0 256 129 400t356 144q117 0 200.5 -43t143.5 -133v144h367v-1096q0 -250 -152.5 -380t-445.5 -130q-237 0 -386 116t-149 292h385q0 -47 50 -77t128 -30q109 0 156 66.5t47 214.5v147q-49 -97 -129 -136.5t-227 -39.5q-215 0 -344 146.5t-129 394.5zM342 1325 l352 277l352 -277l-94 -147l-258 141l-258 -141zM461 541q0 -117 59 -180.5t166 -63.5q100 0 157.5 65t57.5 179q0 121 -55.5 184t-159.5 63q-105 0 -165 -64.5t-60 -182.5z" />
<glyph unicode="&#x11e;" horiz-adv-x="1724" d="M72 768q0 349 233 579t586 230q223 0 397.5 -89.5t292.5 -264.5l-362 -176q-65 89 -146 132.5t-182 43.5q-185 0 -293.5 -126.5t-108.5 -344.5q0 -206 106.5 -327.5t285.5 -121.5q156 0 253.5 71.5t112.5 192.5h-383v328h789v-98q0 -408 -196.5 -619t-575.5 -211 q-354 0 -581.5 224t-227.5 577zM524 1995l156 66q19 -78 65.5 -117t118.5 -39t116 38t64 118l158 -66q-39 -158 -120 -231.5t-218 -73.5q-141 0 -229.5 79.5t-110.5 225.5z" />
<glyph unicode="&#x11f;" horiz-adv-x="1386" d="M72 541q0 256 129 400t356 144q117 0 200.5 -43t143.5 -133v144h367v-1096q0 -250 -152.5 -380t-445.5 -130q-237 0 -386 116t-149 292h385q0 -47 50 -77t128 -30q109 0 156 66.5t47 214.5v147q-49 -97 -129 -136.5t-227 -39.5q-215 0 -344 146.5t-129 394.5zM354 1503 l156 66q19 -78 65.5 -117t118.5 -39t116 38t64 118l158 -66q-39 -158 -120 -231.5t-218 -73.5q-141 0 -229.5 79.5t-110.5 225.5zM461 541q0 -117 59 -180.5t166 -63.5q100 0 157.5 65t57.5 179q0 121 -55.5 184t-159.5 63q-105 0 -165 -64.5t-60 -182.5z" />
<glyph unicode="&#x120;" horiz-adv-x="1724" d="M72 768q0 349 233 579t586 230q223 0 397.5 -89.5t292.5 -264.5l-362 -176q-65 89 -146 132.5t-182 43.5q-185 0 -293.5 -126.5t-108.5 -344.5q0 -206 106.5 -327.5t285.5 -121.5q156 0 253.5 71.5t112.5 192.5h-383v328h789v-98q0 -408 -196.5 -619t-575.5 -211 q-354 0 -581.5 224t-227.5 577zM703 1831q0 64 48.5 112t113.5 48q66 0 112.5 -47t46.5 -113q0 -68 -45.5 -114.5t-113.5 -46.5t-115 47t-47 114z" />
<glyph unicode="&#x121;" horiz-adv-x="1386" d="M72 541q0 256 129 400t356 144q117 0 200.5 -43t143.5 -133v144h367v-1096q0 -250 -152.5 -380t-445.5 -130q-237 0 -386 116t-149 292h385q0 -47 50 -77t128 -30q109 0 156 66.5t47 214.5v147q-49 -97 -129 -136.5t-227 -39.5q-215 0 -344 146.5t-129 394.5zM461 541 q0 -117 59 -180.5t166 -63.5q100 0 157.5 65t57.5 179q0 121 -55.5 184t-159.5 63q-105 0 -165 -64.5t-60 -182.5zM535 1339q0 64 48.5 112t113.5 48q66 0 112.5 -47t46.5 -113q0 -68 -45.5 -114.5t-113.5 -46.5t-115 47t-47 114z" />
<glyph unicode="&#x122;" horiz-adv-x="1724" d="M72 768q0 349 233 579t586 230q223 0 397.5 -89.5t292.5 -264.5l-362 -176q-65 89 -146 132.5t-182 43.5q-185 0 -293.5 -126.5t-108.5 -344.5q0 -206 106.5 -327.5t285.5 -121.5q156 0 253.5 71.5t112.5 192.5h-383v328h789v-98q0 -408 -196.5 -619t-575.5 -211 q-354 0 -581.5 224t-227.5 577zM627 -444l256 397l204 -152l-323 -354z" />
<glyph unicode="&#x123;" horiz-adv-x="1386" d="M72 541q0 256 129 400t356 144q117 0 200.5 -43t143.5 -133v144h367v-1096q0 -250 -152.5 -380t-445.5 -130q-237 0 -386 116t-149 292h385q0 -47 50 -77t128 -30q109 0 156 66.5t47 214.5v147q-49 -97 -129 -136.5t-227 -39.5q-215 0 -344 146.5t-129 394.5zM461 541 q0 -117 59 -180.5t166 -63.5q100 0 157.5 65t57.5 179q0 121 -55.5 184t-159.5 63q-105 0 -165 -64.5t-60 -182.5zM525 1319l350 258l133 -201l-391 -198z" />
<glyph unicode="&#x124;" horiz-adv-x="1645" d="M143 0v1544h402v-598h555v598h401v-1544h-401v618h-555v-618h-402zM471 1817l352 277l352 -277l-94 -147l-258 141l-258 -141z" />
<glyph unicode="&#x125;" horiz-adv-x="1354" d="M-20 1929l352 277l352 -277l-94 -147l-258 141l-258 -141zM129 0v1690h373v-813q71 115 151 161.5t205 46.5q202 0 289.5 -114t87.5 -371v-600h-373v547q0 134 -36 187.5t-124 53.5q-104 0 -152 -87.5t-48 -274.5v-426h-373z" />
<glyph unicode="&#x128;" horiz-adv-x="664" d="M-32 1762q38 110 99 167.5t140 57.5q64 0 151 -52t103 -52q26 0 43 20t47 82l148 -88q-36 -109 -99 -168t-143 -59q-65 0 -149 52t-103 52q-23 0 -42.5 -23.5t-47.5 -78.5zM131 0v1544h401v-1544h-401z" />
<glyph unicode="&#x129;" horiz-adv-x="618" d="M-55 1270q38 110 99 167.5t140 57.5q64 0 151 -52t103 -52q26 0 43 20t47 82l148 -88q-36 -109 -99 -168t-143 -59q-65 0 -149 52t-103 52q-23 0 -42.5 -23.5t-47.5 -78.5zM123 0v1053h373v-1053h-373z" />
<glyph unicode="&#x12a;" horiz-adv-x="664" d="M12 1735v217h641v-217h-641zM131 0v1544h401v-1544h-401z" />
<glyph unicode="&#x12b;" horiz-adv-x="618" d="M-10 1243v217h641v-217h-641zM123 0v1053h373v-1053h-373z" />
<glyph unicode="&#x12c;" horiz-adv-x="664" d="M-6 1995l156 66q19 -78 65.5 -117t118.5 -39t116 38t64 118l158 -66q-39 -158 -120 -231.5t-218 -73.5q-141 0 -229.5 79.5t-110.5 225.5zM131 0v1544h401v-1544h-401z" />
<glyph unicode="&#x12d;" horiz-adv-x="618" d="M-29 1503l156 66q19 -78 65.5 -117t118.5 -39t116 38t64 118l158 -66q-39 -158 -120 -231.5t-218 -73.5q-141 0 -229.5 79.5t-110.5 225.5zM123 0v1053h373v-1053h-373z" />
<glyph unicode="&#x12e;" horiz-adv-x="664" d="M131 0v1544h401v-1544h-8q-68 -68 -101.5 -126.5t-33.5 -111.5q0 -44 33 -61.5t110 -17.5v-215q-213 0 -292.5 48t-79.5 177q0 73 44.5 154.5t125.5 152.5h-199z" />
<glyph unicode="&#x12f;" horiz-adv-x="618" d="M104 1372q0 84 60.5 144.5t144.5 60.5q85 0 145 -59.5t60 -145.5q0 -85 -60.5 -147t-144.5 -62q-83 0 -144 62.5t-61 146.5zM123 0v1053h373v-1053h-9q-68 -68 -101.5 -126.5t-33.5 -111.5q0 -44 33 -61.5t111 -17.5v-215q-214 0 -293.5 48t-79.5 177q0 73 44.5 154.5 t125.5 152.5h-170z" />
<glyph unicode="&#x130;" horiz-adv-x="664" d="M131 0v1544h401v-1544h-401zM172 1831q0 64 48.5 112t113.5 48q66 0 112.5 -47t46.5 -113q0 -68 -45.5 -114.5t-113.5 -46.5t-115 47t-47 114z" />
<glyph unicode="&#x131;" horiz-adv-x="618" d="M123 0v1053h373v-1053h-373z" />
<glyph unicode="&#x136;" horiz-adv-x="1552" d="M143 0v1544h402v-696l518 696h475l-598 -747l627 -797h-510l-512 721v-721h-402zM541 -444l256 397l204 -152l-323 -354z" />
<glyph unicode="&#x137;" horiz-adv-x="1409" d="M129 0v1690h373v-1094l383 457h463l-476 -504l519 -549h-492l-397 469v-469h-373zM469 -444l256 397l204 -152l-323 -354z" />
<glyph unicode="&#x139;" horiz-adv-x="1014" d="M143 0v1544h418v-1190h418v-354h-836zM185 1811l350 258l133 -201l-391 -198z" />
<glyph unicode="&#x13a;" horiz-adv-x="618" d="M123 0v1690h373v-1690h-373zM140 1923l350 258l133 -201l-391 -198z" />
<glyph unicode="&#x13b;" horiz-adv-x="1014" d="M143 0v1544h418v-1190h418v-354h-836zM273 -444l256 397l204 -152l-323 -354z" />
<glyph unicode="&#x13c;" horiz-adv-x="618" d="M74 -444l256 397l204 -152l-323 -354zM123 0v1690h373v-1690h-373z" />
<glyph unicode="&#x13d;" horiz-adv-x="1139" d="M143 0v1544h418v-1190h418v-354h-836zM643 1001l166 543h371l-248 -543h-289z" />
<glyph unicode="&#x13e;" horiz-adv-x="1073" d="M123 0v1690h373v-1690h-373zM578 1001l165 543h371l-248 -543h-288z" />
<glyph unicode="&#x13f;" horiz-adv-x="1716" d="M143 0v1544h418v-1190h418v-354h-836zM1153 756q0 87 61 148t150 61q90 0 151.5 -60.5t61.5 -148.5q0 -90 -61.5 -151.5t-151.5 -61.5q-88 0 -149.5 61.5t-61.5 151.5z" />
<glyph unicode="&#x140;" horiz-adv-x="1321" d="M123 0v1690h373v-1690h-373zM757 756q0 87 61 148t150 61q90 0 151.5 -60.5t61.5 -148.5q0 -90 -61.5 -151.5t-151.5 -61.5q-88 0 -149.5 61.5t-61.5 151.5z" />
<glyph unicode="&#x141;" horiz-adv-x="1092" d="M-20 690l235 162v692h418v-440l194 133l146 -221l-340 -234v-428h424v-354h-842v530l-90 -61z" />
<glyph unicode="&#x142;" horiz-adv-x="750" d="M-20 647l194 144v899h373v-672l90 67l133 -182l-223 -164v-739h-373v512l-61 -47z" />
<glyph unicode="&#x143;" horiz-adv-x="1804" d="M143 0v1544h404l713 -960v960h401v-1544h-401l-715 958v-958h-402zM734 1811l350 258l133 -201l-391 -198z" />
<glyph unicode="&#x144;" horiz-adv-x="1354" d="M129 0v1053h373v-176q71 115 151 161.5t205 46.5q202 0 289.5 -114t87.5 -371v-600h-373v547q0 134 -36 187.5t-124 53.5q-102 0 -151 -88.5t-49 -273.5v-426h-373zM508 1319l350 258l133 -201l-391 -198z" />
<glyph unicode="&#x145;" horiz-adv-x="1804" d="M143 0v1544h404l713 -960v960h401v-1544h-401l-715 958v-958h-402zM668 -444l256 397l204 -152l-323 -354z" />
<glyph unicode="&#x146;" horiz-adv-x="1354" d="M129 0v1053h373v-176q71 115 151 161.5t205 46.5q202 0 289.5 -114t87.5 -371v-600h-373v547q0 134 -36 187.5t-124 53.5q-102 0 -151 -88.5t-49 -273.5v-426h-373zM443 -444l256 397l204 -152l-323 -354z" />
<glyph unicode="&#x147;" horiz-adv-x="1804" d="M143 0v1544h404l713 -960v960h401v-1544h-401l-715 958v-958h-402zM551 1946l94 148l258 -142l258 142l94 -148l-352 -276z" />
<glyph unicode="&#x148;" horiz-adv-x="1354" d="M129 0v1053h373v-176q71 115 151 161.5t205 46.5q202 0 289.5 -114t87.5 -371v-600h-373v547q0 134 -36 187.5t-124 53.5q-102 0 -151 -88.5t-49 -273.5v-426h-373zM326 1454l94 148l258 -142l258 142l94 -148l-352 -276z" />
<glyph unicode="&#x14c;" horiz-adv-x="1817" d="M72 770q0 340 241.5 573.5t595.5 233.5q355 0 595.5 -233t240.5 -574t-240.5 -572t-595.5 -231q-356 0 -596.5 231t-240.5 572zM489 770q0 -178 118.5 -296t301.5 -118q182 0 300 118.5t118 295.5q0 178 -118.5 298t-299.5 120q-185 0 -302.5 -118.5t-117.5 -299.5z M588 1735v217h641v-217h-641z" />
<glyph unicode="&#x14d;" horiz-adv-x="1356" d="M72 526q0 237 174 398t432 161q264 0 435 -156.5t171 -402.5q0 -240 -171.5 -399.5t-434.5 -159.5q-266 0 -436 159t-170 400zM358 1243v217h641v-217h-641zM461 526q0 -107 58.5 -171t158.5 -64q96 0 156.5 64t60.5 171q0 100 -62 168t-155 68q-98 0 -157.5 -68 t-59.5 -168z" />
<glyph unicode="&#x14e;" horiz-adv-x="1817" d="M72 770q0 340 241.5 573.5t595.5 233.5q355 0 595.5 -233t240.5 -574t-240.5 -572t-595.5 -231q-356 0 -596.5 231t-240.5 572zM489 770q0 -178 118.5 -296t301.5 -118q182 0 300 118.5t118 295.5q0 178 -118.5 298t-299.5 120q-185 0 -302.5 -118.5t-117.5 -299.5z M569 1995l156 66q19 -78 65.5 -117t118.5 -39t116 38t64 118l158 -66q-39 -158 -120 -231.5t-218 -73.5q-141 0 -229.5 79.5t-110.5 225.5z" />
<glyph unicode="&#x14f;" horiz-adv-x="1356" d="M72 526q0 237 174 398t432 161q264 0 435 -156.5t171 -402.5q0 -240 -171.5 -399.5t-434.5 -159.5q-266 0 -436 159t-170 400zM340 1503l156 66q19 -78 65.5 -117t118.5 -39t116 38t64 118l158 -66q-39 -158 -120 -231.5t-218 -73.5q-141 0 -229.5 79.5t-110.5 225.5z M461 526q0 -107 58.5 -171t158.5 -64q96 0 156.5 64t60.5 171q0 100 -62 168t-155 68q-98 0 -157.5 -68t-59.5 -168z" />
<glyph unicode="&#x150;" horiz-adv-x="1817" d="M72 770q0 340 241.5 573.5t595.5 233.5q355 0 595.5 -233t240.5 -574t-240.5 -572t-595.5 -231q-356 0 -596.5 231t-240.5 572zM489 770q0 -178 118.5 -296t301.5 -118q182 0 300 118.5t118 295.5q0 178 -118.5 298t-299.5 120q-185 0 -302.5 -118.5t-117.5 -299.5z M579 1752l135 342l228 -119l-209 -305zM905 1788l217 306l195 -168l-283 -256z" />
<glyph unicode="&#x151;" horiz-adv-x="1356" d="M72 526q0 237 174 398t432 161q264 0 435 -156.5t171 -402.5q0 -240 -171.5 -399.5t-434.5 -159.5q-266 0 -436 159t-170 400zM350 1260l135 342l228 -119l-209 -305zM461 526q0 -107 58.5 -171t158.5 -64q96 0 156.5 64t60.5 171q0 100 -62 168t-155 68 q-98 0 -157.5 -68t-59.5 -168zM676 1296l217 306l195 -168l-283 -256z" />
<glyph unicode="&#x152;" horiz-adv-x="2335" d="M72 770q0 340 241.5 573.5t595.5 233.5q132 0 242 -42t176 -118v127h907v-340h-505v-258h485v-328h-485v-278h505v-340h-907v125q-75 -75 -183.5 -116.5t-234.5 -41.5q-356 0 -596.5 231t-240.5 572zM489 770q0 -178 118.5 -296t301.5 -118q182 0 300 118.5t118 295.5 q0 178 -118.5 298t-299.5 120q-185 0 -302.5 -118.5t-117.5 -299.5z" />
<glyph unicode="&#x153;" horiz-adv-x="2093" d="M72 526q0 241 164 400t417 159q128 0 239.5 -53.5t176.5 -144.5q61 98 159 148t228 50q261 0 413 -164.5t152 -449.5v-16h-768q0 -106 62.5 -169t161.5 -63q61 0 123 33t88 86l280 -113q-75 -139 -193 -200.5t-305 -61.5q-138 0 -240.5 50t-164.5 147 q-66 -91 -175.5 -144t-236.5 -53q-261 0 -421 156t-160 403zM461 526q0 -107 58.5 -171t158.5 -64q96 0 156.5 64t60.5 171q0 100 -62 168t-155 68q-98 0 -157.5 -68t-59.5 -168zM1253 660h410q-9 90 -66.5 145t-142.5 55t-142 -59t-59 -141z" />
<glyph unicode="&#x154;" horiz-adv-x="1393" d="M143 0v1544h471q376 0 528 -117.5t152 -371.5q0 -178 -88 -290.5t-256 -148.5l422 -616h-473l-354 600v-600h-402zM527 1811l350 258l133 -201l-391 -198zM545 807h73q133 0 196 48t63 149q0 114 -57.5 163.5t-194.5 49.5h-80v-410z" />
<glyph unicode="&#x155;" horiz-adv-x="928" d="M129 0v1053h371v-203q57 120 136.5 177.5t184.5 57.5q20 0 46.5 -1.5t60.5 -4.5l-38 -364q-40 11 -70 15.5t-58 4.5q-132 0 -197 -79.5t-65 -239.5v-416h-371zM295 1319l350 258l133 -201l-391 -198z" />
<glyph unicode="&#x156;" horiz-adv-x="1393" d="M143 0v1544h471q376 0 528 -117.5t152 -371.5q0 -178 -88 -290.5t-256 -148.5l422 -616h-473l-354 600v-600h-402zM461 -444l256 397l204 -152l-323 -354zM545 807h73q133 0 196 48t63 149q0 114 -57.5 163.5t-194.5 49.5h-80v-410z" />
<glyph unicode="&#x157;" horiz-adv-x="928" d="M88 -444l256 397l204 -152l-323 -354zM129 0v1053h371v-203q57 120 136.5 177.5t184.5 57.5q20 0 46.5 -1.5t60.5 -4.5l-38 -364q-40 11 -70 15.5t-58 4.5q-132 0 -197 -79.5t-65 -239.5v-416h-371z" />
<glyph unicode="&#x158;" horiz-adv-x="1393" d="M143 0v1544h471q376 0 528 -117.5t152 -371.5q0 -178 -88 -290.5t-256 -148.5l422 -616h-473l-354 600v-600h-402zM344 1946l94 148l258 -142l258 142l94 -148l-352 -276zM545 807h73q133 0 196 48t63 149q0 114 -57.5 163.5t-194.5 49.5h-80v-410z" />
<glyph unicode="&#x159;" horiz-adv-x="928" d="M113 1454l94 148l258 -142l258 142l94 -148l-352 -276zM129 0v1053h371v-203q57 120 136.5 177.5t184.5 57.5q20 0 46.5 -1.5t60.5 -4.5l-38 -364q-40 11 -70 15.5t-58 4.5q-132 0 -197 -79.5t-65 -239.5v-416h-371z" />
<glyph unicode="&#x15a;" horiz-adv-x="1262" d="M31 193l188 290q85 -96 174 -142t191 -46q84 0 137 44t53 114q0 76 -48.5 118.5t-209.5 83.5q-215 56 -315.5 163.5t-100.5 281.5q0 214 147.5 345.5t387.5 131.5q129 0 242 -34t213 -103l-132 -310q-68 58 -143.5 88.5t-150.5 30.5q-80 0 -127.5 -31.5t-47.5 -84.5 q0 -103 227 -162q15 -4 23 -6q233 -62 335 -175t102 -303q0 -237 -164 -378.5t-437 -141.5q-160 0 -289 53.5t-255 172.5zM461 1811l350 258l133 -201l-391 -198z" />
<glyph unicode="&#x15b;" horiz-adv-x="1051" d="M57 96l78 285q79 -70 178 -109t199 -39q69 0 99 19t30 61q0 73 -143 107q-43 10 -68 16q-165 43 -242 119.5t-77 196.5q0 152 115 242.5t313 90.5q114 0 216 -23t206 -73l-76 -256q-70 48 -151 75.5t-154 27.5q-65 0 -97 -18.5t-32 -55.5q0 -56 148 -95q60 -15 95 -26 q160 -49 229.5 -124t69.5 -195q0 -162 -123 -258.5t-331 -96.5q-138 0 -256.5 32t-225.5 97zM357 1319l350 258l133 -201l-391 -198z" />
<glyph unicode="&#x15c;" horiz-adv-x="1262" d="M31 193l188 290q85 -96 174 -142t191 -46q84 0 137 44t53 114q0 76 -48.5 118.5t-209.5 83.5q-215 56 -315.5 163.5t-100.5 281.5q0 214 147.5 345.5t387.5 131.5q129 0 242 -34t213 -103l-132 -310q-68 58 -143.5 88.5t-150.5 30.5q-80 0 -127.5 -31.5t-47.5 -84.5 q0 -103 227 -162q15 -4 23 -6q233 -62 335 -175t102 -303q0 -237 -164 -378.5t-437 -141.5q-160 0 -289 53.5t-255 172.5zM279 1817l352 277l352 -277l-94 -147l-258 141l-258 -141z" />
<glyph unicode="&#x15d;" horiz-adv-x="1051" d="M57 96l78 285q79 -70 178 -109t199 -39q69 0 99 19t30 61q0 73 -143 107q-43 10 -68 16q-165 43 -242 119.5t-77 196.5q0 152 115 242.5t313 90.5q114 0 216 -23t206 -73l-76 -256q-70 48 -151 75.5t-154 27.5q-65 0 -97 -18.5t-32 -55.5q0 -56 148 -95q60 -15 95 -26 q160 -49 229.5 -124t69.5 -195q0 -162 -123 -258.5t-331 -96.5q-138 0 -256.5 32t-225.5 97zM174 1325l352 277l352 -277l-94 -147l-258 141l-258 -141z" />
<glyph unicode="&#x15e;" horiz-adv-x="1262" d="M31 193l188 290q85 -96 174 -142t191 -46q84 0 137 44t53 114q0 76 -48.5 118.5t-209.5 83.5q-215 56 -315.5 163.5t-100.5 281.5q0 214 147.5 345.5t387.5 131.5q129 0 242 -34t213 -103l-132 -310q-68 58 -143.5 88.5t-150.5 30.5q-80 0 -127.5 -31.5t-47.5 -84.5 q0 -103 227 -162q15 -4 23 -6q233 -62 335 -175t102 -303q0 -237 -164 -378.5t-437 -141.5q-160 0 -289 53.5t-255 172.5zM396 -444l256 397l204 -152l-323 -354z" />
<glyph unicode="&#x15f;" horiz-adv-x="1051" d="M57 96l78 285q79 -70 178 -109t199 -39q69 0 99 19t30 61q0 73 -143 107q-43 10 -68 16q-165 43 -242 119.5t-77 196.5q0 152 115 242.5t313 90.5q114 0 216 -23t206 -73l-76 -256q-70 48 -151 75.5t-154 27.5q-65 0 -97 -18.5t-32 -55.5q0 -56 148 -95q60 -15 95 -26 q160 -49 229.5 -124t69.5 -195q0 -162 -123 -258.5t-331 -96.5q-138 0 -256.5 32t-225.5 97zM291 -444l256 397l204 -152l-323 -354z" />
<glyph unicode="&#x160;" horiz-adv-x="1262" d="M31 193l188 290q85 -96 174 -142t191 -46q84 0 137 44t53 114q0 76 -48.5 118.5t-209.5 83.5q-215 56 -315.5 163.5t-100.5 281.5q0 214 147.5 345.5t387.5 131.5q129 0 242 -34t213 -103l-132 -310q-68 58 -143.5 88.5t-150.5 30.5q-80 0 -127.5 -31.5t-47.5 -84.5 q0 -103 227 -162q15 -4 23 -6q233 -62 335 -175t102 -303q0 -237 -164 -378.5t-437 -141.5q-160 0 -289 53.5t-255 172.5zM279 1946l94 148l258 -142l258 142l94 -148l-352 -276z" />
<glyph unicode="&#x161;" horiz-adv-x="1051" d="M57 96l78 285q79 -70 178 -109t199 -39q69 0 99 19t30 61q0 73 -143 107q-43 10 -68 16q-165 43 -242 119.5t-77 196.5q0 152 115 242.5t313 90.5q114 0 216 -23t206 -73l-76 -256q-70 48 -151 75.5t-154 27.5q-65 0 -97 -18.5t-32 -55.5q0 -56 148 -95q60 -15 95 -26 q160 -49 229.5 -124t69.5 -195q0 -162 -123 -258.5t-331 -96.5q-138 0 -256.5 32t-225.5 97zM174 1454l94 148l258 -142l258 142l94 -148l-352 -276z" />
<glyph unicode="&#x162;" horiz-adv-x="1092" d="M31 1190v354h1030v-354h-313v-1190h-402v1190h-315zM312 -444l256 397l204 -152l-323 -354z" />
<glyph unicode="&#x163;" horiz-adv-x="737" d="M51 756v297h123v317h373v-317h180v-297h-180v-756h-373v756h-123zM134 -444l256 397l204 -152l-323 -354z" />
<glyph unicode="&#x164;" horiz-adv-x="1092" d="M31 1190v354h1030v-354h-313v-1190h-402v1190h-315zM195 1946l94 148l258 -142l258 142l94 -148l-352 -276z" />
<glyph unicode="&#x165;" horiz-adv-x="1104" d="M51 756v297h123v317h373v-317h180v-297h-180v-756h-373v756h-123zM629 1135l145 409h371l-227 -409h-289z" />
<glyph unicode="&#x168;" horiz-adv-x="1593" d="M133 713v831h402v-835q0 -228 57 -307.5t205 -79.5q147 0 204.5 79.5t57.5 307.5v835h401v-831q0 -430 -148.5 -588t-514.5 -158q-367 0 -515.5 158t-148.5 588zM433 1762q38 110 99 167.5t140 57.5q64 0 151 -52t103 -52q26 0 43 20t47 82l148 -88q-36 -109 -99 -168 t-143 -59q-65 0 -149 52t-103 52q-23 0 -42.5 -23.5t-47.5 -78.5z" />
<glyph unicode="&#x169;" horiz-adv-x="1350" d="M119 524v529h373v-537q0 -139 41 -195.5t137 -56.5q99 0 143.5 59t44.5 193v537h373v-529q0 -289 -133.5 -423t-421.5 -134q-289 0 -423 133.5t-134 423.5zM310 1270q38 110 99 167.5t140 57.5q64 0 151 -52t103 -52q26 0 43 20t47 82l148 -88q-36 -109 -99 -168 t-143 -59q-65 0 -149 52t-103 52q-23 0 -42.5 -23.5t-47.5 -78.5z" />
<glyph unicode="&#x16a;" horiz-adv-x="1593" d="M133 713v831h402v-835q0 -228 57 -307.5t205 -79.5q147 0 204.5 79.5t57.5 307.5v835h401v-831q0 -430 -148.5 -588t-514.5 -158q-367 0 -515.5 158t-148.5 588zM477 1735v217h641v-217h-641z" />
<glyph unicode="&#x16b;" horiz-adv-x="1350" d="M119 524v529h373v-537q0 -139 41 -195.5t137 -56.5q99 0 143.5 59t44.5 193v537h373v-529q0 -289 -133.5 -423t-421.5 -134q-289 0 -423 133.5t-134 423.5zM354 1243v217h641v-217h-641z" />
<glyph unicode="&#x16c;" horiz-adv-x="1593" d="M133 713v831h402v-835q0 -228 57 -307.5t205 -79.5q147 0 204.5 79.5t57.5 307.5v835h401v-831q0 -430 -148.5 -588t-514.5 -158q-367 0 -515.5 158t-148.5 588zM459 1995l156 66q19 -78 65.5 -117t118.5 -39t116 38t64 118l158 -66q-39 -158 -120 -231.5t-218 -73.5 q-141 0 -229.5 79.5t-110.5 225.5z" />
<glyph unicode="&#x16d;" horiz-adv-x="1350" d="M119 524v529h373v-537q0 -139 41 -195.5t137 -56.5q99 0 143.5 59t44.5 193v537h373v-529q0 -289 -133.5 -423t-421.5 -134q-289 0 -423 133.5t-134 423.5zM336 1503l156 66q19 -78 65.5 -117t118.5 -39t116 38t64 118l158 -66q-39 -158 -120 -231.5t-218 -73.5 q-141 0 -229.5 79.5t-110.5 225.5z" />
<glyph unicode="&#x16e;" horiz-adv-x="1593" d="M133 713v831h402v-835q0 -228 57 -307.5t205 -79.5q147 0 204.5 79.5t57.5 307.5v835h401v-831q0 -430 -148.5 -588t-514.5 -158q-367 0 -515.5 158t-148.5 588zM514 1883q0 105 82 174t203 69q120 0 202.5 -69.5t82.5 -173.5q0 -106 -81.5 -174t-203.5 -68 q-123 0 -204 67.5t-81 174.5zM684 1883q0 -43 30.5 -67t84.5 -24t84.5 24t30.5 67t-31 67.5t-84 24.5q-50 0 -82.5 -26t-32.5 -66z" />
<glyph unicode="&#x16f;" horiz-adv-x="1350" d="M119 524v529h373v-537q0 -139 41 -195.5t137 -56.5q99 0 143.5 59t44.5 193v537h373v-529q0 -289 -133.5 -423t-421.5 -134q-289 0 -423 133.5t-134 423.5zM391 1391q0 105 82 174t203 69q120 0 202.5 -69.5t82.5 -173.5q0 -106 -81.5 -174t-203.5 -68q-123 0 -204 67.5 t-81 174.5zM561 1391q0 -43 30.5 -67t84.5 -24t84.5 24t30.5 67t-31 67.5t-84 24.5q-50 0 -82.5 -26t-32.5 -66z" />
<glyph unicode="&#x170;" horiz-adv-x="1593" d="M133 713v831h402v-835q0 -228 57 -307.5t205 -79.5q147 0 204.5 79.5t57.5 307.5v835h401v-831q0 -430 -148.5 -588t-514.5 -158q-367 0 -515.5 158t-148.5 588zM469 1752l135 342l228 -119l-209 -305zM795 1788l217 306l195 -168l-283 -256z" />
<glyph unicode="&#x171;" horiz-adv-x="1350" d="M119 524v529h373v-537q0 -139 41 -195.5t137 -56.5q99 0 143.5 59t44.5 193v537h373v-529q0 -289 -133.5 -423t-421.5 -134q-289 0 -423 133.5t-134 423.5zM346 1260l135 342l228 -119l-209 -305zM672 1296l217 306l195 -168l-283 -256z" />
<glyph unicode="&#x172;" horiz-adv-x="1593" d="M133 713v831h402v-835q0 -228 57 -307.5t205 -79.5q147 0 204.5 79.5t57.5 307.5v835h401v-831q0 -386 -113.5 -546t-385.5 -192q-58 -62 -85.5 -114.5t-27.5 -98.5q0 -44 33 -61.5t110 -17.5v-215q-213 0 -293 48t-80 177q0 65 35.5 137.5t100.5 136.5 q-342 8 -481.5 167t-139.5 579z" />
<glyph unicode="&#x173;" horiz-adv-x="1350" d="M119 524v529h373v-537q0 -139 41 -195.5t137 -56.5q99 0 143.5 59t44.5 193v537h373v-529q0 -248 -98 -381.5t-304 -165.5q-57 -61 -85.5 -114.5t-28.5 -100.5q0 -43 32 -61t107 -18v-215q-210 0 -289.5 48.5t-79.5 176.5q0 65 35.5 137.5t100.5 138.5 q-261 12 -381.5 145.5t-120.5 409.5z" />
<glyph unicode="&#x174;" horiz-adv-x="2288" d="M-10 1544h436l293 -973l260 973h330l260 -973l293 973h436l-549 -1544h-338l-266 903l-268 -903h-338zM793 1817l352 277l352 -277l-94 -147l-258 141l-258 -141z" />
<glyph unicode="&#x175;" horiz-adv-x="2040" d="M10 1053h398l256 -621l227 621h270l234 -621l237 621h398l-480 -1053h-282l-236 618l-244 -618h-303zM668 1325l352 277l352 -277l-94 -147l-258 141l-258 -141z" />
<glyph unicode="&#x176;" horiz-adv-x="1462" d="M-6 1544h479l258 -508l258 508h479l-538 -846v-698h-398v698zM379 1817l352 277l352 -277l-94 -147l-258 141l-258 -141z" />
<glyph unicode="&#x177;" horiz-adv-x="1339" d="M20 1053h414l242 -609l244 609h399l-692 -1585h-416l278 585zM332 1325l352 277l352 -277l-94 -147l-258 141l-258 -141z" />
<glyph unicode="&#x178;" horiz-adv-x="1462" d="M-6 1544h479l258 -508l258 508h479l-538 -846v-698h-398v698zM353 1831q0 64 48.5 112t112.5 48q66 0 113 -47t47 -113q0 -68 -46 -114.5t-114 -46.5q-67 0 -114 47t-47 114zM789 1831q0 64 48.5 112t113.5 48q66 0 112.5 -47t46.5 -113q0 -68 -45.5 -114.5t-113.5 -46.5 t-115 47t-47 114z" />
<glyph unicode="&#x179;" horiz-adv-x="1448" d="M10 0l746 1206h-619v338h1290l-743 -1204h676v-340h-1350zM584 1811l350 258l133 -201l-391 -198z" />
<glyph unicode="&#x17a;" horiz-adv-x="1145" d="M10 0l504 756h-438v297h1052l-534 -756h487v-297h-1071zM416 1319l350 258l133 -201l-391 -198z" />
<glyph unicode="&#x17b;" horiz-adv-x="1448" d="M10 0l746 1206h-619v338h1290l-743 -1204h676v-340h-1350zM594 1831q0 64 48.5 112t113.5 48q66 0 112.5 -47t46.5 -113q0 -68 -45.5 -114.5t-113.5 -46.5t-115 47t-47 114z" />
<glyph unicode="&#x17c;" horiz-adv-x="1145" d="M10 0l504 756h-438v297h1052l-534 -756h487v-297h-1071zM426 1339q0 64 48.5 112t113.5 48q66 0 112.5 -47t46.5 -113q0 -68 -45.5 -114.5t-113.5 -46.5t-115 47t-47 114z" />
<glyph unicode="&#x17d;" horiz-adv-x="1448" d="M10 0l746 1206h-619v338h1290l-743 -1204h676v-340h-1350zM402 1946l94 148l258 -142l258 142l94 -148l-352 -276z" />
<glyph unicode="&#x17e;" horiz-adv-x="1145" d="M10 0l504 756h-438v297h1052l-534 -756h487v-297h-1071zM234 1454l94 148l258 -142l258 142l94 -148l-352 -276z" />
<glyph unicode="&#x192;" d="M111 -309l63 282q18 -4 35 -6t33 -2q126 0 186 363q8 49 12 75l60 349h-195l41 258h197l26 157q39 232 134 321t282 89q46 0 95.5 -7.5t97.5 -21.5l-52 -293q-32 14 -52.5 19.5t-37.5 5.5q-51 0 -78.5 -33t-39.5 -114l-21 -123h188l-43 -258h-190l-82 -496 q-60 -365 -161.5 -476.5t-319.5 -111.5q-38 0 -80 5.5t-98 17.5z" />
<glyph unicode="&#x2c6;" horiz-adv-x="1208" d="M252 1325l352 277l352 -277l-94 -147l-258 141l-258 -141z" />
<glyph unicode="&#x2da;" horiz-adv-x="936" d="M184 1391q0 105 82 174t203 69q120 0 202.5 -69.5t82.5 -173.5q0 -106 -81.5 -174t-203.5 -68q-123 0 -204 67.5t-81 174.5zM354 1391q0 -43 30.5 -67t84.5 -24t84.5 24t30.5 67t-31 67.5t-84 24.5q-50 0 -82.5 -26t-32.5 -66z" />
<glyph unicode="&#x2dc;" horiz-adv-x="1124" d="M197 1270q38 110 99 167.5t140 57.5q64 0 151 -52t103 -52q26 0 43 20t47 82l148 -88q-36 -109 -99 -168t-143 -59q-65 0 -149 52t-103 52q-23 0 -42.5 -23.5t-47.5 -78.5z" />
<glyph unicode="&#x2000;" horiz-adv-x="1103" />
<glyph unicode="&#x2001;" horiz-adv-x="2206" />
<glyph unicode="&#x2002;" horiz-adv-x="1103" />
<glyph unicode="&#x2003;" horiz-adv-x="2206" />
<glyph unicode="&#x2004;" horiz-adv-x="735" />
<glyph unicode="&#x2005;" horiz-adv-x="551" />
<glyph unicode="&#x2006;" horiz-adv-x="367" />
<glyph unicode="&#x2007;" horiz-adv-x="367" />
<glyph unicode="&#x2008;" horiz-adv-x="275" />
<glyph unicode="&#x2009;" horiz-adv-x="441" />
<glyph unicode="&#x200a;" horiz-adv-x="122" />
<glyph unicode="&#x2010;" horiz-adv-x="803" d="M66 377v319h671v-319h-671z" />
<glyph unicode="&#x2011;" horiz-adv-x="803" d="M66 377v319h671v-319h-671z" />
<glyph unicode="&#x2012;" horiz-adv-x="803" d="M66 377v319h671v-319h-671z" />
<glyph unicode="&#x2013;" horiz-adv-x="1024" d="M0 383v285h1024v-285h-1024z" />
<glyph unicode="&#x2014;" horiz-adv-x="2048" d="M205 383v285h1638v-285h-1638z" />
<glyph unicode="&#x2018;" horiz-adv-x="762" d="M70 889l323 655h289l-221 -655h-391z" />
<glyph unicode="&#x2019;" horiz-adv-x="762" d="M80 889l221 655h391l-323 -655h-289z" />
<glyph unicode="&#x201a;" horiz-adv-x="692" d="M-10 -297l221 655h391l-323 -655h-289z" />
<glyph unicode="&#x201c;" horiz-adv-x="1286" d="M70 889l323 655h289l-221 -655h-391zM594 889l324 655h288l-221 -655h-391z" />
<glyph unicode="&#x201d;" horiz-adv-x="1286" d="M70 889l221 655h391l-324 -655h-288zM594 889l221 655h391l-323 -655h-289z" />
<glyph unicode="&#x201e;" horiz-adv-x="1217" d="M-10 -297l221 655h391l-323 -655h-289zM514 -297l221 655h391l-323 -655h-289z" />
<glyph unicode="&#x2026;" horiz-adv-x="2048" d="M129 180q0 88 61 148.5t150 60.5q90 0 151.5 -60t61.5 -149q0 -90 -61.5 -151.5t-151.5 -61.5q-89 0 -150 62t-61 151zM813 180q0 88 61 148.5t150 60.5q90 0 151.5 -60t61.5 -149q0 -90 -61.5 -151.5t-151.5 -61.5q-89 0 -150 62t-61 151zM1497 180q0 88 61 148.5 t150 60.5q90 0 151.5 -60t61.5 -149q0 -90 -61.5 -151.5t-151.5 -61.5q-89 0 -150 62t-61 151z" />
<glyph unicode="&#x202f;" horiz-adv-x="441" />
<glyph unicode="&#x2039;" horiz-adv-x="725" d="M68 524l374 512l201 -145l-276 -367l276 -370l-201 -140z" />
<glyph unicode="&#x203a;" horiz-adv-x="725" d="M82 154l274 370l-274 367l199 145l376 -512l-376 -510z" />
<glyph unicode="&#x205f;" horiz-adv-x="551" />
<glyph unicode="&#x20ac;" d="M20 545l52 147l145 1q-1 14 -1.5 30.5t-0.5 50.5q0 15 1 33t3 53h-199l52 148h168q58 264 242 416.5t438 152.5q120 0 222.5 -25t164.5 -71v-402q-81 73 -167 108.5t-179 35.5q-106 0 -186 -56t-122 -159h549l-51 -148h-532q-3 -31 -4 -50t-1 -36q0 -14 1 -31.5t4 -50.5 h481l-51 -147h-400q40 -110 119 -166.5t193 -56.5q99 0 193.5 38t152.5 105v-402q-76 -48 -171.5 -72t-215.5 -24q-267 0 -447.5 152.5t-234.5 425.5h-218z" />
<glyph unicode="&#x2122;" horiz-adv-x="1925" d="M14 1329v215h742v-215h-238v-635h-266v635h-238zM815 694v850h346l187 -434l182 434h346v-850h-256v527l-219 -527h-107l-223 529v-529h-256z" />
<glyph unicode="&#xe000;" horiz-adv-x="1055" d="M0 0v1055h1055v-1055h-1055z" />
</font>
</defs>
</svg>
